<svg width="20" height="20" viewBox="0 0 20 20" fill="none" xmlns="http://www.w3.org/2000/svg">
<path d="M9.82992 3.34467L9.99992 3.33301C10.302 3.33302 10.5938 3.44241 10.8215 3.64095C11.0491 3.83949 11.1972 4.11375 11.2383 4.41301L11.2499 4.58301V8.74801L15.4166 8.74967C15.7186 8.74969 16.0105 8.85908 16.2381 9.05762C16.4658 9.25616 16.6138 9.53042 16.6549 9.82967L16.6666 9.99967C16.6666 10.3017 16.5572 10.5936 16.3586 10.8212C16.1601 11.0489 15.8858 11.1969 15.5866 11.238L15.4166 11.2497L11.2499 11.248V15.4163C11.2499 15.7184 11.1405 16.0102 10.942 16.2379C10.7434 16.4655 10.4692 16.6136 10.1699 16.6547L9.99992 16.6663C9.69786 16.6663 9.40601 16.5569 9.17837 16.3584C8.95072 16.1599 8.80267 15.8856 8.76158 15.5863L8.74992 15.4163V11.248L4.58325 11.2497C4.28119 11.2497 3.98935 11.1403 3.7617 10.9417C3.53405 10.7432 3.386 10.4689 3.34492 10.1697L3.33325 9.99967C3.33326 9.69761 3.44266 9.40577 3.6412 9.17812C3.83974 8.95048 4.114 8.80242 4.41325 8.76134L4.58325 8.74967L8.74992 8.74801V4.58301C8.74993 4.28095 8.85932 3.9891 9.05786 3.76146C9.2564 3.53381 9.53066 3.38575 9.82992 3.34467L9.99992 3.33301L9.82992 3.34467Z" fill="#0CA2D9"/>
</svg>
