<svg width="20" height="11" viewBox="0 0 20 11" fill="none" xmlns="http://www.w3.org/2000/svg">
<path d="M0 5.5C0 2.46 2.46 0 5.5 0H16C18.21 0 20 1.79 20 4C20 6.21 18.21 8 16 8H7.5C6.83696 8 6.20107 7.73661 5.73223 7.26777C5.26339 6.79893 5 6.16304 5 5.5C5 4.83696 5.26339 4.20107 5.73223 3.73223C6.20107 3.26339 6.83696 3 7.5 3H15V5H7.41C6.86 5 6.86 6 7.41 6H16C17.1 6 18 5.1 18 4C18 2.9 17.1 2 16 2H5.5C3.57 2 2 3.57 2 5.5C2 7.43 3.57 9 5.5 9H15V11H5.5C2.46 11 0 8.54 0 5.5Z" fill="#7C7C7C"/>
</svg>
