<svg xmlns="http://www.w3.org/2000/svg" xmlns:xlink="http://www.w3.org/1999/xlink" width="1440" height="1023" fill="none"><path d="M.443 1022H1440V.001H.443v1022z" fill="#0077a1"/><path style="mix-blend-mode:multiply" opacity=".3" d="M164.973 423.782c48.542-5.232 99.176-6.295 144.32 13.43 46.45 20.318 82.535 60.544 125.74 87.647 88.14 55.188 198.736 51.1 298.18 25.816C937.17 498.736 1116.7 365.6 1261.72 204.236c57.2-63.69 109.74-131.97 157.13-204.236H0v457.12c53.99-16.135 109.186-27.288 164.973-33.338z" fill="url(#A)"/><path style="mix-blend-mode:multiply" opacity=".3" d="M86.26 697.33c20.173 34.134 52.975 61.708 93.148 55.474 9.9-1.803 19.437-5.398 28.197-10.63 17.274-9.648 30.403-25.49 47.793-34.912 12.84-6.95 27.37-6.58 40.423-12.877 10.31-4.747 18.9-12.93 24.453-23.322 1.208-2.432 2.204-4.977 2.975-7.603H74.512c2.534 12.08 5.374 23.097 11.747 33.87z" fill="url(#B)" fill-opacity=".5"/><g fill="#fff"><path d="M1275.38 86c-1.87 0-3.38 1.61-3.38 3.597s1.5 3.597 3.38 3.597c1.86 0 3.38-1.61 3.38-3.597S1277.24 86 1275.38 86z"/><use xlink:href="#G"/><path d="M326.608 346.97c-1.866 0-3.378 1.6-3.378 3.597s1.512 3.598 3.378 3.598 3.378-1.61 3.378-3.598-1.512-3.597-3.378-3.597z"/><use xlink:href="#G" x="130.05" y="355.758"/><use xlink:href="#H"/><path d="M1273.13 280.988c-1.87 0-3.38 1.6-3.38 3.598s1.5 3.597 3.38 3.597c1.86 0 3.37-1.6 3.37-3.597s-1.5-3.598-3.37-3.598zm-965.63 94.7c-1.866 0-3.378 1.6-3.378 3.598s1.512 3.597 3.378 3.597 3.378-1.6 3.378-3.597-1.512-3.598-3.378-3.598z"/><use xlink:href="#H" x="-92.497" y="-49.894"/><path d="M1273.13 748.083c-.57 0-1.02.485-1.02 1.083s.45 1.084 1.02 1.084c.56 0 1-.485 1-1.084s-.45-1.083-1-1.083zm-828.9 228.15c-.562 0-1.017.485-1.017 1.083s.455 1.084 1.017 1.084 1.017-.485 1.017-1.084-.455-1.083-1.017-1.083zm-311.695-169.51c-.56 0-1.017.485-1.017 1.084s.456 1.083 1.017 1.083 1.018-.485 1.018-1.083-.456-1.084-1.018-1.084zM98.333 225.76c-.562 0-1.017.485-1.017 1.083s.455 1.084 1.017 1.084 1.017-.486 1.017-1.084-.456-1.083-1.017-1.083zM1338.37 32.908c-.57 0-1.02.485-1.02 1.083s.45 1.083 1.02 1.083c.56 0 1-.485 1-1.083s-.45-1.083-1-1.083zm-44.55 677.218c-.5 0-.92.44-.92.98s.4.98.92.98.92-.44.92-.98-.4-.98-.92-.98zM1254.5 303.84c-.5 0-.92.44-.92.98s.4.98.92.98.92-.44.92-.98-.4-.98-.92-.98zm-59.2 68.168c1.64-12.407 8.3-22.157 16.72-24.528.1-.054.18-.134.24-.234a.73.73 0 0 0 .08-.328c0-.116-.03-.23-.08-.33-.06-.1-.14-.18-.24-.233-8.44-2.392-15.08-12.264-16.72-24.528 0-.634-.7-.634-.76 0-1.64 12.407-8.3 22.157-16.72 24.528-.1.053-.18.134-.24.233a.74.74 0 0 0-.08.33.73.73 0 0 0 .08.328c.06.1.14.18.24.234 8.44 2.4 15.1 12.264 16.72 24.528.07.715.7.715.76 0zm-835.545 402.28c1.632-12.407 8.292-22.157 16.718-24.528a.6.6 0 0 0 .234-.233.66.66 0 0 0 .086-.329.66.66 0 0 0-.086-.329.6.6 0 0 0-.234-.233c-8.445-2.392-15.086-12.264-16.718-24.528 0-.634-.7-.634-.768 0-1.63 12.407-8.292 22.157-16.718 24.528-.096.053-.177.134-.234.233a.67.67 0 0 0 0 .658.61.61 0 0 0 .234.233c8.446 2.392 15.106 12.264 16.718 24.528.077.634.7.634.768 0zm789.015 150.05c-1.87 0-3.38 1.6-3.38 3.597s1.5 3.598 3.38 3.598c1.86 0 3.38-1.6 3.38-3.598s-1.52-3.597-3.38-3.597z"/></g><path style="mix-blend-mode:multiply" opacity=".3" d="M98.49 702.386c20.18 34.2 52.992 61.827 93.177 55.58 9.903-1.806 19.443-5.408 28.205-10.65 17.28-9.667 30.413-25.538 47.808-34.98 12.845-6.963 27.38-6.595 40.436-12.902 10.312-4.757 18.896-12.957 24.46-23.368a46.68 46.68 0 0 0 2.976-7.618H86.74c2.534 12.103 5.376 23.142 11.75 33.935z" fill="url(#C)"/><g fill="#fff"><path d="M1088.48 422.5c-1.87 0-3.38 1.614-3.38 3.605s1.5 3.604 3.38 3.604 3.38-1.614 3.38-3.604-1.5-3.605-3.38-3.605zM935.38 873c-1.867 0-3.38 1.614-3.38 3.604s1.513 3.605 3.38 3.605 3.38-1.614 3.38-3.605-1.513-3.604-3.38-3.604z"/><use xlink:href="#I"/><use xlink:href="#J"/><path d="M214.514 871.506c-1.866 0-3.38 1.614-3.38 3.604s1.513 3.605 3.38 3.605 3.38-1.614 3.38-3.605-1.513-3.604-3.38-3.604z"/><use xlink:href="#J" x="81.6" y="-277.58"/><path d="M319.788 380.12c-1.866 0-3.38 1.614-3.38 3.604s1.513 3.605 3.38 3.605 3.38-1.614 3.38-3.605-1.512-3.604-3.38-3.604z"/><use xlink:href="#I" x="-216.91" y="470.17"/><path d="M1285.72 753.236c-.56 0-1.02.486-1.02 1.086s.46 1.085 1.02 1.085 1.02-.486 1.02-1.085-.46-1.086-1.02-1.086zM456.572 981.83c-.562 0-1.018.486-1.018 1.086S456 984 456.572 984s1.017-.486 1.017-1.085-.455-1.086-1.017-1.086zM144.78 811.992c-.562 0-1.017.486-1.017 1.086s.455 1.085 1.017 1.085 1.018-.486 1.018-1.085-.456-1.086-1.018-1.086zM110.566 229.9c-.562 0-1.018.486-1.018 1.086s.456 1.085 1.018 1.085 1.017-.486 1.017-1.085-.455-1.086-1.017-1.086zM1350.98 36.676c-.56 0-1 .486-1 1.085s.45 1.085 1 1.085 1.02-.486 1.02-1.085-.46-1.085-1.02-1.085zm-44.56 678.53c-.5 0-.92.44-.92.983s.4.983.92.983.92-.44.92-.983-.4-.983-.92-.983zm-39.32-407.073c-.5 0-.92.44-.92.983s.4.983.92.983.92-.44.92-.983-.4-.983-.92-.983zm-432.288-169.38c1.632-12.43 8.295-22.2 16.723-24.575a.62.62 0 0 0 .235-.234.67.67 0 0 0 .086-.329c0-.116-.03-.23-.086-.33a.61.61 0 0 0-.235-.233c-8.448-2.397-15.1-12.288-16.723-24.576 0-.635-.7-.635-.768 0-1.632 12.43-8.294 22.2-16.723 24.576a.61.61 0 0 0-.234.233c-.056.1-.086.214-.086.33a.67.67 0 0 0 .086.329.62.62 0 0 0 .234.234c8.448 2.396 15.1 12.288 16.723 24.575.077.717.7.717.768 0zM372.07 779.5c1.632-12.43 8.294-22.2 16.723-24.575.096-.054.177-.135.234-.234a.67.67 0 0 0 0-.659.62.62 0 0 0-.234-.234c-8.448-2.396-15.1-12.288-16.723-24.575 0-.635-.7-.635-.768 0-1.632 12.43-8.295 22.2-16.724 24.575-.096.054-.177.135-.234.234a.67.67 0 0 0 0 .659.62.62 0 0 0 .234.234c8.448 2.396 15.1 12.287 16.724 24.575.077.635.7.635.768 0zm789.25 150.34c-1.86 0-3.37 1.614-3.37 3.605s1.5 3.604 3.37 3.604 3.38-1.614 3.38-3.604-1.5-3.605-3.38-3.605z"/></g><g opacity=".9"><path d="M1438.87 584.482V484c-13.62 47.922-192.96 275.165-287.73 360.96 144.22-88.734 216.22-142.22 287.73-260.48z" fill="#4a5d91"/><path d="M923.57 1021.02s-393.853 6.9-179.9-6.95 580.15-266.684 667.95-386.304C1276 818.682 1136.4 950.687 923.57 1021.02z" fill="#063b4a"/><path d="M922.998 1022.74H1125.6c98.97-53.8 293.4-316.907 312.7-435.167-99.88 175.457-347.9 389.56-515.302 435.167z" fill="url(#D)"/><path d="M1438.87 589.12v202.51c-36.78 72.965-287.16 251.202-316.1 229.562 62.43-19.7 258.8-279.03 316.1-432.07z" fill="url(#E)"/><path d="M1440 792.4v228.02h-263.9c26.67-9.28 193.52-136.812 263.9-228.02z" fill="#053d4c"/><path d="M1135.25 1022.74h43.13c26.78-2.48 149.82-105.896 169.68-137.586-81.26 63.072-163.63 105.635-194.65 119.036l-18.16 18.55z" fill="#ed8e22"/></g><path d="M1317.5 284c24.02 0 43.5-19.476 43.5-43.5s-19.48-43.5-43.5-43.5-43.5 19.476-43.5 43.5 19.48 43.5 43.5 43.5z" fill="url(#F)"/><defs><linearGradient id="A" x1="15905.2" y1="-418283" x2="-413259" y2="316556" xlink:href="#K"><stop stop-color="#843c71"/><stop offset="1" stop-color="#906bd6"/></linearGradient><linearGradient id="B" x1="-144339" y1="-13081.9" x2="-176573" y2="-13081.9" xlink:href="#K"><stop stop-color="#843c71"/><stop offset="1" stop-color="#906bd6"/></linearGradient><linearGradient id="C" x1="-144371" y1="-13103.5" x2="-176615" y2="-13103.5" xlink:href="#K"><stop stop-color="#843c71"/><stop offset="1" stop-color="#906bd6"/></linearGradient><linearGradient id="D" x1="1157.38" y1="1035.1" x2="1046.63" y2="725.22" xlink:href="#K"><stop stop-color="#c52900"/><stop offset=".314" stop-color="#e17318"/></linearGradient><linearGradient id="E" x1="1282.23" y1="950.081" x2="1282.23" y2="799.358" xlink:href="#K"><stop stop-color="#e76e00"/><stop offset="1" stop-color="#f09222"/></linearGradient><linearGradient id="F" x1="1317.5" y1="338.903" x2="1317.5" y2="135.286" xlink:href="#K"><stop stop-color="#ff9501" stop-opacity=".5"/><stop offset="1" stop-color="#fff"/></linearGradient><path id="G" d="M1061.5 202.274c-1.86 0-3.38 1.61-3.38 3.598s1.52 3.597 3.38 3.597c1.87 0 3.38-1.61 3.38-3.597s-1.5-3.598-3.38-3.598z"/><path id="H" d="M202.25 866.124c-1.866 0-3.378 1.61-3.378 3.597s1.512 3.598 3.378 3.598 3.378-1.61 3.378-3.598-1.513-3.597-3.378-3.597z"/><path id="I" d="M338.91 351.345c-1.866 0-3.38 1.614-3.38 3.605s1.513 3.604 3.38 3.604 3.38-1.614 3.38-3.604-1.513-3.605-3.38-3.605z"/><path id="J" d="M1204.12 562.817c-1.86 0-3.38 1.614-3.38 3.605s1.52 3.604 3.38 3.604c1.87 0 3.38-1.614 3.38-3.604s-1.5-3.605-3.38-3.605z"/><linearGradient id="K" gradientUnits="userSpaceOnUse"/></defs></svg>