<svg enable-background="new 0 0 480 480" viewBox="0 0 480 480" xmlns="http://www.w3.org/2000/svg"><path d="m240 0c-132.336 0-240 107.664-240 240 0 57.96 20.656 111.184 54.992 152.704.088.12.096.272.192.384 24.792 29.896 55.928 52.816 90.624 67.624.4.168.792.352 1.192.52 2.808 1.184 5.648 2.28 8.496 3.352 1.12.424 2.24.856 3.376 1.264 2.456.88 4.928 1.712 7.416 2.512 1.592.512 3.184 1.016 4.792 1.496 2.2.656 4.408 1.288 6.632 1.888 1.952.528 3.92 1.016 5.888 1.488 1.992.48 3.992.96 6 1.384 2.24.48 4.504.904 6.776 1.32 1.824.336 3.64.688 5.48.984 2.52.408 5.056.728 7.6 1.056 1.64.208 3.272.448 4.92.624 2.88.304 5.784.52 8.696.72 1.352.096 2.696.24 4.056.312 4.248.24 8.544.368 12.872.368s8.624-.128 12.888-.352c1.36-.072 2.704-.216 4.056-.312 2.912-.208 5.816-.416 8.696-.72 1.648-.176 3.28-.416 4.92-.624 2.544-.328 5.08-.648 7.6-1.056 1.832-.296 3.656-.648 5.48-.984 2.264-.416 4.528-.84 6.776-1.32 2.008-.432 4-.904 6-1.384 1.968-.48 3.936-.968 5.888-1.488 2.224-.592 4.432-1.232 6.632-1.888 1.608-.48 3.2-.984 4.792-1.496 2.488-.8 4.96-1.632 7.416-2.512 1.128-.408 2.248-.84 3.376-1.264 2.856-1.072 5.688-2.176 8.496-3.352.4-.168.792-.352 1.192-.52 34.688-14.808 65.832-37.728 90.624-67.624.096-.112.104-.272.192-.384 34.32-41.536 54.976-94.76 54.976-152.72 0-132.336-107.664-240-240-240zm97.256 441.76c-.12.056-.232.12-.352.176-2.856 1.376-5.76 2.672-8.688 3.936-.664.28-1.32.568-1.984.848-2.56 1.072-5.152 2.088-7.76 3.064-1.088.408-2.176.808-3.272 1.192-2.312.824-4.632 1.616-6.976 2.368-1.456.464-2.92.904-4.384 1.336-2.08.624-4.168 1.224-6.28 1.784-1.776.472-3.568.904-5.36 1.328-1.88.448-3.752.904-5.648 1.304-2.072.44-4.16.816-6.24 1.192-1.688.312-3.368.64-5.072.912-2.344.368-4.712.664-7.072.96-1.496.192-2.984.416-4.496.576-2.696.288-5.416.472-8.128.664-1.208.08-2.408.216-3.632.28-3.96.208-7.928.32-11.912.32s-7.952-.112-11.904-.32c-1.216-.064-2.416-.192-3.632-.28-2.72-.184-5.432-.376-8.128-.664-1.512-.16-3-.384-4.496-.576-2.36-.296-4.728-.592-7.072-.96-1.704-.272-3.384-.6-5.072-.912-2.088-.376-4.176-.76-6.24-1.192-1.896-.4-3.776-.856-5.648-1.304-1.792-.432-3.584-.856-5.36-1.328-2.104-.56-4.2-1.168-6.28-1.784-1.464-.432-2.928-.872-4.384-1.336-2.344-.752-4.672-1.544-6.976-2.368-1.096-.392-2.184-.792-3.272-1.192-2.608-.976-5.2-1.992-7.76-3.064-.664-.272-1.312-.56-1.976-.84-2.928-1.256-5.832-2.56-8.696-3.936-.12-.056-.232-.112-.352-.176-27.912-13.504-52.568-32.672-72.576-55.952 15.464-56.944 59.24-102.848 115.56-121.112 1.112.68 2.272 1.288 3.416 1.928.672.376 1.336.776 2.016 1.136 2.384 1.264 4.8 2.448 7.272 3.512 1.896.832 3.856 1.536 5.808 2.256.384.136.768.288 1.152.424 10.848 3.84 22.456 6.04 34.6 6.04s23.752-2.2 34.592-6.04c.384-.136.768-.288 1.152-.424 1.952-.72 3.912-1.424 5.808-2.256 2.472-1.064 4.888-2.248 7.272-3.512.68-.368 1.344-.76 2.016-1.136 1.144-.64 2.312-1.248 3.432-1.936 56.32 18.272 100.088 64.176 115.56 121.112-20.008 23.272-44.664 42.44-72.576 55.952zm-185.256-265.76c0-48.52 39.48-88 88-88s88 39.48 88 88c0 30.864-16.008 58.024-40.128 73.736-3.152 2.048-6.432 3.88-9.8 5.48-.4.192-.792.392-1.192.576-23.168 10.536-50.592 10.536-73.76 0-.4-.184-.8-.384-1.192-.576-3.376-1.6-6.648-3.432-9.8-5.48-24.12-15.712-40.128-42.872-40.128-73.736zm269.832 194.584c-18.136-53.552-59.512-96.832-112.376-117.392 21.144-19.048 34.544-46.552 34.544-77.192 0-57.344-46.656-104-104-104s-104 46.656-104 104c0 30.64 13.4 58.144 34.552 77.192-52.864 20.568-94.24 63.84-112.376 117.392-26.504-36.792-42.176-81.88-42.176-130.584 0-123.512 100.488-224 224-224s224 100.488 224 224c0 48.704-15.672 93.792-42.168 130.584z"/></svg>