<svg width="24" height="24" viewBox="0 0 24 24" fill="none" xmlns="http://www.w3.org/2000/svg">
<path d="M18 8C18 6.4087 17.3679 4.88258 16.2426 3.75736C15.1174 2.63214 13.5913 2 12 2C10.4087 2 8.88258 2.63214 7.75736 3.75736C6.63214 4.88258 6 6.4087 6 8C6 15 3 17 3 17H21C21 17 18 15 18 8Z" stroke="black" stroke-width="2" stroke-linecap="round" stroke-linejoin="round"/>
<path d="M13.73 21C13.5542 21.3031 13.3019 21.5547 12.9982 21.7295C12.6946 21.9044 12.3504 21.9965 12 21.9965C11.6496 21.9965 11.3054 21.9044 11.0018 21.7295C10.6982 21.5547 10.4458 21.3031 10.27 21" stroke="black" stroke-width="2" stroke-linecap="round" stroke-linejoin="round"/>
<circle cx="18" cy="6" r="5" fill="#F72F09"/>
<path d="M19.956 3.636C19.956 3.77733 19.9107 3.892 19.82 3.98C19.732 4.068 19.584 4.112 19.376 4.112H17.784L17.576 5.32C17.8373 5.26667 18.076 5.24 18.292 5.24C18.596 5.24 18.8627 5.28533 19.092 5.376C19.324 5.46667 19.5187 5.592 19.676 5.752C19.8333 5.912 19.952 6.1 20.032 6.316C20.112 6.52933 20.152 6.76 20.152 7.008C20.152 7.31467 20.0973 7.59467 19.988 7.848C19.8813 8.10133 19.732 8.31867 19.54 8.5C19.348 8.67867 19.12 8.81733 18.856 8.916C18.5947 9.01467 18.3093 9.064 18 9.064C17.8187 9.064 17.6467 9.04533 17.484 9.008C17.3213 8.97067 17.168 8.92133 17.024 8.86C16.8827 8.796 16.7507 8.724 16.628 8.644C16.508 8.56133 16.4 8.47467 16.304 8.384L16.608 7.964C16.672 7.87333 16.7573 7.828 16.864 7.828C16.9307 7.828 16.9973 7.84933 17.064 7.892C17.1333 7.93467 17.2133 7.98133 17.304 8.032C17.3947 8.08267 17.5 8.12933 17.62 8.172C17.74 8.21467 17.8853 8.236 18.056 8.236C18.2373 8.236 18.3973 8.20667 18.536 8.148C18.6747 8.08933 18.7893 8.008 18.88 7.904C18.9733 7.79733 19.0427 7.672 19.088 7.528C19.136 7.38133 19.16 7.22267 19.16 7.052C19.16 6.73733 19.068 6.492 18.884 6.316C18.7027 6.13733 18.4347 6.048 18.08 6.048C17.8 6.048 17.5187 6.09867 17.236 6.2L16.62 6.024L17.1 3.216H19.956V3.636Z" fill="white"/>
</svg>
