<svg width="22" height="19" viewBox="0 0 22 19" fill="none" xmlns="http://www.w3.org/2000/svg">
<path d="M20.6316 13.4508H6.67461L7.37539 12.0234L19.0191 12.0023C19.4129 12.0023 19.7504 11.7211 19.8207 11.332L21.4332 2.30625C21.4754 2.06953 21.4121 1.82578 21.2574 1.64062C21.181 1.5495 21.0856 1.4761 20.978 1.42551C20.8703 1.37492 20.7529 1.34835 20.634 1.34766L5.82148 1.29844L5.69492 0.703125C5.61523 0.323437 5.27305 0.046875 4.88398 0.046875H1.26289C1.04347 0.046875 0.833027 0.134041 0.67787 0.289198C0.522713 0.444355 0.435547 0.654794 0.435547 0.874219C0.435547 1.09364 0.522713 1.30408 0.67787 1.45924C0.833027 1.6144 1.04347 1.70156 1.26289 1.70156H4.21367L4.7668 4.33125L6.12852 10.9242L4.37539 13.7859C4.28435 13.9088 4.22951 14.0547 4.21709 14.2071C4.20466 14.3596 4.23514 14.5124 4.30508 14.6484C4.4457 14.9273 4.7293 15.1031 5.04336 15.1031H6.51523C6.20145 15.5199 6.03196 16.0275 6.03242 16.5492C6.03242 17.8758 7.11055 18.9539 8.43711 18.9539C9.76367 18.9539 10.8418 17.8758 10.8418 16.5492C10.8418 16.0266 10.6684 15.518 10.359 15.1031H14.1348C13.821 15.5199 13.6515 16.0275 13.652 16.5492C13.652 17.8758 14.7301 18.9539 16.0566 18.9539C17.3832 18.9539 18.4613 17.8758 18.4613 16.5492C18.4613 16.0266 18.2879 15.518 17.9785 15.1031H20.634C21.0887 15.1031 21.4613 14.7328 21.4613 14.2758C21.46 14.0566 21.372 13.8468 21.2165 13.6923C21.0611 13.5377 20.8508 13.4509 20.6316 13.4508ZM6.16602 2.92969L19.6613 2.97422L18.3395 10.3758L7.73867 10.3945L6.16602 2.92969ZM8.43711 17.2898C8.0293 17.2898 7.69648 16.957 7.69648 16.5492C7.69648 16.1414 8.0293 15.8086 8.43711 15.8086C8.84492 15.8086 9.17773 16.1414 9.17773 16.5492C9.17773 16.7456 9.0997 16.934 8.96081 17.0729C8.82192 17.2118 8.63353 17.2898 8.43711 17.2898ZM16.0566 17.2898C15.6488 17.2898 15.316 16.957 15.316 16.5492C15.316 16.1414 15.6488 15.8086 16.0566 15.8086C16.4645 15.8086 16.7973 16.1414 16.7973 16.5492C16.7973 16.7456 16.7192 16.934 16.5803 17.0729C16.4414 17.2118 16.2531 17.2898 16.0566 17.2898Z" fill="#333333"/>
</svg>
