<svg width="25" height="25" viewBox="0 0 25 25" fill="none" xmlns="http://www.w3.org/2000/svg">
<path d="M6.34757 5.01562C5.56253 5.01563 4.80964 5.32723 4.25454 5.8819C3.69943 6.43657 3.38757 7.18886 3.38757 7.97327V8.27052L12.2676 13.0486L21.1476 8.272V7.97327C21.1476 7.18886 20.8357 6.43657 20.2806 5.8819C19.7255 5.32723 18.9726 5.01563 18.1876 5.01562H6.34757Z" fill="#4F4F4F"/>
<path d="M21.1474 9.95117L12.6182 14.54C12.5104 14.5979 12.3899 14.6283 12.2674 14.6283C12.145 14.6283 12.0245 14.5979 11.9167 14.54L3.38745 9.95117V16.8469C3.38745 17.6313 3.69931 18.3836 4.25441 18.9383C4.80952 19.493 5.56241 19.8046 6.34745 19.8046H18.1874C18.9725 19.8046 19.7254 19.493 20.2805 18.9383C20.8356 18.3836 21.1474 17.6313 21.1474 16.8469V9.95117Z" fill="#4F4F4F"/>
</svg>
