<svg width="15" height="16" viewBox="0 0 15 16" fill="none" xmlns="http://www.w3.org/2000/svg">
<g clip-path="url(#clip0)">
<path d="M6.27212 0H8.59513C8.98133 0 9.29204 0.334375 9.29204 0.75V6H11.8386C12.3555 6 12.6139 6.67188 12.2481 7.06563L7.83144 11.8219C7.61366 12.0562 7.2565 12.0562 7.03872 11.8219L2.61629 7.06563C2.25041 6.67188 2.50885 6 3.02572 6H5.57522V0.75C5.57522 0.334375 5.88592 0 6.27212 0ZM14.8673 11.75V15.25C14.8673 15.6656 14.5566 16 14.1704 16H0.696903C0.310702 16 0 15.6656 0 15.25V11.75C0 11.3344 0.310702 11 0.696903 11H4.95672L6.37956 12.5312C6.96322 13.1594 7.90404 13.1594 8.48769 12.5312L9.91054 11H14.1704C14.5566 11 14.8673 11.3344 14.8673 11.75ZM11.2666 14.5C11.2666 14.1562 11.0053 13.875 10.6858 13.875C10.3664 13.875 10.1051 14.1562 10.1051 14.5C10.1051 14.8438 10.3664 15.125 10.6858 15.125C11.0053 15.125 11.2666 14.8438 11.2666 14.5ZM13.125 14.5C13.125 14.1562 12.8637 13.875 12.5442 13.875C12.2248 13.875 11.9635 14.1562 11.9635 14.5C11.9635 14.8438 12.2248 15.125 12.5442 15.125C12.8637 15.125 13.125 14.8438 13.125 14.5Z" fill="#333333"/>
</g>
<defs>
<clipPath id="clip0">
<rect width="14.8673" height="16" fill="white"/>
</clipPath>
</defs>
</svg>
