<svg width="18" height="18" viewBox="0 0 18 18" fill="none" xmlns="http://www.w3.org/2000/svg">
<path d="M8.375 5.875C8.375 5.70924 8.44085 5.55027 8.55806 5.43306C8.67527 5.31585 8.83424 5.25 9 5.25C9.16576 5.25 9.32473 5.31585 9.44194 5.43306C9.55915 5.55027 9.625 5.70924 9.625 5.875V8.375H12.125C12.2908 8.375 12.4497 8.44085 12.5669 8.55806C12.6842 8.67527 12.75 8.83424 12.75 9C12.75 9.16576 12.6842 9.32473 12.5669 9.44194C12.4497 9.55915 12.2908 9.625 12.125 9.625H9.625V12.125C9.625 12.2908 9.55915 12.4497 9.44194 12.5669C9.32473 12.6842 9.16576 12.75 9 12.75C8.83424 12.75 8.67527 12.6842 8.55806 12.5669C8.44085 12.4497 8.375 12.2908 8.375 12.125V9.625H5.875C5.70924 9.625 5.55027 9.55915 5.43306 9.44194C5.31585 9.32473 5.25 9.16576 5.25 9C5.25 8.83424 5.31585 8.67527 5.43306 8.55806C5.55027 8.44085 5.70924 8.375 5.875 8.375H8.375V5.875ZM17.75 9C17.75 13.8325 13.8325 17.75 9 17.75C4.1675 17.75 0.25 13.8325 0.25 9C0.25 4.1675 4.1675 0.25 9 0.25C13.8325 0.25 17.75 4.1675 17.75 9ZM16.5 9C16.5 4.85813 13.1419 1.5 9 1.5C4.85813 1.5 1.5 4.85813 1.5 9C1.5 13.1419 4.85813 16.5 9 16.5C13.1419 16.5 16.5 13.1419 16.5 9Z" fill="#0CA2D9"/>
</svg>
