<svg width="64" height="64" viewBox="0 0 64 64" fill="none" xmlns="http://www.w3.org/2000/svg">
<path fill-rule="evenodd" clip-rule="evenodd" d="M32 64C49.6731 64 64 49.6731 64 32C64 14.3269 49.6731 0 32 0C14.3269 0 0 14.3269 0 32C0 49.6731 14.3269 64 32 64Z" fill="#0ca2d9"/>
<path d="M34.4609 32.8203H29.5391V34.4609H34.4609V32.8203Z" fill="white"/>
<path d="M23.284 34.4612H27.8984V35.2815C27.8984 35.7348 28.2654 36.1018 28.7188 36.1018H35.2812C35.7346 36.1018 36.1016 35.7348 36.1016 35.2815V34.4612H40.716C41.7767 34.4612 42.7147 33.7851 43.0505 32.7789L46 23.929V41.844C46 43.201 44.896 44.305 43.5391 44.305H20.4609C19.104 44.305 18 43.201 18 41.844V23.9296L20.9497 32.7789C21.2853 33.7851 22.2233 34.4612 23.284 34.4612Z" fill="white"/>
<path d="M28.718 19.6953H35.2805C36.6375 19.6953 37.7415 20.7993 37.7415 22.1562V22.9766H44.5879L41.494 32.2596C41.3818 32.5952 41.0687 32.8203 40.7153 32.8203H36.1009V32C36.1009 31.5467 35.7339 31.1797 35.2805 31.1797H28.718C28.2647 31.1797 27.8977 31.5467 27.8977 32V32.8203H23.2833C22.9299 32.8203 22.6168 32.5952 22.5046 32.2596L19.4105 22.9766H26.2571V22.1562C26.2571 20.7993 27.3611 19.6953 28.718 19.6953ZM36.1009 22.9766V22.1562C36.1009 21.7036 35.7332 21.3359 35.2805 21.3359H28.718C28.2654 21.3359 27.8977 21.7036 27.8977 22.1562V22.9766H36.1009Z" fill="white"/>
</svg>
