<svg width="29" height="30" viewBox="0 0 29 30" fill="none" xmlns="http://www.w3.org/2000/svg">
<path d="M25.1053 3.03158H23.0211V1.92632C23.0211 0.852632 22.1684 0 21.0947 0C20.0211 0 19.1684 0.852632 19.1684 1.92632V3.03158H9.4421V1.92632C9.4421 0.852632 8.58947 0 7.51579 0C6.4421 0 5.58947 0.852632 5.58947 1.92632V3.03158H3.50526C1.57895 3.03158 0 4.61053 0 6.53684V8.33684H28.6421V6.53684C28.6105 4.57895 27.0632 3.03158 25.1053 3.03158Z" fill="#284B63"/>
<path d="M0 26.4947C0 28.421 1.57895 30 3.50526 30H25.1368C27.0632 30 28.6421 28.421 28.6421 26.4947V10.5474H0V26.4947ZM18.7895 16.5158C18.7895 16.1684 19.0737 15.9158 19.3895 15.9158H22.2632C22.6105 15.9158 22.8632 16.2 22.8632 16.5158V18.4105C22.8632 18.7579 22.5789 19.0105 22.2632 19.0105H19.3895C19.0421 19.0105 18.7895 18.7263 18.7895 18.4105V16.5158ZM18.7895 22.1368C18.7895 21.7895 19.0737 21.5368 19.3895 21.5368H22.2632C22.6105 21.5368 22.8632 21.821 22.8632 22.1368V24.0316C22.8632 24.3789 22.5789 24.6316 22.2632 24.6316H19.3895C19.0421 24.6316 18.7895 24.3474 18.7895 24.0316V22.1368ZM12.2526 16.5158C12.2526 16.1684 12.5368 15.9158 12.8526 15.9158H15.7263C16.0737 15.9158 16.3263 16.2 16.3263 16.5158V18.4105C16.3263 18.7579 16.0421 19.0105 15.7263 19.0105H12.8526C12.5053 19.0105 12.2526 18.7263 12.2526 18.4105V16.5158ZM12.2526 22.1368C12.2526 21.7895 12.5368 21.5368 12.8526 21.5368H15.7263C16.0737 21.5368 16.3263 21.821 16.3263 22.1368V24.0316C16.3263 24.3789 16.0421 24.6316 15.7263 24.6316H12.8526C12.5053 24.6316 12.2526 24.3474 12.2526 24.0316V22.1368ZM5.74737 16.5158C5.74737 16.1684 6.03158 15.9158 6.34737 15.9158H9.22105C9.56842 15.9158 9.82105 16.2 9.82105 16.5158V18.4105C9.82105 18.7579 9.53684 19.0105 9.22105 19.0105H6.34737C6 19.0105 5.74737 18.7263 5.74737 18.4105V16.5158ZM5.74737 22.1368C5.74737 21.7895 6.03158 21.5368 6.34737 21.5368H9.22105C9.56842 21.5368 9.82105 21.821 9.82105 22.1368V24.0316C9.82105 24.3789 9.53684 24.6316 9.22105 24.6316H6.34737C6 24.6316 5.74737 24.3474 5.74737 24.0316V22.1368Z" fill="#284B63"/>
</svg>
