<svg width="15" height="15" viewBox="0 0 15 15" fill="none" xmlns="http://www.w3.org/2000/svg">
<g clip-path="url(#clip0)">
<path d="M13.2198 2.68953H10.7551V1.12109H9.85887V2.68953H4.48137V1.12109H3.58512V2.68953H1.12043C0.942218 2.68974 0.771365 2.76062 0.645351 2.88664C0.519336 3.01265 0.44845 3.18351 0.448242 3.36172V12.7723C0.44845 12.9506 0.519336 13.1214 0.645351 13.2474C0.771365 13.3734 0.942218 13.4443 1.12043 13.4445H13.2198C13.398 13.4443 13.5689 13.3734 13.6949 13.2474C13.8209 13.1214 13.8918 12.9506 13.892 12.7723V3.36172C13.8918 3.18351 13.8209 3.01265 13.6949 2.88664C13.5689 2.76062 13.398 2.68974 13.2198 2.68953ZM12.9957 12.5483H1.34449V3.58578H3.58512V4.70609H4.48137V3.58578H9.85887V4.70609H10.7551V3.58578H12.9957V12.5483Z" fill="#333333"/>
<path d="M3.13696 6.27344H4.03321V7.16969H3.13696V6.27344Z" fill="#333333"/>
<path d="M5.60181 6.27344H6.49806V7.16969H5.60181V6.27344Z" fill="#333333"/>
<path d="M7.84253 6.27344H8.73878V7.16969H7.84253V6.27344Z" fill="#333333"/>
<path d="M10.3071 6.27344H11.2034V7.16969H10.3071V6.27344Z" fill="#333333"/>
<path d="M3.13696 8.29102H4.03321V9.18727H3.13696V8.29102Z" fill="#333333"/>
<path d="M5.60181 8.29102H6.49806V9.18727H5.60181V8.29102Z" fill="#333333"/>
<path d="M7.84253 8.29102H8.73878V9.18727H7.84253V8.29102Z" fill="#333333"/>
<path d="M10.3071 8.29102H11.2034V9.18727H10.3071V8.29102Z" fill="#333333"/>
<path d="M3.13696 10.3066H4.03321V11.2029H3.13696V10.3066Z" fill="#333333"/>
<path d="M5.60181 10.3066H6.49806V11.2029H5.60181V10.3066Z" fill="#333333"/>
<path d="M7.84253 10.3066H8.73878V11.2029H7.84253V10.3066Z" fill="#333333"/>
<path d="M10.3071 10.3066H11.2034V11.2029H10.3071V10.3066Z" fill="#333333"/>
</g>
<defs>
<clipPath id="clip0">
<rect width="14.34" height="14.34" fill="white" transform="translate(0.000244141)"/>
</clipPath>
</defs>
</svg>
