<svg width="31" height="30" viewBox="0 0 31 30" fill="none" xmlns="http://www.w3.org/2000/svg">
<path d="M7.14294 5.00016V1.38102C7.14294 0.619038 7.80953 0 8.57152 0C9.3335 0 10.0001 0.619038 10.0001 1.38102V5.00016C10.0001 5.80969 9.3332 6.42873 8.57152 6.42873C7.80983 6.42873 7.14294 5.80969 7.14294 5.00016Z" fill="#4059AD"/>
<path d="M20.1429 5.00016V1.38102C20.1429 0.619038 20.7619 0 21.5715 0C22.2856 0 23 0.619038 23 1.38102V5.00016C23 5.80969 22.2859 6.42873 21.5715 6.42873C20.7619 6.42873 20.1429 5.80969 20.1429 5.00016Z" fill="#4059AD"/>
<path d="M27.0478 3.71423H23.8569V4.99986C23.8569 6.28579 22.7618 7.28551 21.5712 7.28551C20.2856 7.28551 19.2856 6.28548 19.2856 4.99986V3.71423H10.8571V4.99986C10.8571 6.28579 9.80951 7.28551 8.57144 7.28551C7.33336 7.28551 6.28578 6.28548 6.28578 4.99986V3.71423H3.23814C1.42857 3.71423 0 5.14281 0 6.95237V26.6668C0 28.4285 1.42857 30 3.23814 30H27.0478C28.8573 30 30.2856 28.4288 30.2856 26.6668V6.95237C30.2856 5.14281 28.857 3.71423 27.0478 3.71423ZM7.6665 26.6668H3.00009V22.3332H7.6668V26.6668H7.6665ZM7.6665 20.6669H3.00009V16.3333H7.6668V20.6669H7.6665ZM7.6665 14.6192H3.00009V10.2859H7.6668V14.6192H7.6665ZM14.2382 26.6668H9.52392V22.3332H14.2382V26.6668ZM14.2382 20.6669H9.52392V16.3333H14.2382V20.6669ZM14.2382 14.6192H9.52392V10.2859H14.2382V14.6192ZM20.762 26.6668H16.0474V22.3332H20.7617V26.6668H20.762ZM20.762 20.6669H16.0474V16.3333H20.7617V20.6669H20.762ZM20.762 14.6192H16.0474V10.2859H20.7617V14.6192H20.762ZM27.2858 26.6668H22.6191V22.3332H27.2858V26.6668ZM27.2858 20.6669H22.6191V16.3333H27.2858V20.6669ZM27.2858 14.6192H22.6191V10.2859H27.2858V14.6192Z" fill="#4059AD"/>
</svg>
