<svg width="15" height="15" viewBox="0 0 15 15" fill="none" xmlns="http://www.w3.org/2000/svg">
<path d="M13.2198 2.68929H10.7551V1.12085H9.85887V2.68929H4.48137V1.12085H3.58512V2.68929H1.12043C0.942218 2.68949 0.771365 2.76038 0.645351 2.8864C0.519336 3.01241 0.44845 3.18326 0.448242 3.36147V12.7721C0.44845 12.9503 0.519336 13.1212 0.645351 13.2472C0.771365 13.3732 0.942218 13.4441 1.12043 13.4443H13.2198C13.398 13.4441 13.5689 13.3732 13.6949 13.2472C13.8209 13.1212 13.8918 12.9503 13.892 12.7721V3.36147C13.8918 3.18326 13.8209 3.01241 13.6949 2.8864C13.5689 2.76038 13.398 2.68949 13.2198 2.68929ZM12.9957 12.548H1.34449V3.58554H3.58512V4.70585H4.48137V3.58554H9.85887V4.70585H10.7551V3.58554H12.9957V12.548Z" fill="#7C7C7C"/>
<path d="M3.13672 6.27441H4.03297V7.17066H3.13672V6.27441Z" fill="#7C7C7C"/>
<path d="M5.60156 6.27441H6.49781V7.17066H5.60156V6.27441Z" fill="#7C7C7C"/>
<path d="M7.84229 6.27441H8.73853V7.17066H7.84229V6.27441Z" fill="#7C7C7C"/>
<path d="M10.3071 6.27441H11.2034V7.17066H10.3071V6.27441Z" fill="#7C7C7C"/>
<path d="M3.13672 8.29102H4.03297V9.18727H3.13672V8.29102Z" fill="#7C7C7C"/>
<path d="M5.60156 8.29102H6.49781V9.18727H5.60156V8.29102Z" fill="#7C7C7C"/>
<path d="M7.84229 8.29102H8.73853V9.18727H7.84229V8.29102Z" fill="#7C7C7C"/>
<path d="M10.3071 8.29102H11.2034V9.18727H10.3071V8.29102Z" fill="#7C7C7C"/>
<path d="M3.13672 10.3066H4.03297V11.2029H3.13672V10.3066Z" fill="#7C7C7C"/>
<path d="M5.60156 10.3066H6.49781V11.2029H5.60156V10.3066Z" fill="#7C7C7C"/>
<path d="M7.84229 10.3066H8.73853V11.2029H7.84229V10.3066Z" fill="#7C7C7C"/>
<path d="M10.3071 10.3066H11.2034V11.2029H10.3071V10.3066Z" fill="#7C7C7C"/>
</svg>
