<svg width="20" height="20" viewBox="0 0 20 20" fill="none" xmlns="http://www.w3.org/2000/svg">
<g opacity="0.8">
<path d="M8.12391 2C7.84595 2.00001 7.57346 2.07725 7.33685 2.2231C7.10023 2.36896 6.9088 2.57768 6.78391 2.826L6.19391 4H4.50391C3.84087 4 3.20498 4.26339 2.73614 4.73223C2.2673 5.20107 2.00391 5.83696 2.00391 6.5V14.5C2.00391 15.163 2.2673 15.7989 2.73614 16.2678C3.20498 16.7366 3.84087 17 4.50391 17H9.59991C9.43637 16.6804 9.30473 16.3454 9.20691 16H4.50491C4.10708 16 3.72555 15.842 3.44425 15.5607C3.16294 15.2794 3.00491 14.8978 3.00491 14.5V6.5C3.00491 6.10218 3.16294 5.72064 3.44425 5.43934C3.72555 5.15804 4.10708 5 4.50491 5H6.50291C6.59551 4.99981 6.68625 4.97391 6.765 4.92517C6.84375 4.87644 6.90742 4.8068 6.94891 4.724L7.67691 3.275C7.71861 3.19224 7.78249 3.1227 7.86143 3.07414C7.94036 3.02558 8.03123 2.99991 8.12391 3H11.8879C11.9809 2.99982 12.072 3.02555 12.1511 3.0743C12.2303 3.12305 12.2943 3.1929 12.3359 3.276L13.0589 4.723C13.1005 4.80595 13.1643 4.87569 13.2432 4.92444C13.3222 4.97318 13.4131 4.999 13.5059 4.999H15.5049C15.9027 4.999 16.2843 5.15704 16.5656 5.43834C16.8469 5.71964 17.0049 6.10118 17.0049 6.499V9.602C17.3629 9.785 17.6979 10.007 18.0049 10.261V6.499C18.0049 5.83596 17.7415 5.20007 17.2727 4.73123C16.8038 4.26239 16.1679 3.999 15.5049 3.999H13.8149L13.2299 2.829C13.1053 2.57982 12.9137 2.37028 12.6767 2.22385C12.4396 2.07743 12.1665 1.99992 11.8879 2H8.12391Z" fill="#4F4F4F"/>
<path d="M9.99922 6C10.8922 6.00004 11.7594 6.29871 12.4631 6.84849C13.1667 7.39827 13.6662 8.16757 13.8822 9.034C13.5497 9.0712 13.2214 9.13881 12.9012 9.236C12.7668 8.72547 12.5002 8.25942 12.1281 7.88489C11.7561 7.51035 11.2918 7.24059 10.7822 7.10282C10.2726 6.96506 9.73564 6.96416 9.22556 7.10023C8.71548 7.2363 8.25032 7.50452 7.87703 7.87781C7.50373 8.2511 7.23552 8.71626 7.09945 9.22634C6.96338 9.73642 6.96428 10.2734 7.10204 10.783C7.23981 11.2926 7.50957 11.7569 7.88411 12.1289C8.25864 12.501 8.72469 12.7676 9.23522 12.902C9.1381 13.2218 9.07049 13.5499 9.03322 13.882C8.08833 13.6432 7.26305 13.0679 6.71223 12.2639C6.1614 11.4599 5.92289 10.4825 6.04145 9.51514C6.16001 8.54779 6.62748 7.65695 7.35616 7.00976C8.08484 6.36258 9.02464 6.00353 9.99922 6Z" fill="#4F4F4F"/>
<path d="M19 14.5C19 15.6935 18.5259 16.8381 17.682 17.682C16.8381 18.5259 15.6935 19 14.5 19C13.3065 19 12.1619 18.5259 11.318 17.682C10.4741 16.8381 10 15.6935 10 14.5C10 13.3065 10.4741 12.1619 11.318 11.318C12.1619 10.4741 13.3065 10 14.5 10C15.6935 10 16.8381 10.4741 17.682 11.318C18.5259 12.1619 19 13.3065 19 14.5ZM15 12.5C15 12.3674 14.9473 12.2402 14.8536 12.1464C14.7598 12.0527 14.6326 12 14.5 12C14.3674 12 14.2402 12.0527 14.1464 12.1464C14.0527 12.2402 14 12.3674 14 12.5V14H12.5C12.3674 14 12.2402 14.0527 12.1464 14.1464C12.0527 14.2402 12 14.3674 12 14.5C12 14.6326 12.0527 14.7598 12.1464 14.8536C12.2402 14.9473 12.3674 15 12.5 15H14V16.5C14 16.6326 14.0527 16.7598 14.1464 16.8536C14.2402 16.9473 14.3674 17 14.5 17C14.6326 17 14.7598 16.9473 14.8536 16.8536C14.9473 16.7598 15 16.6326 15 16.5V15H16.5C16.6326 15 16.7598 14.9473 16.8536 14.8536C16.9473 14.7598 17 14.6326 17 14.5C17 14.3674 16.9473 14.2402 16.8536 14.1464C16.7598 14.0527 16.6326 14 16.5 14H15V12.5Z" fill="#4F4F4F"/>
</g>
</svg>
