<svg width="14" height="14" viewBox="0 0 14 14" fill="none" xmlns="http://www.w3.org/2000/svg">
<path fill-rule="evenodd" clip-rule="evenodd" d="M6.5887 9.30104L10.8532 13.6673C11.281 14.1086 11.5594 14.1132 11.995 13.6673L12.8506 12.791C13.2698 12.362 13.2982 12.0804 12.8506 11.6221L8.33576 7.00018L12.851 2.37827C13.2739 1.94387 13.2821 1.65071 12.851 1.2089L11.9954 0.333102C11.5515 -0.121471 11.2773 -0.100472 10.8536 0.333102L6.5887 4.69931L2.32419 0.333513C1.9005 -0.10006 1.62627 -0.12106 1.1824 0.333513L0.326786 1.20931C-0.104729 1.65112 -0.096906 1.94428 0.326786 2.37868L4.84164 7.00018L0.326786 11.6221C-0.120788 12.0804 -0.096906 12.362 0.326786 12.791L1.18199 13.6673C1.61392 14.1132 1.89226 14.1086 2.32378 13.6673L6.5887 9.30104Z" fill="#0CA2D9"/>
</svg>
