<svg width="20" height="20" viewBox="0 0 20 20" fill="none" xmlns="http://www.w3.org/2000/svg">
<path d="M10.0013 2.66699C5.39297 2.66699 1.66797 6.39199 1.66797 11.0003C1.66797 15.6087 5.39297 19.3337 10.0013 19.3337C14.6096 19.3337 18.3346 15.6087 18.3346 11.0003C18.3346 6.39199 14.6096 2.66699 10.0013 2.66699ZM10.0013 17.667C6.3263 17.667 3.33464 14.6753 3.33464 11.0003C3.33464 7.32533 6.3263 4.33366 10.0013 4.33366C13.6763 4.33366 16.668 7.32533 16.668 11.0003C16.668 14.6753 13.6763 17.667 10.0013 17.667ZM12.993 6.83366L10.0013 9.82533L7.00964 6.83366L5.83464 8.00866L8.8263 11.0003L5.83464 13.992L7.00964 15.167L10.0013 12.1753L12.993 15.167L14.168 13.992L11.1763 11.0003L14.168 8.00866L12.993 6.83366Z" fill="#393939"/>
</svg>
