<svg width="50" height="50" viewBox="0 0 50 50" fill="none" xmlns="http://www.w3.org/2000/svg">
<path fill-rule="evenodd" clip-rule="evenodd" d="M25 50C38.8071 50 50 38.8071 50 25C50 11.1929 38.8071 0 25 0C11.1929 0 0 11.1929 0 25C0 38.8071 11.1929 50 25 50Z" fill="#C4C4C4"/>
<mask id="mask0" mask-type="alpha" maskUnits="userSpaceOnUse" x="14" y="14" width="23" height="21">
<path fill-rule="evenodd" clip-rule="evenodd" d="M25.2288 14.8438V19.3103H36.395V34.9431H14.0625V14.8438H25.2288ZM16.2954 32.7099H18.5288V30.4766H16.2954V32.7099ZM18.5287 28.245H16.2954V26.0117H18.5287V28.245ZM16.2954 23.7762H18.5288V21.5429H16.2954V23.7762ZM18.5287 19.3114H16.2954V17.0781H18.5287V19.3114ZM20.7622 32.7099H22.9954V30.4766H20.7622V32.7099ZM22.9954 28.245H20.7622V26.0117H22.9954V28.245ZM20.7622 23.7762H22.9954V21.5429H20.7622V23.7762ZM22.9954 19.3114H20.7622V17.0781H22.9954V19.3114ZM25.229 32.7092H34.162V21.5429H25.229V23.7761H27.4623V26.0094H25.229V28.2427H27.4623V30.4759H25.229V32.7092ZM31.9285 23.7764H29.6953V26.0096H31.9285V23.7764ZM29.6953 28.2422H31.9285V30.4755H29.6953V28.2422Z" fill="white"/>
</mask>
<g mask="url(#mask0)">
<rect x="11.5278" y="10.832" width="28.125" height="28.125" fill="#FAFAFA"/>
</g>
</svg>
