<svg width="13" height="8" viewBox="0 0 13 8" fill="none" xmlns="http://www.w3.org/2000/svg">
<path d="M1.15773 0C0.93921 4.66147e-05 0.725163 0.0619233 0.540323 0.17848C0.355484 0.295037 0.207397 0.461516 0.113175 0.658679C0.0189533 0.855842 -0.0175575 1.07564 0.00786202 1.29268C0.0332815 1.50972 0.119594 1.71513 0.256824 1.88519L4.67335 7.35431C4.83616 7.55593 5.04203 7.71856 5.27586 7.83029C5.50969 7.94201 5.76555 8 6.0247 8C6.28385 8 6.53972 7.94201 6.77355 7.83029C7.00738 7.71856 7.21325 7.55593 7.37606 7.35431L11.7937 1.88519C11.931 1.71513 12.0173 1.50972 12.0427 1.29268C12.0681 1.07564 12.0316 0.855842 11.9374 0.658679C11.8432 0.461516 11.6951 0.295037 11.5102 0.17848C11.3254 0.0619233 11.1114 4.66147e-05 10.8928 0L1.15773 0Z" fill="#0CA2D9"/>
</svg>
