<svg width="38" height="36" viewBox="0 0 38 36" fill="none" xmlns="http://www.w3.org/2000/svg">
<path d="M12.4212 0.78125C11.1676 0.78125 9.96534 1.27924 9.07892 2.16567C8.19249 3.0521 7.6945 4.25435 7.6945 5.50795V7.37722H17.1382V5.50795C17.1382 4.25604 16.6415 3.05526 15.7572 2.16911C14.8729 1.28296 13.6731 0.783829 12.4212 0.78125V0.78125ZM4.59366 8.49683C4.34603 8.49616 4.10634 8.58415 3.91795 8.74486C3.72956 8.90557 3.6049 9.1284 3.56654 9.37304L0.587402 30.7527C0.598865 31.4458 0.881583 32.1067 1.37487 32.5936C1.86815 33.0805 2.53268 33.3546 3.22579 33.357H13.497L15.9699 15.6088C16.0387 15.1603 16.2662 14.7515 16.6111 14.4567C16.9559 14.1618 17.3952 14.0006 17.8489 14.0024H21.9184L21.2759 9.37304C21.2375 9.1284 21.1128 8.90557 20.9244 8.74486C20.7361 8.58415 20.4964 8.49616 20.2487 8.49683H18.2675V11.4176C18.2675 11.566 18.2085 11.7084 18.1036 11.8134C17.9986 11.9184 17.8562 11.9774 17.7077 11.9774C17.5592 11.9774 17.4169 11.9184 17.3119 11.8134C17.2069 11.7084 17.1479 11.566 17.1479 11.4176V9.57263L15.8044 10.7847V13.7298C15.8055 13.8037 15.7919 13.877 15.7643 13.9456C15.7367 14.0141 15.6957 14.0765 15.6437 14.129L11.3454 18.437C11.2178 18.5654 11.0661 18.6672 10.899 18.7367C10.732 18.8062 10.5528 18.842 10.3718 18.842C10.1909 18.842 10.0117 18.8062 9.8446 18.7367C9.67752 18.6672 9.52583 18.5654 9.39825 18.437L7.10062 16.1394C6.97169 16.0121 6.86931 15.8606 6.79944 15.6934C6.72957 15.5263 6.69359 15.347 6.69359 15.1658C6.69359 14.9847 6.72957 14.8053 6.79944 14.6382C6.86931 14.4711 6.97169 14.3195 7.10062 14.1922L11.4136 9.8793C11.4658 9.82664 11.528 9.78489 11.5965 9.75648C11.665 9.72807 11.7385 9.71356 11.8127 9.7138H15.2202H15.264L16.6514 8.49683H7.6945V11.4176C7.6945 11.566 7.63552 11.7084 7.53053 11.8134C7.42555 11.9184 7.28316 11.9774 7.13469 11.9774C6.98622 11.9774 6.84383 11.9184 6.73885 11.8134C6.63386 11.7084 6.57489 11.566 6.57489 11.4176V8.49683H4.59366ZM12.0464 10.8431L7.88921 14.9906C7.84223 15.0388 7.81594 15.1034 7.81594 15.1707C7.81594 15.238 7.84223 15.3026 7.88921 15.3508L10.1868 17.6484C10.2342 17.6951 10.298 17.7213 10.3645 17.7213C10.431 17.7213 10.4948 17.6951 10.5422 17.6484L14.7042 13.501V10.8577L12.0464 10.8431ZM12.981 11.1936C13.2998 11.1945 13.6085 11.3059 13.8543 11.5089C14.1002 11.7119 14.268 11.9939 14.3292 12.3068C14.3904 12.6197 14.3412 12.9441 14.1899 13.2247C14.0387 13.5054 13.7948 13.7249 13.4998 13.8459C13.2048 13.9668 12.877 13.9817 12.5723 13.888C12.2676 13.7943 12.0048 13.5978 11.8287 13.332C11.6526 13.0662 11.5742 12.7475 11.6068 12.4304C11.6394 12.1132 11.781 11.8172 12.0074 11.5928C12.1352 11.4651 12.287 11.364 12.4541 11.2955C12.6213 11.2269 12.8004 11.1923 12.981 11.1936ZM12.981 12.3084C12.9134 12.3111 12.8492 12.3388 12.8009 12.3863C12.7554 12.4342 12.73 12.4978 12.73 12.5639C12.73 12.6301 12.7554 12.6937 12.8009 12.7416C12.8496 12.7797 12.9105 12.7987 12.9723 12.795C13.034 12.7912 13.0922 12.765 13.1359 12.7213C13.1797 12.6776 13.2059 12.6193 13.2096 12.5576C13.2133 12.4959 13.1944 12.4349 13.1562 12.3863C13.1097 12.3392 13.0471 12.3113 12.981 12.3084ZM17.8489 15.1123C17.6634 15.1123 17.4841 15.1785 17.3431 15.299C17.2021 15.4194 17.1087 15.5863 17.0798 15.7694L14.5825 33.6929C14.5915 34.2499 14.819 34.781 15.2161 35.1717C15.6132 35.5624 16.1479 35.7813 16.7049 35.7812H32.1312C32.6677 35.7802 33.1841 35.5765 33.5767 35.2109C33.9694 34.8453 34.2095 34.3448 34.2487 33.8098C33.9838 33.7435 33.7447 33.5993 33.5624 33.396L29.5902 28.7959C29.5417 28.7401 29.5051 28.6752 29.4825 28.6049C29.4599 28.5346 29.4518 28.4605 29.4588 28.387L29.7119 25.1206L28.3343 23.4412C27.6891 24.2519 26.8075 24.8416 25.8119 25.1285C24.8163 25.4154 23.756 25.3853 22.7784 25.0423C21.8007 24.6993 20.954 24.0604 20.3559 23.2143C19.7578 22.3683 19.4379 21.357 19.4407 20.3209V17.7555C19.4407 17.607 19.4997 17.4647 19.6046 17.3597C19.7096 17.2547 19.852 17.1957 20.0005 17.1957C20.1489 17.1957 20.2913 17.2547 20.3963 17.3597C20.5013 17.4647 20.5603 17.607 20.5603 17.7555V20.3209C20.5059 20.8624 20.5657 21.4092 20.7357 21.9262C20.9056 22.4432 21.1821 22.9188 21.5472 23.3224C21.9123 23.726 22.3579 24.0485 22.8553 24.2693C23.3527 24.4901 23.8909 24.6041 24.4351 24.6041C24.9793 24.6041 25.5175 24.4901 26.0149 24.2693C26.5123 24.0485 26.9579 23.726 27.323 23.3224C27.6881 22.9188 27.9646 22.4432 28.1346 21.9262C28.3045 21.4092 28.3643 20.8624 28.3099 20.3209V17.7555C28.3099 17.607 28.3689 17.4647 28.4739 17.3597C28.5789 17.2547 28.7213 17.1957 28.8697 17.1957C29.0182 17.1957 29.1606 17.2547 29.2656 17.3597C29.3706 17.4647 29.4295 17.607 29.4295 17.7555V20.3209C29.4256 21.054 29.2594 21.7772 28.9428 22.4384L30.6319 24.4732L32.9928 24.6338L31.7418 15.7694C31.7138 15.5858 31.6206 15.4184 31.4794 15.2978C31.3382 15.1772 31.1584 15.1113 30.9727 15.1123H17.8489ZM30.7974 25.6074L30.593 28.2312L34.4094 32.6512C34.4304 32.6762 34.4562 32.6968 34.4853 32.7118C34.5143 32.7267 34.546 32.7359 34.5786 32.7386C34.6111 32.7413 34.6439 32.7376 34.675 32.7276C34.7061 32.7176 34.735 32.7016 34.7599 32.6804L37.1938 30.5629C37.2434 30.5191 37.2747 30.4583 37.2814 30.3925C37.2854 30.3249 37.2627 30.2585 37.2181 30.2075L33.4017 25.7875L30.7974 25.6074ZM32.3941 26.0552H32.4671C32.8299 26.0682 33.1727 26.2246 33.4201 26.4903C33.6675 26.756 33.7992 27.109 33.7863 27.4718C33.7734 27.8346 33.6169 28.1774 33.3512 28.4248C33.0856 28.6722 32.7325 28.8039 32.3697 28.791H32.2675C31.9047 28.7742 31.5635 28.614 31.3188 28.3456C31.0742 28.0772 30.9461 27.7226 30.9629 27.3598C30.9797 26.997 31.1399 26.6558 31.4083 26.4111C31.6767 26.1665 32.0313 26.0385 32.3941 26.0552ZM32.3941 27.1749C32.3613 27.1718 32.3282 27.1759 32.2971 27.1868C32.266 27.1977 32.2377 27.2152 32.214 27.2381C32.1792 27.2728 32.1554 27.3171 32.1458 27.3652C32.1361 27.4134 32.141 27.4634 32.1598 27.5088C32.1785 27.5542 32.2104 27.593 32.2512 27.6203C32.292 27.6477 32.3401 27.6622 32.3892 27.6622C32.4384 27.6622 32.4864 27.6477 32.5272 27.6203C32.5681 27.593 32.5999 27.5542 32.6187 27.5088C32.6374 27.4634 32.6423 27.4134 32.6326 27.3652C32.623 27.3171 32.5993 27.2728 32.5645 27.2381C32.5402 27.216 32.5118 27.199 32.4809 27.1881C32.4499 27.1772 32.4171 27.1727 32.3843 27.1749H32.3941Z" fill="#4794AC"/>
</svg>
