<svg width="44" height="44" viewBox="0 0 44 44" fill="none" xmlns="http://www.w3.org/2000/svg">
<g filter="url(#filter0_dd)">
<path fill-rule="evenodd" clip-rule="evenodd" d="M22 39C31.9411 39 40 30.9411 40 21C40 11.0589 31.9411 3 22 3C12.0589 3 4 11.0589 4 21C4 30.9411 12.0589 39 22 39Z" fill="white"/>
</g>
<path d="M17.6108 18.6929L17.5413 16.8656C17.5152 16.1774 18.0542 15.5958 18.7431 15.5689L27.7395 15.2271L27.6472 12.7964C27.6357 12.494 27.8076 12.2129 28.083 12.0864C28.3584 11.9598 28.6845 12.0126 28.9067 12.2185L33.6741 16.6369C33.9777 16.9183 33.9958 17.3932 33.7144 17.6968L29.296 22.4642C29.09 22.6864 28.7695 22.763 28.4853 22.6577C28.2011 22.5525 28.0078 22.2874 27.9969 21.9828L27.9039 19.5529L18.9075 19.8947C18.2213 19.92 17.6377 19.3846 17.6108 18.6929Z" fill="#24ABDC"/>
<path d="M15.8846 28.7818L11.1172 24.3634C10.8136 24.082 10.7955 23.6072 11.0769 23.3035L15.4953 18.5361C15.7013 18.3139 16.0218 18.2373 16.306 18.3426C16.5902 18.4478 16.7836 18.7143 16.7944 19.0175L16.8874 21.4474L25.8838 21.1056C26.5721 21.0795 27.1537 21.6185 27.1806 22.3074L27.25 24.1347C27.2761 24.8229 26.7371 25.4045 26.0482 25.4314L17.0518 25.7732L17.1441 28.2039C17.1556 28.5064 16.9837 28.7874 16.7083 28.914C16.4329 29.0405 16.1068 28.9878 15.8846 28.7818Z" fill="#24ABDC"/>
<defs>
<filter id="filter0_dd" x="0" y="0" width="44" height="44" filterUnits="userSpaceOnUse" color-interpolation-filters="sRGB">
<feFlood flood-opacity="0" result="BackgroundImageFix"/>
<feColorMatrix in="SourceAlpha" type="matrix" values="0 0 0 0 0 0 0 0 0 0 0 0 0 0 0 0 0 0 127 0"/>
<feOffset dy="1"/>
<feGaussianBlur stdDeviation="2"/>
<feColorMatrix type="matrix" values="0 0 0 0 0 0 0 0 0 0 0 0 0 0 0 0 0 0 0.05 0"/>
<feBlend mode="normal" in2="BackgroundImageFix" result="effect1_dropShadow"/>
<feColorMatrix in="SourceAlpha" type="matrix" values="0 0 0 0 0 0 0 0 0 0 0 0 0 0 0 0 0 0 127 0"/>
<feOffset dy="1"/>
<feGaussianBlur stdDeviation="1"/>
<feColorMatrix type="matrix" values="0 0 0 0 0.694118 0 0 0 0 0.694118 0 0 0 0 0.694118 0 0 0 0.25 0"/>
<feBlend mode="normal" in2="effect1_dropShadow" result="effect2_dropShadow"/>
<feBlend mode="normal" in="SourceGraphic" in2="effect2_dropShadow" result="shape"/>
</filter>
</defs>
</svg>
