<svg width="64" height="64" viewBox="0 0 64 64" fill="none" xmlns="http://www.w3.org/2000/svg">
<g filter="url(#filter0_dd)">
<path fill-rule="evenodd" clip-rule="evenodd" d="M32 59C47.464 59 60 46.464 60 31C60 15.536 47.464 3 32 3C16.536 3 4 15.536 4 31C4 46.464 16.536 59 32 59Z" fill="#24ABDC"/>
</g>
<path d="M32 33C33.1046 33 34 32.1046 34 31C34 29.8954 33.1046 29 32 29C30.8954 29 30 29.8954 30 31C30 32.1046 30.8954 33 32 33Z" fill="white"/>
<path d="M39 33C40.1046 33 41 32.1046 41 31C41 29.8954 40.1046 29 39 29C37.8954 29 37 29.8954 37 31C37 32.1046 37.8954 33 39 33Z" fill="white"/>
<path d="M25 33C26.1046 33 27 32.1046 27 31C27 29.8954 26.1046 29 25 29C23.8954 29 23 29.8954 23 31C23 32.1046 23.8954 33 25 33Z" fill="white"/>
<defs>
<filter id="filter0_dd" x="0" y="0" width="64" height="64" filterUnits="userSpaceOnUse" color-interpolation-filters="sRGB">
<feFlood flood-opacity="0" result="BackgroundImageFix"/>
<feColorMatrix in="SourceAlpha" type="matrix" values="0 0 0 0 0 0 0 0 0 0 0 0 0 0 0 0 0 0 127 0"/>
<feOffset dy="1"/>
<feGaussianBlur stdDeviation="2"/>
<feColorMatrix type="matrix" values="0 0 0 0 0 0 0 0 0 0 0 0 0 0 0 0 0 0 0.05 0"/>
<feBlend mode="normal" in2="BackgroundImageFix" result="effect1_dropShadow"/>
<feColorMatrix in="SourceAlpha" type="matrix" values="0 0 0 0 0 0 0 0 0 0 0 0 0 0 0 0 0 0 127 0"/>
<feOffset dy="1"/>
<feGaussianBlur stdDeviation="1"/>
<feColorMatrix type="matrix" values="0 0 0 0 0.694118 0 0 0 0 0.694118 0 0 0 0 0.694118 0 0 0 0.25 0"/>
<feBlend mode="normal" in2="effect1_dropShadow" result="effect2_dropShadow"/>
<feBlend mode="normal" in="SourceGraphic" in2="effect2_dropShadow" result="shape"/>
</filter>
</defs>
</svg>
