<svg width="35" height="37" viewBox="0 0 35 37" fill="none" xmlns="http://www.w3.org/2000/svg">
<path d="M16.1503 14.4829V16.6727C16.1503 18.0772 12.5371 19.2174 8.07898 19.2174C3.62082 19.2174 0.00764692 18.0847 0.00764692 16.6727V14.4829C0.00764692 13.0784 3.62082 11.9382 8.07898 11.9382C12.5371 11.9382 16.1503 13.0746 16.1503 14.4829ZM8.07898 21.6299C5.15021 21.6299 2.11055 21.1957 0.0497051 20.1197C0.0181501 20.2083 0.00136364 20.3014 0 20.3953V22.5851C0 23.9896 3.61317 25.1298 8.07133 25.1298C12.5295 25.1298 16.1427 23.9972 16.1427 22.5851V20.3953C16.1413 20.3014 16.1245 20.2083 16.093 20.1197C14.0627 21.1957 11.0039 21.6299 8.07898 21.6299ZM8.07898 27.5575C5.15021 27.5575 2.11055 27.1233 0.0497051 26.0473C0.0180843 26.1358 0.00129587 26.2289 0 26.3229V28.5127C0 29.9171 3.61317 31.0574 8.07133 31.0574C12.5295 31.0574 16.1427 29.9247 16.1427 28.5127V26.3229C16.1414 26.2289 16.1246 26.1358 16.093 26.0473C14.0627 27.1233 11.0039 27.5612 8.07898 27.5612V27.5575ZM8.07898 33.485C5.15021 33.485 2.11055 33.0508 0.0497051 31.9748C0.0181501 32.0634 0.00136364 32.1565 0 32.2504V34.4402C0.00382346 35.8673 3.62082 37 8.07898 37C12.5371 37 16.1503 35.8673 16.1503 34.4553V32.2655C16.149 32.1716 16.1322 32.0785 16.1006 31.9899C14.0627 33.0508 11.0039 33.485 8.07898 33.485ZM26.9287 17.862C22.4705 17.862 18.8573 18.9946 18.8573 20.4066V22.5964C18.8573 24.0009 22.4705 25.1411 26.9287 25.1411C31.3868 25.1411 35 24.0085 35 22.5964V20.4066C35.0038 19.0022 31.3868 17.862 26.9287 17.862ZM26.9287 27.5575C24.0037 27.5612 20.9449 27.1233 18.907 26.051C18.8755 26.1396 18.8587 26.2327 18.8573 26.3266V28.5164C18.8573 29.9209 22.4705 31.0611 26.9287 31.0611C31.3868 31.0611 35 29.9285 35 28.5164V26.3266C34.9986 26.2327 34.9818 26.1396 34.9503 26.051C32.8971 27.1233 29.8574 27.5612 26.9287 27.5612V27.5575ZM29.8154 0.951457C29.7378 0.767172 29.6234 0.600237 29.4789 0.460641C29.334 0.317741 29.1627 0.203666 28.9742 0.124621C28.768 0.041079 28.5471 -0.0012679 28.3242 2.89074e-05H25.5331C25.3141 -7.45939e-05 25.0971 0.0422553 24.8946 0.124621C24.705 0.202033 24.5323 0.314844 24.3861 0.456865C24.2416 0.596461 24.1272 0.763397 24.0496 0.947681C23.9712 1.1367 23.9347 1.3401 23.9425 1.54421L24.1719 7.99278H22.3023C22.1741 7.9929 22.0461 8.00427 21.9199 8.02676C21.7891 8.0488 21.661 8.08422 21.5376 8.13247C21.423 8.17657 21.3139 8.23358 21.2126 8.30237C21.1154 8.36971 21.028 8.44972 20.9526 8.54023C20.8526 8.66127 20.7761 8.79951 20.727 8.94798C20.6804 9.08786 20.6609 9.23516 20.6696 9.38216C20.6808 9.53258 20.7197 9.67972 20.7844 9.81635C20.8514 9.95526 20.9405 10.0827 21.0482 10.1939L25.7013 15.1776C25.7757 15.2561 25.8591 15.3258 25.9499 15.3852C26.0436 15.4469 26.1435 15.4988 26.2481 15.54C26.3555 15.5833 26.4669 15.6161 26.5807 15.6382C26.8156 15.6827 27.057 15.6827 27.2919 15.6382C27.4057 15.6162 27.5171 15.5833 27.6245 15.54C27.7279 15.4987 27.8266 15.4469 27.9189 15.3852C28.0086 15.3259 28.0908 15.2562 28.1636 15.1776L32.7977 10.1939C32.8506 10.1371 32.8992 10.0766 32.943 10.0127C32.9852 9.95027 33.0223 9.88462 33.0539 9.81635C33.0853 9.74943 33.1109 9.67995 33.1303 9.6087C33.1496 9.53824 33.1624 9.46621 33.1686 9.39349C33.182 9.22843 33.1599 9.06243 33.1036 8.90645C33.0843 8.85455 33.0613 8.80409 33.0347 8.75543C32.9728 8.63712 32.8928 8.52889 32.7977 8.43451C32.7 8.33926 32.5893 8.25793 32.4689 8.19288C32.3484 8.12586 32.22 8.07386 32.0865 8.03808C31.9389 8.00227 31.7874 7.98452 31.6353 7.98523H29.693L29.9224 1.53666C29.9286 1.33634 29.8922 1.13697 29.8154 0.951457ZM26.9287 33.485C23.9999 33.485 20.9602 33.0508 18.8994 31.9748C18.8678 32.0634 18.851 32.1565 18.8497 32.2504V34.4402C18.8573 35.8673 22.4743 37 26.9287 37C31.383 37 35 35.8673 35 34.4553V32.2655C34.9986 32.1716 34.9818 32.0785 34.9503 31.9899C32.8971 33.0508 29.8574 33.485 26.9287 33.485Z" fill="#49AF17"/>
</svg>
