<svg xmlns="http://www.w3.org/2000/svg" width="132" height="132" fill="none"  xmlns:v="https://vecta.io/nano"><path d="M4.125 125.812l17.738-6.187-13.406-6.187-4.331 12.374z" fill="#f7b600"/><path d="M55.481 75.075L30.525 49.913 26.4 61.463l29.081 13.612z" fill="#ffdd7d"/><path d="M26.4 61.462l-4.537 12.994 55.275 25.781 2.681-.825-24.338-24.337L26.4 61.462z" fill="#f7b600"/><path d="M17.531 87.45l41.25 19.182 18.356-6.394-55.275-25.781-4.331 12.994z" fill="#ffdd7d"/><path d="M12.994 100.443l27.225 12.788 18.563-6.6-41.25-19.181-4.538 12.993z" fill="#f7b600"/><path d="M12.994 100.444l-4.538 12.994 13.406 6.187 18.356-6.393-27.225-12.788z" fill="#ffdd7d"/><path d="M65.794 64.35c13.819 13.612 21.037 28.875 16.088 33.825-5.156 4.95-20.419-2.062-34.444-15.881C33.619 68.681 26.4 53.418 31.35 48.468c5.156-4.95 20.419 2.269 34.444 15.881z" fill="#493816"/><path d="M48.469 29.906c-3.3-4.744.206-6.806 4.744-5.981-4.331-5.156-1.65-8.869 5.156-7.425 2.063.413-.825 3.919-2.681 3.919 5.569 4.125 2.475 8.662-3.506 7.631 5.363 7.219-3.712 5.363-7.837 5.775-1.031 5.362 5.156 11.55 3.094 11.55-4.538 0-11.962-17.119 1.031-15.469z" fill="#42ade2"/><path d="M91.781 39.807c-3.094 1.444-11.756-12.169-1.031-12.375-6.187-5.569-5.362-8.25 2.888-8.456-9.487-9.487 5.569-12.788 7.013-7.837.412 1.444-4.538-1.238-6.188 1.444-1.856 3.094 11.55 11.138-2.269 10.519 5.156 5.156 5.362 7.631-2.681 8.456 1.031 1.65 4.331 7.425 2.269 8.25z" fill="#ff8736"/><path d="M95.287 71.982l3.094-2.681s2.888 4.331 4.95 5.981c1.65-7.425 1.238-11.756 9.694-6.806-4.744-12.788 3.094-8.044 10.725-4.538-.413-3.3 0-2.888 3.3-3.919 2.887 10.931-4.95 7.631-11.138 4.125 3.713 9.9-.206 9.281-8.043 5.981-.207 4.125-1.444 8.869-3.919 9.281-2.888.825-8.663-7.425-8.663-7.425z" fill="#ed4c5c"/><path d="M72.187 41.456c-3.712 4.95-9.694 7.631-14.025 11.963-4.538 4.537-7.219 16.912-7.219 16.912s1.65-12.994 5.981-17.944c3.919-4.538 9.694-7.838 12.788-12.994 5.362-9.487.412-21.863-6.6-29.081 1.444-1.238 3.506-2.887 4.538-4.125 6.806 8.456 12.581 24.75 4.537 35.269z" fill="#c28fef"/><path d="M78.581 51.975c-5.363 3.919-9.281 9.694-12.994 15.056-3.3 4.744-13.819 10.725-13.819 10.725S61.669 70.95 64.762 66c3.713-6.188 7.425-12.581 13.2-17.119 11.55-8.869 28.257-8.044 41.25-3.3-.825 1.856-2.268 5.775-2.268 5.775s-27.432-7.425-38.363.619z" fill="#ff8736"/><path d="M101.475 50.944c-3.506 4.538-5.156 10.106-7.837 15.263-2.475 4.744-5.775 9.281-10.519 11.756C77.756 80.644 66 79.819 66 79.819s11.756-.206 16.706-3.506 7.631-9.075 9.488-14.438c3.713-10.312 8.25-21.45 18.975-25.987.619 1.856 2.062 5.775 2.062 5.775s-5.981 1.65-11.756 9.281zM6.621 29.546l5.833-5.835 5.835 5.833-5.833 5.837-5.835-5.835z" fill="#42ade2"/><path d="M14.794 47.844l5.831-5.833 5.833 5.833-5.833 5.833-5.831-5.833z" fill="#ff8736"/><path d="M29.614 20.258l5.833-5.833 5.833 5.833-5.833 5.833-5.833-5.833z" fill="#ed4c5c"/><path d="M93.235 90.123l5.833-5.835 5.833 5.835-5.833 5.833-5.833-5.833z" fill="#c28fef"/><path d="M80.237 110.117l5.833-5.833 5.835 5.835-5.835 5.833-5.833-5.835z" fill="#ed4c5c"/><path d="M105.763 114.689l5.833-5.835 5.833 5.835-5.833 5.833-5.833-5.833z" fill="#ff8736"/><path d="M111.536 88.133l5.832-5.833 5.833 5.833-5.833 5.835-5.832-5.835zm-9.739-61.685l5.832-5.835 5.835 5.835-5.833 5.833-5.834-5.833z" fill="#42ade2"/><path d="M39.278 61.446l5.835-5.833 5.833 5.833-5.833 5.835-5.835-5.835z" fill="#ed4c5c"/></svg>