<svg width="40" height="40" viewBox="0 0 40 40" fill="none" xmlns="http://www.w3.org/2000/svg">
<rect x="0.5" y="0.5" width="39" height="39" rx="4.5" fill="#FAFAFA" stroke="#0CA2D9"/>
<mask id="mask0" mask-type="alpha" maskUnits="userSpaceOnUse" x="0" y="0" width="40" height="40">
<rect x="0.5" y="0.5" width="39" height="39" rx="4.5" fill="white" stroke="white"/>
</mask>
<g mask="url(#mask0)">
</g>
<path fill-rule="evenodd" clip-rule="evenodd" d="M19.9986 34.544C28.0318 34.544 34.544 28.0318 34.544 19.9986C34.544 11.9653 28.0318 5.45312 19.9986 5.45312C11.9653 5.45312 5.45312 11.9653 5.45312 19.9986C5.45312 28.0318 11.9653 34.544 19.9986 34.544Z" fill="#0CA2D9"/>
<path fill-rule="evenodd" clip-rule="evenodd" d="M12.2617 12.2617H19.139V20.8584H12.2617V12.2617ZM27.7357 12.2617H20.8584V17.4197H27.7357V12.2617ZM17.4201 19.1385V13.9805H13.9814V19.1385H17.4201ZM26.0168 15.6998V13.9805H22.5781V15.6998H26.0168ZM26.0168 20.8586V26.0166H22.5781V20.8586H26.0168ZM17.4201 26.0165V24.2971H13.9814V26.0165H17.4201ZM27.7357 19.1403H20.8584V27.7369H27.7357V19.1403ZM12.2617 22.5779H19.139V27.7359H12.2617V22.5779Z" fill="white"/>
<mask id="mask1" mask-type="alpha" maskUnits="userSpaceOnUse" x="12" y="12" width="16" height="16">
<path fill-rule="evenodd" clip-rule="evenodd" d="M12.2617 12.2617H19.139V20.8584H12.2617V12.2617ZM27.7357 12.2617H20.8584V17.4197H27.7357V12.2617ZM17.4201 19.1385V13.9805H13.9814V19.1385H17.4201ZM26.0168 15.6998V13.9805H22.5781V15.6998H26.0168ZM26.0168 20.8586V26.0166H22.5781V20.8586H26.0168ZM17.4201 26.0165V24.2971H13.9814V26.0165H17.4201ZM27.7357 19.1403H20.8584V27.7369H27.7357V19.1403ZM12.2617 22.5779H19.139V27.7359H12.2617V22.5779Z" fill="white"/>
</mask>
<g mask="url(#mask1)">
<rect x="9.97656" y="10.2031" width="19.5905" height="19.5906" fill="white"/>
</g>
</svg>
