<svg xmlns="http://www.w3.org/2000/svg" xmlns:xlink="http://www.w3.org/1999/xlink" width="601" height="300" fill="none" xmlns:v="https://vecta.io/nano"><style><![CDATA[.B{fill-rule:evenodd}.C{fill:#4aa8ff}.D{fill:#cdcdcd}.E{opacity:.85}.F{fill:#637381}.G{stroke:#e4e7eb}.H{stroke-dasharray:4 4}]]></style><g filter="url(#B)"><rect x="3" y="2" width="595" height="294" rx="4" fill="#fff"/></g><path d="M510.15 27.157h3.706V28h-4.742v-7.82h1.036v6.977zm8.315.843c-.057-.115-.104-.32-.14-.612-.462.48-1.013.72-1.654.72-.573 0-1.044-.16-1.413-.483s-.548-.738-.548-1.235c0-.605.23-1.074.688-1.407s1.1-.505 1.944-.505h.967v-.457c0-.347-.104-.623-.31-.827s-.514-.312-.92-.312c-.354 0-.652.1-.89.27s-.36.396-.36.65h-1c0-.3.102-.57.306-.838s.487-.487.838-.645.743-.236 1.165-.236c.67 0 1.194.168 1.574.505s.576.793.59 1.38v2.675c0 .534.068.958.204 1.273V28h-1.042zm-1.65-.757c.31 0 .607-.08.886-.242s.482-.37.607-.628V25.18h-.78c-1.217 0-1.826.356-1.826 1.07 0 .312.104.555.312.73s.474.263.8.263zm7.428-.784c0-.27-.102-.476-.306-.623s-.553-.28-1.058-.387-.9-.236-1.198-.387-.512-.33-.655-.537-.2-.455-.2-.74c0-.476.2-.88.602-1.21s.92-.494 1.547-.494c.66 0 1.192.17 1.6.5s.618.775.618 1.305h-1c0-.272-.116-.507-.35-.704s-.52-.295-.87-.295c-.362 0-.645.08-.85.236s-.306.363-.306.618a.6.6 0 0 0 .285.542c.2.122.53.238 1.026.35s.9.244 1.208.397.535.34.682.56.226.478.226.8c0 .52-.208.936-.623 1.25s-.954.467-1.617.467c-.465 0-.877-.082-1.235-.247s-.64-.394-.844-.687a1.69 1.69 0 0 1-.3-.961h.993a1.04 1.04 0 0 0 .398.795c.25.193.58.3.988.3.376 0 .677-.075.902-.226s.344-.358.344-.612zm3.636-5.677v1.407h1.085v.768h-1.085v3.604c0 .233.05.408.145.526s.262.172.495.172a2.4 2.4 0 0 0 .472-.065V28c-.26.072-.515.107-.762.107-.444 0-.78-.134-1.005-.403s-.338-.65-.338-1.144v-3.604h-1.058v-.768h1.058V20.78h.993zm9.926-.043L534.566 28h-1.042l3.228-7.004h-4.232v-.816h5.285v.56zm3.717 4.308c0-.892.21-1.608.634-2.148a2 2 0 0 1 1.659-.816c.68 0 1.22.233 1.617.698v-3.03h.994V28h-.913l-.05-.623c-.397.487-.95.73-1.66.73a1.99 1.99 0 0 1-1.649-.827c-.423-.552-.634-1.27-.634-2.16v-.075zm.994.113c0 .66.136 1.175.408 1.547s.648.56 1.128.56c.63 0 1.1-.283 1.38-.85v-2.67c-.297-.548-.754-.822-1.37-.822-.486 0-.866.188-1.138.564s-.408.933-.408 1.67zM551.56 28c-.058-.115-.104-.32-.14-.612-.462.48-1.013.72-1.654.72-.573 0-1.044-.16-1.413-.483s-.548-.738-.548-1.235c0-.605.23-1.074.688-1.407s1.1-.505 1.944-.505h.967v-.457c0-.347-.104-.623-.312-.827s-.514-.312-.918-.312c-.355 0-.652.1-.892.27s-.36.396-.36.65h-1c0-.3.102-.57.306-.838s.487-.487.838-.645a2.84 2.84 0 0 1 1.166-.236c.67 0 1.194.168 1.574.505s.576.793.6 1.38v2.675c0 .534.068.958.205 1.273V28h-1.042zm-1.65-.757c.31 0 .607-.08.886-.242s.48-.37.607-.628V25.18h-.78c-1.217 0-1.826.356-1.826 1.07 0 .312.104.555.31.73s.475.263.8.263zm5.86-.698l1.354-4.356h1.063l-2.336 6.708c-.362.967-.936 1.45-1.724 1.45l-.188-.016-.37-.07v-.806l.27.02c.336 0 .598-.068.784-.204s.346-.385.467-.747l.22-.59-2.074-5.747h1.085l1.45 4.356zm6.693-.086c0-.27-.102-.476-.306-.623s-.554-.28-1.058-.387-.9-.236-1.198-.387-.512-.33-.655-.537-.2-.455-.2-.74c0-.476.2-.88.602-1.21s.92-.494 1.547-.494c.658 0 1.192.17 1.6.5s.618.775.618 1.305h-1c0-.272-.117-.507-.35-.704s-.52-.295-.87-.295c-.362 0-.645.08-.85.236s-.306.363-.306.618c0 .24.095.42.284.542s.532.238 1.026.35.9.244 1.21.397.535.34.682.56.226.478.226.8a1.49 1.49 0 0 1-.624 1.251c-.415.312-.954.467-1.616.467-.466 0-.878-.082-1.236-.247s-.64-.394-.843-.687a1.69 1.69 0 0 1-.301-.961h.994a1.04 1.04 0 0 0 .397.795c.25.193.58.3.99.3.376 0 .677-.075.902-.226s.344-.358.344-.612z" fill="#575757" class="E"/><mask id="A" mask-type="alpha" maskUnits="userSpaceOnUse" x="568" y="22" width="8" height="5"><path d="M568.684 22l3.658 4.073L576 22h-7.316z" fill="#fff"/></mask><g mask="url(#A)"><path transform="rotate(90 581.121 14.016)" fill="#9ea0a5" d="M581.12 14.016h19.163v17.56H581.12z"/></g><path d="M19 256h471v1H19v-1z" fill="#e4e7eb" class="B"/><path d="M22.987 191h-1v-6.623l-2.003.736v-.902l2.847-1.07h.156V191zm7.815-3.335c0 1.163-.2 2.028-.596 2.594s-1.02.848-1.864.848c-.834 0-1.452-.275-1.853-.827s-.6-1.382-.623-2.48v-1.327c0-1.15.2-2.003.596-2.562s1.02-.838 1.87-.838c.84 0 1.46.27 1.858.8s.602 1.368.612 2.492v1.3zm-.994-1.36c0-.842-.118-1.454-.354-1.837s-.6-.58-1.123-.58-.88.2-1.112.574-.353.973-.36 1.767v1.6c0 .845.122 1.47.365 1.875s.62.6 1.117.6c.5 0 .854-.2 1.1-.57s.365-.977.376-1.794v-1.627zm4 2.003l-.623.65V191h-.994v-8.25h.994v5l.532-.64 1.8-1.913h1.2l-2.26 2.428L37 191h-1.166l-2.025-2.7zM20.355 222.08l.397-3.9h4.007v.918h-3.164l-.236 2.132c.383-.225.818-.338 1.305-.338.712 0 1.278.236 1.697.7s.628 1.105.628 1.907-.218 1.44-.655 1.907-1.04.692-1.82.692c-.7 0-1.255-.2-1.692-.574s-.686-.913-.747-1.6h.94c.06.447.22.786.478 1.015s.598.338 1.02.338c.462 0 .823-.157 1.085-.472s.397-.75.397-1.305c0-.523-.143-.942-.43-1.257s-.66-.478-1.133-.478c-.433 0-.773.095-1.02.284l-.263.215-.795-.204zm7.444 1.23l-.623.65V226h-.994v-8.25h.994v5l.532-.64 1.8-1.913h1.208l-2.26 2.428L31 226h-1.166l-2.025-2.7z" class="E F"/><path d="M57 154.312a4 4 0 0 1 4-4h9a4 4 0 0 1 4 4.001V256.56H57V154.312z" class="B C"/><path d="M80 190.29a4 4 0 0 1 4-4h9a4 4 0 0 1 4 4v66.27H80v-66.27z" class="D"/><path d="M117 230.207a4 4 0 0 1 4-4h9a4 4 0 0 1 4 4v26.356h-17v-26.356z" class="B C"/><path d="M140 135.762a4 4 0 0 1 4-4h9a4 4 0 0 1 4 4V256.56h-17V135.762z" class="D"/><use xlink:href="#C" class="B C"/><path d="M200 184.113a4 4 0 0 1 4-4h9a4 4 0 0 1 4 4v72.453h-17v-72.453z" class="D"/><path d="M237 91.9a4 4 0 0 1 4-4h9a4 4 0 0 1 4 4v164.646h-17V91.9z" class="B C"/><path d="M260 77.297a4 4 0 0 1 4-4h9a4 4 0 0 1 4 4v179.26h-17V77.297z" class="D"/><path d="M297 80.668a4 4 0 0 1 4-4h9a4 4 0 0 1 4 4v175.888h-17V80.668z" class="B C"/><path d="M320 77.297a4 4 0 0 1 4-4h9a4 4 0 0 1 4 4v179.26h-17V77.297z" class="D"/><use xlink:href="#C" x="180" class="B C"/><path d="M380 105.97a4 4 0 0 1 4-4h9a4 4 0 0 1 4 4v150.59h-17V105.97z" class="D"/><use xlink:href="#C" x="240" class="B C"/><path d="M440 178.398a4 4 0 0 1 4-4h9a4 4 0 0 1 4 4v78.637h-17v-78.637z" class="D"/><path d="M67.232 273h-1v-6.623l-2.004.736v-.902l2.847-1.07h.156V273zM77 270.96h-3.276l-.736 2.04h-1.063l2.986-7.82h.902l2.992 7.82h-1.058L77 270.96zm-2.965-.85h2.66l-1.332-3.657-1.327 3.657zM83 272.425c-.387.455-.954.682-1.703.682-.62 0-1.092-.18-1.418-.537s-.485-.895-.5-1.6v-3.782h.994v3.755c0 .88.358 1.32 1.074 1.32.76 0 1.264-.283 1.515-.848v-4.228h.994V273h-.945l-.022-.575zm2.02-2.38c0-.906.2-1.626.628-2.16s.974-.806 1.665-.806c.7 0 1.262.25 1.66.752l.048-.645h.908v5.672c0 .752-.224 1.345-.67 1.778s-1.042.65-1.794.65a2.99 2.99 0 0 1-1.23-.268c-.4-.18-.707-.425-.918-.736l.516-.596c.426.526.947.8 1.563.8.483 0 .86-.136 1.128-.408s.408-.655.408-1.15v-.5c-.398.458-.94.687-1.627.687a1.99 1.99 0 0 1-1.654-.821c-.42-.548-.628-1.295-.628-2.24zm1 .113c0 .655.134 1.17.403 1.547a1.31 1.31 0 0 0 1.128.558 1.45 1.45 0 0 0 1.38-.854v-2.653c-.304-.555-.76-.833-1.37-.833a1.32 1.32 0 0 0-1.133.564c-.273.376-.408.933-.408 1.67zM129.1 273h-5.124v-.714l2.707-3.008c.4-.455.676-.824.827-1.107s.23-.58.23-.886c0-.408-.124-.743-.37-1.004s-.576-.392-.988-.392c-.494 0-.88.14-1.155.424s-.408.67-.408 1.17h-.994c0-.72.23-1.302.693-1.746s1.087-.666 1.864-.666c.727 0 1.3.192 1.724.575s.634.886.634 1.52c0 .77-.5 1.687-1.472 2.75l-2.095 2.272h3.927v.8zm7.9-2.04h-3.276l-.736 2.04h-1.064l2.987-7.82h.902l2.992 7.82h-1.058l-.747-2.04zm-2.965-.85h2.66l-1.332-3.657-1.327 3.657zm8.966 2.315c-.387.455-.954.682-1.703.682-.62 0-1.092-.18-1.418-.537s-.485-.895-.488-1.6v-3.782h.993v3.755c0 .88.358 1.32 1.075 1.32.76 0 1.264-.283 1.514-.848v-4.228h.994V273h-.945l-.022-.575zm2.02-2.38c0-.906.2-1.626.63-2.16s.974-.806 1.665-.806c.7 0 1.262.25 1.66.752l.05-.645h.907v5.672c0 .752-.223 1.345-.67 1.778s-1.042.65-1.794.65a2.99 2.99 0 0 1-1.23-.268c-.4-.18-.707-.425-.918-.736l.515-.596c.426.526.947.8 1.563.8.484 0 .86-.136 1.128-.408s.408-.655.408-1.15v-.5c-.397.458-.94.687-1.627.687a1.99 1.99 0 0 1-1.654-.821c-.42-.548-.63-1.295-.63-2.24zm1 .113c0 .655.135 1.17.403 1.547s.645.558 1.128.558a1.45 1.45 0 0 0 1.38-.854v-2.653c-.304-.555-.76-.833-1.37-.833a1.32 1.32 0 0 0-1.134.564c-.272.376-.408.933-.408 1.67zm39.39-1.552h.747c.47-.007.838-.13 1.106-.37s.403-.564.403-.972c0-.917-.456-1.375-1.37-1.375-.43 0-.774.123-1.032.37s-.38.568-.38.972h-.994a1.99 1.99 0 0 1 .677-1.541c.455-.412 1.03-.618 1.73-.618.737 0 1.316.195 1.734.586s.63.932.63 1.627c0 .34-.1.67-.333.988s-.518.557-.897.715c.43.136.76.36.994.677s.354.7.354 1.154c0 .702-.23 1.26-.687 1.67s-1.055.617-1.8.617-1.332-.198-1.794-.596-.687-.922-.687-1.573h1c0 .4.134.74.402.988s.63.37 1.08.37c.48 0 .847-.125 1.1-.376s.38-.6.38-1.08c0-.455-.14-.804-.42-1.048s-.682-.368-1.208-.376h-.747v-.8zm11.6 2.354h-3.276l-.736 2.04h-1.064l2.987-7.82h.902l2.992 7.82h-1.058l-.747-2.04zm-2.965-.85h2.66l-1.332-3.657-1.327 3.657zm8.966 2.315c-.387.455-.954.682-1.703.682-.62 0-1.092-.18-1.418-.537s-.485-.895-.488-1.6v-3.782h.993v3.755c0 .88.358 1.32 1.075 1.32.76 0 1.264-.283 1.514-.848v-4.228h.994V273h-.945l-.022-.575zm2.02-2.38c0-.906.2-1.626.63-2.16s.974-.806 1.665-.806c.7 0 1.262.25 1.66.752l.05-.645h.907v5.672c0 .752-.223 1.345-.67 1.778s-1.042.65-1.794.65a2.99 2.99 0 0 1-1.23-.268c-.4-.18-.707-.425-.918-.736l.515-.596c.426.526.947.8 1.563.8.484 0 .86-.136 1.128-.408s.408-.655.408-1.15v-.5c-.397.458-.94.687-1.627.687a1.99 1.99 0 0 1-1.654-.821c-.42-.548-.63-1.295-.63-2.24zm1 .113c0 .655.135 1.17.403 1.547s.645.558 1.128.558a1.45 1.45 0 0 0 1.38-.854v-2.653c-.304-.555-.76-.833-1.37-.833a1.32 1.32 0 0 0-1.134.564c-.272.376-.408.933-.408 1.67zm42.14.216h1.085v.8h-1.085V273h-1v-1.815h-3.56v-.586l3.502-5.42h1.058v5.194zm-3.432 0h2.433v-3.835l-.118.214-2.315 3.62zm12.27.585h-3.276l-.736 2.04h-1.064l2.987-7.82h.902l2.992 7.82h-1.058l-.747-2.04zm-2.965-.85h2.66l-1.332-3.657-1.327 3.657zm8.966 2.315c-.387.455-.954.682-1.703.682-.62 0-1.092-.18-1.418-.537s-.485-.895-.488-1.6v-3.782h.993v3.755c0 .88.358 1.32 1.075 1.32.76 0 1.264-.283 1.514-.848v-4.228h.994V273h-.945l-.022-.575zm2.02-2.38c0-.906.2-1.626.63-2.16s.974-.806 1.665-.806c.7 0 1.262.25 1.66.752l.05-.645h.907v5.672c0 .752-.223 1.345-.67 1.778s-1.042.65-1.794.65a2.99 2.99 0 0 1-1.23-.268c-.4-.18-.707-.425-.918-.736l.515-.596c.426.526.947.8 1.563.8.484 0 .86-.136 1.128-.408s.408-.655.408-1.15v-.5c-.397.458-.94.687-1.627.687a1.99 1.99 0 0 1-1.654-.821c-.42-.548-.63-1.295-.63-2.24zm1 .113c0 .655.135 1.17.403 1.547s.645.558 1.128.558a1.45 1.45 0 0 0 1.38-.854v-2.653c-.304-.555-.76-.833-1.37-.833a1.32 1.32 0 0 0-1.134.564c-.272.376-.408.933-.408 1.67zm38.404-1.077l.398-3.9h4.006v.918h-3.163l-.237 2.132c.384-.225.82-.338 1.306-.338.712 0 1.278.236 1.697.7s.628 1.105.628 1.907-.218 1.44-.655 1.907c-.433.46-1.04.692-1.82.692-.7 0-1.255-.2-1.692-.574s-.685-.913-.746-1.6h.94c.06.447.22.786.478 1.015s.598.338 1.02.338c.462 0 .824-.157 1.085-.472s.398-.75.398-1.305c0-.523-.144-.942-.43-1.257s-.66-.478-1.133-.478c-.434 0-.774.095-1.02.284l-.263.215-.795-.204zM317 270.96h-3.276l-.736 2.04h-1.064l2.987-7.82h.902l2.992 7.82h-1.058l-.747-2.04zm-2.965-.85h2.66l-1.332-3.657-1.327 3.657zm8.966 2.315c-.387.455-.954.682-1.703.682-.62 0-1.092-.18-1.418-.537s-.485-.895-.488-1.6v-3.782h.993v3.755c0 .88.358 1.32 1.075 1.32.76 0 1.264-.283 1.514-.848v-4.228h.994V273h-.945l-.022-.575zm2.02-2.38c0-.906.2-1.626.63-2.16s.974-.806 1.665-.806c.7 0 1.262.25 1.66.752l.05-.645h.907v5.672c0 .752-.223 1.345-.67 1.778s-1.042.65-1.794.65a2.99 2.99 0 0 1-1.23-.268c-.4-.18-.707-.425-.918-.736l.515-.596c.426.526.947.8 1.563.8.484 0 .86-.136 1.128-.408s.408-.655.408-1.15v-.5c-.397.458-.94.687-1.627.687a1.99 1.99 0 0 1-1.654-.821c-.42-.548-.63-1.295-.63-2.24zm1 .113c0 .655.135 1.17.403 1.547s.645.558 1.128.558a1.45 1.45 0 0 0 1.38-.854v-2.653c-.304-.555-.76-.833-1.37-.833a1.32 1.32 0 0 0-1.134.564c-.272.376-.408.933-.408 1.67zm41.845-4.984v.844h-.183c-.773.014-1.4.243-1.847.687s-.724 1.07-.795 1.875c.412-.473.974-.7 1.686-.7.68 0 1.223.24 1.628.72s.612 1.1.612 1.86c0 .805-.22 1.45-.66 1.933s-1.024.725-1.76.725a2.23 2.23 0 0 1-1.821-.859c-.466-.576-.698-1.318-.698-2.224v-.38c0-1.44.306-2.54.918-3.298s1.53-1.153 2.745-1.17h.177zm-1.305 3.524c-.34 0-.654.102-.94.306a1.59 1.59 0 0 0-.596.768v.365c0 .645.145 1.164.435 1.558s.65.6 1.085.6c.447 0 .798-.165 1.052-.494s.387-.76.387-1.295-.13-.97-.392-1.3a1.25 1.25 0 0 0-1.03-.5zm10.44 2.26h-3.276l-.736 2.04h-1.064l2.987-7.82h.902l2.992 7.82h-1.058l-.747-2.04zm-2.965-.85h2.66l-1.332-3.657-1.327 3.657zm8.966 2.315c-.387.455-.954.682-1.703.682-.62 0-1.092-.18-1.418-.537s-.485-.895-.488-1.6v-3.782h.993v3.755c0 .88.358 1.32 1.075 1.32.76 0 1.264-.283 1.514-.848v-4.228h.994V273h-.945l-.022-.575zm2.02-2.38c0-.906.2-1.626.63-2.16s.974-.806 1.665-.806c.7 0 1.262.25 1.66.752l.05-.645h.907v5.672c0 .752-.223 1.345-.67 1.778s-1.042.65-1.794.65a2.99 2.99 0 0 1-1.23-.268c-.4-.18-.707-.425-.918-.736l.515-.596c.426.526.947.8 1.563.8.484 0 .86-.136 1.128-.408s.408-.655.408-1.15v-.5c-.397.458-.94.687-1.627.687a1.99 1.99 0 0 1-1.654-.821c-.42-.548-.63-1.295-.63-2.24zm1 .113c0 .655.135 1.17.403 1.547s.645.558 1.128.558a1.45 1.45 0 0 0 1.38-.854v-2.653c-.304-.555-.76-.833-1.37-.833a1.32 1.32 0 0 0-1.134.564c-.272.376-.408.933-.408 1.67zm42.993-4.418L425.777 273h-1.042l3.228-7.004h-4.233v-.816h5.285v.558zm7.985 5.22h-3.276l-.736 2.04h-1.064l2.987-7.82h.902l2.992 7.82h-1.058l-.747-2.04zm-2.965-.85h2.66l-1.332-3.657-1.327 3.657zm8.966 2.315c-.387.455-.954.682-1.703.682-.62 0-1.092-.18-1.418-.537s-.485-.895-.488-1.6v-3.782h.993v3.755c0 .88.358 1.32 1.075 1.32.76 0 1.264-.283 1.514-.848v-4.228h.994V273h-.945l-.022-.575zm2.02-2.38c0-.906.2-1.626.63-2.16s.974-.806 1.665-.806c.7 0 1.262.25 1.66.752l.05-.645h.907v5.672c0 .752-.223 1.345-.67 1.778s-1.042.65-1.794.65a2.99 2.99 0 0 1-1.23-.268c-.4-.18-.707-.425-.918-.736l.515-.596c.426.526.947.8 1.563.8.484 0 .86-.136 1.128-.408s.408-.655.408-1.15v-.5c-.397.458-.94.687-1.627.687a1.99 1.99 0 0 1-1.654-.821c-.42-.548-.63-1.295-.63-2.24zm1 .113c0 .655.135 1.17.403 1.547s.645.558 1.128.558a1.45 1.45 0 0 0 1.38-.854v-2.653c-.304-.555-.76-.833-1.37-.833a1.32 1.32 0 0 0-1.134.564c-.272.376-.408.933-.408 1.67z" fill="#a6b1bb"/><g class="G H"><path d="M40 223h450M40 121h450"/><path d="M40 154H490"/></g><path d="M24.845 124H19.72v-.714l2.707-3.008c.4-.455.677-.824.827-1.107s.23-.58.23-.886c0-.408-.123-.743-.37-1.004s-.576-.392-.988-.392c-.494 0-.88.14-1.155.424s-.408.67-.408 1.17h-.994c0-.72.23-1.302.693-1.746s1.087-.666 1.864-.666c.727 0 1.302.192 1.724.575s.634.886.634 1.52c0 .77-.5 1.687-1.472 2.75l-2.095 2.272h3.926v.8zm5.957-3.335c0 1.163-.2 2.028-.596 2.594s-1.02.848-1.864.848c-.834 0-1.452-.275-1.853-.827s-.6-1.382-.623-2.48v-1.327c0-1.15.2-2.003.596-2.562s1.02-.838 1.87-.838c.84 0 1.46.27 1.858.8s.602 1.368.612 2.492v1.3zm-.994-1.36c0-.842-.118-1.454-.354-1.837s-.6-.58-1.123-.58-.88.2-1.112.574-.353.973-.36 1.767v1.6c0 .845.122 1.47.365 1.875s.62.6 1.117.6c.5 0 .854-.2 1.1-.57s.365-.977.376-1.794v-1.627zm4 2.003l-.623.65V124h-.994v-8.25h.994v5l.532-.64 1.8-1.913h1.2l-2.26 2.428L37 124h-1.166l-2.025-2.7zM22.987 158h-1v-6.623l-2.003.736v-.902l2.847-1.07h.156V158zm3.368-3.92l.397-3.9h4.007v.918h-3.164l-.236 2.132c.383-.225.818-.338 1.305-.338.712 0 1.278.236 1.697.7s.628 1.105.628 1.907-.218 1.44-.655 1.907-1.04.692-1.82.692c-.7 0-1.255-.2-1.692-.574s-.686-.913-.747-1.6h.94c.06.447.22.786.478 1.015s.598.338 1.02.338c.462 0 .823-.157 1.085-.472s.397-.75.397-1.305c0-.523-.143-.942-.43-1.257s-.66-.478-1.133-.478c-.433 0-.773.095-1.02.284l-.263.215-.795-.204zm7.444 1.23l-.623.65V158h-.994v-8.25h.994v5l.532-.64 1.8-1.913h1.2l-2.26 2.428L37 158h-1.166l-2.025-2.7z" class="E F"/><path d="M40 52.5h0zm0 34h0z" class="G H"/><path d="M21.166 51.606h.747c.47-.007.838-.13 1.106-.37s.403-.564.403-.972c0-.917-.457-1.375-1.37-1.375-.43 0-.773.123-1.03.37s-.38.567-.38.972h-.994a1.99 1.99 0 0 1 .677-1.541c.455-.412 1.03-.618 1.73-.618.738 0 1.316.195 1.735.585s.628.933.628 1.628c0 .34-.1.67-.333.988a2 2 0 0 1-.897.714c.43.136.76.362.994.677s.354.7.354 1.155c0 .702-.23 1.26-.687 1.67s-1.055.618-1.8.618-1.332-.2-1.794-.596-.687-.922-.687-1.574h1c0 .412.134.74.403.988s.628.37 1.08.37c.48 0 .847-.125 1.1-.376s.38-.6.38-1.08c0-.455-.14-.804-.42-1.047s-.682-.37-1.208-.376h-.747v-.8zm9.636 1.058c0 1.164-.2 2.028-.596 2.594s-1.02.85-1.864.85c-.834 0-1.452-.276-1.853-.827s-.6-1.382-.623-2.48v-1.327c0-1.15.2-2.003.596-2.562s1.02-.838 1.87-.838c.84 0 1.46.27 1.858.8s.602 1.368.612 2.492v1.3zm-.994-1.36c0-.842-.118-1.454-.354-1.837s-.6-.58-1.123-.58-.88.2-1.112.575-.353.972-.36 1.767v1.6c0 .845.122 1.47.365 1.874s.62.602 1.117.602a1.24 1.24 0 0 0 1.1-.57c.246-.37.365-.978.376-1.794v-1.627zm4 2.003l-.623.65V56h-.994v-8.25h.994v5l.532-.64 1.8-1.912h1.2l-2.26 2.428L37 56h-1.166L33.8 53.3zM24.845 90H19.72v-.714l2.707-3.008c.4-.455.677-.823.827-1.106a1.85 1.85 0 0 0 .231-.886c0-.408-.123-.743-.37-1.004s-.576-.392-.988-.392c-.494 0-.88.14-1.155.424s-.408.67-.408 1.17h-.994c0-.72.23-1.302.693-1.746s1.087-.666 1.864-.666c.727 0 1.302.192 1.724.575s.634.886.634 1.52c0 .77-.5 1.686-1.472 2.75L20.92 89.2h3.926v.8zm1.5-3.92l.397-3.9h4.007v.918h-3.164l-.236 2.132c.383-.226.818-.338 1.305-.338.712 0 1.278.236 1.697.7s.64 1.104.64 1.906-.218 1.44-.655 1.907-1.04.693-1.82.693c-.7 0-1.255-.192-1.692-.575s-.686-.913-.747-1.6h.94c.06.448.22.786.478 1.015s.598.338 1.02.338c.462 0 .823-.158 1.085-.473s.397-.75.397-1.305c0-.523-.143-.942-.43-1.257s-.66-.478-1.133-.478c-.433 0-.773.095-1.02.285l-.263.215-.795-.204zM33.8 87.3l-.623.65V90h-.994v-8.25h.994v5l.532-.64 1.8-1.912h1.2l-2.26 2.428L37 90h-1.166L33.8 87.3z" class="E F"/><path d="M40 189H490" class="G H"/><g fill="#3a3b3f"><path d="M217.203 20.44H214.1V29h-1.716v-8.56h-3.076v-1.395h7.895v1.395zm-.63 4.792c0-.725.144-1.376.43-1.955s.7-1.03 1.2-1.34 1.116-.472 1.79-.472c.998 0 1.807.32 2.426.964.625.642.962 1.495 1.012 2.557l.007.4c0 .73-.14 1.38-.424 1.955a3.08 3.08 0 0 1-1.203 1.333c-.52.315-1.12.472-1.805.472-1.043 0-1.88-.346-2.508-1.04s-.937-1.625-.937-2.782v-.082zm1.66.144c0 .76.157 1.358.472 1.79s.752.643 1.312.643.996-.22 1.306-.656.472-1.078.472-1.92c0-.747-.162-1.34-.486-1.777-.32-.437-.754-.656-1.305-.656a1.52 1.52 0 0 0-1.292.649c-.32.428-.48 1.07-.48 1.928zm8.652-5.57v1.798h1.306v1.23h-1.306v4.13c0 .282.055.488.164.615s.315.185.602.185a2.56 2.56 0 0 0 .581-.068v1.285a4.09 4.09 0 0 1-1.094.157c-1.276 0-1.914-.704-1.914-2.112v-4.2h-1.217v-1.23h1.217v-1.798h1.66zm6.95 9.194c-.073-.14-.136-.37-.19-.7-.53.55-1.176.827-1.94.827-.743 0-1.35-.212-1.82-.636s-.704-.948-.704-1.572c0-.788.292-1.392.875-1.81s1.427-.636 2.516-.636h1.018v-.485c0-.383-.107-.688-.32-.916s-.54-.35-.978-.35c-.378 0-.688.096-.93.287s-.363.426-.363.718h-1.66c0-.406.135-.784.404-1.135s.633-.634 1.093-.834.982-.3 1.552-.3c.866 0 1.556.22 2.07.656s.78 1.044.793 1.832v3.336c0 .665.094 1.196.28 1.593V29h-1.696zM232 27.804a1.87 1.87 0 0 0 .923-.239c.292-.16.5-.374.656-.643v-1.395h-.895c-.615 0-1.078.107-1.388.32a1.04 1.04 0 0 0-.465.909c0 .32.105.574.315.766s.5.28.854.28zM238.707 29h-1.66V18.5h1.66V29zm10.564-2.564c0-.437-.155-.775-.465-1.012s-.86-.476-1.66-.718-1.44-.5-1.914-.807c-.907-.57-1.36-1.312-1.36-2.23 0-.802.326-1.463.977-1.982.657-.52 1.507-.78 2.55-.78.693 0 1.3.128 1.853.383s.968.62 1.278 1.094a2.78 2.78 0 0 1 .465 1.565h-1.723c0-.52-.164-.925-.492-1.217s-.788-.444-1.394-.444c-.566 0-1.005.12-1.32.362s-.465.58-.465 1.012c0 .365.17.67.506.916s.893.48 1.668.71 1.397.5 1.866.786.814.63 1.033 1.012.328.823.328 1.333c0 .83-.32 1.5-.957 1.982s-1.495.73-2.584.73a4.92 4.92 0 0 1-1.989-.396c-.602-.27-1.07-.638-1.41-1.107-.332-.47-.5-1.016-.5-1.64h1.73c0 .565.187 1.003.56 1.313s.9.465 1.607.465c.6 0 1.053-.12 1.353-.362.306-.246.458-.57.458-.97zM256.727 29c-.073-.14-.137-.37-.19-.7-.53.55-1.176.827-1.942.827-.743 0-1.35-.212-1.818-.636s-.704-.948-.704-1.572c0-.788.292-1.392.875-1.81s1.426-.636 2.516-.636h1.018v-.485c0-.383-.107-.688-.32-.916s-.54-.35-.978-.35c-.378 0-.688.096-.93.287s-.363.426-.363.718h-1.66c0-.406.135-.784.403-1.135s.634-.634 1.094-.834.982-.3 1.552-.3c.866 0 1.556.22 2.07.656s.78 1.044.793 1.832v3.336c0 .665.094 1.196.28 1.593V29h-1.695zm-1.825-1.196a1.87 1.87 0 0 0 .923-.239c.29-.16.5-.374.656-.643v-1.395h-.895c-.616 0-1.078.107-1.388.32a1.04 1.04 0 0 0-.465.909c0 .32.105.574.314.766.215.187.5.28.855.28zM261.6 29h-1.66V18.5h1.66V29zm5.022.137c-1.052 0-1.907-.33-2.563-.99s-.978-1.55-.978-2.652v-.205c0-.738.142-1.397.424-1.976a3.27 3.27 0 0 1 1.203-1.36c.515-.324 1.09-.485 1.723-.485 1.007 0 1.784.32 2.33.964s.827 1.552.827 2.727v.67h-4.833c.05.61.253 1.094.608 1.45a1.85 1.85 0 0 0 1.354.533c.76 0 1.38-.308 1.86-.923l.896.855a3.01 3.01 0 0 1-1.19 1.032c-.492.242-1.045.362-1.66.362zm-.198-6.337c-.456 0-.825.16-1.107.48s-.456.763-.534 1.333h3.165v-.123c-.036-.556-.184-.975-.444-1.258s-.62-.43-1.08-.43zm8.556 4.2a.75.75 0 0 0-.369-.677c-.24-.155-.645-.292-1.2-.4s-1.036-.27-1.415-.45c-.83-.4-1.244-.982-1.244-1.743 0-.638.27-1.17.807-1.6s1.22-.643 2.05-.643c.884 0 1.597.22 2.14.656.547.438.82 1.005.82 1.702h-1.662a1.01 1.01 0 0 0-.355-.793c-.237-.214-.55-.32-.943-.32-.365 0-.663.084-.896.253a.8.8 0 0 0-.342.677.67.67 0 0 0 .322.595c.214.14.647.285 1.298.43s1.163.312 1.532.513.65.433.827.71.273.615.273 1.012c0 .665-.275 1.205-.827 1.62s-1.274.615-2.167.615c-.606 0-1.146-.11-1.62-.328s-.843-.52-1.107-.902a2.13 2.13 0 0 1-.397-1.237h1.613c.023.392.17.695.445.91s.635.315 1.087.315c.437 0 .77-.082.998-.246a.78.78 0 0 0 .341-.656zm6.942 2.864h-1.306l3.917-10.808h1.306l-3.917 10.808zm15.397-9.413h-3.104V29h-1.716v-8.56h-3.076v-1.395h7.896v1.395zm-.63 4.792c0-.725.143-1.376.43-1.955s.69-1.03 1.2-1.34 1.117-.472 1.79-.472c.998 0 1.807.32 2.427.964s.962 1.495 1.012 2.557l.006.4c0 .73-.14 1.38-.423 1.955a3.08 3.08 0 0 1-1.203 1.333c-.52.315-1.122.472-1.805.472-1.044 0-1.88-.346-2.51-1.04-.624-.697-.936-1.625-.936-2.782v-.082zm1.66.144c0 .76.157 1.358.47 1.79s.752.643 1.313.643.996-.22 1.306-.656.47-1.078.47-1.92c0-.747-.162-1.34-.485-1.777s-.754-.656-1.306-.656a1.52 1.52 0 0 0-1.292.649c-.32.428-.478 1.07-.478 1.928zm8.652-5.57v1.798h1.305v1.23H307v4.13c0 .282.054.488.164.615s.314.185.6.185c.192 0 .386-.023.58-.068v1.285c-.378.105-.742.157-1.093.157-1.276 0-1.914-.704-1.914-2.112v-4.2h-1.217v-1.23h1.217v-1.798H307zM313.95 29c-.073-.14-.137-.37-.192-.7a2.58 2.58 0 0 1-1.941.827c-.743 0-1.35-.212-1.818-.636a2.03 2.03 0 0 1-.704-1.572c0-.788.29-1.392.875-1.81s1.426-.636 2.515-.636h1.02v-.485c0-.383-.107-.688-.322-.916s-.54-.35-.977-.35c-.378 0-.688.096-.93.287a.87.87 0 0 0-.362.718h-1.66c0-.406.134-.784.403-1.135s.634-.634 1.094-.834.982-.3 1.552-.3c.865 0 1.556.22 2.07.656s.78 1.044.793 1.832v3.336c0 .665.093 1.196.28 1.593V29h-1.695zm-1.825-1.196c.328 0 .635-.08.922-.24s.51-.374.657-.643v-1.395h-.896c-.615 0-1.078.107-1.387.32a1.04 1.04 0 0 0-.465.909c0 .32.104.574.314.766s.5.28.855.28zM318.822 29h-1.66V18.5h1.66V29zM330 24.557h-4.088v3.063h4.778V29h-6.507v-9.953h6.46v1.395h-4.73V23.2H330v1.367zm4.544-.52l1.408-2.434h1.846l-2.263 3.644L337.874 29h-1.832l-1.477-2.53-1.47 2.53h-1.846l2.338-3.753-2.256-3.644h1.832l1.38 2.434zm10.812 1.34c0 1.144-.26 2.058-.78 2.74s-1.217 1.018-2.092 1.018c-.81 0-1.46-.267-1.948-.8v3.507h-1.66v-10.24h1.53l.068.752c.488-.592 1.15-.89 1.99-.89.903 0 1.61.337 2.12 1.012s.772 1.602.772 2.796v.103zm-1.654-.144c0-.738-.148-1.324-.445-1.757-.29-.433-.71-.65-1.257-.65-.68 0-1.167.28-1.463.84v3.28c.3.574.793.86 1.476.86.53 0 .94-.212 1.238-.636s.45-1.076.45-1.94zm6.273 3.903c-1.053 0-1.907-.33-2.563-.99s-.978-1.55-.978-2.652v-.205c0-.738.14-1.397.424-1.976a3.27 3.27 0 0 1 1.203-1.36c.515-.324 1.09-.485 1.723-.485 1.007 0 1.784.32 2.33.964s.827 1.552.827 2.727v.67H348.1c.05.61.253 1.094.608 1.45s.81.533 1.354.533c.76 0 1.38-.308 1.86-.923l.896.855c-.297.442-.693.786-1.2 1.032s-1.046.362-1.66.362zm-.198-6.337c-.456 0-.825.16-1.108.48s-.455.763-.533 1.333h3.165v-.123c-.036-.556-.184-.975-.444-1.258s-.62-.43-1.08-.43zm5.952-1.196l.048.854c.546-.66 1.264-.99 2.153-.99 1.54 0 2.324.882 2.35 2.646V29h-1.66v-4.792c0-.47-.102-.816-.307-1.04s-.53-.342-.992-.342c-.67 0-1.168.303-1.497.91V29h-1.66v-7.396h1.566zM366.077 27a.75.75 0 0 0-.369-.677c-.242-.155-.645-.292-1.2-.4s-1.037-.27-1.415-.45c-.83-.4-1.244-.982-1.244-1.743 0-.638.27-1.17.807-1.6s1.22-.643 2.05-.643c.884 0 1.598.22 2.14.656s.82 1.005.82 1.702h-1.66a1.01 1.01 0 0 0-.355-.793c-.237-.214-.552-.32-.944-.32-.364 0-.663.084-.895.253a.8.8 0 0 0-.342.677c0 .255.107.454.32.595s.647.285 1.3.43 1.162.312 1.53.513.65.433.828.71.273.615.273 1.012c0 .665-.276 1.205-.827 1.62s-1.274.615-2.167.615c-.606 0-1.146-.11-1.62-.328s-.843-.52-1.108-.902-.396-.795-.396-1.237h1.613c.023.392.17.695.444.91s.636.315 1.087.315c.438 0 .77-.082.998-.246a.78.78 0 0 0 .342-.656zm6.294 2.146c-1.053 0-1.907-.33-2.564-.99-.65-.665-.977-1.55-.977-2.652v-.205c0-.738.14-1.397.424-1.976a3.27 3.27 0 0 1 1.203-1.36 3.17 3.17 0 0 1 1.722-.485c1.008 0 1.785.32 2.332.964s.827 1.552.827 2.727v.67h-4.833c.05.61.253 1.094.608 1.45s.81.533 1.354.533c.76 0 1.38-.308 1.86-.923l.895.855c-.296.442-.692.786-1.19 1.032-.492.242-1.046.362-1.66.362zm-.198-6.337c-.456 0-.825.16-1.108.48s-.455.763-.533 1.333h3.165v-.123c-.036-.556-.185-.975-.444-1.258s-.62-.43-1.08-.43zm8.556 4.2a.75.75 0 0 0-.369-.677c-.242-.155-.645-.292-1.2-.4s-1.037-.27-1.415-.45c-.83-.4-1.244-.982-1.244-1.743 0-.638.27-1.17.806-1.6s1.222-.643 2.05-.643c.884 0 1.598.22 2.14.656.547.438.82 1.005.82 1.702h-1.66a1.01 1.01 0 0 0-.355-.793c-.237-.214-.552-.32-.944-.32-.364 0-.663.084-.895.253a.8.8 0 0 0-.342.677c0 .255.107.454.32.595s.647.285 1.3.43 1.162.312 1.53.513.65.433.827.71c.183.278.274.615.274 1.012 0 .665-.276 1.205-.827 1.62s-1.274.615-2.167.615c-.606 0-1.146-.11-1.62-.328s-.843-.52-1.108-.902-.396-.795-.396-1.237h1.613c.023.392.17.695.444.91s.636.315 1.087.315c.438 0 .77-.082.998-.246a.78.78 0 0 0 .342-.656z"/><path d="M209 30.367h173.958v.684H209v-.684zm321.882 107.62c0-.344-.12-.6-.365-.795s-.675-.374-1.305-.564-1.132-.4-1.504-.634c-.713-.447-1.07-1.03-1.07-1.75 0-.63.256-1.15.768-1.557s1.184-.613 2.004-.613c.544 0 1.03.1 1.455.3s.76.487 1.005.86a2.19 2.19 0 0 1 .365 1.23h-1.354c0-.408-.13-.726-.386-.956s-.62-.35-1.096-.35c-.444 0-.8.095-1.037.285s-.365.455-.365.795c0 .286.133.526.398.72s.7.376 1.3.558 1.098.385 1.466.618.64.494.8.795.258.646.258 1.047c0 .652-.25 1.17-.752 1.558s-1.174.574-2.03.574a3.86 3.86 0 0 1-1.563-.311c-.473-.2-.84-.5-1.106-.87a2.17 2.17 0 0 1-.393-1.289h1.36c0 .444.147.787.44 1.03s.714.365 1.262.365c.473 0 .827-.095 1.063-.284s.36-.448.36-.763zM536.73 140c-.058-.1-.108-.292-.15-.542a2.03 2.03 0 0 1-1.525.649c-.584 0-1.06-.166-1.43-.5s-.553-.745-.553-1.235c0-.62.23-1.094.688-1.424s1.12-.5 1.976-.5h.8v-.382c0-.3-.084-.54-.252-.72s-.424-.274-.768-.274c-.297 0-.54.075-.73.225s-.284.335-.284.564h-1.305a1.43 1.43 0 0 1 .316-.89c.212-.28.498-.498.86-.656s.772-.236 1.22-.236c.68 0 1.223.172 1.628.516s.612.82.623 1.44v2.62c0 .523.073.94.22 1.252v.1h-1.332zm-1.434-.94a1.47 1.47 0 0 0 .725-.188c.225-.125.4-.294.515-.505v-1.096h-.703c-.484 0-.847.085-1.1.253s-.365.406-.365.714c0 .25.083.45.247.602s.392.22.672.22zm5.25.94h-1.305v-8.25h1.305V140zm3.935.107c-.827 0-1.498-.26-2.014-.778s-.768-1.218-.768-2.084v-.162c0-.58.1-1.097.333-1.552s.54-.814.945-1.07.856-.38 1.354-.38c.8 0 1.402.252 1.83.757s.65 1.22.65 2.143v.527h-3.797c.04.48.2.86.478 1.138s.637.42 1.064.42a1.76 1.76 0 0 0 1.46-.725l.704.672c-.233.347-.544.617-.934.8s-.822.284-1.306.284zm-.155-4.98c-.36 0-.65.126-.87.376s-.358.6-.418 1.048h2.486v-.097c-.028-.437-.145-.766-.35-.988s-.487-.34-.848-.34zm6.712 3.293a.59.59 0 0 0-.29-.532c-.2-.122-.507-.23-.95-.322s-.815-.2-1.112-.355c-.65-.315-.977-.77-.977-1.37 0-.502.2-.92.633-1.257s.96-.505 1.612-.505c.694 0 1.255.172 1.68.516a1.63 1.63 0 0 1 .644 1.337h-1.305c0-.25-.093-.458-.28-.623s-.433-.252-.74-.252c-.287 0-.52.066-.704.198a.63.63 0 0 0-.268.532.53.53 0 0 0 .252.467c.168.11.5.224 1.02.34s.913.245 1.203.403.5.34.65.558.214.484.214.795a1.52 1.52 0 0 1-.649 1.273c-.434.322-1 .483-1.703.483-.476 0-.9-.086-1.273-.257s-.662-.4-.87-.7-.312-.625-.312-.973h1.268c.018.308.134.547.35.715s.5.247.854.247c.344 0 .605-.065.784-.193.18-.133.27-.305.27-.516z"/></g><path d="M508 132a2 2 0 0 1 2-2h8a2 2 0 0 1 2 2v8a2 2 0 0 1-2 2h-8a2 2 0 0 1-2-2v-8z" class="B C"/><path d="M531.366 162.51h-3.212v2.406h3.754V166h-5.113v-7.82h5.076v1.095h-3.717v2.16h3.212v1.074zm3.56-.408l1.107-1.913h1.45l-1.778 2.863 1.837 2.95h-1.44l-1.16-1.987-1.155 1.987h-1.45l1.837-2.95-1.772-2.863h1.44l1.085 1.913zm8.485 1.052c0 .9-.204 1.617-.613 2.154s-.956.8-1.643.8c-.637 0-1.148-.21-1.53-.628v2.755h-1.305v-8.046h1.203l.054.59c.383-.465.904-.698 1.563-.698.71 0 1.264.265 1.665.795s.607 1.26.607 2.197v.08zm-1.3-.112c0-.58-.116-1.04-.35-1.38s-.56-.5-.988-.5c-.534 0-.917.22-1.15.66v2.578c.236.45.623.676 1.16.676.416 0 .74-.166.972-.5s.355-.845.355-1.525zm4.918 3.066c-.827 0-1.498-.26-2.014-.778s-.768-1.218-.768-2.084v-.162c0-.58.11-1.097.333-1.552s.54-.814.945-1.07.856-.38 1.354-.38c.79 0 1.402.252 1.83.757.434.505.65 1.22.65 2.143v.527h-3.797c.04.48.2.86.478 1.138s.637.42 1.063.42c.598 0 1.085-.24 1.46-.725l.704.672a2.37 2.37 0 0 1-.935.811c-.386.2-.82.284-1.305.284zm-.156-4.98c-.358 0-.648.126-.87.376s-.358.6-.42 1.048h2.487v-.097c-.028-.437-.145-.766-.35-.988s-.487-.34-.85-.34zm4.666-.94l.038.672a2.09 2.09 0 0 1 1.692-.779c1.2 0 1.826.693 1.847 2.08V166H553.8v-3.765c0-.37-.08-.64-.24-.817s-.418-.268-.78-.268c-.527 0-.92.238-1.177.714V166h-1.305v-5.812h1.23zm8.12 4.233a.59.59 0 0 0-.29-.532c-.2-.122-.507-.23-.95-.322s-.815-.21-1.112-.355c-.652-.315-.977-.77-.977-1.37 0-.502.21-.92.633-1.257s.96-.505 1.612-.505c.694 0 1.255.172 1.68.516a1.63 1.63 0 0 1 .644 1.337h-1.305c0-.25-.093-.458-.28-.623s-.433-.252-.74-.252c-.287 0-.52.066-.704.198a.63.63 0 0 0-.268.532c0 .2.084.356.252.467s.508.224 1.02.34.913.245 1.203.403.5.34.65.558.214.484.214.795a1.52 1.52 0 0 1-.649 1.273c-.434.322-1 .483-1.703.483-.476 0-.9-.086-1.273-.257a2.1 2.1 0 0 1-.87-.709c-.208-.3-.312-.625-.312-.973h1.268c.018.308.134.547.35.715s.5.247.854.247c.344 0 .605-.065.784-.193.18-.133.27-.305.27-.516zm4.934 1.686c-.827 0-1.498-.26-2.014-.778s-.768-1.218-.768-2.084v-.162c0-.58.11-1.097.333-1.552s.54-.814.945-1.07.856-.38 1.354-.38c.79 0 1.402.252 1.83.757s.65 1.22.65 2.143v.527h-3.797c.04.48.2.86.478 1.138s.637.42 1.063.42c.598 0 1.085-.24 1.46-.725l.704.672a2.37 2.37 0 0 1-.935.811c-.386.2-.822.284-1.305.284zm-.156-4.98c-.358 0-.648.126-.87.376s-.358.6-.42 1.048h2.487v-.097c-.03-.437-.145-.766-.35-.988s-.487-.34-.85-.34zm6.713 3.293a.59.59 0 0 0-.291-.532c-.19-.122-.506-.23-.95-.322s-.815-.21-1.112-.355c-.652-.315-.978-.77-.978-1.37 0-.502.212-.92.634-1.257s.96-.505 1.612-.505c.694 0 1.255.172 1.68.516a1.63 1.63 0 0 1 .644 1.337h-1.305c0-.25-.093-.458-.28-.623s-.433-.252-.74-.252c-.287 0-.52.066-.704.198a.63.63 0 0 0-.269.532.53.53 0 0 0 .253.467c.168.11.508.224 1.02.34s.913.245 1.203.403.51.34.65.558.215.484.215.795c0 .523-.216.947-.65 1.273s-1 .483-1.702.483c-.477 0-.9-.086-1.273-.257s-.663-.41-.87-.71-.312-.625-.312-.973h1.268c.018.308.134.547.35.715s.5.247.854.247c.344 0 .605-.065.784-.193.18-.133.27-.305.27-.516z" fill="#3a3b3f"/><path d="M508 158a2 2 0 0 1 2-2h8a2 2 0 0 1 2 2v8a2 2 0 0 1-2 2h-8a2 2 0 0 1-2-2v-8z" fill="#c4c4c4" class="B"/><defs><filter id="B" x="0" y="0" width="601" height="300" filterUnits="userSpaceOnUse" color-interpolation-filters="sRGB"><feFlood flood-opacity="0" result="A"/><feColorMatrix in="SourceAlpha" values="0 0 0 0 0 0 0 0 0 0 0 0 0 0 0 0 0 0 127 0"/><feOffset dy="1"/><feGaussianBlur stdDeviation="1.5"/><feColorMatrix values="0 0 0 0 0.2471 0 0 0 0 0.2471 0 0 0 0 0.2667 0 0 0 0.15 0"/><feBlend in2="A" result="B"/><feColorMatrix in="SourceAlpha" values="0 0 0 0 0 0 0 0 0 0 0 0 0 0 0 0 0 0 127 0"/><feOffset/><feColorMatrix values="0 0 0 0 0.2471 0 0 0 0 0.2471 0 0 0 0 0.2667 0 0 0 0.05 0"/><feBlend in2="B"/><feBlend in="SourceGraphic"/></filter><path id="C" d="M177 143.074a4 4 0 0 1 4-4h9a4 4 0 0 1 4 4v113.5h-17v-113.5z"/></defs></svg>