<svg width="38" height="27" viewBox="0 0 38 27" fill="none" xmlns="http://www.w3.org/2000/svg">
<path d="M30.3042 27C29.6959 27 29.1013 26.8147 28.5955 26.4675C28.0897 26.1203 27.6955 25.6269 27.4627 25.0496C27.2299 24.4723 27.169 23.837 27.2876 23.2241C27.4063 22.6112 27.6993 22.0483 28.1294 21.6064C28.5596 21.1646 29.1076 20.8636 29.7042 20.7417C30.3009 20.6198 30.9193 20.6824 31.4813 20.9215C32.0433 21.1607 32.5237 21.5656 32.8616 22.0852C33.1996 22.6048 33.38 23.2156 33.38 23.8405C33.38 24.2554 33.3004 24.6663 33.1459 25.0496C32.9913 25.4329 32.7647 25.7812 32.4791 26.0746C32.1935 26.368 31.8544 26.6007 31.4813 26.7595C31.1081 26.9183 30.7081 27 30.3042 27ZM38 15.2316V22.1426C38 22.3125 37.9674 22.4808 37.9041 22.6378C37.8408 22.7947 37.748 22.9374 37.6311 23.0575C37.5141 23.1777 37.3753 23.273 37.2224 23.338C37.0696 23.403 36.9058 23.4365 36.7404 23.4365H35.0487C34.9509 22.2129 34.4087 21.0718 33.5298 20.24C32.6508 19.4081 31.4994 18.9463 30.3042 18.9463C29.1091 18.9463 27.9576 19.4081 27.0787 20.24C26.1997 21.0718 25.6575 22.2129 25.5598 23.4365H13.9579C13.8601 22.2129 13.3178 21.0718 12.4388 20.24C11.5598 19.4081 10.4084 18.9463 9.21321 18.9463C8.01805 18.9463 6.86661 19.4081 5.98761 20.24C5.10861 21.0718 4.56636 22.2129 4.46857 23.4365H3.85681C3.52275 23.4365 3.20237 23.3001 2.96616 23.0575C2.72995 22.8148 2.59725 22.4857 2.59725 22.1426V15.3508H7.41147C7.663 15.3508 7.91175 15.2967 8.1417 15.192C8.37165 15.0872 8.57771 14.9342 8.74662 14.7428C8.91554 14.5513 9.04357 14.3257 9.12248 14.0804C9.20138 13.835 9.22942 13.5754 9.20477 13.3183C9.14831 12.852 8.92605 12.4237 8.58073 12.1156C8.23541 11.8074 7.7914 11.6413 7.33406 11.6492H1.41607C1.23022 11.6495 1.04614 11.6122 0.874346 11.5393C0.702556 11.4665 0.546431 11.3596 0.414905 11.2247C0.283379 11.0899 0.179034 10.9297 0.10784 10.7533C0.0366455 10.577 0 10.3879 0 10.197C0 10.0061 0.0366455 9.8171 0.10784 9.64076C0.179034 9.46441 0.283379 9.30422 0.414905 9.16935C0.546431 9.03447 0.702556 8.92756 0.874346 8.85473C1.04614 8.78191 1.23022 8.74459 1.41607 8.74492H12.574C12.8256 8.7449 13.0743 8.69079 13.3043 8.58607C13.5342 8.48135 13.7403 8.32834 13.9092 8.13689C14.0781 7.94543 14.2061 7.71977 14.285 7.47443C14.3639 7.22909 14.392 6.96949 14.3673 6.71235C14.3109 6.2461 14.0886 5.81775 13.7433 5.50964C13.398 5.20153 12.954 5.03542 12.4966 5.04323H2.59725V1.79693C2.59725 1.56095 2.64249 1.32729 2.7304 1.10927C2.81831 0.891256 2.94716 0.693162 3.1096 0.526301C3.27204 0.35944 3.46488 0.22708 3.67711 0.136777C3.88935 0.0464735 4.11682 -3.41712e-06 4.34654 1.88435e-10H25.6299C25.8596 -3.4171e-06 26.0871 0.046473 26.2993 0.136776C26.5115 0.227078 26.7044 0.359439 26.8668 0.526299C27.0292 0.69316 27.1581 0.891253 27.246 1.10927C27.3339 1.32728 27.3792 1.56095 27.3792 1.79693V7.27336H34.0671C34.2131 7.27337 34.3562 7.31511 34.4804 7.39393C34.6045 7.47275 34.7049 7.58553 34.7702 7.71963L37.6184 13.5712C37.8694 14.0868 38 14.6552 38 15.2316ZM36.4266 14.7375L33.5801 8.88966H27.3792V15.2086H36.4266V14.7375ZM12.2889 23.8405C12.2889 23.2156 12.1085 22.6048 11.7706 22.0852C11.4326 21.5656 10.9522 21.1607 10.3902 20.9216C9.82822 20.6825 9.2098 20.6199 8.61318 20.7418C8.01655 20.8637 7.46852 21.1646 7.03838 21.6065C6.60824 22.0483 6.31532 22.6113 6.19664 23.2242C6.07797 23.8371 6.13888 24.4723 6.37167 25.0496C6.60447 25.6269 6.99868 26.1204 7.50448 26.4675C8.01027 26.8147 8.60493 27 9.21324 27C9.61715 27 10.0171 26.9183 10.3903 26.7595C10.7634 26.6007 11.1025 26.368 11.3881 26.0746C11.6737 25.7812 11.9003 25.4329 12.0548 25.0496C12.2094 24.6663 12.2889 24.2554 12.2889 23.8405Z" fill="#FAA916"/>
</svg>
