<svg width="18" height="17" viewBox="0 0 18 17" fill="none" xmlns="http://www.w3.org/2000/svg">
<path d="M8.61797 11.7422C8.63551 11.7646 8.65792 11.7827 8.6835 11.7952C8.70908 11.8077 8.73717 11.8141 8.76562 11.8141C8.79408 11.8141 8.82217 11.8077 8.84775 11.7952C8.87333 11.7827 8.89574 11.7646 8.91328 11.7422L11.5383 8.42109C11.6344 8.29922 11.5477 8.11875 11.3906 8.11875H9.65391V0.1875C9.65391 0.084375 9.56953 0 9.46641 0H8.06016C7.95703 0 7.87266 0.084375 7.87266 0.1875V8.11641H6.14062C5.98359 8.11641 5.89688 8.29688 5.99297 8.41875L8.61797 11.7422ZM17.3438 10.9219H15.9375C15.8344 10.9219 15.75 11.0063 15.75 11.1094V14.7188H1.78125V11.1094C1.78125 11.0063 1.69687 10.9219 1.59375 10.9219H0.1875C0.084375 10.9219 0 11.0063 0 11.1094V15.75C0 16.1648 0.335156 16.5 0.75 16.5H16.7812C17.1961 16.5 17.5312 16.1648 17.5312 15.75V11.1094C17.5312 11.0063 17.4469 10.9219 17.3438 10.9219Z" fill="black"/>
</svg>
