<svg width="21" height="20" viewBox="0 0 21 20" fill="none" xmlns="http://www.w3.org/2000/svg">
<path d="M9.17578 2C8.64535 2 8.13664 2.21071 7.76157 2.58579C7.38649 2.96086 7.17578 3.46957 7.17578 4V12C7.17578 12.5304 7.38649 13.0391 7.76157 13.4142C8.13664 13.7893 8.64535 14 9.17578 14H15.1758C15.7062 14 16.2149 13.7893 16.59 13.4142C16.9651 13.0391 17.1758 12.5304 17.1758 12V6.414C17.1757 5.88361 16.9649 5.37499 16.5898 5L14.1758 2.586C13.8008 2.2109 13.2922 2.00011 12.7618 2H9.17578Z" fill="#0CA2D9"/>
<path d="M3.17578 8C3.17578 7.46957 3.38649 6.96086 3.76157 6.58579C4.13664 6.21071 4.64535 6 5.17578 6V16H13.1758C13.1758 16.5304 12.9651 17.0391 12.59 17.4142C12.2149 17.7893 11.7062 18 11.1758 18H5.17578C4.64535 18 4.13664 17.7893 3.76157 17.4142C3.38649 17.0391 3.17578 16.5304 3.17578 16V8Z" fill="#0CA2D9"/>
</svg>
