<svg width="14" height="15" viewBox="0 0 14 15" fill="none" xmlns="http://www.w3.org/2000/svg">
<path d="M12.0267 8.08699C12.12 8.08699 12.2067 8.12699 12.28 8.20033L13.1333 9.05366C13.28 9.19366 13.28 9.42699 13.1333 9.56699L12.4667 10.2337L11.1 8.86699L11.7667 8.20033C11.84 8.12699 11.9333 8.08699 12.0267 8.08699ZM10.7133 9.25366L12.08 10.6203L8.04 14.667H6.66667V13.2937L10.7133 9.25366ZM10.6667 2.00033C11.4 2.00033 12 2.60033 12 3.33366V6.00033L5.33333 12.667V14.0003H1.33333C0.6 14.0003 0 13.4003 0 12.667V3.33366C0 2.60033 0.6 2.00033 1.33333 2.00033H4.12C4.4 1.22699 5.13333 0.666992 6 0.666992C6.86667 0.666992 7.6 1.22699 7.88 2.00033H10.6667ZM6 2.00033C5.63333 2.00033 5.33333 2.30033 5.33333 2.66699C5.33333 3.03366 5.63333 3.33366 6 3.33366C6.36667 3.33366 6.66667 3.03366 6.66667 2.66699C6.66667 2.30033 6.36667 2.00033 6 2.00033Z" fill="#7C7C7C"/>
</svg>
