<svg width="20" height="20" viewBox="0 0 20 20" fill="none" xmlns="http://www.w3.org/2000/svg">
<path d="M17.5333 10.1083C17.65 10.1083 17.7583 10.1583 17.85 10.2499L18.9167 11.3166C19.1 11.4916 19.1 11.7833 18.9167 11.9583L18.0833 12.7916L16.375 11.0833L17.2083 10.2499C17.3 10.1583 17.4167 10.1083 17.5333 10.1083ZM15.8917 11.5666L17.6 13.2749L12.55 18.3333H10.8333V16.6166L15.8917 11.5666ZM15.8333 2.49992C16.75 2.49992 17.5 3.24992 17.5 4.16659V7.49992L9.16667 15.8333V17.4999H4.16667C3.25 17.4999 2.5 16.7499 2.5 15.8333V4.16659C2.5 3.24992 3.25 2.49992 4.16667 2.49992H7.65C8 1.53325 8.91667 0.833252 10 0.833252C11.0833 0.833252 12 1.53325 12.35 2.49992H15.8333ZM10 2.49992C9.54167 2.49992 9.16667 2.87492 9.16667 3.33325C9.16667 3.79159 9.54167 4.16659 10 4.16659C10.4583 4.16659 10.8333 3.79159 10.8333 3.33325C10.8333 2.87492 10.4583 2.49992 10 2.49992Z" fill="#0CA2D9"/>
</svg>
