<svg width="16" height="16" viewBox="0 0 16 16" fill="none" xmlns="http://www.w3.org/2000/svg">
<path d="M14.0267 8.08675C14.12 8.08675 14.2067 8.12675 14.28 8.20008L15.1333 9.05342C15.28 9.19342 15.28 9.42675 15.1333 9.56675L14.4667 10.2334L13.1 8.86675L13.7667 8.20008C13.84 8.12675 13.9333 8.08675 14.0267 8.08675ZM12.7133 9.25342L14.08 10.6201L10.04 14.6667H8.66667V13.2934L12.7133 9.25342ZM12.6667 2.00008C13.4 2.00008 14 2.60008 14 3.33341V6.00008L7.33333 12.6667V14.0001H3.33333C2.6 14.0001 2 13.4001 2 12.6667V3.33341C2 2.60008 2.6 2.00008 3.33333 2.00008H6.12C6.4 1.22675 7.13333 0.666748 8 0.666748C8.86667 0.666748 9.6 1.22675 9.88 2.00008H12.6667ZM8 2.00008C7.63333 2.00008 7.33333 2.30008 7.33333 2.66675C7.33333 3.03341 7.63333 3.33341 8 3.33341C8.36667 3.33341 8.66667 3.03341 8.66667 2.66675C8.66667 2.30008 8.36667 2.00008 8 2.00008Z" fill="#7C7C7C"/>
</svg>
