<svg width="18" height="20" viewBox="0 0 18 20" fill="none" xmlns="http://www.w3.org/2000/svg">
<path d="M1 9.89062H2.77778H17" stroke="#7C7C7C" stroke-width="2" stroke-linecap="round" stroke-linejoin="round"/>
<path d="M5.44401 4.55556V2.77778C5.44401 2.30628 5.63131 1.8541 5.96471 1.5207C6.29811 1.1873 6.75029 1 7.22179 1H10.7773C11.2488 1 11.701 1.1873 12.0344 1.5207C12.3678 1.8541 12.5551 2.30628 12.5551 2.77778V4.55556M15.2218 4.55556V17C15.2218 17.4715 15.0345 17.9237 14.7011 18.2571C14.3677 18.5905 13.9155 18.7778 13.444 18.7778H4.55512C4.08363 18.7778 3.63144 18.5905 3.29804 18.2571C2.96464 17.9237 2.77734 17.4715 2.77734 17V4.55556H15.2218Z" stroke="#7C7C7C" stroke-width="2" stroke-linecap="round" stroke-linejoin="round"/>
<path d="M7.22266 7.22217V12.5555" stroke="#7C7C7C" stroke-width="2" stroke-linecap="round" stroke-linejoin="round"/>
<path d="M10.7773 7.22217V12.5555" stroke="#7C7C7C" stroke-width="2" stroke-linecap="round" stroke-linejoin="round"/>
</svg>
