<svg width="44" height="44" viewBox="0 0 44 44" fill="none" xmlns="http://www.w3.org/2000/svg">
<path fill-rule="evenodd" clip-rule="evenodd" d="M22 44C34.1503 44 44 34.1503 44 22C44 9.84974 34.1503 0 22 0C9.84974 0 0 9.84974 0 22C0 34.1503 9.84974 44 22 44Z" fill="#F37121"/>
<path d="M33.8405 17.1561C33.6051 16.6853 33.0872 16.3557 32.5222 16.3557H27.2963V13.4367C27.2963 13.2484 27.155 13.0601 26.9196 13.0601C26.7313 13.0601 26.543 13.2013 26.543 13.4367V16.7324V23.1824V23.3707H36.9949L33.8405 17.1561ZM34.17 22.0054C34.123 22.0525 34.0759 22.0525 34.0288 22.0525C33.8876 22.0525 33.7934 22.0054 33.6992 21.8642L32.1456 18.8039H29.1795C28.9912 18.8039 28.8028 18.6627 28.8028 18.4273C28.8028 18.1919 28.9441 18.0506 29.1795 18.0506H32.3339C32.4751 18.0506 32.5693 18.1448 32.6635 18.2389L34.3113 21.4875C34.4055 21.6758 34.3584 21.9112 34.17 22.0054Z" fill="white"/>
<path d="M27.2918 24.0302H26.5856V27.7967H7.75329V13.39C7.75329 13.2016 7.61205 13.0133 7.37665 13.0133C7.18832 13.0133 7 13.1545 7 13.39V28.1733C7 28.2204 7 28.2204 7 28.2675C7 28.3145 7 28.3145 7 28.3616V31.7044C7 31.8927 7.14124 32.081 7.37665 32.081H7.84745C7.89453 30.1507 9.4482 28.55 11.4256 28.55H11.4727C12.9322 28.55 14.1563 29.4445 14.7212 30.6686C15.2862 29.4445 16.5103 28.55 17.9698 28.55H18.0169C19.9472 28.55 21.5479 30.1507 21.595 32.081H26.9152H28.2805C28.3276 30.1036 29.9283 28.55 31.8586 28.55C33.7889 28.55 35.4368 30.1036 35.4368 32.081H36.8021C36.8963 32.081 36.9904 32.0339 37.0375 31.9868L37.0846 31.9398C37.0846 31.8927 37.1317 31.8927 37.1317 31.8456C37.1317 31.7985 37.1317 31.7514 37.1317 31.7514V24.0302H27.2918Z" fill="white"/>
<path d="M18.0165 29.256C16.4157 29.256 15.1445 30.5742 15.1445 32.1279C15.1445 33.7287 16.4628 34.9998 18.0165 34.9998C19.5701 34.9998 20.8884 33.6816 20.8884 32.1279C20.8884 30.5272 19.6172 29.256 18.0165 29.256ZM18.0165 33.4462C17.3102 33.4462 16.6982 32.8341 16.6982 32.1279C16.6982 31.4217 17.3102 30.8096 18.0165 30.8096C18.7697 30.8096 19.3347 31.4217 19.3347 32.1279C19.3347 32.8812 18.7697 33.4462 18.0165 33.4462Z" fill="white"/>
<path d="M11.4735 29.256C9.87274 29.256 8.60156 30.5742 8.60156 32.1279C8.60156 33.7287 9.91982 34.9998 11.4735 34.9998C13.0742 34.9998 14.3454 33.6816 14.3454 32.1279C14.3454 30.5272 13.0742 29.256 11.4735 29.256ZM11.4735 33.4462C10.7202 33.4462 10.1552 32.8341 10.1552 32.1279C10.1552 31.4217 10.7673 30.8096 11.4735 30.8096C12.1797 30.8096 12.7917 31.4217 12.7917 32.1279C12.7917 32.8812 12.1797 33.4462 11.4735 33.4462Z" fill="white"/>
<path d="M31.9032 29.256C30.3024 29.256 29.0312 30.5742 29.0312 32.1279C29.0312 33.7287 30.3495 34.9998 31.9032 34.9998C33.5039 34.9998 34.7751 33.6816 34.7751 32.1279C34.7751 30.5272 33.4568 29.256 31.9032 29.256ZM31.9032 33.4462C31.197 33.4462 30.5849 32.8341 30.5849 32.1279C30.5849 31.4217 31.197 30.8096 31.9032 30.8096C32.6094 30.8096 33.2214 31.4217 33.2214 32.1279C33.2214 32.8812 32.6094 33.4462 31.9032 33.4462Z" fill="white"/>
<path d="M18.0222 31.5161C17.6926 31.5161 17.4102 31.7986 17.4102 32.1282C17.4102 32.4577 17.6926 32.7402 18.0222 32.7402C18.3518 32.7402 18.6343 32.4577 18.6343 32.1282C18.6343 31.7986 18.3518 31.5161 18.0222 31.5161Z" fill="white"/>
<path d="M11.4675 31.5161C11.138 31.5161 10.8555 31.7986 10.8555 32.1282C10.8555 32.4577 11.138 32.7402 11.4675 32.7402C11.7971 32.7402 12.0796 32.4577 12.0796 32.1282C12.0796 31.7986 11.7971 31.5161 11.4675 31.5161Z" fill="white"/>
<path d="M31.9089 31.5161C31.5794 31.5161 31.2969 31.7986 31.2969 32.1282C31.2969 32.4577 31.5794 32.7402 31.9089 32.7402C32.2385 32.7402 32.521 32.4577 32.521 32.1282C32.521 31.7986 32.2385 31.5161 31.9089 31.5161Z" fill="white"/>
<path d="M22.7782 16.7319H20.8008V18.7093H22.7782V16.7319Z" fill="white"/>
<path d="M25.3648 10.3766C25.3648 10.1883 25.2235 10 24.9881 10H21.8337V11.5066C22.3045 11.6478 22.6341 12.1186 22.6341 12.6365C22.6341 13.2957 22.1162 13.8135 21.4571 13.8135C20.7979 13.8135 20.2801 13.2957 20.2801 12.6365C20.2801 12.1186 20.6096 11.6949 21.0804 11.5066V10.0471H17.4081V11.5537C17.8789 11.6949 18.2085 12.1657 18.2085 12.6836C18.2085 13.3427 17.6906 13.8606 17.0315 13.8606C16.3724 13.8606 15.8545 13.3427 15.8545 12.6836C15.8545 12.1657 16.184 11.742 16.6548 11.5537V10.0471H13.1709V11.5537C13.6417 11.6949 13.9712 12.1657 13.9712 12.6836C13.9712 13.3427 13.4533 13.8606 12.7942 13.8606C12.1351 13.8606 11.6172 13.3427 11.6172 12.6836C11.6172 12.1657 11.9468 11.742 12.4176 11.5537V10.0471H9.31024C9.12192 10.0471 8.93359 10.1883 8.93359 10.4237V14.1902H25.3177V10.3766H25.3648Z" fill="white"/>
<path d="M13.5477 22.4768H11.5703V24.4542H13.5477V22.4768Z" fill="white"/>
<path d="M21.5528 13.1084C21.8129 13.1084 22.0236 12.8976 22.0236 12.6376C22.0236 12.3775 21.8129 12.1667 21.5528 12.1667C21.2928 12.1667 21.082 12.3775 21.082 12.6376C21.082 12.8976 21.2928 13.1084 21.5528 13.1084Z" fill="white"/>
<path d="M17.17 13.1071C17.43 13.1071 17.6408 12.8964 17.6408 12.6363C17.6408 12.3763 17.43 12.1655 17.17 12.1655C16.91 12.1655 16.6992 12.3763 16.6992 12.6363C16.6992 12.8964 16.91 13.1071 17.17 13.1071Z" fill="white"/>
<path d="M12.795 13.1071C13.055 13.1071 13.2658 12.8964 13.2658 12.6363C13.2658 12.3763 13.055 12.1655 12.795 12.1655C12.535 12.1655 12.3242 12.3763 12.3242 12.6363C12.3242 12.8964 12.535 13.1071 12.795 13.1071Z" fill="white"/>
<path d="M13.5477 16.7322H11.5703V18.7096H13.5477V16.7322Z" fill="white"/>
<path d="M9.31003 27.044H24.9879C25.1762 27.044 25.3646 26.9028 25.3646 26.6674V14.8501H8.98047V26.7144C8.98047 26.9028 9.12171 27.044 9.31003 27.044ZM20.0915 16.3567C20.0915 16.1684 20.2328 15.98 20.4682 15.98H23.1518C23.3401 15.98 23.5284 16.1213 23.5284 16.3567V19.0403C23.5284 19.2286 23.3872 19.4169 23.1518 19.4169H20.4682C20.2798 19.4169 20.0915 19.2757 20.0915 19.0403V16.3567ZM20.1857 23.4659C20.3269 23.3246 20.5623 23.3246 20.7036 23.4659L21.1744 23.9367L22.9164 22.1947C23.0576 22.0535 23.293 22.0535 23.4343 22.1947C23.5755 22.3359 23.5755 22.5713 23.4343 22.7126L21.4569 24.69C21.4098 24.7371 21.3156 24.7841 21.2215 24.7841C21.1273 24.7841 21.0331 24.7371 20.9861 24.69L20.2328 23.9367C20.0444 23.8425 20.0444 23.6071 20.1857 23.4659ZM15.4776 16.3567C15.4776 16.1684 15.6189 15.98 15.8543 15.98H18.5379C18.7262 15.98 18.9145 16.1213 18.9145 16.3567V19.0403C18.9145 19.2286 18.7733 19.4169 18.5379 19.4169H15.8543C15.6659 19.4169 15.4776 19.2757 15.4776 19.0403V16.3567ZM15.4776 22.1005C15.4776 21.9122 15.6189 21.7239 15.8543 21.7239H18.5379C18.7262 21.7239 18.9145 21.8651 18.9145 22.1005V24.7841C18.9145 24.9725 18.7733 25.1608 18.5379 25.1608H15.8543C15.6659 25.1608 15.4776 25.0195 15.4776 24.7841V22.1005ZM10.8637 16.3567C10.8637 16.1684 11.0049 15.98 11.2403 15.98H13.9239C14.1123 15.98 14.3006 16.1213 14.3006 16.3567V19.0403C14.3006 19.2286 14.1594 19.4169 13.9239 19.4169H11.1933C11.0049 19.4169 10.8166 19.2757 10.8166 19.0403V16.3567H10.8637ZM10.8637 22.1005C10.8637 21.9122 11.0049 21.7239 11.2403 21.7239H13.9239C14.1123 21.7239 14.3006 21.8651 14.3006 22.1005V24.7841C14.3006 24.9725 14.1594 25.1608 13.9239 25.1608H11.1933C11.0049 25.1608 10.8166 25.0195 10.8166 24.7841V22.1005H10.8637Z" fill="white"/>
<path d="M18.1571 22.4762H16.1797V24.4536H18.1571V22.4762Z" fill="white"/>
<path d="M18.1571 16.7328H16.1797V18.7102H18.1571V16.7328Z" fill="white"/>
</svg>
