<svg width="44" height="44" viewBox="0 0 44 44" fill="none" xmlns="http://www.w3.org/2000/svg">
<path fill-rule="evenodd" clip-rule="evenodd" d="M22 44C34.1503 44 44 34.1503 44 22C44 9.84974 34.1503 0 22 0C9.84974 0 0 9.84974 0 22C0 34.1503 9.84974 44 22 44Z" fill="#007965"/>
<path d="M14.2494 32.1709H13.7773V32.7778H14.2494V32.1709Z" fill="white"/>
<path d="M17.9571 30.0132H16.6758V32.7781H17.9571V30.0132Z" fill="white"/>
<path d="M11.4141 30.0132H10.1328V32.7781H11.4141V30.0132Z" fill="white"/>
<path d="M30.4187 7.88281L22.0273 11.8721H32.3153L30.4187 7.88281Z" fill="white"/>
<path d="M18.1484 11.8723H19.511L25.7486 8.89775L24.6437 7.33325L18.1484 11.8723Z" fill="white"/>
<path d="M12.6945 31.5689C12.6945 31.2709 12.9617 31.0923 13.2596 31.0923H14.809C15.107 31.0923 15.3246 31.2709 15.3246 31.5689V32.7782H15.5943V27.5855H12.4922V29.398C12.4922 29.414 12.4946 29.43 12.4946 29.4463C12.4946 29.4625 12.4922 29.4786 12.4922 29.4945V32.7782H12.6945V31.5689ZM13.4797 28.125H14.5891C14.7322 28.125 14.8694 28.1819 14.9706 28.283C15.0718 28.3842 15.1286 28.5214 15.1286 28.6645C15.1286 28.8076 15.0718 28.9448 14.9706 29.046C14.8694 29.1472 14.7322 29.204 14.5891 29.204H13.4797C13.3366 29.204 13.1994 29.1472 13.0982 29.046C12.997 28.9448 12.9402 28.8076 12.9402 28.6645C12.9402 28.5214 12.997 28.3842 13.0982 28.283C13.1994 28.1819 13.3366 28.125 13.4797 28.125Z" fill="white"/>
<path d="M28.8789 20.7452V26.0532C28.8789 27.2432 29.8617 28.2599 31.0516 28.2599H36.7692V18.6162H31.0516C29.8617 18.6162 28.8789 19.5552 28.8789 20.7452ZM33.8368 23.3992C33.8368 23.7526 33.7319 24.0982 33.5356 24.3921C33.3392 24.6859 33.0601 24.915 32.7335 25.0503C32.407 25.1855 32.0477 25.2209 31.701 25.152C31.3543 25.083 31.0359 24.9128 30.786 24.6629C30.536 24.4129 30.3658 24.0945 30.2969 23.7478C30.2279 23.4012 30.2633 23.0418 30.3986 22.7153C30.5338 22.3887 30.7629 22.1096 31.0568 21.9133C31.3507 21.7169 31.6962 21.6121 32.0496 21.6121C32.5234 21.6126 32.9777 21.8011 33.3127 22.1361C33.6478 22.4711 33.8362 22.9254 33.8368 23.3992Z" fill="white"/>
<path d="M34.6469 12.9514H12.3991C12.1175 12.9517 11.8388 13.0077 11.5791 13.1163C11.3193 13.2249 11.0836 13.3839 10.8856 13.584C10.6877 13.7842 10.5313 14.0216 10.4256 14.2826C10.3198 14.5435 10.2668 14.8228 10.2696 15.1043V23.1802C11.4208 22.5213 12.7253 22.177 14.0517 22.1821C18.3408 22.1821 21.8158 25.6808 21.8158 29.97C21.8171 31.3348 21.4578 32.6758 20.7742 33.8572H34.6469C35.8368 33.8572 36.7728 32.884 36.7728 31.6941V29.3389H31.0553C29.2703 29.3389 27.8035 27.8382 27.8035 26.0532V20.7452C27.8035 18.9601 29.2703 17.5372 31.0553 17.5372H36.7728V15.1043C36.776 14.823 36.7234 14.5438 36.618 14.2829C36.5126 14.0221 36.3566 13.7847 36.1589 13.5845C35.9612 13.3843 35.7258 13.2253 35.4662 13.1166C35.2067 13.0079 34.9282 12.9518 34.6469 12.9514Z" fill="white"/>
<path d="M32.0518 24.1072C32.4429 24.1072 32.7599 23.7902 32.7599 23.3991C32.7599 23.008 32.4429 22.691 32.0518 22.691C31.6608 22.691 31.3438 23.008 31.3438 23.3991C31.3438 23.7902 31.6608 24.1072 32.0518 24.1072Z" fill="white"/>
<path d="M14.0355 36.6667C15.3606 36.6667 16.6559 36.2737 17.7576 35.5376C18.8593 34.8014 19.718 33.7551 20.2251 32.5309C20.7322 31.3067 20.8649 29.9596 20.6063 28.66C20.3478 27.3605 19.7098 26.1667 18.7728 25.2298C17.8358 24.2928 16.6421 23.6547 15.3425 23.3962C14.0429 23.1377 12.6958 23.2704 11.4716 23.7775C10.2475 24.2846 9.20114 25.1433 8.46499 26.2451C7.72884 27.3468 7.33592 28.6421 7.33594 29.9672C7.33795 31.7434 8.04445 33.4463 9.30043 34.7022C10.5564 35.9582 12.2593 36.6647 14.0355 36.6667ZM9.05399 33.2855V29.4462C9.05399 29.1483 9.305 28.9342 9.60294 28.9342H11.4143V27.0154C11.4131 26.947 11.4259 26.8791 11.4519 26.8159C11.478 26.7526 11.5167 26.6954 11.5657 26.6477C11.6147 26.6 11.673 26.5628 11.7369 26.5386C11.8009 26.5143 11.8691 26.5033 11.9374 26.5064H16.1336C16.4314 26.5064 16.6745 26.7175 16.6745 27.0154V28.9342H18.4683C18.7663 28.9342 19.0348 29.1483 19.0348 29.4462V33.2855C19.0299 33.4347 18.9688 33.5765 18.8638 33.6825C18.7587 33.7885 18.6175 33.8509 18.4683 33.8572H9.60294C9.305 33.8572 9.05399 33.5835 9.05399 33.2855Z" fill="white"/>
</svg>
