<svg width="34" height="34" viewBox="0 0 34 34" fill="none" xmlns="http://www.w3.org/2000/svg">
<path d="M27.4614 5.276H6.89375C5.18986 5.276 3.80859 6.65727 3.80859 8.36116V24.8153C3.80859 26.5192 5.18986 27.9005 6.89375 27.9005H27.4614C29.1653 27.9005 30.5466 26.5192 30.5466 24.8153V8.36116C30.5466 6.65727 29.1653 5.276 27.4614 5.276Z" stroke="#BDBDBD" stroke-width="2.05677" stroke-linejoin="round"/>
<path d="M22.3185 13.5028C23.4544 13.5028 24.3753 12.582 24.3753 11.4461C24.3753 10.3101 23.4544 9.38928 22.3185 9.38928C21.1826 9.38928 20.2617 10.3101 20.2617 11.4461C20.2617 12.582 21.1826 13.5028 22.3185 13.5028Z" stroke="#BDBDBD" stroke-width="2.05677" stroke-miterlimit="10"/>
<path d="M20.2627 21.7152L14.4357 15.899C14.0649 15.5283 13.5665 15.3132 13.0424 15.2977C12.5183 15.2821 12.0081 15.4673 11.616 15.8154L3.80859 22.757" stroke="#BDBDBD" stroke-width="2.05677" stroke-linecap="round" stroke-linejoin="round"/>
<path d="M15.1211 27.9006L23.0487 19.973C23.4112 19.6097 23.8965 19.3951 24.4091 19.3714C24.9218 19.3476 25.4249 19.5163 25.8195 19.8445L30.5469 23.787" stroke="#BDBDBD" stroke-width="2.05677" stroke-linecap="round" stroke-linejoin="round"/>
</svg>
