<svg width="34" height="34" viewBox="0 0 34 34" fill="none" xmlns="http://www.w3.org/2000/svg">
<path d="M26.9167 4.25H7.08333C5.51853 4.25 4.25 5.51853 4.25 7.08333V26.9167C4.25 28.4815 5.51853 29.75 7.08333 29.75H26.9167C28.4815 29.75 29.75 28.4815 29.75 26.9167V7.08333C29.75 5.51853 28.4815 4.25 26.9167 4.25Z" stroke="#0CA2D9" stroke-width="2" stroke-linecap="round" stroke-linejoin="round"/>
<path d="M12.0415 14.1665C13.2151 14.1665 14.1665 13.2151 14.1665 12.0415C14.1665 10.8679 13.2151 9.9165 12.0415 9.9165C10.8679 9.9165 9.9165 10.8679 9.9165 12.0415C9.9165 13.2151 10.8679 14.1665 12.0415 14.1665Z" stroke="#0CA2D9" stroke-width="2" stroke-linecap="round" stroke-linejoin="round"/>
<path d="M29.7502 21.2498L22.6668 14.1665L7.0835 29.7498" stroke="#0CA2D9" stroke-width="2" stroke-linecap="round" stroke-linejoin="round"/>
</svg>
