<svg width="22" height="22" viewBox="0 0 22 22" fill="none" xmlns="http://www.w3.org/2000/svg">
<path fill-rule="evenodd" clip-rule="evenodd" d="M11 21.2903C17.0751 21.2903 22 16.5243 22 10.6452C22 4.766 17.0751 0 11 0C4.92487 0 0 4.766 0 10.6452C0 16.5243 4.92487 21.2903 11 21.2903Z" fill="#0CA2D9"/>
<path d="M12.496 7.752L11.512 16H9.336L10.32 7.752H12.496ZM12.976 5.408C12.976 5.59467 12.936 5.768 12.856 5.928C12.7813 6.088 12.68 6.22933 12.552 6.352C12.4293 6.47467 12.2853 6.57067 12.12 6.64C11.96 6.70933 11.7947 6.744 11.624 6.744C11.4533 6.744 11.288 6.70933 11.128 6.64C10.9733 6.57067 10.8347 6.47467 10.712 6.352C10.5947 6.22933 10.4987 6.088 10.424 5.928C10.3547 5.768 10.32 5.59467 10.32 5.408C10.32 5.22667 10.3573 5.056 10.432 4.896C10.5067 4.73067 10.6027 4.58667 10.72 4.464C10.8427 4.34133 10.9813 4.24533 11.136 4.176C11.296 4.10133 11.4613 4.064 11.632 4.064C11.808 4.064 11.976 4.09867 12.136 4.168C12.3013 4.23733 12.4453 4.33333 12.568 4.456C12.6907 4.57867 12.7893 4.72267 12.864 4.888C12.9387 5.048 12.976 5.22133 12.976 5.408Z" fill="white"/>
</svg>
