<svg width="15" height="15" viewBox="0 0 15 15" fill="none" xmlns="http://www.w3.org/2000/svg">
<path d="M7.5 0C3.35826 0 0 3.35826 0 7.5C0 11.6417 3.35826 15 7.5 15C11.6417 15 15 11.6417 15 7.5C15 3.35826 11.6417 0 7.5 0ZM7.5 13.7277C4.06138 13.7277 1.27232 10.9386 1.27232 7.5C1.27232 4.06138 4.06138 1.27232 7.5 1.27232C10.9386 1.27232 13.7277 4.06138 13.7277 7.5C13.7277 10.9386 10.9386 13.7277 7.5 13.7277Z" fill="#333333"/>
<path d="M6.69653 4.55357C6.69653 4.76669 6.78119 4.97108 6.93189 5.12178C7.08259 5.27248 7.28698 5.35714 7.5001 5.35714C7.71323 5.35714 7.91762 5.27248 8.06832 5.12178C8.21901 4.97108 8.30368 4.76669 8.30368 4.55357C8.30368 4.34045 8.21901 4.13606 8.06832 3.98536C7.91762 3.83466 7.71323 3.75 7.5001 3.75C7.28698 3.75 7.08259 3.83466 6.93189 3.98536C6.78119 4.13606 6.69653 4.34045 6.69653 4.55357ZM7.90189 6.42857H7.09832C7.02466 6.42857 6.96439 6.48884 6.96439 6.5625V11.1161C6.96439 11.1897 7.02466 11.25 7.09832 11.25H7.90189C7.97555 11.25 8.03582 11.1897 8.03582 11.1161V6.5625C8.03582 6.48884 7.97555 6.42857 7.90189 6.42857Z" fill="#333333"/>
</svg>
