<svg width="15" height="15" viewBox="0 0 15 15" fill="none" xmlns="http://www.w3.org/2000/svg">
<path d="M7.5 0C3.35826 0 0 3.35826 0 7.5C0 11.6417 3.35826 15 7.5 15C11.6417 15 15 11.6417 15 7.5C15 3.35826 11.6417 0 7.5 0ZM7.5 13.7277C4.06138 13.7277 1.27232 10.9386 1.27232 7.5C1.27232 4.06138 4.06138 1.27232 7.5 1.27232C10.9386 1.27232 13.7277 4.06138 13.7277 7.5C13.7277 10.9386 10.9386 13.7277 7.5 13.7277Z" fill="#7C7C7C"/>
<path d="M6.69641 4.55357C6.69641 4.76669 6.78107 4.97108 6.93177 5.12178C7.08247 5.27248 7.28686 5.35714 7.49998 5.35714C7.7131 5.35714 7.91749 5.27248 8.06819 5.12178C8.21889 4.97108 8.30355 4.76669 8.30355 4.55357C8.30355 4.34045 8.21889 4.13606 8.06819 3.98536C7.91749 3.83466 7.7131 3.75 7.49998 3.75C7.28686 3.75 7.08247 3.83466 6.93177 3.98536C6.78107 4.13606 6.69641 4.34045 6.69641 4.55357ZM7.90177 6.42857H7.0982C7.02454 6.42857 6.96427 6.48884 6.96427 6.5625V11.1161C6.96427 11.1897 7.02454 11.25 7.0982 11.25H7.90177C7.97543 11.25 8.0357 11.1897 8.0357 11.1161V6.5625C8.0357 6.48884 7.97543 6.42857 7.90177 6.42857Z" fill="#7C7C7C"/>
</svg>
