<svg width="19" height="18" viewBox="0 0 19 18" fill="none" xmlns="http://www.w3.org/2000/svg">
<g clip-path="url(#clip0)">
<path d="M1.18825 1.22521C-0.304836 2.69446 0.000747755 4.25521 0.000747755 8.99671C0.000747755 12.9342 -0.724419 16.8815 3.07083 17.8107C4.25596 18.0995 14.7566 18.0995 15.9402 17.8092C17.5203 17.423 18.806 16.2087 18.9817 14.0915C19.0063 13.796 19.0063 4.20271 18.981 3.90121C18.7941 1.64596 17.3287 0.346212 15.3979 0.0829621C14.9553 0.022212 14.8667 0.00421204 12.5962 0.000462042C4.54254 0.00421204 2.77712 -0.335538 1.18825 1.22521Z" fill="url(#paint0_linear)"/>
<path d="M9.4986 2.35407C6.62405 2.35407 3.89439 2.11182 2.85176 4.64682C2.4211 5.69382 2.48364 7.05357 2.48364 9.00057C2.48364 10.7091 2.42585 12.3148 2.85176 13.3536C3.89201 15.8901 6.64385 15.6471 9.49701 15.6471C12.2496 15.6471 15.0878 15.9186 16.1431 13.3536C16.5745 12.2961 16.5112 10.9566 16.5112 9.00057C16.5112 6.40407 16.6624 4.72782 15.3332 3.46932C13.9873 2.19432 12.1673 2.35407 9.49543 2.35407H9.4986ZM8.87001 3.55182C14.8661 3.54282 15.6293 2.91132 15.2081 11.6841C15.0585 14.7868 12.5647 14.4463 9.49939 14.4463C3.91022 14.4463 3.74951 14.2948 3.74951 8.99757C3.74951 3.63882 4.19285 3.55482 8.87001 3.55032V3.55182ZM13.2432 4.65507C12.7785 4.65507 12.4016 5.01207 12.4016 5.45232C12.4016 5.89257 12.7785 6.24957 13.2432 6.24957C13.7079 6.24957 14.0847 5.89257 14.0847 5.45232C14.0847 5.01207 13.7079 4.65507 13.2432 4.65507ZM9.4986 5.58732C7.50914 5.58732 5.89651 7.11582 5.89651 9.00057C5.89651 10.8853 7.50914 12.4131 9.4986 12.4131C11.4881 12.4131 13.0999 10.8853 13.0999 9.00057C13.0999 7.11582 11.4881 5.58732 9.4986 5.58732ZM9.4986 6.78507C12.5901 6.78507 12.594 11.2161 9.4986 11.2161C6.40793 11.2161 6.40318 6.78507 9.4986 6.78507Z" fill="white"/>
</g>
<defs>
<linearGradient id="paint0_linear" x1="1.22468" y1="16.8508" x2="18.0598" y2="1.47069" gradientUnits="userSpaceOnUse">
<stop stop-color="#FFDD55"/>
<stop offset="0.5" stop-color="#FF543E"/>
<stop offset="1" stop-color="#C837AB"/>
</linearGradient>
<clipPath id="clip0">
<rect width="19" height="18" fill="white"/>
</clipPath>
</defs>
</svg>
