<svg width="28" height="35" viewBox="0 0 28 35" fill="none" xmlns="http://www.w3.org/2000/svg">
<path d="M1.25002 0C0.559655 0 0 0.559653 0 1.25002V32C0 33.6569 1.34315 35 3 35H24.5C26.1569 35 27.5 33.6569 27.5 32V13C27.5 11.3432 26.1569 10 24.5 10H20.5C18.8432 10 17.5 8.65688 17.5 7.00002V3C17.5 1.34314 16.1569 0 14.5 0H1.25002ZM23.3838 4.11619C22.1351 2.8675 20 3.75188 20 5.5178C20 6.61253 20.8875 7.49998 21.9822 7.49998C23.7481 7.49998 24.6325 5.36489 23.3838 4.11619ZM6.25001 6.24996C6.25001 5.5596 6.80965 4.99994 7.50001 4.99994C8.19036 4.99994 8.75001 5.5596 8.75001 6.24996C8.75001 6.94032 8.19036 7.49998 7.50001 7.49998C6.80965 7.49998 6.25001 6.94032 6.25001 6.24996ZM13.2324 6.24996C13.7205 5.76184 14.5119 5.76185 15 6.24997C15.4881 6.73808 15.4881 7.52945 15 8.01756L8.0176 15C7.52949 15.4881 6.7381 15.4881 6.25 15C5.7619 14.5118 5.7619 13.7205 6.25001 13.2324L13.2324 6.24996ZM12.5 15C12.5 14.3096 13.0597 13.7499 13.75 13.7499C14.4404 13.7499 15 14.3096 15 15C15 15.6903 14.4404 16.25 13.75 16.25C13.0597 16.25 12.5 15.6903 12.5 15ZM17.5 15C17.5 14.3096 18.0597 13.7499 18.75 13.7499H21.25C21.9404 13.7499 22.5 14.3096 22.5 15C22.5 15.6903 21.9404 16.25 21.25 16.25H18.75C18.0597 16.25 17.5 15.6903 17.5 15ZM5 21.2499C5 20.5596 5.55966 19.9999 6.25002 19.9999H21.25C21.9404 19.9999 22.5 20.5596 22.5 21.2499C22.5 21.9403 21.9404 22.4999 21.25 22.4999H6.25003C5.55966 22.4999 5 21.9403 5 21.2499ZM5 27.5C5 26.8096 5.55963 26.25 6.24995 26.25H21.2501C21.9404 26.25 22.5 26.8096 22.5 27.5C22.5 28.1903 21.9404 28.7499 21.2501 28.7499H6.24995C5.55963 28.7499 5 28.1903 5 27.5Z" fill="#00B15B"/>
</svg>
