<svg width="50" height="50" viewBox="0 0 50 50" fill="none" xmlns="http://www.w3.org/2000/svg">
<path fill-rule="evenodd" clip-rule="evenodd" d="M25 50C38.8071 50 50 38.8071 50 25C50 11.1929 38.8071 0 25 0C11.1929 0 0 11.1929 0 25C0 38.8071 11.1929 50 25 50Z" fill="#4AA8FF"/>
<g clip-path="url(#clip0)">
<path d="M29.065 18.2865H21.716C21.4455 18.2865 21.2261 18.0671 21.2261 17.7966V15.1019C21.2259 12.8056 23.0941 10.9375 25.3905 10.9375C27.6869 10.9375 29.5549 12.8056 29.5549 15.1019V17.7965C29.5549 18.0671 29.3354 18.2865 29.065 18.2865ZM22.2058 17.3066H28.575V15.1019C28.575 13.346 27.1464 11.9173 25.3903 11.9173C23.6343 11.9173 22.2058 13.346 22.2058 15.1019V17.3066Z" fill="black"/>
<path d="M36.169 20.2474H14.6118L16.0816 17.7979H34.6992L36.169 20.2474Z" fill="#8C6B3B"/>
<path d="M36.1688 20.7345H14.6116C14.4349 20.7345 14.2723 20.6395 14.1853 20.4859C14.0983 20.3323 14.1004 20.144 14.1914 19.9923L15.6613 17.5425C15.7497 17.3948 15.9091 17.3047 16.0814 17.3047H34.699C34.8712 17.3047 35.0307 17.3948 35.1191 17.5425L36.5889 19.9923C36.6798 20.1437 36.6821 20.3323 36.5951 20.4859C36.5081 20.6393 36.3453 20.7345 36.1688 20.7345ZM15.4768 19.7546H35.3036L34.4217 18.2847H16.359L15.4768 19.7546Z" fill="black"/>
<path d="M25.3791 21.325L32.0576 22.8867L33.7309 15.7312L27.0525 14.1695L25.3791 21.325Z" fill="#83D816"/>
<path d="M32.0582 23.3777C32.0212 23.3777 31.9837 23.3735 31.9459 23.3648L25.2671 21.8027C25.1405 21.773 25.031 21.6946 24.9624 21.5839C24.8937 21.4737 24.8719 21.3405 24.9016 21.214L26.5756 14.0583C26.637 13.7948 26.9004 13.6306 27.1642 13.6929L33.8431 15.255C33.9697 15.2847 34.0792 15.3631 34.1478 15.4737C34.2164 15.584 34.2382 15.7172 34.2085 15.8436L32.5346 22.9993C32.4819 23.2254 32.2804 23.3777 32.0582 23.3777ZM25.9672 20.9601L31.6922 22.2992L33.1426 16.0978L27.4177 14.7588L25.9672 20.9601Z" fill="black"/>
<path d="M17.5602 22.6643L25.7549 21.6956L24.7169 12.9155L16.5223 13.8842L17.5602 22.6643Z" fill="#2A8EE6"/>
<path d="M17.5597 23.1549C17.3147 23.1549 17.1033 22.9716 17.0737 22.7223L16.0361 13.9426C16.0045 13.6739 16.1966 13.4303 16.465 13.3985L24.6595 12.4299C24.7891 12.4147 24.9181 12.4514 25.0203 12.5318C25.1225 12.6122 25.1884 12.73 25.2036 12.8591L26.2412 21.639C26.2564 21.7679 26.22 21.8979 26.1393 21.9998C26.0589 22.102 25.9411 22.1679 25.8123 22.1831L17.6179 23.1514C17.5982 23.1536 17.5788 23.1549 17.5597 23.1549ZM17.0666 14.3142L17.9893 22.1208L25.2108 21.2677L24.288 13.4608L17.0666 14.3142Z" fill="black"/>
<path d="M22.1807 26.3366L30.0742 24.4385L28.0767 16.1315L20.1832 18.0295L22.1807 26.3366Z" fill="#ED5481"/>
<path d="M22.1799 26.8244C21.9587 26.8244 21.7578 26.6736 21.704 26.449L19.7065 18.1425C19.6434 17.8794 19.8053 17.6148 20.0684 17.5517L27.961 15.6537C28.0879 15.6235 28.2206 15.6446 28.3313 15.712C28.442 15.7799 28.5214 15.8891 28.5518 16.0153L30.5492 24.3221C30.5797 24.4486 30.5586 24.5818 30.4907 24.6924C30.4228 24.8034 30.3138 24.8825 30.1874 24.9129L22.2948 26.8107C22.2564 26.8202 22.2177 26.8244 22.1799 26.8244ZM20.7736 18.3896L22.5419 25.7438L29.4819 24.0751L27.7135 16.721L20.7736 18.3896Z" fill="black"/>
<path d="M37.1487 39.3529H13.6318L14.6116 20.2454H36.1688L37.1487 39.3529Z" fill="white"/>
<path d="M37.1489 39.8451H13.632C13.4978 39.8451 13.3694 39.79 13.2768 39.6926C13.1845 39.5953 13.136 39.4641 13.1427 39.3301L14.1226 20.2226C14.1361 19.9622 14.3511 19.7578 14.6121 19.7578H36.1693C36.4303 19.7578 36.6453 19.9621 36.6588 20.2226L37.6387 39.3301C37.6456 39.4643 37.5971 39.5953 37.5046 39.6926C37.4115 39.79 37.2831 39.8451 37.1489 39.8451ZM14.1476 38.8652H36.6332L35.7035 20.7376H15.0773L14.1476 38.8652Z" fill="black"/>
<path d="M29.0649 24.163C29.6061 24.163 30.0448 23.7242 30.0448 23.183C30.0448 22.6419 29.6061 22.2031 29.0649 22.2031C28.5237 22.2031 28.085 22.6419 28.085 23.183C28.085 23.7242 28.5237 24.163 29.0649 24.163Z" fill="#8C6B3B"/>
<path d="M29.0645 24.6545C28.254 24.6545 27.5947 23.9952 27.5947 23.1846C27.5947 22.3741 28.254 21.7148 29.0645 21.7148C29.8751 21.7148 30.5343 22.3741 30.5343 23.1846C30.5343 23.9952 29.8751 24.6545 29.0645 24.6545ZM29.0645 22.6948C28.7944 22.6948 28.5746 22.9145 28.5746 23.1846C28.5746 23.4548 28.7944 23.6745 29.0645 23.6745C29.3347 23.6745 29.5544 23.4548 29.5544 23.1846C29.5544 22.9145 29.3347 22.6948 29.0645 22.6948Z" fill="black"/>
<path d="M21.7158 24.163C22.257 24.163 22.6957 23.7242 22.6957 23.183C22.6957 22.6419 22.257 22.2031 21.7158 22.2031C21.1746 22.2031 20.7358 22.6419 20.7358 23.183C20.7358 23.7242 21.1746 24.163 21.7158 24.163Z" fill="#8C6B3B"/>
<path d="M21.7159 24.6545C20.9054 24.6545 20.2461 23.9952 20.2461 23.1846C20.2461 22.3741 20.9054 21.7148 21.7159 21.7148C22.5264 21.7148 23.1857 22.3741 23.1857 23.1846C23.1857 23.9952 22.5264 24.6545 21.7159 24.6545ZM21.7159 22.6948C21.4458 22.6948 21.226 22.9145 21.226 23.1846C21.226 23.4548 21.4458 23.6745 21.7159 23.6745C21.986 23.6745 22.2058 23.4548 22.2058 23.1846C22.2058 22.9145 21.986 22.6948 21.7159 22.6948Z" fill="black"/>
<path d="M25.3905 30.5361C23.0942 30.5361 21.2261 28.668 21.2261 26.3717V23.6771C21.2261 23.4067 21.4455 23.1873 21.716 23.1873C21.9864 23.1873 22.2058 23.4067 22.2058 23.6771V26.3717C22.2058 28.1276 23.6345 29.5564 25.3905 29.5564C27.1465 29.5564 28.5751 28.1278 28.5751 26.3717V23.866C28.5506 23.808 28.5374 23.744 28.5374 23.6771C28.5374 23.4067 28.7568 23.1873 29.0272 23.1873H29.065C29.3354 23.1873 29.5549 23.4067 29.5549 23.6771V26.3717C29.5549 28.668 27.6868 30.5361 25.3905 30.5361Z" fill="black"/>
</g>
<defs>
<clipPath id="clip0">
<rect width="28.9062" height="28.9062" fill="white" transform="translate(10.9375 10.9375)"/>
</clipPath>
</defs>
</svg>
