<svg width="100" height="100" viewBox="0 0 100 100" fill="none" xmlns="http://www.w3.org/2000/svg">
<g clip-path="url(#clip0)">
<path fill-rule="evenodd" clip-rule="evenodd" d="M96.0149 38.988H4.00586C2.90186 38.988 2.00586 39.885 2.00586 40.993V97.994C2.00586 99.102 2.90186 100 4.00586 100H96.0149C96.278 99.9998 96.5385 99.9477 96.7815 99.8467C97.0244 99.7457 97.2451 99.5979 97.431 99.4116C97.6168 99.2253 97.7641 99.0042 97.8644 98.761C97.9648 98.5178 98.0163 98.2572 98.0159 97.994V40.993C98.0161 40.73 97.9646 40.4695 97.8642 40.2264C97.7637 39.9833 97.6164 39.7623 97.4306 39.5761C97.2448 39.3899 97.0241 39.2422 96.7812 39.1413C96.5383 39.0404 96.2779 38.9883 96.0149 38.988Z" fill="#D35400"/>
<path fill-rule="evenodd" clip-rule="evenodd" d="M5 15.974V97.978C5 99.095 5.896 100 7 100H93.001C93.265 99.9986 93.526 99.9451 93.7694 99.8428C94.0127 99.7404 94.2335 99.5912 94.4191 99.4035C94.6047 99.2158 94.7515 98.9934 94.8512 98.749C94.9509 98.5046 95.0014 98.243 95 97.979V1.98999C95.0014 1.72604 94.9509 1.46438 94.8512 1.21996C94.7515 0.97554 94.6047 0.753147 94.4191 0.565479C94.2335 0.377811 94.0127 0.228543 93.7694 0.126198C93.526 0.0238526 93.265 -0.0295653 93.001 -0.0310059L21.004 -0.0230059L5 15.974Z" fill="#ECF0F1"/>
<path opacity="0.1" d="M40 72L94.997 39L95 45.98L51.028 72H40Z" fill="black"/>
<path fill-rule="evenodd" clip-rule="evenodd" d="M2 97.991C2 99.101 2.895 100 4 100H96C97.104 100 98 99.101 98 97.991V42L50 71L2 42V97.991Z" fill="#F39C12"/>
<path fill-rule="evenodd" clip-rule="evenodd" d="M5 15.974L21.001 15.984V0L5 15.974Z" fill="#F1C40F"/>
<path d="M2 42L2.052 96L50 71L2 42Z" fill="#F1C40F"/>
<path d="M98 42L50 71L98 96V42Z" fill="#E57E22"/>
<path opacity="0.3" fill-rule="evenodd" clip-rule="evenodd" d="M98 97.991V96L50 71L97.328 99.482C97.737 99.115 98 98.586 98 97.991ZM2 97.991V96L50 71L2.672 99.482C2.46116 99.2949 2.29228 99.0654 2.17646 98.8084C2.06064 98.5514 2.0005 98.2729 2 97.991Z" fill="black"/>
</g>
<defs>
<clipPath id="clip0">
<rect width="100" height="100" fill="white"/>
</clipPath>
</defs>
</svg>
