<svg width="600" height="150" viewBox="0 0 600 150" fill="none" xmlns="http://www.w3.org/2000/svg">
<rect width="600" height="150" rx="10" transform="matrix(-1 0 0 1 600 0)" fill="url(#paint0_linear)"/>
<g opacity="0.8">
<mask id="mask0" mask-type="alpha" maskUnits="userSpaceOnUse" x="14" y="0" width="586" height="150">
<rect width="586" height="150" rx="10" transform="matrix(-1 0 0 1 600 0)" fill="url(#paint1_linear)"/>
</mask>
<g mask="url(#mask0)">
<path d="M612 76C605.434 76 598.932 74.7067 592.866 72.194C586.8 69.6812 581.288 65.9983 576.645 61.3553C572.002 56.7124 568.319 51.2004 565.806 45.1342C563.293 39.0679 562 32.5661 562 26L612 26V76Z" fill="white"/>
<path d="M612 26C612 19.4339 610.707 12.9321 608.194 6.86583C605.681 0.799547 601.998 -4.71241 597.355 -9.35534C592.712 -13.9983 587.2 -17.6812 581.134 -20.194C575.068 -22.7067 568.566 -24 562 -24L562 26L612 26Z" fill="#FFB600"/>
<path d="M512 -24C512 -17.4339 513.293 -10.9321 515.806 -4.86583C518.319 1.20045 522.002 6.71241 526.645 11.3553C531.288 15.9983 536.8 19.6812 542.866 22.194C548.932 24.7067 555.434 26 562 26L562 -24L512 -24Z" fill="#FE5E33"/>
<path d="M461 126C454.434 126 447.932 124.707 441.866 122.194C435.8 119.681 430.288 115.998 425.645 111.355C421.002 106.712 417.319 101.2 414.806 95.1342C412.293 89.0679 411 82.5661 411 76L461 76V126Z" fill="#FFB600"/>
<path d="M511 -24C504.434 -24 497.932 -22.7067 491.866 -20.194C485.8 -17.6812 480.288 -13.9983 475.645 -9.35534C471.002 -4.71241 467.319 0.799553 464.806 6.86583C462.293 12.9321 461 19.4339 461 26L511 26V-24Z" fill="white"/>
<path d="M511 26C511 32.5661 509.707 39.0679 507.194 45.1342C504.681 51.2005 500.998 56.7124 496.355 61.3553C491.712 65.9983 486.2 69.6812 480.134 72.194C474.068 74.7067 467.566 76 461 76L461 26L511 26Z" fill="#FFB600"/>
<path d="M411 76C411 69.4339 412.293 62.9321 414.806 56.8658C417.319 50.7995 421.002 45.2876 425.645 40.6447C430.288 36.0017 435.8 32.3188 441.866 29.806C447.932 27.2933 454.434 26 461 26L461 76L411 76Z" fill="#FE5E33"/>
<path d="M561 176C567.566 176 574.068 174.707 580.134 172.194C586.2 169.681 591.712 165.998 596.355 161.355C600.998 156.712 604.681 151.2 607.194 145.134C609.707 139.068 611 132.566 611 126L561 126V176Z" fill="white"/>
<path d="M511 26C517.566 26 524.068 27.2933 530.134 29.806C536.2 32.3188 541.712 36.0017 546.355 40.6447C550.998 45.2876 554.681 50.7996 557.194 56.8658C559.707 62.9321 561 69.4339 561 76L511 76V26Z" fill="white"/>
<path d="M511 76C511 82.5661 512.293 89.0679 514.806 95.1342C517.319 101.2 521.002 106.712 525.645 111.355C530.288 115.998 535.8 119.681 541.866 122.194C547.932 124.707 554.434 126 561 126L561 76L511 76Z" fill="#FFB600"/>
<path d="M611 126C611 119.434 609.707 112.932 607.194 106.866C604.681 100.8 600.998 95.2876 596.355 90.6447C591.712 86.0017 586.2 82.3188 580.134 79.806C574.068 77.2933 567.566 76 561 76L561 126L611 126Z" fill="#FE5E33"/>
<path d="M511 75C504.434 75 497.932 76.2933 491.866 78.806C485.8 81.3188 480.288 85.0017 475.645 89.6447C471.002 94.2876 467.319 99.7996 464.806 105.866C462.293 111.932 461 118.434 461 125L511 125V75Z" fill="white"/>
<path d="M561 175C561 168.434 559.707 161.932 557.194 155.866C554.681 149.8 550.998 144.288 546.355 139.645C541.712 135.002 536.2 131.319 530.134 128.806C524.068 126.293 517.566 125 511 125L511 175L561 175Z" fill="#FFB600"/>
<path d="M461 125C461 131.566 462.293 138.068 464.806 144.134C467.319 150.2 471.002 155.712 475.645 160.355C480.288 164.998 485.8 168.681 491.866 171.194C497.932 173.707 504.434 175 511 175L511 125L461 125Z" fill="#FE5E33"/>
</g>
</g>
<defs>
<linearGradient id="paint0_linear" x1="579.85" y1="141.223" x2="358.326" y2="-189.166" gradientUnits="userSpaceOnUse">
<stop offset="0.203125" stop-color="#012F44"/>
<stop offset="0.6875" stop-color="#005981"/>
</linearGradient>
<linearGradient id="paint1_linear" x1="566.32" y1="141.223" x2="342.855" y2="-184.285" gradientUnits="userSpaceOnUse">
<stop offset="0.203125" stop-color="#012F44"/>
<stop offset="0.6875" stop-color="#005981"/>
</linearGradient>
</defs>
</svg>
