<svg width="330" height="112" viewBox="0 0 330 112" fill="none" xmlns="http://www.w3.org/2000/svg">
<rect width="330" height="112" rx="10" transform="matrix(-1 0 0 1 330 0)" fill="url(#paint0_linear)"/>
<g opacity="0.8">
<mask id="mask0" mask-type="alpha" maskUnits="userSpaceOnUse" x="0" y="0" width="330" height="112">
<rect width="330" height="112" rx="10" transform="matrix(-1 0 0 1 330 0)" fill="url(#paint1_linear)"/>
</mask>
<g mask="url(#mask0)">
<path d="M319.938 -30C315.985 -30 312.071 -29.2214 308.419 -27.7088C304.767 -26.1961 301.449 -23.9789 298.654 -21.1838C295.859 -18.3888 293.642 -15.0706 292.129 -11.4186C290.616 -7.7667 289.838 -3.85258 289.838 0.100237L319.938 0.100233V-30Z" fill="white"/>
<path d="M350.038 60.3008C346.085 60.3008 342.171 59.5222 338.519 58.0095C334.867 56.4969 331.549 54.2797 328.754 51.4846C325.959 48.6896 323.741 45.3713 322.229 41.7194C320.716 38.0675 319.937 34.1534 319.938 30.2005L350.038 30.2005V60.3008Z" fill="white"/>
<path d="M350.038 30.1998C350.038 26.247 349.26 22.3329 347.747 18.681C346.234 15.0291 344.017 11.7108 341.222 8.91576C338.427 6.1207 335.109 3.90353 331.457 2.39085C327.805 0.878173 323.891 0.0996076 319.938 0.0996081L319.938 30.1998L350.038 30.1998Z" fill="#FFB600"/>
<path d="M289.837 0.100939C289.837 4.05376 290.616 7.96787 292.129 11.6198C293.641 15.2717 295.858 18.59 298.654 21.385C301.449 24.1801 304.767 26.3973 308.419 27.9099C312.071 29.4226 315.985 30.2012 319.938 30.2012L319.938 0.100937L289.837 0.100939Z" fill="#FE5E33"/>
<path d="M259.136 90.4004C255.184 90.4004 251.269 89.6218 247.618 88.1091C243.966 86.5965 240.647 84.3793 237.852 81.5842C235.057 78.7892 232.84 75.4709 231.327 71.819C229.815 68.1671 229.036 64.253 229.036 60.3002L259.136 60.3002V90.4004Z" fill="#FFB600"/>
<path d="M289.236 0.100586C285.283 0.100586 281.369 0.879152 277.717 2.39183C274.065 3.90451 270.747 6.12168 267.952 8.91674C265.157 11.7118 262.94 15.03 261.427 18.682C259.914 22.3339 259.136 26.248 259.136 30.2008L289.236 30.2008V0.100586Z" fill="white"/>
<path d="M289.236 30.2015C289.236 34.1543 288.458 38.0685 286.945 41.7204C285.432 45.3723 283.215 48.6905 280.42 51.4856C277.625 54.2807 274.307 56.4978 270.655 58.0105C267.003 59.5232 263.089 60.3018 259.136 60.3018L259.136 30.2015L289.236 30.2015Z" fill="#FFB600"/>
<path d="M229.036 60.3014C229.036 56.3486 229.814 52.4345 231.327 48.7825C232.84 45.1306 235.057 41.8124 237.852 39.0173C240.647 36.2223 243.965 34.0051 247.617 32.4924C251.269 30.9797 255.183 30.2012 259.136 30.2012L259.136 60.3014L229.036 60.3014Z" fill="#FE5E33"/>
<path d="M319.336 120.502C323.289 120.502 327.203 119.723 330.855 118.211C334.507 116.698 337.825 114.481 340.62 111.686C343.415 108.891 345.633 105.573 347.145 101.921C348.658 98.2686 349.437 94.3545 349.437 90.4017L319.336 90.4017V120.502Z" fill="white"/>
<path d="M289.236 30.2012C293.189 30.2012 297.103 30.9797 300.755 32.4924C304.407 34.0051 307.725 36.2223 310.52 39.0173C313.315 41.8124 315.533 45.1306 317.045 48.7825C318.558 52.4345 319.336 56.3486 319.336 60.3014L289.236 60.3014V30.2012Z" fill="white"/>
<path d="M289.236 60.3011C289.236 64.254 290.014 68.1681 291.527 71.82C293.04 75.4719 295.257 78.7901 298.052 81.5852C300.847 84.3803 304.165 86.5974 307.817 88.1101C311.469 89.6228 315.383 90.4014 319.336 90.4014L319.336 60.3011L289.236 60.3011Z" fill="#FFB600"/>
<path d="M349.437 90.401C349.437 86.4482 348.658 82.5341 347.145 78.8822C345.633 75.2302 343.415 71.912 340.62 69.1169C337.825 66.3219 334.507 64.1047 330.855 62.592C327.203 61.0793 323.289 60.3008 319.336 60.3008L319.336 90.401L349.437 90.401Z" fill="#FE5E33"/>
<path d="M289.236 59.6992C285.283 59.6992 281.369 60.4778 277.717 61.9905C274.065 63.5031 270.747 65.7203 267.952 68.5154C265.157 71.3104 262.94 74.6287 261.427 78.2806C259.914 81.9325 259.136 85.8466 259.136 89.7995L289.236 89.7995V59.6992Z" fill="white"/>
<path d="M319.336 119.899C319.336 115.946 318.558 112.032 317.045 108.38C315.533 104.728 313.315 101.41 310.52 98.615C307.725 95.8199 304.407 93.6027 300.755 92.0901C297.103 90.5774 293.189 89.7988 289.236 89.7988L289.236 119.899L319.336 119.899Z" fill="#FFB600"/>
<path d="M259.136 89.8002C259.136 93.753 259.914 97.6671 261.427 101.319C262.94 104.971 265.157 108.289 267.952 111.084C270.747 113.879 274.065 116.096 277.717 117.609C281.369 119.122 285.283 119.9 289.236 119.9L289.236 89.8002L259.136 89.8002Z" fill="#FE5E33"/>
</g>
</g>
<defs>
<linearGradient id="paint0_linear" x1="318.917" y1="105.447" x2="140.909" y2="-90.115" gradientUnits="userSpaceOnUse">
<stop offset="0.203125" stop-color="#012F44"/>
<stop offset="0.6875" stop-color="#005981"/>
</linearGradient>
<linearGradient id="paint1_linear" x1="318.917" y1="105.447" x2="140.909" y2="-90.115" gradientUnits="userSpaceOnUse">
<stop offset="0.203125" stop-color="#012F44"/>
<stop offset="0.6875" stop-color="#005981"/>
</linearGradient>
</defs>
</svg>
