<svg width="24" height="24" viewBox="0 0 24 24" fill="none" xmlns="http://www.w3.org/2000/svg">
<path d="M2.25002 11.25H0.750007C0.336003 11.25 0 11.586 0 12V22.5001C0 22.9141 0.336003 23.2501 0.750007 23.2501H2.25002C2.66403 23.2501 3.00003 22.9141 3.00003 22.5001V12C3.00003 11.586 2.66403 11.25 2.25002 11.25Z" fill="#0CA2D9"/>
<path d="M23.5262 12.8684C22.7642 11.8859 21.3481 11.7104 20.3701 12.4739L14.8381 16.7759C14.4421 17.0834 13.9561 17.2499 13.4566 17.2499H8.25003C10.3215 17.2499 12.0001 15.5714 12.0001 13.4999C12.0001 13.0859 11.6641 12.7499 11.2501 12.7499H4.5V17.2499V21.75H14.4841C15.3181 21.75 16.1281 21.4725 16.7866 20.9595L23.1317 16.0244C24.1127 15.2624 24.2882 13.8494 23.5262 12.8684Z" fill="#0CA2D9"/>
<path d="M10.952 12V8.542H10.14V7.506H10.952V6.498H10.14V5.462H10.952V2.004H13.15L14.242 5.462H15.516V2.004H17.07V5.462H17.868V6.498H17.07V7.506H17.868V8.542H17.07V12H14.858L13.738 8.542H12.506V12H10.952ZM12.45 5.462H12.842L12.436 4.118H12.38L12.45 5.462ZM12.506 7.506H13.43L13.122 6.498H12.478L12.506 7.506ZM14.9 7.506H15.544L15.516 6.498H14.578L14.9 7.506ZM15.558 9.816H15.628L15.572 8.542H15.194L15.558 9.816Z" fill="#0CA2D9"/>
</svg>
