<svg xmlns="http://www.w3.org/2000/svg" viewBox="0 0 718.2 719.04"><defs><style>.cls-1{fill:#0073a5;}.cls-1,.cls-2{fill-rule:evenodd;}.cls-2{fill:#f89a1c;}</style></defs><title>Asset 5</title><g id="Layer_2" data-name="Layer 2"><g id="Layer_1-2" data-name="Layer 1"><path class="cls-1" d="M0,0,32,48.3C86.26,137.37,115.72,240.45,127,344.89c1.22,11.39,2.1,23.71,3.51,34.94C133.6,405,168.79,413.48,186.67,438c-6.84,18.78-47.13,73.42-55.29,94.45,21.18-14.81,42.52-34.56,64.32-51.74,21.31-16.8,43.5-33.1,66.94-50.4,55.95-41.26,106.33-68.85,181.23-82.87,15.75-2.95,5.79-3.53,19.25-9.83,69.51-32.5,25.63-21.46,63.7-53.58,13.3-11.23,188.61-96.12,191.38-96C686.48,185.16,580.65,225.4,530,212.56c-54.31-13.75-87.41-11.15-124.07,31.09-8.19,9.44-14.05,20.47-31.09,23.55C371,254.93,359.25,231.1,353,218.39c-35.72-72.9-32.12-89.16-111.4-96.62-8.13-10.13-10.65-17.12-20.48-25.55C178.67,59.84,48,10.05,0,0"/><path class="cls-2" d="M86.39,719h26.13c7.58-3,24.72-5.4,34.48-8.47,11.41-3.57,19.92-7.68,30.65-11.28.8-24.44-1.79-51.1-2.71-75.54-.61-16.16,2.85-19.69,9.51-29.7,7.81-11.76,7.27-8.55,22.48-14.18,68.88-25.54,149.28-60,192.89-115,17.63-22.21,42.93-70.36,48.95-103.48-85,9.45-181.49,79-242.61,129.79L104.33,575,35.53,689.71c4.92,8,13.17,13.77,22.72,19.08,10.41,5.79,19.22,5.89,28.14,10.25"/></g></g></svg>