<svg xmlns="http://www.w3.org/2000/svg" viewBox="0 0 249.58 93.38"><defs><style>.cls-1{fill:#1b1b1b;}.cls-2,.cls-3{fill:#0073a5;}.cls-3,.cls-4{fill-rule:evenodd;}.cls-4{fill:#f89a1c;}</style></defs><g id="Layer_2" data-name="Layer 2"><g id="Layer_1-2" data-name="Layer 1"><path class="cls-1" d="M25.13,89.21a.65.65,0,0,1,.67.67.69.69,0,0,1-.19.49.66.66,0,0,1-.48.2.61.61,0,0,1-.47-.19.68.68,0,0,1-.19-.5.65.65,0,0,1,.19-.48.61.61,0,0,1,.47-.19"/><path class="cls-1" d="M28.28,89.21a.64.64,0,0,1,.47.19.66.66,0,0,1,.2.48.7.7,0,0,1-.2.49.68.68,0,0,1-.95,0,.71.71,0,0,1-.18-.5.68.68,0,0,1,.18-.48.65.65,0,0,1,.48-.19"/><path class="cls-1" d="M31.42,89.21a.65.65,0,0,1,.48.19.66.66,0,0,1,.2.48.7.7,0,0,1-.2.49.66.66,0,0,1-.48.2.63.63,0,0,1-.47-.19.72.72,0,0,1-.19-.5A.69.69,0,0,1,31,89.4a.63.63,0,0,1,.47-.19"/><path class="cls-1" d="M38.58,86.14a3.5,3.5,0,0,0,2.31-.68,2.42,2.42,0,0,0,.81-2,2.36,2.36,0,0,0-.8-1.92,3.6,3.6,0,0,0-2.32-.66H35.8v5.22Zm0-6.14a4.53,4.53,0,0,1,3,.9,3.18,3.18,0,0,1,1.06,2.57,3.37,3.37,0,0,1-1.06,2.66,4.38,4.38,0,0,1-3,.94H35.8v3.38h-1V80Z"/><path class="cls-1" d="M48,83.45a2.94,2.94,0,0,0-1.52.39,2.69,2.69,0,0,0-1,1.09,3.35,3.35,0,0,0-.38,1.6,3.4,3.4,0,0,0,.38,1.62,2.69,2.69,0,0,0,1,1.09,2.94,2.94,0,0,0,1.52.39,3,3,0,0,0,1.53-.39,2.73,2.73,0,0,0,1-1.09,3.4,3.4,0,0,0,.38-1.62,3.35,3.35,0,0,0-.38-1.6,2.73,2.73,0,0,0-1-1.09A3,3,0,0,0,48,83.45m0-.87a4.16,4.16,0,0,1,2,.5,3.69,3.69,0,0,1,1.4,1.4,4.36,4.36,0,0,1,0,4.09A3.65,3.65,0,0,1,50,90a4.16,4.16,0,0,1-2,.5,4.1,4.1,0,0,1-2-.5,3.61,3.61,0,0,1-1.41-1.41,4.36,4.36,0,0,1,0-4.09,3.65,3.65,0,0,1,1.41-1.4A4.1,4.1,0,0,1,48,82.58Z"/><polygon class="cls-1" points="52.63 82.61 53.71 82.61 56.12 89.45 58.5 82.61 59.56 82.61 61.95 89.45 64.34 82.61 65.39 82.61 62.46 90.45 61.41 90.45 59.02 83.83 56.63 90.45 55.58 90.45 52.63 82.61"/><path class="cls-1" d="M72.63,86.08a2.9,2.9,0,0,0-.81-2,2.66,2.66,0,0,0-1.94-.72,2.79,2.79,0,0,0-2,.73A2.94,2.94,0,0,0,67,86.08Zm-2.76-3.5a3.42,3.42,0,0,1,2.78,1.16,4.48,4.48,0,0,1,.88,3.12H67a3.06,3.06,0,0,0,.92,2,2.89,2.89,0,0,0,2,.77,3.55,3.55,0,0,0,1.39-.27,3.32,3.32,0,0,0,1.11-.76l.56.56a3.84,3.84,0,0,1-1.36,1,4.42,4.42,0,0,1-1.76.34,4.06,4.06,0,0,1-2-.5,3.57,3.57,0,0,1-1.38-1.4,4.43,4.43,0,0,1,0-4.09,3.6,3.6,0,0,1,1.38-1.41A4,4,0,0,1,69.87,82.58Z"/><path class="cls-1" d="M76.87,84.44A3,3,0,0,1,78,83.07a3.23,3.23,0,0,1,1.74-.49v1a2.71,2.71,0,0,0-2,.72,3.1,3.1,0,0,0-.86,2v4.19h-1V82.61h1Z"/><path class="cls-1" d="M82.1,79.65a.66.66,0,0,1,.49.2.73.73,0,0,1,.2.51.7.7,0,0,1-.2.5.67.67,0,0,1-.49.21.7.7,0,0,1-.7-.71.68.68,0,0,1,.7-.71m-.51,3h1v7.84h-1Z"/><path class="cls-1" d="M89.85,82.58a3,3,0,0,1,2.21.82,3.06,3.06,0,0,1,.8,2.23v4.82h-1V85.87a2.37,2.37,0,0,0-.61-1.73,2.28,2.28,0,0,0-1.71-.63,2.64,2.64,0,0,0-1.93.75,3,3,0,0,0-.83,2v4.22h-1V82.61h1v1.83A2.89,2.89,0,0,1,88,83.06a3.77,3.77,0,0,1,1.9-.48"/><path class="cls-1" d="M98.74,89.31a2.73,2.73,0,0,0,1.45-.38,2.62,2.62,0,0,0,1-1.05,3.26,3.26,0,0,0,.35-1.51,3.32,3.32,0,0,0-.35-1.53,2.62,2.62,0,0,0-1-1,3,3,0,0,0-2.9,0,2.69,2.69,0,0,0-1,1,3.2,3.2,0,0,0-.36,1.53,3.16,3.16,0,0,0,.36,1.52,2.78,2.78,0,0,0,1,1,2.74,2.74,0,0,0,1.46.38m3.82-6.7v7a4,4,0,0,1-.48,2,3.25,3.25,0,0,1-1.37,1.3,4.37,4.37,0,0,1-2.06.46,5,5,0,0,1-3.21-1.2l.48-.71a4.31,4.31,0,0,0,1.25.79,3.77,3.77,0,0,0,1.44.27,2.88,2.88,0,0,0,2.14-.79,2.77,2.77,0,0,0,.8-2.1V88.37a3,3,0,0,1-1.19,1.29,3.44,3.44,0,0,1-1.8.46,3.6,3.6,0,0,1-1.86-.48,3.44,3.44,0,0,1-1.27-1.35,4.36,4.36,0,0,1,0-3.9,3.34,3.34,0,0,1,1.28-1.33,3.64,3.64,0,0,1,1.87-.48,3.44,3.44,0,0,1,1.78.46,3.16,3.16,0,0,1,1.19,1.29V82.61Z"/><path class="cls-1" d="M113.44,84a4.33,4.33,0,0,0-1-.44,4.15,4.15,0,0,0-1.09-.15,2.13,2.13,0,0,0-1.2.29,1,1,0,0,0-.46.87.89.89,0,0,0,.25.66,1.68,1.68,0,0,0,.61.41,8.92,8.92,0,0,0,1,.35,11.24,11.24,0,0,1,1.32.47,2.4,2.4,0,0,1,.87.68,1.77,1.77,0,0,1,.36,1.16,1.86,1.86,0,0,1-.81,1.62,3.49,3.49,0,0,1-2,.56,4.85,4.85,0,0,1-1.65-.28,3.72,3.72,0,0,1-1.33-.81l.41-.72a3.82,3.82,0,0,0,1.2.73,3.88,3.88,0,0,0,1.41.27,2.34,2.34,0,0,0,1.3-.33,1.08,1.08,0,0,0,.5-1,1,1,0,0,0-.25-.71,1.83,1.83,0,0,0-.64-.44c-.25-.1-.61-.22-1.06-.36a11,11,0,0,1-1.28-.47,2.22,2.22,0,0,1-.84-.65,1.69,1.69,0,0,1-.34-1.11,1.75,1.75,0,0,1,.77-1.56,3.32,3.32,0,0,1,1.92-.52,4.69,4.69,0,0,1,1.3.18,4.22,4.22,0,0,1,1.12.49Z"/><path class="cls-1" d="M123.08,82.61v7.84h-1V88.58A3,3,0,0,1,120.91,90a3.59,3.59,0,0,1-1.87.49,2.88,2.88,0,0,1-2.17-.81,3.08,3.08,0,0,1-.79-2.24V82.61h1v4.58a2.4,2.4,0,0,0,.6,1.73,2.25,2.25,0,0,0,1.67.62,2.52,2.52,0,0,0,2-.86,3.38,3.38,0,0,0,.71-2.22V82.61Z"/><path class="cls-1" d="M130.3,84a4.41,4.41,0,0,0-1-.44,4.09,4.09,0,0,0-1.09-.15,2.13,2.13,0,0,0-1.2.29,1,1,0,0,0-.46.87.93.93,0,0,0,.25.66,1.77,1.77,0,0,0,.61.41,9.2,9.2,0,0,0,1,.35,11,11,0,0,1,1.31.47,2.4,2.4,0,0,1,.87.68A1.77,1.77,0,0,1,131,88.3a1.86,1.86,0,0,1-.81,1.62,3.49,3.49,0,0,1-2,.56,4.79,4.79,0,0,1-1.64-.28,3.63,3.63,0,0,1-1.33-.81l.4-.72a3.82,3.82,0,0,0,1.2.73,3.93,3.93,0,0,0,1.42.27,2.29,2.29,0,0,0,1.29-.33,1.06,1.06,0,0,0,.5-1,1,1,0,0,0-.25-.71,1.74,1.74,0,0,0-.64-.44q-.37-.15-1.05-.36a10.53,10.53,0,0,1-1.29-.47,2.11,2.11,0,0,1-.83-.65,1.7,1.7,0,0,1-.35-1.11,1.77,1.77,0,0,1,.77-1.56,3.32,3.32,0,0,1,1.92-.52,4.64,4.64,0,0,1,1.3.18,4.29,4.29,0,0,1,1.13.49Z"/><path class="cls-1" d="M137.15,89.91a3.09,3.09,0,0,1-1.73.58,1.85,1.85,0,0,1-1.42-.55,2.33,2.33,0,0,1-.53-1.66V83.62h-1.12v-.78h1.13v-2h1v2l2.54,0v.8h-2.54v4.5c0,1,.36,1.45,1.07,1.45a2.57,2.57,0,0,0,1.3-.42Z"/><path class="cls-1" d="M141.36,89.66a3,3,0,0,0,1.77-.49,2.34,2.34,0,0,0,1-1.37V86.73h-2.52a2.93,2.93,0,0,0-1.57.34,1.14,1.14,0,0,0-.54,1,1.39,1.39,0,0,0,.51,1.13,2.06,2.06,0,0,0,1.37.43m2.77.79,0-1.32a2.88,2.88,0,0,1-1.21,1,4.22,4.22,0,0,1-1.72.33,3.13,3.13,0,0,1-1.4-.3,2.32,2.32,0,0,1-.93-.85,2.27,2.27,0,0,1-.33-1.21,1.87,1.87,0,0,1,.79-1.6,3.53,3.53,0,0,1,2.16-.58h2.63v-.6a1.89,1.89,0,0,0-.55-1.44,2.36,2.36,0,0,0-1.62-.5,4.23,4.23,0,0,0-2.53.94l-.44-.69a6.23,6.23,0,0,1,1.51-.81,4.58,4.58,0,0,1,1.64-.27,3.16,3.16,0,0,1,2.2.71,2.58,2.58,0,0,1,.79,2l0,5.19Z"/><path class="cls-1" d="M148.55,79.65a.66.66,0,0,1,.49.2.73.73,0,0,1,.2.51.67.67,0,0,1-.21.5.63.63,0,0,1-.48.21.66.66,0,0,1-.5-.21.67.67,0,0,1-.21-.5.69.69,0,0,1,.21-.51.69.69,0,0,1,.5-.2m-.51,3h1v7.84h-1Z"/><path class="cls-1" d="M156.3,82.58a3,3,0,0,1,2.21.82,3.06,3.06,0,0,1,.8,2.23v4.82h-1V85.87a2.37,2.37,0,0,0-.61-1.73,2.28,2.28,0,0,0-1.71-.63,2.62,2.62,0,0,0-1.93.75,3,3,0,0,0-.83,2v4.22h-1V82.61h1v1.83a2.87,2.87,0,0,1,1.18-1.38,3.81,3.81,0,0,1,1.91-.48"/><path class="cls-1" d="M164.38,89.66a3,3,0,0,0,1.77-.49,2.3,2.3,0,0,0,1-1.37V86.73h-2.52a2.93,2.93,0,0,0-1.57.34,1.14,1.14,0,0,0-.54,1,1.37,1.37,0,0,0,.52,1.13,2,2,0,0,0,1.36.43m2.77.79,0-1.32a2.82,2.82,0,0,1-1.21,1,4.19,4.19,0,0,1-1.72.33,3.16,3.16,0,0,1-1.4-.3,2.32,2.32,0,0,1-.93-.85,2.27,2.27,0,0,1-.33-1.21,1.87,1.87,0,0,1,.79-1.6,3.53,3.53,0,0,1,2.16-.58h2.63v-.6a1.85,1.85,0,0,0-.55-1.44,2.36,2.36,0,0,0-1.62-.5,4.23,4.23,0,0,0-2.53.94l-.44-.69a6.23,6.23,0,0,1,1.51-.81,4.58,4.58,0,0,1,1.64-.27,3.16,3.16,0,0,1,2.2.71,2.58,2.58,0,0,1,.79,2l0,5.19Z"/><path class="cls-1" d="M175.08,89.61a3,3,0,0,0,1.51-.39,2.78,2.78,0,0,0,1-1.1,3.37,3.37,0,0,0,.37-1.6,3.33,3.33,0,0,0-.37-1.59,2.78,2.78,0,0,0-1-1.1,3.14,3.14,0,0,0-3,0,2.82,2.82,0,0,0-1,1.1,3.22,3.22,0,0,0-.38,1.59,3.37,3.37,0,0,0,.37,1.6,2.78,2.78,0,0,0,1.05,1.1,3,3,0,0,0,1.52.39m.18-7a3.82,3.82,0,0,1,2,.5,3.5,3.5,0,0,1,1.34,1.41,4.32,4.32,0,0,1,.48,2.06,4.23,4.23,0,0,1-.48,2,3.52,3.52,0,0,1-1.33,1.4,3.81,3.81,0,0,1-1.94.5,3.55,3.55,0,0,1-1.89-.49,3.26,3.26,0,0,1-1.25-1.35v1.81h-1V79.35h1v5.07a3.14,3.14,0,0,1,1.25-1.35A3.59,3.59,0,0,1,175.26,82.58Z"/><rect class="cls-1" x="181.48" y="79.35" width="1" height="11.1"/><path class="cls-1" d="M191.55,86.08a2.91,2.91,0,0,0-.82-2,2.66,2.66,0,0,0-1.94-.72,2.79,2.79,0,0,0-2,.73,2.94,2.94,0,0,0-.91,1.94Zm-2.77-3.5a3.4,3.4,0,0,1,2.78,1.16,4.48,4.48,0,0,1,.88,3.12h-6.53a3,3,0,0,0,.93,2,2.85,2.85,0,0,0,2,.77,3.55,3.55,0,0,0,1.39-.27,3.32,3.32,0,0,0,1.11-.76l.57.56a3.88,3.88,0,0,1-1.37,1,4.42,4.42,0,0,1-1.76.34,4.06,4.06,0,0,1-2-.5,3.57,3.57,0,0,1-1.38-1.4,4.43,4.43,0,0,1,0-4.09,3.6,3.6,0,0,1,1.38-1.41A4,4,0,0,1,188.78,82.58Z"/><path class="cls-1" d="M201.61,89.31a2.73,2.73,0,0,0,1.45-.38,2.6,2.6,0,0,0,1-1.05,3.15,3.15,0,0,0,.36-1.51,3.2,3.2,0,0,0-.36-1.53,2.6,2.6,0,0,0-1-1,3,3,0,0,0-2.9,0,2.62,2.62,0,0,0-1,1,3.21,3.21,0,0,0-.37,1.53,3.17,3.17,0,0,0,.37,1.52,2.7,2.7,0,0,0,1,1,2.74,2.74,0,0,0,1.46.38m3.81-6.7v7a4.09,4.09,0,0,1-.47,2,3.25,3.25,0,0,1-1.37,1.3,4.4,4.4,0,0,1-2.06.46,5,5,0,0,1-3.21-1.2l.47-.71a4.49,4.49,0,0,0,1.26.79,3.77,3.77,0,0,0,1.44.27,2.9,2.9,0,0,0,2.14-.79,2.77,2.77,0,0,0,.8-2.1V88.37a3.16,3.16,0,0,1-1.19,1.29,3.44,3.44,0,0,1-1.8.46,3.58,3.58,0,0,1-1.86-.48,3.44,3.44,0,0,1-1.27-1.35,4.36,4.36,0,0,1,0-3.9,3.34,3.34,0,0,1,1.28-1.33,3.64,3.64,0,0,1,1.87-.48,3.47,3.47,0,0,1,1.78.46,3.23,3.23,0,0,1,1.19,1.29V82.61Z"/><path class="cls-1" d="M209.39,84.44a3,3,0,0,1,1.12-1.37,3.23,3.23,0,0,1,1.74-.49v1a2.71,2.71,0,0,0-2,.72,3.1,3.1,0,0,0-.86,2v4.19h-1V82.61h1Z"/><path class="cls-1" d="M217.25,83.45a3,3,0,0,0-1.52.39,2.69,2.69,0,0,0-1,1.09,3.34,3.34,0,0,0-.37,1.6,3.4,3.4,0,0,0,.37,1.62,2.69,2.69,0,0,0,1,1.09,3,3,0,0,0,1.52.39,3,3,0,0,0,1.53-.39,2.67,2.67,0,0,0,1-1.09,3.4,3.4,0,0,0,.38-1.62,3.35,3.35,0,0,0-.38-1.6,2.67,2.67,0,0,0-1-1.09,3,3,0,0,0-1.53-.39m0-.87a4.16,4.16,0,0,1,2,.5,3.69,3.69,0,0,1,1.4,1.4,4.36,4.36,0,0,1,0,4.09,3.65,3.65,0,0,1-1.4,1.41,4.39,4.39,0,0,1-4.07,0,3.61,3.61,0,0,1-1.41-1.41,4.36,4.36,0,0,1,0-4.09,3.65,3.65,0,0,1,1.41-1.4A4.13,4.13,0,0,1,217.25,82.58Z"/><polygon class="cls-1" points="221.93 82.61 223 82.61 225.41 89.45 227.79 82.61 228.85 82.61 231.24 89.45 233.63 82.61 234.68 82.61 231.75 90.45 230.7 90.45 228.31 83.83 225.92 90.45 224.87 90.45 221.93 82.61"/><path class="cls-1" d="M240.31,89.91a3.12,3.12,0,0,1-1.73.58,1.84,1.84,0,0,1-1.42-.55,2.33,2.33,0,0,1-.53-1.66V83.62h-1.12v-.78h1.13v-2h1v2l2.55,0v.8h-2.55v4.5c0,1,.36,1.45,1.08,1.45a2.57,2.57,0,0,0,1.3-.42Z"/><path class="cls-1" d="M246.55,82.58a3,3,0,0,1,2.21.82,3.06,3.06,0,0,1,.8,2.23v4.82h-1V85.87a2.37,2.37,0,0,0-.61-1.73,2.28,2.28,0,0,0-1.71-.63,2.64,2.64,0,0,0-2,.86,3.29,3.29,0,0,0-.74,2.24v3.84h-1V79.35h1v5.12a3.11,3.11,0,0,1,3.11-1.89"/><path class="cls-2" d="M107.61,52.73A34,34,0,0,0,107.4,49a9.47,9.47,0,0,0-1-3.47,6.61,6.61,0,0,0-2.52-2.6,11.37,11.37,0,0,0-9.5,0,6.7,6.7,0,0,0-2.53,2.6,9.67,9.67,0,0,0-1,3.47,34,34,0,0,0-.21,3.72V73.64H80.5V52.73a31.62,31.62,0,0,1,.79-7.52,21.93,21.93,0,0,1,2.1-5.58,16.9,16.9,0,0,1,3-3.93,17.77,17.77,0,0,1,3.39-2.56,18.68,18.68,0,0,1,18.6,0,19.33,19.33,0,0,1,3.43,2.56,15.37,15.37,0,0,1,3,3.93,24.44,24.44,0,0,1,2.11,5.58,30.52,30.52,0,0,1,.82,7.52V73.64H107.61Zm-27.11,0A34,34,0,0,0,80.29,49a9.47,9.47,0,0,0-1-3.47,6.61,6.61,0,0,0-2.52-2.6,9.12,9.12,0,0,0-4.75-1,9.12,9.12,0,0,0-4.75,1,6.7,6.7,0,0,0-2.53,2.6,9.67,9.67,0,0,0-1,3.47,33.89,33.89,0,0,0-.2,3.72V73.64H53.39V52.73a31.62,31.62,0,0,1,.79-7.52,21.93,21.93,0,0,1,2.1-5.58,16.9,16.9,0,0,1,3-3.93,17.77,17.77,0,0,1,3.39-2.56,18.68,18.68,0,0,1,18.6,0,18.92,18.92,0,0,1,3.42,2.56,15.17,15.17,0,0,1,3,3.93,24.44,24.44,0,0,1,2.11,5.58,30.52,30.52,0,0,1,.82,7.52V73.64H80.5Z"/><polygon class="cls-2" points="137.4 64.55 160.79 64.55 160.79 73.64 128.06 73.64 123.68 73.64 123.68 64.55 146 40.83 124.84 40.83 124.84 31.74 157.07 31.74 159.63 31.74 159.63 40.83 137.4 64.55"/><path class="cls-2" d="M185.37,74.47l-1.77-.09a15.69,15.69,0,0,1-3.6-.7,21,21,0,0,1-4.38-1.94,15.43,15.43,0,0,1-4.3-3.8,20.6,20.6,0,0,1-3.26-6.24,29,29,0,0,1-1.28-9.3V31.74h10.08V52.4a21.78,21.78,0,0,0,.33,3.72,10.56,10.56,0,0,0,1.24,3.47,7.49,7.49,0,0,0,2.56,2.6,9.74,9.74,0,0,0,8.76,0,7.43,7.43,0,0,0,2.57-2.6,10.56,10.56,0,0,0,1.24-3.47,21.78,21.78,0,0,0,.33-3.72V31.74H204V52.4a29.27,29.27,0,0,1-1.28,9.3,20.39,20.39,0,0,1-3.27,6.24,15.26,15.26,0,0,1-4.29,3.8,21.44,21.44,0,0,1-4.38,1.94,15.69,15.69,0,0,1-3.6.7l-1.78.09"/><path class="cls-2" d="M210.29,44a11.08,11.08,0,0,1,1.81-6.74,13.62,13.62,0,0,1,4-3.68,14.32,14.32,0,0,1,5.79-1.81h11.57v10h-7.77a5.45,5.45,0,0,0-2.69.58,5.79,5.79,0,0,0-1.61,1.24,4.76,4.76,0,0,0-.91,1.81V73.64H210.29Z"/><path class="cls-2" d="M239.5,22.4c0-1.22,0-2.12,0-2.73a1.83,1.83,0,0,1,.49-1.32,2.33,2.33,0,0,1,1.49-.46c.69,0,1.7,0,3,0s2.33,0,3,0a2.3,2.3,0,0,1,1.48.46,1.79,1.79,0,0,1,.5,1.32c0,.61,0,1.51,0,2.73s0,2.12,0,2.72a1.83,1.83,0,0,1-.5,1.33,2.36,2.36,0,0,1-1.48.45c-.69,0-1.7,0-3,0s-2.33,0-3,0a2.4,2.4,0,0,1-1.49-.45,1.87,1.87,0,0,1-.49-1.33c0-.6,0-1.51,0-2.72m10.08,9.34v41.9H239.5V31.74Z"/><path class="cls-3" d="M0,0,3.21,4.84c5.44,8.94,8.39,19.27,9.52,29.75.12,1.14.21,2.37.35,3.5.32,2.52,3.85,3.38,5.64,5.84C18,45.81,14,51.29,13.17,53.4c2.13-1.49,4.27-3.47,6.46-5.19s4.36-3.32,6.71-5.05C32,39,37,36.25,44.51,34.84c1.58-.29.58-.35,1.93-1,7-3.26,2.57-2.15,6.39-5.37,1.33-1.13,18.92-9.64,19.19-9.63-3.18-.29-13.79,3.74-18.87,2.46-5.45-1.38-8.77-1.12-12.45,3.11-.82.95-1.4,2.06-3.11,2.37a45.33,45.33,0,0,0-2.19-4.9c-3.58-7.31-3.22-8.94-11.17-9.69a15,15,0,0,0-2.05-2.56C17.92,6,4.82,1,0,0"/><path class="cls-4" d="M8.66,72.11h2.62c.76-.3,2.48-.54,3.46-.85,1.15-.36,2-.77,3.07-1.13.09-2.45-.17-5.13-.27-7.58a3.85,3.85,0,0,1,1-3c.78-1.18.73-.85,2.25-1.42,6.91-2.56,15-6,19.35-11.53A29.26,29.26,0,0,0,45,36.24c-8.52.95-18.2,7.93-24.33,13l-10.21,8.4L3.56,69.17a6,6,0,0,0,2.28,1.91c1,.58,1.93.59,2.82,1"/></g></g></svg>