<svg xmlns="http://www.w3.org/2000/svg" xmlns:xlink="http://www.w3.org/1999/xlink" width="777.805" height="639.552"><path d="M730.435 594.846c13.358-15.2 76.265-90 31.554-102.342-33.58-9.263-37.322 41.7-36.195 75.9-5.377-23.042-15.813-49.958-34.148-38.082-26.424 17.115 23.088 54.992 36.022 64.3l.352 2.942 1.476-1.643 1.15.795-.2-1.858zm-677.25 41.607c15.3-17.408 87.35-103.092 36.14-117.217-38.46-10.6-42.746 47.76-41.456 86.93-6.16-26.4-18.1-57.22-39.1-43.617-30.264 19.603 26.444 62.984 41.257 73.634l.404 3.37 1.7-1.882 1.317.9-.242-2.128zm168.622-585.4c-2.76.003-4.997 2.24-5 5v535c.003 2.76 2.24 4.997 5 5h431c2.76-.003 4.997-2.24 5-5v-535c-.003-2.76-2.24-4.997-5-5z" fill="#e6e6e6"/><g fill="#fff"><use xlink:href="#B"/><use xlink:href="#C"/><use xlink:href="#C" y="43"/><use xlink:href="#B" y="48.5"/><use xlink:href="#B" y="97"/><use xlink:href="#B" y="145.5"/><use xlink:href="#B" y="194"/><use xlink:href="#B" y="242.5"/><circle cx="322.305" cy="159.429" r="39.5"/></g><path d="M292.4 297.964l-58.903 31.316-.746-26.096c19.226-3.21 37.517-8.797 54.43-17.895l6.16-15.22a10.32 10.32 0 0 1 17.536-2.678h0a10.32 10.32 0 0 1-.908 14.069z" fill="#ffb8b8"/><g fill="#2f2e41"><path d="M148.486 478.77h0c-.87-3.188-.335-6.595 1.47-9.363l12.94-19.858c6.34-9.73 19.02-13.075 29.335-7.74h0c-5.438 9.256-4.68 17.377 1.878 24.434a117.63 117.63 0 0 0-27.936 19.045c-3.092 2.108-7.01 2.59-10.522 1.297s-6.18-4.205-7.164-7.815z"/><path d="M295.093 452.805h0c-3.982 6.636-11.132 10.72-18.87 10.78l-85.96.65-3.728-21.623 38.026-11.184-32.06-24.605 35.044-41.008 63.65 59.324c7.667 7.146 9.293 18.68 3.9 27.666z"/><path d="M176.84 600.68h-20.13c-18.075-123.898-36.474-248.142 17.895-294.515l64.122 10.44-8.202 54.43-35.79 41.008z"/><path d="M192.537 638.748h0c-3.188.87-6.595.335-9.363-1.47l-19.86-12.938c-9.73-6.34-13.076-19.02-7.74-29.335h0c9.257 5.437 17.377 4.68 24.434-1.88a117.63 117.63 0 0 0 19.047 27.935c2.108 3.1 2.6 7 1.297 10.522a11.57 11.57 0 0 1-7.815 7.164zm72.176-418.694H169.01c-17.674-25.003-19.748-48.913 0-71.294 0-9.896 12.783-17.92 28.55-17.92h0c12.352 0 23.303 4.985 27.14 12.354z"/></g><path d="M224.56 223.403l-37.28-8.947c6.192-12.674 6.702-26.776 3.728-41.754l25.35-.746c.794 18.625 3.197 36.026 8.202 51.447z" fill="#ffb8b8"/><path d="M234.805 339.054c-27.14 18.493-46.314.633-60.947-26.923 2.033-16.862-1.26-37.04-7.357-58.966-5.622-20.048 5.02-41.066 24.506-48.4h0l32.06 13.42c27.224 22.2 32.582 46.227 22.368 71.578z" fill="#6c63ff"/><path d="M156.71 242.044L126.885 257.7l52.938 31.316 7.366 18.17c.994 2.45.936 5.202-.158 7.6s-3.13 4.26-5.63 5.12h0c-2.85.983-5.997.575-8.503-1.103s-4.082-4.43-4.26-7.442l-.745-12.663-67.284-22.204c-4.593-1.516-8.234-5.06-9.873-9.61h0c-2.424-6.733.002-14.254 5.903-18.303l54.105-37.118z" fill="#ffb8b8"/><path d="M186.534 245.026c-12.44-5.45-23.75.47-38.026 5.22l-2.237-39.517c14.176-7.556 27.692-9.593 40.263-3.728z" fill="#6c63ff"/><path d="M262.958 220.054H241.85c-13.138-24.236-12.54-67.056-40.777-57.512-18.14-10.767-7.732 31.484-12.243 57.512h-18.357c-4.988-25.43-5.057-50.913.81-71.635.113-2.746 1.4-5.313 3.512-7.06a19.95 19.95 0 0 1 2.945-2.238c6.487-4.087 10.843-6.414 20.32-6.414 5.304-.012 10.584.714 15.688 2.157.664.194 1.32.403 1.953.62.872.3 1.715.626 2.52.977 4.146 1.783 7.404 4.196 8.947 7.216 17.865 21.306 26.984 48.187 35.79 76.376z" fill="#2f2e41"/><circle cx="201.413" cy="167.729" r="23.802" fill="#ffb8b8"/><path d="M225.555 158.548c-7.16-9.76-25.835 1.883-48.284 10.2v-23.122c18.467-8.13 29.236-10.475 41.484-2.04z" fill="#2f2e41"/><circle cx="644.147" cy="57.659" r="57.659" fill="#6c63ff"/><path d="M620.122 53.854c-2.1 0-3.805 1.704-3.805 3.805s1.704 3.805 3.805 3.805h20.22v20.22c0 1.36.725 2.615 1.902 3.295s2.628.68 3.805 0 1.902-1.936 1.902-3.295v-20.22h20.22c2.1 0 3.805-1.704 3.805-3.805s-1.704-3.805-3.805-3.805h-20.22v-20.22c0-1.36-.725-2.615-1.902-3.295s-2.628-.68-3.805 0-1.902 1.936-1.902 3.295v20.22z" fill="#fff"/><defs ><path id="B" d="M584.305 284.68h-294a7.5 7.5 0 1 1 0-15h294a7.5 7.5 0 1 1 0 15z"/><path id="C" d="M586.83 144.93H391.78c-2.748 0-4.976-3.358-4.976-7.5s2.228-7.5 4.976-7.5h195.05c2.748 0 4.976 3.358 4.976 7.5s-2.227 7.5-4.976 7.5z"/></defs></svg>