<svg width="194" height="163" viewBox="0 0 194 163" fill="none" xmlns="http://www.w3.org/2000/svg">
<path d="M158.994 78.6676C158.939 78.3161 158.746 78.0009 158.459 77.7914C158.171 77.5818 157.812 77.495 157.461 77.55C157.109 77.6051 156.794 77.7976 156.585 78.0851C156.375 78.3725 156.288 78.7315 156.343 79.083C156.535 80.3335 156.783 84.2498 155.429 85.8256C155.151 86.1612 154.761 86.3839 154.33 86.4519L154.453 78.9929C154.461 78.7327 154.416 78.4736 154.322 78.2311C154.227 77.9885 154.085 77.7675 153.903 77.5811C153.721 77.3947 153.504 77.2468 153.264 77.1461C153.024 77.0455 152.766 76.9941 152.506 76.9951C152.246 76.9962 151.988 77.0496 151.749 77.1521C151.51 77.2547 151.293 77.4043 151.113 77.5922C150.933 77.78 150.792 78.0022 150.7 78.2454C150.607 78.4887 150.565 78.7481 150.574 79.0082L150.924 93.166C150.48 93.1025 150.076 92.877 149.79 92.533C148.438 90.9573 148.691 87.0387 148.875 85.7904C148.907 85.6144 148.903 85.4339 148.864 85.2594C148.825 85.085 148.751 84.9201 148.647 84.7745C148.543 84.6288 148.412 84.5054 148.26 84.4114C148.107 84.3174 147.938 84.2547 147.761 84.2271C147.585 84.1994 147.404 84.2073 147.231 84.2503C147.057 84.2933 146.894 84.3705 146.751 84.4775C146.607 84.5844 146.487 84.7189 146.396 84.873C146.306 85.0272 146.247 85.1978 146.223 85.3751C146.126 85.9904 145.344 91.4759 147.748 94.2758C148.151 94.7496 148.646 95.1357 149.204 95.4102C149.762 95.6846 150.371 95.8416 150.992 95.8714L151.144 102.025H154.073L154.293 89.1529C154.902 89.1148 155.497 88.9544 156.042 88.6814C156.588 88.4085 157.073 88.0284 157.469 87.564C159.866 84.7685 159.09 79.2852 158.994 78.6676Z" fill="#BDBDBD"/>
<path d="M33.9333 90.6703C33.916 90.5594 33.877 90.4529 33.8185 90.357C33.7601 90.2611 33.6833 90.1777 33.5926 90.1114C33.5019 90.0452 33.399 89.9975 33.2898 89.971C33.1807 89.9446 33.0674 89.9399 32.9564 89.9572C32.8454 89.9745 32.739 90.0135 32.6431 90.072C32.5472 90.1304 32.4637 90.2072 32.3975 90.2979C32.3313 90.3886 32.2836 90.4915 32.2571 90.6007C32.2307 90.7098 32.2259 90.8231 32.2433 90.9341C32.3663 91.7318 32.5224 94.2307 31.6609 95.2328C31.4845 95.4447 31.2382 95.5866 30.9664 95.6328L31.0455 90.8769C31.0518 90.7102 31.0242 90.5439 30.9645 90.3881C30.9049 90.2323 30.8143 90.0901 30.6983 89.9702C30.5823 89.8503 30.4432 89.7551 30.2894 89.6903C30.1357 89.6255 29.9704 89.5925 29.8035 89.5933C29.6367 89.594 29.4717 89.6285 29.3186 89.6946C29.1654 89.7608 29.0271 89.8572 28.9122 89.9782C28.7972 90.0991 28.7079 90.242 28.6497 90.3984C28.5914 90.5547 28.5653 90.7212 28.5731 90.8879L28.7928 99.9118C28.5103 99.8705 28.2528 99.7266 28.0698 99.5074C27.2083 98.503 27.3643 96.0064 27.4874 95.2086C27.5047 95.0977 27.5 94.9844 27.4735 94.8752C27.4471 94.7661 27.3993 94.6632 27.3331 94.5725C27.2669 94.4818 27.1835 94.405 27.0876 94.3465C26.9917 94.2881 26.8852 94.2491 26.7742 94.2318C26.6632 94.2144 26.5499 94.2191 26.4408 94.2456C26.3316 94.2721 26.2288 94.3198 26.1381 94.386C26.0474 94.4522 25.9706 94.5357 25.9121 94.6316C25.8537 94.7275 25.8147 94.8339 25.7973 94.9449C25.7358 95.3383 25.2413 98.8327 26.7687 100.619C27.0256 100.921 27.3416 101.167 27.6974 101.342C28.0531 101.516 28.4409 101.616 28.8368 101.635L28.9335 105.564H30.7994L30.9356 97.358C31.3238 97.3338 31.7031 97.2316 32.0508 97.0575C32.3986 96.8834 32.7077 96.6411 32.9597 96.3449C34.4893 94.5581 33.9949 91.0615 33.9333 90.6703Z" fill="#BDBDBD"/>
<path d="M96.59 162.381C149.935 162.381 193.18 147.072 193.18 128.187C193.18 109.302 149.935 93.9927 96.59 93.9927C43.2448 93.9927 0 109.302 0 128.187C0 147.072 43.2448 162.381 96.59 162.381Z" fill="url(#paint0_linear)"/>
<path d="M112.009 86.7377C112.009 86.7377 111.952 90.0343 112.009 90.3595C112.066 90.6848 110.721 92.6166 110.172 92.5309C109.622 92.4452 108.523 92.2627 108.365 92.0803C108.207 91.8979 108.277 91.465 108.332 91.0694C108.387 90.6738 108.8 87.0915 108.8 86.9091C108.8 86.7267 111.398 86.2388 112.009 86.7377Z" fill="#FFD3BC"/>
<path d="M109.877 90.1709C109.191 90.5401 108.804 91.6719 108.708 91.6851C108.611 91.6983 108.429 91.6719 108.429 91.5598C108.429 91.4477 108.457 91.0697 108.33 91.0697C108.202 91.0697 108.066 91.6851 108.037 92.5774C108.009 93.4696 107.692 95.6014 108.037 95.874C108.257 96.0454 110.235 97.0893 110.299 97.2299C110.363 97.3706 110.257 98.3464 110.424 98.5002C110.591 98.6541 110.982 99.0299 111.29 99.0431C111.598 99.0563 113.369 99.2387 114.206 99.0431C115.044 98.8475 116.105 98.4431 116.134 98.331C116.162 98.2189 115.914 95.8476 115.659 95.5531C115.404 95.2586 113.481 92.6367 113.327 92.3994C113.16 92.0387 113.073 91.6455 113.075 91.2477C113.075 90.9137 112.771 90.1818 112.195 90.006C111.62 89.8302 110.393 89.8895 109.877 90.1709Z" fill="url(#paint1_linear)"/>
<path d="M91.9506 88.6415C91.9506 88.6415 91.9506 90.5579 91.8957 90.8875C91.8407 91.2172 93.1835 93.1468 93.733 93.0611C94.2824 92.9754 95.3813 92.793 95.5395 92.6084C95.6977 92.4238 95.6296 91.9952 95.5725 91.5996C95.5153 91.204 95.1615 88.9953 95.1615 88.8129C95.1615 88.6305 92.5616 88.1404 91.9506 88.6415Z" fill="#FFD3BC"/>
<path d="M93.7185 46.3553C92.9427 49.1816 91.4702 58.8669 91.4702 63.5745C91.4702 68.282 90.9999 80.2772 90.9999 82.1057C90.9999 83.9342 90.8043 88.4549 91.2746 88.6988C91.745 88.9428 92.846 89.6417 94.3383 89.4065C95.8305 89.1713 96.2239 88.2285 96.2635 87.3648C96.303 86.5011 96.6569 80.2947 97.0107 77.897C97.3645 75.4993 98.6194 70.8819 99.4458 67.9084C100.272 64.9348 102.195 58.9592 102.705 58.9834C103.215 59.0076 106.397 72.0994 106.661 72.8423C106.925 73.5851 107.432 84.1276 107.465 85.0111C107.498 85.8945 107.465 86.7495 108.021 87.1099C108.577 87.4703 110.283 88.3538 111.168 88.4285C112.054 88.5032 112.641 87.0857 112.806 86.6594C112.971 86.233 113.261 72.1302 113.155 68.2622C113.05 64.3942 113.357 57.1791 113.177 54.8253C112.997 52.4716 112.423 47.4322 112.059 46.3729C111.694 45.3136 93.7185 46.3553 93.7185 46.3553Z" fill="#192B59"/>
<path d="M88.2401 13.4936C88.983 12.6695 92.4444 8.76632 93.1323 8.63006C93.8202 8.4938 95.4926 8.19052 95.864 7.80372C96.2354 7.41692 97.8156 2.46764 97.1827 1.56657C96.5497 0.665507 94.1476 0.920443 93.418 2.44566C92.6883 3.97088 92.7235 4.78185 91.5192 5.84115C90.3148 6.90045 85.0644 11.1904 84.5765 11.6256C84.0886 12.0607 85.0578 14.1639 85.8248 14.5309C86.5918 14.898 88.2401 13.4936 88.2401 13.4936Z" fill="url(#paint2_linear)"/>
<path d="M97.802 14.6814C96.0307 15.0528 93.0923 15.3671 92.1209 15.6814C91.1495 15.9956 87.3277 17.3363 87.3562 16.7649C87.3848 16.1935 89.1144 13.688 88.8111 13.4265C88.5078 13.165 86.6134 12.8551 86.2991 12.4551C85.9849 12.0551 85.5585 11.1145 85.1299 11.2288C84.7014 11.3431 79.7389 15.9649 80.0752 17.7363C80.8773 21.9119 92.6022 24.9492 92.8747 26.7689C93.1472 28.5886 91.9649 46.0364 92.6066 46.6803C93.2483 47.3242 100.046 49.7835 103.472 49.9989C106.898 50.2142 112.907 49.0187 113.234 48.1176C113.562 47.2165 111.564 29.8765 111.795 29.8765C112.026 29.8765 112.094 35.3334 114.703 36.7444C116.426 37.6762 118.795 36.7158 119.247 36.2015C119.7 35.6873 117.63 28.4326 116.691 25.9865C115.753 23.5404 114.856 18.4835 112.736 16.6879C110.615 14.8924 107.621 15.2001 106.582 14.7781C105.542 14.3561 102.094 14.6572 101.222 14.5583C100.349 14.4594 97.802 14.6814 97.802 14.6814Z" fill="url(#paint3_linear)"/>
<path d="M119.902 32.9254C119.902 32.9254 116.852 33.8484 116.606 34.1649C116.36 34.4814 115.947 35.7516 116.606 36.2791C117.265 36.8065 117.993 37.2043 118.777 36.5934C119.562 35.9824 120.276 35.1626 120.729 35.055C121.181 34.9473 122.537 35.1451 123.107 34.9231C123.676 34.7011 124.757 30.3848 124.32 30.1233C123.882 29.8617 119.902 32.9254 119.902 32.9254Z" fill="url(#paint4_linear)"/>
<path d="M97.8151 14.1081C96.8305 13.9037 94.9295 12.0444 94.7559 10.1522C94.5844 8.31051 93.2328 3.13927 97.9426 1.20088C102.362 -0.61884 106.909 1.25361 107.564 3.49749C108.175 5.59412 102.986 5.69522 101.085 7.05342C99.1843 8.41161 99.0524 9.32366 98.5777 9.10828C98.103 8.89291 97.8151 14.1081 97.8151 14.1081Z" fill="#E64D4E"/>
<path d="M97.7309 10.4132C97.6694 11.2572 97.4585 15.3339 97.8101 15.9339C98.1354 16.4856 98.7112 18.0877 100.97 18.0152C103.23 17.9427 104.693 15.6856 104.816 15.4219C104.94 15.1581 104.676 11.8923 104.676 11.3451C104.676 10.7978 101.641 9.50998 100.423 9.54514C99.2056 9.5803 97.7903 9.62206 97.7309 10.4132Z" fill="url(#paint5_linear)"/>
<path d="M97.9416 10.4279C98.1966 10.4279 97.8955 11.9663 98.357 12.4805C98.8185 12.9948 100.827 15.6365 102.952 15.3793C104.792 15.1596 104.528 13.5706 104.792 12.2674C105.034 11.0828 105.796 10.9795 106.064 7.88949C106.17 6.69173 106.735 4.81267 105.695 4.47422C104.656 4.13577 100.757 3.20394 99.7877 4.47422C98.8185 5.74451 98.7262 8.78836 98.2185 8.39717C97.7109 8.00597 96.6494 6.08955 96.0208 7.12688C95.3923 8.1642 96.579 10.4674 97.9416 10.4279Z" fill="#F2DAD4"/>
<path d="M114.348 26.2374L108.162 34.0591C108.09 34.1504 108.046 34.2603 108.034 34.3758C108.022 34.4914 108.043 34.608 108.094 34.7121C108.146 34.8163 108.225 34.9037 108.325 34.9643C108.424 35.0249 108.538 35.0563 108.654 35.0547L120.082 34.8591C120.176 34.8579 120.268 34.835 120.352 34.7923C120.435 34.7496 120.508 34.6882 120.564 34.6129L126.41 26.8044C126.472 26.7211 126.51 26.622 126.518 26.5183C126.527 26.4146 126.507 26.3105 126.46 26.2177C126.413 26.125 126.341 26.0472 126.252 25.9932C126.163 25.9392 126.061 25.9111 125.957 25.9121L114.819 26.0044C114.728 26.0057 114.639 26.0273 114.557 26.0676C114.476 26.1079 114.404 26.1659 114.348 26.2374Z" fill="url(#paint6_linear)"/>
<path d="M124.13 29.3874C123.528 29.4489 122.654 29.7873 122.654 30.1016C122.654 30.4159 123.357 30.5016 123.55 30.5412C123.744 30.5807 123.99 30.6313 123.924 30.728C123.858 30.8247 123.704 31.3082 123.319 31.2247C122.935 31.1411 121.238 31.1148 120.902 31.1148C120.566 31.1148 120.188 31.3345 120.164 31.5873C120.139 31.84 120.067 31.8774 119.873 31.8884C119.68 31.8994 119.328 32.084 119.328 32.3982C119.328 32.7125 120.106 32.996 120.106 33.1059C120.106 33.2158 121.632 34.1498 121.93 34.3234C122.229 34.4971 122.788 34.9366 123.102 34.9366C123.416 34.9366 123.944 34.6377 123.981 34.2048C124.018 33.7718 124.64 33.4575 124.64 33.2444C124.64 33.0312 124.445 32.8752 124.469 32.7411C124.493 32.607 125.034 32.4202 125.034 32.0818C124.993 31.7605 124.911 31.4458 124.79 31.1455C124.759 31.0027 124.634 30.706 124.759 30.6576C124.884 30.6093 125.326 30.2181 125.247 29.8313C125.168 29.4445 124.407 29.3588 124.13 29.3874Z" fill="#FFD3BC"/>
<path d="M94.0248 90.6995C94.7127 91.0709 95.0973 92.2005 95.1962 92.2137C95.2951 92.2269 95.4753 92.2005 95.4753 92.0884C95.4753 91.9764 95.4467 91.6005 95.572 91.6005C95.6973 91.6005 95.8379 92.2137 95.8643 93.1082C95.8907 94.0027 96.2115 96.1323 95.8643 96.4048C95.6445 96.574 93.6666 97.6201 93.6028 97.7586C93.5391 97.897 93.6468 98.875 93.4776 99.0289C93.3083 99.1827 92.9193 99.5607 92.6117 99.5739C92.304 99.5871 90.5326 99.7695 89.6953 99.5739C88.8579 99.3783 87.7964 98.9739 87.7679 98.8618C87.7393 98.7498 87.9877 96.3762 88.2426 96.0839C88.4975 95.7916 90.4205 93.1653 90.5744 92.928C90.7457 92.5711 90.8365 92.181 90.8403 91.7852C90.8403 91.4489 91.1436 90.7193 91.7062 90.5413C92.2688 90.3632 93.5149 90.4204 94.0248 90.6995Z" fill="url(#paint7_linear)"/>
<defs>
<linearGradient id="paint0_linear" x1="96.59" y1="78.4943" x2="96.59" y2="132.189" gradientUnits="userSpaceOnUse">
<stop stop-color="#BEB9B9"/>
<stop offset="0.48" stop-color="#F4F4F4"/>
<stop offset="1" stop-color="white"/>
</linearGradient>
<linearGradient id="paint1_linear" x1="113.547" y1="93.7048" x2="108.547" y2="97.4937" gradientUnits="userSpaceOnUse">
<stop stop-color="#4E9CFF"/>
<stop offset="0.98" stop-color="#176AD4"/>
</linearGradient>
<linearGradient id="paint2_linear" x1="99.3079" y1="8.74434" x2="89.8533" y2="7.68943" gradientUnits="userSpaceOnUse">
<stop stop-color="#F2BFAD"/>
<stop offset="1" stop-color="#F2DAD4"/>
</linearGradient>
<linearGradient id="paint3_linear" x1="57816.5" y1="25170.9" x2="63523.4" y2="29546.7" gradientUnits="userSpaceOnUse">
<stop stop-color="#4E9CFF"/>
<stop offset="0.98" stop-color="#176AD4"/>
</linearGradient>
<linearGradient id="paint4_linear" x1="120.423" y1="34.3319" x2="120.905" y2="42.4877" gradientUnits="userSpaceOnUse">
<stop stop-color="#F2BFAD"/>
<stop offset="0.7" stop-color="#F2DAD4"/>
</linearGradient>
<linearGradient id="paint5_linear" x1="11155.7" y1="5178.49" x2="11287.6" y2="5413.87" gradientUnits="userSpaceOnUse">
<stop stop-color="#F2BFAD"/>
<stop offset="1" stop-color="#F2DAD4"/>
</linearGradient>
<linearGradient id="paint6_linear" x1="115.177" y1="26.5978" x2="120.621" y2="36.6085" gradientUnits="userSpaceOnUse">
<stop stop-color="#F6DBDB"/>
<stop offset="1" stop-color="#EB9A99"/>
</linearGradient>
<linearGradient id="paint7_linear" x1="12324.6" y1="9163.45" x2="12527.1" y2="9300.87" gradientUnits="userSpaceOnUse">
<stop stop-color="#4E9CFF"/>
<stop offset="0.98" stop-color="#176AD4"/>
</linearGradient>
</defs>
</svg>
