<svg width="16" height="18" viewBox="0 0 16 18" fill="none" xmlns="http://www.w3.org/2000/svg">
<path d="M5.14696 0C3.91857 0 2.94112 0.977445 2.94112 2.20584V13.9703H10.4165C10.514 13.9703 10.6075 14.0091 10.6764 14.078C10.7454 14.147 10.7841 14.2405 10.7841 14.338V15.8085C10.7841 16.8258 11.5003 17.6542 12.4538 17.8459C12.4944 17.8546 12.5333 17.8701 12.5687 17.8918H12.8674C14.0279 17.8918 14.9507 16.969 14.9507 15.8085V2.20584C14.9507 1.31471 15.373 0.539583 16 0H5.14696ZM4.9325 3.6764C4.93761 3.67629 4.94272 3.67629 4.94782 3.6764C4.97328 3.67373 4.99895 3.67373 5.02441 3.6764H8.45572C8.50444 3.67571 8.5528 3.68471 8.59801 3.70288C8.64322 3.72104 8.68437 3.74802 8.71906 3.78222C8.75376 3.81643 8.78131 3.85719 8.80011 3.90214C8.81891 3.94708 8.8286 3.99532 8.8286 4.04404C8.8286 4.09276 8.81891 4.141 8.80011 4.18594C8.78131 4.23089 8.75376 4.27165 8.71906 4.30586C8.68437 4.34007 8.64322 4.36704 8.59801 4.3852C8.5528 4.40337 8.50444 4.41237 8.45572 4.41168H5.02441C4.97613 4.41772 4.92714 4.41418 4.88023 4.40128C4.83331 4.38838 4.7894 4.36637 4.75099 4.3365C4.67343 4.27617 4.62301 4.1875 4.61082 4.09C4.59863 3.99249 4.62568 3.89414 4.686 3.81657C4.74633 3.73901 4.835 3.68859 4.9325 3.6764ZM4.9325 6.12733C4.93761 6.12723 4.94272 6.12723 4.94782 6.12733C4.97328 6.12467 4.99895 6.12467 5.02441 6.12733H12.8674C12.9161 6.12665 12.9645 6.13565 13.0097 6.15381C13.0549 6.17198 13.096 6.19895 13.1307 6.23316C13.1654 6.26736 13.193 6.30812 13.2118 6.35307C13.2306 6.39802 13.2403 6.44625 13.2403 6.49497C13.2403 6.5437 13.2306 6.59193 13.2118 6.63688C13.193 6.68182 13.1654 6.72259 13.1307 6.75679C13.096 6.791 13.0549 6.81797 13.0097 6.83614C12.9645 6.8543 12.9161 6.8633 12.8674 6.86261H5.02441C4.97613 6.86865 4.92714 6.86512 4.88023 6.85222C4.83331 6.83932 4.7894 6.8173 4.75099 6.78743C4.67343 6.7271 4.62301 6.63843 4.61082 6.54093C4.59863 6.44342 4.62568 6.34507 4.686 6.26751C4.74633 6.18994 4.835 6.13952 4.9325 6.12733ZM4.9325 8.57827C4.93761 8.57816 4.94272 8.57816 4.94782 8.57827C4.97328 8.5756 4.99895 8.5756 5.02441 8.57827H12.8674C12.9161 8.57758 12.9645 8.58658 13.0097 8.60475C13.0549 8.62291 13.096 8.64988 13.1307 8.68409C13.1654 8.7183 13.193 8.75906 13.2118 8.804C13.2306 8.84895 13.2403 8.89719 13.2403 8.94591C13.2403 8.99463 13.2306 9.04286 13.2118 9.08781C13.193 9.13276 13.1654 9.17352 13.1307 9.20773C13.096 9.24193 13.0549 9.2689 13.0097 9.28707C12.9645 9.30524 12.9161 9.31424 12.8674 9.31355H5.02441C4.92691 9.32574 4.82856 9.29869 4.75099 9.23836C4.67343 9.17804 4.62301 9.08937 4.61082 8.99186C4.59863 8.89436 4.62568 8.79601 4.686 8.71844C4.74633 8.64088 4.835 8.59046 4.9325 8.57827ZM4.9325 11.0292C4.93761 11.0291 4.94272 11.0291 4.94782 11.0292C4.97328 11.0265 4.99895 11.0265 5.02441 11.0292H8.45572C8.50444 11.0285 8.5528 11.0375 8.59801 11.0557C8.64322 11.0738 8.68437 11.1008 8.71906 11.135C8.75376 11.1692 8.78131 11.21 8.80011 11.2549C8.81891 11.2999 8.8286 11.3481 8.8286 11.3968C8.8286 11.4456 8.81891 11.4938 8.80011 11.5387C8.78131 11.5837 8.75376 11.6245 8.71906 11.6587C8.68437 11.6929 8.64322 11.7198 8.59801 11.738C8.5528 11.7562 8.50444 11.7652 8.45572 11.7645H5.02441C4.92691 11.7767 4.82856 11.7496 4.75099 11.6893C4.67343 11.629 4.62301 11.5403 4.61082 11.4428C4.59863 11.3453 4.62568 11.2469 4.686 11.1694C4.74633 11.0918 4.835 11.0414 4.9325 11.0292ZM0 14.7056V15.8085C0 16.969 0.92279 17.8918 2.08329 17.8918H11.0292C10.444 17.375 10.0488 16.6498 10.0488 15.8085V14.7056H0Z" fill="#0CA2D9"/>
</svg>
