<svg width="132" height="132" viewBox="0 0 132 132" fill="none" xmlns="http://www.w3.org/2000/svg">
<path d="M4.125 125.812L21.8625 119.625L8.45625 113.438L4.125 125.812Z" fill="#F7B600"/>
<path d="M55.4814 75.0753L30.5251 49.9128L26.4001 61.4628L55.4814 75.0753Z" fill="#FFDD7D"/>
<path d="M26.3999 61.4622L21.8624 74.4559L77.1374 100.237L79.8186 99.4122L55.4811 75.0747L26.3999 61.4622Z" fill="#F7B600"/>
<path d="M17.5312 87.4503L58.7812 106.632L77.1375 100.238L21.8625 74.4565L17.5312 87.4503Z" fill="#FFDD7D"/>
<path d="M12.9939 100.443L40.2189 113.231L58.7814 106.631L17.5314 87.4497L12.9939 100.443Z" fill="#F7B600"/>
<path d="M12.9936 100.444L8.45612 113.438L21.8624 119.625L40.2186 113.232L12.9936 100.444Z" fill="#FFDD7D"/>
<path d="M65.7937 64.3497C79.6125 77.9622 86.8312 93.2247 81.8812 98.1747C76.725 103.125 61.4625 96.1122 47.4375 82.2934C33.6187 68.6809 26.4 53.4184 31.35 48.4684C36.5062 43.5184 51.7687 50.7372 65.7937 64.3497Z" fill="#493816"/>
<path d="M48.4688 29.9063C45.1688 25.1625 48.6751 23.1 53.2126 23.925C48.8813 18.7688 51.5626 15.0563 58.3688 16.5C60.4313 16.9125 57.5438 20.4188 55.6876 20.4188C61.2563 24.5438 58.1626 29.0813 52.1813 28.05C57.5438 35.2688 48.4688 33.4125 44.3438 33.825C43.3126 39.1875 49.5001 45.375 47.4376 45.375C42.9001 45.375 35.4751 28.2563 48.4688 29.9063Z" fill="#42ADE2"/>
<path d="M91.7811 39.8066C88.6873 41.2504 80.0248 27.6379 90.7498 27.4316C84.5623 21.8629 85.3873 19.1816 93.6373 18.9754C84.1498 9.4879 99.2061 6.1879 100.65 11.1379C101.062 12.5816 96.1123 9.9004 94.4623 12.5816C92.6061 15.6754 106.012 23.7191 92.1936 23.1004C97.3498 28.2566 97.5561 30.7316 89.5123 31.5566C90.5436 33.2066 93.8436 38.9816 91.7811 39.8066Z" fill="#FF8736"/>
<path d="M95.2874 71.9815L98.3811 69.3003C98.3811 69.3003 101.269 73.6315 103.331 75.2815C104.981 67.8565 104.569 63.5253 113.025 68.4753C108.281 55.6878 116.119 60.4315 123.75 63.9378C123.337 60.6378 123.75 61.0503 127.05 60.019C129.937 70.9503 122.1 67.6503 115.912 64.144C119.625 74.044 115.706 73.4253 107.869 70.1253C107.662 74.2503 106.425 78.994 103.95 79.4065C101.062 80.2315 95.2874 71.9815 95.2874 71.9815Z" fill="#ED4C5C"/>
<path d="M72.1874 41.4562C68.4749 46.4062 62.4936 49.0875 58.1624 53.4188C53.6249 57.9562 50.9436 70.3312 50.9436 70.3312C50.9436 70.3312 52.5936 57.3375 56.9249 52.3875C60.8436 47.85 66.6186 44.55 69.7124 39.3937C75.0749 29.9063 70.1249 17.5312 63.1124 10.3125C64.5561 9.075 66.6186 7.425 67.6499 6.1875C74.4561 14.6438 80.2311 30.9375 72.1874 41.4562Z" fill="#C28FEF"/>
<path d="M78.5811 51.9752C73.2186 55.8939 69.2999 61.6689 65.5874 67.0314C62.2874 71.7752 51.7686 77.7564 51.7686 77.7564C51.7686 77.7564 61.6686 70.9502 64.7624 66.0002C68.4749 59.8127 72.1874 53.4189 77.9624 48.8814C89.5124 40.0127 106.219 40.8377 119.212 45.5814C118.387 47.4377 116.944 51.3564 116.944 51.3564C116.944 51.3564 89.5124 43.9314 78.5811 51.9752Z" fill="#FF8736"/>
<path d="M101.475 50.9439C97.9686 55.4814 96.3186 61.0502 93.6374 66.2064C91.1624 70.9502 87.8624 75.4877 83.1186 77.9627C77.7561 80.6439 65.9999 79.8189 65.9999 79.8189C65.9999 79.8189 77.7561 79.6127 82.7061 76.3127C87.6561 73.0127 90.3374 67.2377 92.1936 61.8752C95.9061 51.5627 100.444 40.4252 111.169 35.8877C111.787 37.7439 113.231 41.6627 113.231 41.6627C113.231 41.6627 107.25 43.3127 101.475 50.9439Z" fill="#42ADE2"/>
<path d="M6.62048 29.5455L12.4532 23.7107L18.288 29.5434L12.4553 35.3803L6.62048 29.5455Z" fill="#42ADE2"/>
<path d="M14.7944 47.844L20.6251 42.0112L26.4579 47.844L20.6251 53.6767L14.7944 47.844Z" fill="#FF8736"/>
<path d="M29.6136 20.258L35.4463 14.4253L41.2791 20.258L35.4463 26.0908L29.6136 20.258Z" fill="#ED4C5C"/>
<path d="M93.2354 90.1234L99.0681 84.2886L104.901 90.1234L99.0681 95.9561L93.2354 90.1234Z" fill="#C28FEF"/>
<path d="M80.2372 110.117L86.07 104.284L91.9048 110.119L86.07 115.952L80.2372 110.117Z" fill="#ED4C5C"/>
<path d="M105.763 114.689L111.596 108.854L117.429 114.689L111.596 120.522L105.763 114.689Z" fill="#FF8736"/>
<path d="M111.536 88.133L117.368 82.3003L123.201 88.133L117.368 93.9679L111.536 88.133Z" fill="#42ADE2"/>
<path d="M101.797 26.4476L107.629 20.6128L113.464 26.4476L107.631 32.2804L101.797 26.4476Z" fill="#42ADE2"/>
<path d="M39.2782 61.4458L45.113 55.613L50.9458 61.4458L45.113 67.2806L39.2782 61.4458Z" fill="#ED4C5C"/>
</svg>
