<svg width="40" height="40" viewBox="0 0 40 40" fill="none" xmlns="http://www.w3.org/2000/svg">
<path fill-rule="evenodd" clip-rule="evenodd" d="M20 40C31.0457 40 40 31.0457 40 20C40 8.9543 31.0457 0 20 0C8.9543 0 0 8.9543 0 20C0 31.0457 8.9543 40 20 40Z" fill="#105E62"/>
<path d="M14.491 15.0842V28.3474C14.2354 29.8498 12.8782 31 11.2987 31C9.71912 31 8.40975 29.8498 8.15619 28.3474H7.04219C6.20668 28.3474 5.446 27.5889 5.446 26.7558V21.6495C5.446 20.5822 6.21708 19.4922 6.3106 19.3616L8.52198 16.4106C9.0291 15.8013 9.82511 15.0842 10.7666 15.0842H14.491ZM11.8307 17.7369H8.85452L7.15857 19.9916C6.97776 20.2465 6.51012 21.0278 6.51012 21.6495V21.9811H11.8307C12.3628 21.9811 12.8949 21.4505 12.8949 20.92V18.7979C12.8949 18.2114 12.3628 17.7369 11.8307 17.7369ZM24.9585 11.3706H17.0516C16.2265 11.3706 15.5552 12.0627 15.5552 12.9124V26.8387C15.5552 27.6697 16.2348 28.3474 17.0682 28.3474H21.9898C22.2433 29.8519 23.5527 31 25.1323 31C26.7118 31 28.0212 29.8519 28.2747 28.3474H30.4529C31.2884 28.3474 32.0491 27.5868 32.0491 26.7558V20.5056C31.706 20.5608 31.3541 20.5894 30.9955 20.5894C27.3587 20.5894 24.4106 17.6413 24.4106 14.0045C24.4106 13.068 24.6061 12.1772 24.9585 11.3706ZM11.2987 25.6947C10.1244 25.6947 9.17043 26.646 9.17043 27.8168C9.17043 28.9877 10.1244 29.939 11.2987 29.939C12.4729 29.939 13.4269 28.9877 13.4269 27.8168C13.4269 26.646 12.4729 25.6947 11.2987 25.6947ZM25.1323 25.6947C26.3065 25.6947 27.2605 26.646 27.2605 27.8168C27.2605 28.9877 26.3065 29.939 25.1323 29.939C23.958 29.939 23.004 28.9877 23.004 27.8168C23.004 26.646 23.958 25.6947 25.1323 25.6947ZM30.9955 9C28.2315 9 25.9909 11.2406 25.9909 14.0045C25.9909 16.7685 28.2315 19.0091 30.9955 19.0091C33.7594 19.0091 36 16.7685 36 14.0045C36 11.2406 33.7594 9 30.9955 9ZM31.5222 10.8438V13.7273L33.4562 16.1449C33.7289 16.4856 33.6736 16.9829 33.3328 17.2555C32.9921 17.5282 32.4948 17.4729 32.2222 17.1321L29.9419 14.2817V10.8438C29.9419 10.4074 30.2956 10.0536 30.732 10.0536C31.1684 10.0536 31.5222 10.4074 31.5222 10.8438Z" fill="white"/>
</svg>
