<svg width="47" height="35" viewBox="0 0 47 35" fill="none" xmlns="http://www.w3.org/2000/svg">
<path d="M44.3662 8.65168H19.9648C19.2746 3.78511 15.1338 0 10.0563 0C4.53521 0 0 4.47332 0 10.0281C0 15.0913 3.79577 19.2697 8.72535 19.9579V32.5913C8.72535 33.9185 9.80986 35 11.1408 35H44.4648C45.7958 35 46.8803 33.9185 46.8803 32.5913V11.0604C46.7817 9.73315 45.6972 8.65168 44.3662 8.65168ZM10.007 17.3525C5.96479 17.3525 2.66197 14.059 2.66197 9.97893C2.66197 5.94803 5.96479 2.65449 10.007 2.65449C14.0493 2.65449 17.3521 5.94803 17.3521 9.97893C17.4014 14.059 14.0493 17.3525 10.007 17.3525ZM14.6901 23.8413H20.5563C21 23.8413 21.3944 24.2346 21.3944 24.677C21.3944 25.1194 21 25.5126 20.5563 25.5126H14.6901C14.2465 25.5126 13.8521 25.1194 13.8521 24.677C13.9014 24.2346 14.2465 23.8413 14.6901 23.8413ZM23.7606 29.6419H14.6901C14.2465 29.6419 13.8521 29.2486 13.8521 28.8062C13.8521 28.3638 14.2465 27.9705 14.6901 27.9705H23.7606C24.2042 27.9705 24.5986 28.3638 24.5986 28.8062C24.5986 29.2486 24.2535 29.6419 23.7606 29.6419ZM38.6479 29.6419C37.662 29.6419 36.7746 29.1011 36.2817 28.3146C35.7887 29.052 34.9507 29.5435 33.9648 29.5435C32.3873 29.5435 31.1056 28.2655 31.1056 26.6924C31.1056 25.1194 32.3873 23.8904 33.9648 23.8904C35 23.8904 35.838 24.4312 36.331 25.2177C36.8239 24.4803 37.662 23.9888 38.6479 23.9888C40.2254 23.9888 41.507 25.2669 41.507 26.7907C41.4577 28.3638 40.1761 29.6419 38.6479 29.6419ZM44.0704 18.7289H14.8873C16.7606 17.6966 18.2394 16.1236 19.1268 14.1573H44.0704V18.7289Z" fill="#FF9254"/>
<path d="M11.88 7.42262L9.11944 10.3721L8.13352 9.2906C7.64056 8.74987 6.75324 8.70071 6.21099 9.24144C5.66873 9.73301 5.61944 10.6178 6.16169 11.1586L8.13352 13.2723C8.38 13.5673 8.72507 13.7148 9.11944 13.7148C9.5138 13.7148 9.85887 13.5673 10.1054 13.2723L13.8518 9.24144C14.3448 8.70071 14.3448 7.81588 13.8025 7.3243C13.2603 6.83273 12.4223 6.88189 11.88 7.42262Z" fill="#FF9254"/>
</svg>
