<svg width="34" height="34" viewBox="0 0 34 34" fill="none" xmlns="http://www.w3.org/2000/svg">
<g filter="url(#filter0_dd)">
<path d="M22.0639 4.29492L25.5414 7.91992V21.7049H12.5508V21.7499H25.5858V7.96555L22.0639 4.29492Z" fill="#909090"/>
<path d="M22.0183 4.25H12.5039V21.705H25.5389V7.92063L22.0177 4.25" fill="#F4F4F4"/>
<path d="M12.4078 5.1875H8.41406V9.45437H20.9766V5.1875H12.4078Z" fill="#7A7B7C"/>
<path d="M21.0442 9.38133H8.49609V5.11133H21.0442V9.38133Z" fill="#DD2025"/>
<path d="M12.6567 5.83398H11.8398V8.83398H12.4823V7.82211L12.6242 7.83023C12.7621 7.82786 12.8986 7.80317 13.0286 7.75711C13.1425 7.71792 13.2474 7.65605 13.3367 7.57523C13.4277 7.49825 13.4994 7.40108 13.5461 7.29148C13.6088 7.1093 13.6312 6.91567 13.6117 6.72398C13.6078 6.58705 13.5838 6.45144 13.5405 6.32148C13.501 6.22768 13.4425 6.14311 13.3685 6.07317C13.2946 6.00323 13.2069 5.94944 13.1111 5.91523C13.0282 5.88523 12.9426 5.86346 12.8555 5.85023C12.7895 5.84005 12.7229 5.83462 12.6561 5.83398H12.6567ZM12.538 7.26773H12.4823V6.34273H12.603C12.6562 6.3389 12.7096 6.34707 12.7593 6.36665C12.8089 6.38623 12.8536 6.41672 12.8898 6.45586C12.965 6.55649 13.0052 6.67899 13.0042 6.80461C13.0042 6.95836 13.0042 7.09773 12.8655 7.19586C12.7655 7.25084 12.6517 7.27559 12.538 7.26711" fill="#464648"/>
<path d="M14.8323 5.82556C14.763 5.82556 14.6955 5.83056 14.648 5.83243L14.4992 5.83618H14.0117V8.83618H14.5855C14.8047 8.84219 15.023 8.80503 15.228 8.72681C15.3929 8.66138 15.539 8.55592 15.653 8.41993C15.7638 8.28272 15.8434 8.12296 15.8861 7.95181C15.9352 7.75798 15.9591 7.55863 15.9573 7.35868C15.9695 7.12253 15.9512 6.8858 15.903 6.65431C15.8572 6.48391 15.7715 6.32686 15.653 6.19618C15.56 6.09066 15.4461 6.00554 15.3186 5.94618C15.2091 5.89551 15.0939 5.85815 14.9755 5.83493C14.9284 5.82715 14.8807 5.8236 14.833 5.82431L14.8323 5.82556ZM14.7192 8.28493H14.6567V6.36993H14.6648C14.7937 6.35511 14.9241 6.37836 15.0398 6.43681C15.1246 6.50451 15.1937 6.58981 15.2423 6.68681C15.2948 6.78889 15.3251 6.90094 15.3311 7.01556C15.3367 7.15306 15.3311 7.26556 15.3311 7.35868C15.3336 7.46596 15.3267 7.57324 15.3105 7.67931C15.2912 7.7882 15.2556 7.89356 15.2048 7.99181C15.1474 8.08315 15.0698 8.16012 14.978 8.21681C14.9009 8.26668 14.8095 8.28995 14.718 8.28306" fill="#464648"/>
<path d="M17.8938 5.83594H16.375V8.83594H17.0175V7.64594H17.83V7.08844H17.0175V6.39344H17.8925V5.83594" fill="#464648"/>
<path d="M20.6144 15.6594C20.6144 15.6594 22.6069 15.2982 22.6069 15.9788C22.6069 16.6594 21.3725 16.3826 20.6144 15.6594ZM19.1413 15.7113C18.8247 15.7813 18.5162 15.8837 18.2206 16.0169L18.4706 15.4544C18.7206 14.8919 18.98 14.1251 18.98 14.1251C19.2783 14.6272 19.6254 15.0986 20.0163 15.5326C19.7215 15.5765 19.4294 15.6366 19.1413 15.7126V15.7113ZM18.3525 11.6488C18.3525 11.0557 18.5444 10.8938 18.6938 10.8938C18.8431 10.8938 19.0113 10.9657 19.0169 11.4807C18.9682 11.9985 18.8598 12.509 18.6938 13.0019C18.4663 12.5881 18.3487 12.1229 18.3519 11.6507L18.3525 11.6488ZM15.4469 18.2213C14.8356 17.8557 16.7288 16.7301 17.0719 16.6938C17.07 16.6944 16.0869 18.6038 15.4469 18.2213ZM23.1888 16.0594C23.1825 15.9969 23.1263 15.3051 21.895 15.3344C21.3818 15.3262 20.8689 15.3623 20.3619 15.4426C19.8708 14.9478 19.4479 14.3898 19.1044 13.7832C19.3208 13.1578 19.4518 12.5061 19.4938 11.8457C19.4756 11.0957 19.2963 10.6657 18.7213 10.6719C18.1463 10.6782 18.0625 11.1813 18.1381 11.9301C18.2122 12.4332 18.352 12.9245 18.5538 13.3913C18.5538 13.3913 18.2881 14.2182 17.9369 15.0407C17.5856 15.8632 17.3456 16.2944 17.3456 16.2944C16.7349 16.4933 16.1599 16.7887 15.6425 17.1694C15.1275 17.6488 14.9181 18.0169 15.1894 18.3851C15.4231 18.7026 16.2413 18.7744 16.9725 17.8163C17.3611 17.3214 17.716 16.8011 18.035 16.2588C18.035 16.2588 19.15 15.9532 19.4969 15.8694C19.8438 15.7857 20.2631 15.7194 20.2631 15.7194C20.2631 15.7194 21.2813 16.7438 22.2631 16.7076C23.245 16.6713 23.1975 16.1207 23.1913 16.0607" fill="#DD2025"/>
<path d="M21.9688 4.29688V7.9675H25.4894L21.9688 4.29688Z" fill="#909090"/>
<path d="M22.0195 4.25V7.92063H25.5402L22.0195 4.25Z" fill="#F4F4F4"/>
<path d="M12.6098 5.78516H11.793V8.78516H12.438V7.77391L12.5805 7.78203C12.7183 7.77966 12.8549 7.75496 12.9848 7.70891C13.0988 7.6697 13.2036 7.60783 13.293 7.52703C13.3832 7.44984 13.4543 7.35269 13.5005 7.24328C13.5632 7.06109 13.5855 6.86747 13.5661 6.67578C13.5622 6.53885 13.5382 6.40323 13.4948 6.27328C13.4554 6.17947 13.3968 6.09491 13.3229 6.02496C13.249 5.95502 13.1613 5.90124 13.0655 5.86703C12.9822 5.83674 12.8962 5.81476 12.8086 5.80141C12.7426 5.79123 12.676 5.78579 12.6092 5.78516H12.6098ZM12.4911 7.21891H12.4355V6.29391H12.5567C12.61 6.29007 12.6634 6.29824 12.713 6.31782C12.7627 6.3374 12.8073 6.36789 12.8436 6.40703C12.9188 6.50767 12.959 6.63016 12.958 6.75578C12.958 6.90953 12.958 7.04891 12.8192 7.14703C12.7193 7.20201 12.6055 7.22676 12.4917 7.21828" fill="white"/>
<path d="M14.7836 5.77673C14.7142 5.77673 14.6467 5.78173 14.5992 5.7836L14.4523 5.78735H13.9648V8.78735H14.5386C14.7579 8.79336 14.9762 8.7562 15.1811 8.67798C15.346 8.61256 15.4921 8.50709 15.6061 8.3711C15.7169 8.23389 15.7965 8.07413 15.8392 7.90298C15.8883 7.70915 15.9123 7.5098 15.9105 7.30985C15.9226 7.0737 15.9043 6.83697 15.8561 6.60548C15.8103 6.43508 15.7246 6.27804 15.6061 6.14735C15.5131 6.04183 15.3992 5.95671 15.2717 5.89735C15.1622 5.84668 15.047 5.80933 14.9286 5.7861C14.8815 5.77833 14.8338 5.77477 14.7861 5.77548L14.7836 5.77673ZM14.6723 8.2361H14.6098V6.3211H14.618C14.7468 6.30628 14.8772 6.32953 14.993 6.38798C15.0778 6.45568 15.1468 6.54098 15.1955 6.63798C15.2479 6.74006 15.2782 6.85211 15.2842 6.96673C15.2898 7.10423 15.2842 7.21673 15.2842 7.30985C15.2868 7.41713 15.2799 7.52442 15.2636 7.63048C15.2443 7.73937 15.2087 7.84473 15.158 7.94298C15.1005 8.03433 15.0229 8.1113 14.9311 8.16798C14.854 8.21785 14.7627 8.24112 14.6711 8.23423" fill="white"/>
<path d="M17.8469 5.78906H16.3281V8.78906H16.9706V7.59906H17.7831V7.04156H16.9706V6.34656H17.8456V5.78906" fill="white"/>
</g>
<defs>
<filter id="filter0_dd" x="-1" y="-1" width="36" height="36" filterUnits="userSpaceOnUse" color-interpolation-filters="sRGB">
<feFlood flood-opacity="0" result="BackgroundImageFix"/>
<feColorMatrix in="SourceAlpha" type="matrix" values="0 0 0 0 0 0 0 0 0 0 0 0 0 0 0 0 0 0 127 0"/>
<feOffset dy="4"/>
<feGaussianBlur stdDeviation="4"/>
<feColorMatrix type="matrix" values="0 0 0 0 0.196487 0 0 0 0 0.196487 0 0 0 0 0.279476 0 0 0 0.06 0"/>
<feBlend mode="multiply" in2="BackgroundImageFix" result="effect1_dropShadow"/>
<feColorMatrix in="SourceAlpha" type="matrix" values="0 0 0 0 0 0 0 0 0 0 0 0 0 0 0 0 0 0 127 0"/>
<feOffset dy="4"/>
<feGaussianBlur stdDeviation="2"/>
<feColorMatrix type="matrix" values="0 0 0 0 0.196487 0 0 0 0 0.196487 0 0 0 0 0.279476 0 0 0 0.08 0"/>
<feBlend mode="multiply" in2="effect1_dropShadow" result="effect2_dropShadow"/>
<feBlend mode="normal" in="SourceGraphic" in2="effect2_dropShadow" result="shape"/>
</filter>
</defs>
</svg>
