<svg width="16" height="16" viewBox="0 0 16 16" fill="none" xmlns="http://www.w3.org/2000/svg">
<path d="M11.3333 1.88529C11.5084 1.7102 11.7163 1.5713 11.9451 1.47654C12.1738 1.38178 12.419 1.33301 12.6666 1.33301C12.9143 1.33301 13.1595 1.38178 13.3882 1.47654C13.617 1.5713 13.8249 1.7102 14 1.88529C14.1751 2.06039 14.314 2.26826 14.4087 2.49703C14.5035 2.7258 14.5523 2.971 14.5523 3.21863C14.5523 3.46625 14.5035 3.71145 14.4087 3.94022C14.314 4.16899 14.1751 4.37686 14 4.55196L4.99998 13.552L1.33331 14.552L2.33331 10.8853L11.3333 1.88529Z" stroke="#393939" stroke-width="2" stroke-linecap="round" stroke-linejoin="round"/>
</svg>
