<svg width="15" height="15" viewBox="0 0 15 15" fill="none" xmlns="http://www.w3.org/2000/svg">
<path d="M10.4473 1.76923C10.6114 1.60508 10.8063 1.47487 11.0208 1.38603C11.2352 1.29719 11.4651 1.25146 11.6973 1.25146C11.9294 1.25146 12.1593 1.29719 12.3738 1.38603C12.5882 1.47487 12.7831 1.60508 12.9473 1.76923C13.1114 1.93338 13.2416 2.12826 13.3305 2.34274C13.4193 2.55721 13.465 2.78709 13.465 3.01923C13.465 3.25138 13.4193 3.48125 13.3305 3.69573C13.2416 3.9102 13.1114 4.10508 12.9473 4.26923L4.50977 12.7067L1.07227 13.6442L2.00977 10.2067L10.4473 1.76923Z" stroke="#393939" stroke-width="2" stroke-linecap="round" stroke-linejoin="round"/>
</svg>
