<svg width="36" height="41" viewBox="0 0 36 41" fill="none" xmlns="http://www.w3.org/2000/svg">
<path d="M32.9657 22.6099H32.922C32.4719 21.3367 31.639 20.2339 30.5374 19.4527C29.4359 18.6715 28.1197 18.2501 26.7693 18.2463H15.8602C15.8602 17.6676 15.6303 17.1127 15.2211 16.7035C14.812 16.2943 14.257 16.0645 13.6783 16.0645H11.4965C11.3036 16.0645 11.1186 16.1411 10.9823 16.2775C10.8459 16.4139 10.7692 16.5988 10.7692 16.7917V18.2463H9.31469C7.58226 18.2577 5.92403 18.951 4.69899 20.176C3.47394 21.4011 2.78066 23.0593 2.76923 24.7917H2.42741C1.93941 24.7917 1.4714 24.9856 1.12633 25.3307C0.78126 25.6757 0.587402 26.1437 0.587402 26.6317V29.1554C0.587402 29.3483 0.664026 29.5333 0.800416 29.6697C0.936807 29.806 1.12179 29.8827 1.31468 29.8827H3.10377L3.64923 30.6972C5.04488 32.7911 7.01083 34.4415 9.31469 35.4536V37.8827C9.31469 38.4613 9.54456 39.0163 9.95374 39.4255C10.3629 39.8346 10.9179 40.0645 11.4965 40.0645H12.9511C13.5297 40.0645 14.0847 39.8346 14.4938 39.4255C14.903 39.0163 15.1329 38.4613 15.1329 37.8827V35.7009H22.4056V37.8827C22.4056 38.4613 22.6355 39.0163 23.0447 39.4255C23.4538 39.8346 24.0088 40.0645 24.5875 40.0645H26.042C26.6207 40.0645 27.1756 39.8346 27.5848 39.4255C27.994 39.0163 28.2238 38.4613 28.2238 37.8827V35.7009H28.3838C29.691 35.6989 30.9441 35.1788 31.8684 34.2545C32.7927 33.3302 33.3128 32.0771 33.3147 30.7699V24.7917L34.042 25.519V26.2463H35.4966V25.1408C35.4966 24.4696 35.2299 23.8258 34.7553 23.3512C34.2806 22.8766 33.6369 22.6099 32.9657 22.6099ZM6.78378 24.0645C6.56742 24.0674 6.35509 24.0058 6.17379 23.8877C5.99249 23.7696 5.8504 23.6003 5.7656 23.4012C5.6808 23.2021 5.65711 22.9824 5.69754 22.7698C5.73798 22.5572 5.84071 22.3615 5.99268 22.2075C6.14466 22.0534 6.339 21.9481 6.551 21.9048C6.763 21.8615 6.98309 21.8822 7.18328 21.9644C7.38347 22.0465 7.55471 22.1863 7.67524 22.366C7.79576 22.5457 7.86013 22.7572 7.86015 22.9736C7.86015 23.2629 7.74521 23.5404 7.54062 23.7449C7.33604 23.9495 7.05856 24.0645 6.76923 24.0645H6.78378ZM26.042 22.6099H16.5874V21.1554H26.042V22.6099Z" fill="#52B141"/>
<path d="M22.4057 1.51953H20.9512V5.1559H22.4057V1.51953Z" fill="#52B141"/>
<path d="M18.0424 0.0644531H16.5879V8.06447H18.0424V0.0644531Z" fill="#52B141"/>
<path d="M26.7695 0.0644531H25.3149V4.4281H26.7695V0.0644531Z" fill="#52B141"/>
<path d="M19.8597 16.7901C20.9199 16.7881 21.9362 16.3661 22.686 15.6164C23.4357 14.8666 23.8577 13.8503 23.8597 12.79C23.8602 12.6001 23.8456 12.4104 23.816 12.2228C23.7073 11.4635 23.3825 10.7515 22.8803 10.1716C22.3782 9.59176 21.72 9.1685 20.9841 8.95227C20.2481 8.73604 19.4655 8.73596 18.7296 8.95205C17.9936 9.16814 17.3353 9.59129 16.8331 10.1711C16.3308 10.7508 16.0059 11.4628 15.897 12.222C15.7881 12.9813 15.8997 13.7559 16.2187 14.4534C16.5377 15.151 17.0505 15.7422 17.696 16.1565C18.3416 16.5707 19.0926 16.7907 19.8597 16.7901Z" fill="#52B141"/>
<path d="M24.5365 12.129C24.5692 12.3481 24.5862 12.5693 24.5874 12.7908C24.5874 12.8926 24.5874 12.9872 24.5874 13.0817C25.2032 12.9592 25.7767 12.6793 26.2521 12.2694C26.7276 11.8595 27.0889 11.3334 27.3007 10.7425C27.5126 10.1515 27.5679 9.51575 27.4611 8.8971C27.3544 8.27845 27.0893 7.69796 26.6917 7.21214C26.2941 6.72632 25.7775 6.35172 25.1921 6.12479C24.6068 5.89786 23.9727 5.82634 23.3515 5.91718C22.7303 6.00802 22.1432 6.25814 21.6474 6.64319C21.1515 7.02823 20.7638 7.53509 20.522 8.11443C20.8439 8.15381 21.1608 8.22694 21.4674 8.33261C22.2786 8.62205 22.9942 9.12955 23.5357 9.79932C24.0772 10.4691 24.4235 11.2752 24.5365 12.129Z" fill="#52B141"/>
</svg>
