<svg width="78" height="78" viewBox="0 0 78 78" fill="none" xmlns="http://www.w3.org/2000/svg">
<g filter="url(#filter0_ddd)">
<path fill-rule="evenodd" clip-rule="evenodd" d="M39 38C47.2843 38 54 31.2843 54 23C54 14.7157 47.2843 8 39 8C30.7157 8 24 14.7157 24 23C24 31.2843 30.7157 38 39 38Z" fill="#42B250"/>
<path d="M46.9985 24.3363H46.9756C46.7393 23.6678 46.302 23.0889 45.7237 22.6787C45.1454 22.2686 44.4544 22.0473 43.7455 22.0454H38.0182C38.0182 21.7416 37.8975 21.4502 37.6827 21.2354C37.4679 21.0206 37.1765 20.8999 36.8727 20.8999H35.7273C35.626 20.8999 35.5289 20.9401 35.4573 21.0117C35.3857 21.0833 35.3455 21.1805 35.3455 21.2817V22.0454H34.5818C33.6723 22.0514 32.8017 22.4153 32.1586 23.0585C31.5154 23.7016 31.1515 24.5722 31.1455 25.4817H30.966C30.7098 25.4817 30.4641 25.5835 30.2829 25.7647C30.1018 25.9458 30 26.1915 30 26.4477V27.7726C30 27.8739 30.0402 27.971 30.1118 28.0426C30.1834 28.1142 30.2806 28.1544 30.3818 28.1544H31.3211L31.6075 28.5821C32.3402 29.6814 33.3723 30.5479 34.5818 31.0792V32.3544C34.5818 32.6582 34.7025 32.9496 34.9173 33.1644C35.1321 33.3792 35.4235 33.4999 35.7273 33.4999H36.4909C36.7947 33.4999 37.0861 33.3792 37.3009 33.1644C37.5157 32.9496 37.6364 32.6582 37.6364 32.3544V31.209H41.4545V32.3544C41.4545 32.6582 41.5752 32.9496 41.79 33.1644C42.0049 33.3792 42.2962 33.4999 42.6 33.4999H43.3636C43.6674 33.4999 43.9588 33.3792 44.1736 33.1644C44.3884 32.9496 44.5091 32.6582 44.5091 32.3544V31.209H44.5931C45.2794 31.208 45.9372 30.9349 46.4225 30.4497C46.9077 29.9644 47.1808 29.3065 47.1818 28.6203V25.4817L47.5636 25.8635V26.2454H48.3273V25.665C48.3273 25.3126 48.1873 24.9746 47.9381 24.7254C47.6889 24.4763 47.3509 24.3363 46.9985 24.3363ZM33.2531 25.0999C33.1395 25.1014 33.028 25.0691 32.9328 25.0071C32.8377 24.9451 32.7631 24.8562 32.7185 24.7517C32.674 24.6472 32.6616 24.5318 32.6828 24.4202C32.704 24.3086 32.758 24.2058 32.8378 24.125C32.9176 24.0441 33.0196 23.9888 33.1309 23.9661C33.2422 23.9434 33.3577 23.9542 33.4628 23.9974C33.5679 24.0405 33.6578 24.1139 33.7211 24.2082C33.7844 24.3025 33.8182 24.4136 33.8182 24.5272C33.8182 24.6791 33.7578 24.8247 33.6504 24.9322C33.543 25.0396 33.3974 25.0999 33.2455 25.0999H33.2531ZM43.3636 24.3363H38.4V23.5726H43.3636V24.3363Z" fill="white"/>
<path d="M41.4546 13.2637H40.6909V15.1728H41.4546V13.2637Z" fill="white"/>
<path d="M39.1635 12.5H38.3999V16.7H39.1635V12.5Z" fill="white"/>
<path d="M43.7456 12.5H42.9819V14.7909H43.7456V12.5Z" fill="white"/>
<path d="M40.1183 21.2815C40.6749 21.2805 41.2085 21.059 41.6021 20.6654C41.9957 20.2717 42.2173 19.7382 42.2183 19.1815C42.2186 19.0818 42.2109 18.9822 42.1954 18.8837C42.1383 18.4851 41.9677 18.1113 41.7041 17.8069C41.4405 17.5024 41.095 17.2802 40.7086 17.1667C40.3222 17.0532 39.9114 17.0532 39.525 17.1666C39.1386 17.28 38.793 17.5022 38.5293 17.8066C38.2657 18.111 38.0951 18.4847 38.0379 18.8833C37.9807 19.2819 38.0393 19.6886 38.2068 20.0548C38.3743 20.421 38.6435 20.7314 38.9824 20.9489C39.3213 21.1664 39.7156 21.2819 40.1183 21.2815Z" fill="white"/>
<path d="M42.573 18.8345C42.5901 18.9495 42.599 19.0657 42.5997 19.182C42.5997 19.2354 42.5997 19.2851 42.5997 19.3347C42.9229 19.2704 43.224 19.1234 43.4737 18.9082C43.7233 18.693 43.9129 18.4168 44.0242 18.1066C44.1354 17.7963 44.1644 17.4626 44.1084 17.1378C44.0524 16.813 43.9132 16.5082 43.7044 16.2532C43.4957 15.9981 43.2245 15.8014 42.9172 15.6823C42.6099 15.5632 42.2769 15.5256 41.9508 15.5733C41.6247 15.621 41.3165 15.7523 41.0562 15.9545C40.7958 16.1566 40.5923 16.4227 40.4653 16.7269C40.6343 16.7475 40.8007 16.7859 40.9617 16.8414C41.3876 16.9934 41.7633 17.2598 42.0475 17.6114C42.3318 17.9631 42.5136 18.3863 42.573 18.8345Z" fill="white"/>
</g>
<defs>
<filter id="filter0_ddd" x="0" y="0" width="78" height="78" filterUnits="userSpaceOnUse" color-interpolation-filters="sRGB">
<feFlood flood-opacity="0" result="BackgroundImageFix"/>
<feColorMatrix in="SourceAlpha" type="matrix" values="0 0 0 0 0 0 0 0 0 0 0 0 0 0 0 0 0 0 127 0"/>
<feOffset/>
<feGaussianBlur stdDeviation="0.5"/>
<feColorMatrix type="matrix" values="0 0 0 0 0 0 0 0 0 0 0 0 0 0 0 0 0 0 0.04 0"/>
<feBlend mode="normal" in2="BackgroundImageFix" result="effect1_dropShadow"/>
<feColorMatrix in="SourceAlpha" type="matrix" values="0 0 0 0 0 0 0 0 0 0 0 0 0 0 0 0 0 0 127 0"/>
<feOffset dy="2"/>
<feGaussianBlur stdDeviation="3"/>
<feColorMatrix type="matrix" values="0 0 0 0 0 0 0 0 0 0 0 0 0 0 0 0 0 0 0.04 0"/>
<feBlend mode="normal" in2="effect1_dropShadow" result="effect2_dropShadow"/>
<feColorMatrix in="SourceAlpha" type="matrix" values="0 0 0 0 0 0 0 0 0 0 0 0 0 0 0 0 0 0 127 0"/>
<feOffset dy="16"/>
<feGaussianBlur stdDeviation="12"/>
<feColorMatrix type="matrix" values="0 0 0 0 0 0 0 0 0 0 0 0 0 0 0 0 0 0 0.06 0"/>
<feBlend mode="normal" in2="effect2_dropShadow" result="effect3_dropShadow"/>
<feBlend mode="normal" in="SourceGraphic" in2="effect3_dropShadow" result="shape"/>
</filter>
</defs>
</svg>
