<svg width="57" height="56" viewBox="0 0 57 56" fill="none" xmlns="http://www.w3.org/2000/svg">
<path d="M28.5 7C39.9892 7 49.3894 16.45 49.3894 28C49.3894 39.55 39.9892 49 28.5 49C17.0107 49 7.61049 39.55 7.61049 28C7.61049 16.45 17.0107 7 28.5 7ZM28.5 3.5C15.0959 3.5 4.12891 14.525 4.12891 28C4.12891 41.475 15.0959 52.5 28.5 52.5C41.904 52.5 52.871 41.475 52.871 28C52.871 14.525 41.904 3.5 28.5 3.5Z" fill="#0CA2D9"/>
<path d="M42.4264 26.25H30.2408V14H26.7593V26.25H14.5737V29.75H26.7593V42H30.2408V29.75H42.4264V26.25Z" fill="#0CA2D9"/>
</svg>
