<svg width="299" height="150" viewBox="0 0 299 150" fill="none" xmlns="http://www.w3.org/2000/svg">
<rect width="299" height="150" rx="12" fill="url(#paint0_linear)"/>
<mask id="mask0" mask-type="alpha" maskUnits="userSpaceOnUse" x="0" y="0" width="299" height="150">
<rect width="299" height="150" rx="12" fill="#FF9254"/>
</mask>
<g mask="url(#mask0)">
<path d="M56.4032 133.125C55.5214 133.125 54.8065 132.425 54.8065 131.562C54.8065 130.7 55.5214 130 56.4032 130C57.2851 130 58 130.7 58 131.562C58 132.425 57.2851 133.125 56.4032 133.125Z" fill="white" fill-opacity="0.13"/>
<path d="M56.4032 140.417C55.5214 140.417 54.8065 139.717 54.8065 138.854C54.8065 137.991 55.5214 137.292 56.4032 137.292C57.2851 137.292 58 137.991 58 138.854C58 139.717 57.2851 140.417 56.4032 140.417Z" fill="white" fill-opacity="0.13"/>
<path d="M56.4032 147.708C55.5214 147.708 54.8065 147.009 54.8065 146.146C54.8065 145.283 55.5214 144.583 56.4032 144.583C57.2851 144.583 58 145.283 58 146.146C58 147.009 57.2851 147.708 56.4032 147.708Z" fill="white" fill-opacity="0.13"/>
<path d="M56.4032 155C55.5214 155 54.8065 154.3 54.8065 153.437C54.8065 152.575 55.5214 151.875 56.4032 151.875C57.2851 151.875 58 152.575 58 153.437C58 154.3 57.2851 155 56.4032 155Z" fill="white" fill-opacity="0.13"/>
<path d="M48.9516 133.125C48.0697 133.125 47.3548 132.425 47.3548 131.562C47.3548 130.7 48.0697 130 48.9516 130C49.8335 130 50.5484 130.7 50.5484 131.562C50.5484 132.425 49.8335 133.125 48.9516 133.125Z" fill="white" fill-opacity="0.13"/>
<path d="M48.9516 140.417C48.0697 140.417 47.3548 139.717 47.3548 138.854C47.3548 137.991 48.0697 137.292 48.9516 137.292C49.8335 137.292 50.5484 137.991 50.5484 138.854C50.5484 139.717 49.8335 140.417 48.9516 140.417Z" fill="white" fill-opacity="0.13"/>
<path d="M48.9516 147.708C48.0697 147.708 47.3548 147.009 47.3548 146.146C47.3548 145.283 48.0697 144.583 48.9516 144.583C49.8335 144.583 50.5484 145.283 50.5484 146.146C50.5484 147.009 49.8335 147.708 48.9516 147.708Z" fill="white" fill-opacity="0.13"/>
<path d="M48.9516 155C48.0697 155 47.3548 154.3 47.3548 153.437C47.3548 152.575 48.0697 151.875 48.9516 151.875C49.8335 151.875 50.5484 152.575 50.5484 153.437C50.5484 154.3 49.8335 155 48.9516 155Z" fill="white" fill-opacity="0.13"/>
<path d="M41.5 133.125C40.6181 133.125 39.9032 132.425 39.9032 131.562C39.9032 130.7 40.6181 130 41.5 130C42.3819 130 43.0968 130.7 43.0968 131.562C43.0968 132.425 42.3819 133.125 41.5 133.125Z" fill="white" fill-opacity="0.13"/>
<path d="M41.5 140.417C40.6181 140.417 39.9032 139.717 39.9032 138.854C39.9032 137.991 40.6181 137.292 41.5 137.292C42.3819 137.292 43.0968 137.991 43.0968 138.854C43.0968 139.717 42.3819 140.417 41.5 140.417Z" fill="white" fill-opacity="0.13"/>
<path d="M41.5 147.708C40.6181 147.708 39.9032 147.009 39.9032 146.146C39.9032 145.283 40.6181 144.583 41.5 144.583C42.3819 144.583 43.0968 145.283 43.0968 146.146C43.0968 147.009 42.3819 147.708 41.5 147.708Z" fill="white" fill-opacity="0.13"/>
<path d="M41.5 155C40.6181 155 39.9032 154.3 39.9032 153.437C39.9032 152.575 40.6181 151.875 41.5 151.875C42.3819 151.875 43.0968 152.575 43.0968 153.437C43.0968 154.3 42.3819 155 41.5 155Z" fill="white" fill-opacity="0.13"/>
<path d="M34.0484 133.125C33.1665 133.125 32.4516 132.425 32.4516 131.562C32.4516 130.7 33.1665 130 34.0484 130C34.9303 130 35.6452 130.7 35.6452 131.562C35.6452 132.425 34.9303 133.125 34.0484 133.125Z" fill="white" fill-opacity="0.13"/>
<path d="M34.0484 140.417C33.1665 140.417 32.4516 139.717 32.4516 138.854C32.4516 137.991 33.1665 137.292 34.0484 137.292C34.9303 137.292 35.6452 137.991 35.6452 138.854C35.6452 139.717 34.9303 140.417 34.0484 140.417Z" fill="white" fill-opacity="0.13"/>
<path d="M34.0484 147.708C33.1665 147.708 32.4516 147.009 32.4516 146.146C32.4516 145.283 33.1665 144.583 34.0484 144.583C34.9303 144.583 35.6452 145.283 35.6452 146.146C35.6452 147.009 34.9303 147.708 34.0484 147.708Z" fill="white" fill-opacity="0.13"/>
<path d="M34.0484 155C33.1665 155 32.4516 154.3 32.4516 153.437C32.4516 152.575 33.1665 151.875 34.0484 151.875C34.9303 151.875 35.6452 152.575 35.6452 153.437C35.6452 154.3 34.9303 155 34.0484 155Z" fill="white" fill-opacity="0.13"/>
<path d="M26.5968 133.125C25.7149 133.125 25 132.425 25 131.562C25 130.7 25.7149 130 26.5968 130C27.4786 130 28.1935 130.7 28.1935 131.562C28.1935 132.425 27.4786 133.125 26.5968 133.125Z" fill="white" fill-opacity="0.13"/>
<path d="M26.5968 140.417C25.7149 140.417 25 139.717 25 138.854C25 137.991 25.7149 137.292 26.5968 137.292C27.4786 137.292 28.1935 137.991 28.1935 138.854C28.1935 139.717 27.4786 140.417 26.5968 140.417Z" fill="white" fill-opacity="0.13"/>
<path d="M26.5968 147.708C25.7149 147.708 25 147.009 25 146.146C25 145.283 25.7149 144.583 26.5968 144.583C27.4786 144.583 28.1935 145.283 28.1935 146.146C28.1935 147.009 27.4786 147.708 26.5968 147.708Z" fill="white" fill-opacity="0.13"/>
<path d="M26.5968 155C25.7149 155 25 154.3 25 153.437C25 152.575 25.7149 151.875 26.5968 151.875C27.4786 151.875 28.1935 152.575 28.1935 153.437C28.1935 154.3 27.4786 155 26.5968 155Z" fill="white" fill-opacity="0.13"/>
<path d="M258.75 -4.59677C258.75 -3.82179 258.134 -3.19355 257.375 -3.19355C256.616 -3.19355 256 -3.82179 256 -4.59677C256 -5.37175 256.616 -6 257.375 -6C258.134 -6 258.75 -5.37175 258.75 -4.59677Z" fill="white" fill-opacity="0.5"/>
<path d="M265.167 -4.59677C265.167 -3.82179 264.551 -3.19355 263.792 -3.19355C263.032 -3.19355 262.417 -3.82179 262.417 -4.59677C262.417 -5.37175 263.032 -6 263.792 -6C264.551 -6 265.167 -5.37175 265.167 -4.59677Z" fill="white" fill-opacity="0.5"/>
<path d="M271.583 -4.59677C271.583 -3.82179 270.968 -3.19355 270.208 -3.19355C269.449 -3.19355 268.833 -3.82179 268.833 -4.59677C268.833 -5.37175 269.449 -6 270.208 -6C270.968 -6 271.583 -5.37175 271.583 -4.59677Z" fill="white" fill-opacity="0.5"/>
<path d="M278 -4.59677C278 -3.82179 277.384 -3.19355 276.625 -3.19355C275.866 -3.19355 275.25 -3.82179 275.25 -4.59677C275.25 -5.37175 275.866 -6 276.625 -6C277.384 -6 278 -5.37175 278 -4.59677Z" fill="white" fill-opacity="0.5"/>
<path d="M258.75 1.95161C258.75 2.72659 258.134 3.35484 257.375 3.35484C256.616 3.35484 256 2.72659 256 1.95161C256 1.17663 256.616 0.548387 257.375 0.548387C258.134 0.548387 258.75 1.17663 258.75 1.95161Z" fill="white" fill-opacity="0.5"/>
<path d="M265.167 1.95161C265.167 2.72659 264.551 3.35484 263.792 3.35484C263.032 3.35484 262.417 2.72659 262.417 1.95161C262.417 1.17663 263.032 0.548387 263.792 0.548387C264.551 0.548387 265.167 1.17663 265.167 1.95161Z" fill="white" fill-opacity="0.5"/>
<path d="M271.583 1.95161C271.583 2.72659 270.968 3.35484 270.208 3.35484C269.449 3.35484 268.833 2.72659 268.833 1.95161C268.833 1.17663 269.449 0.548387 270.208 0.548387C270.968 0.548387 271.583 1.17663 271.583 1.95161Z" fill="white" fill-opacity="0.5"/>
<path d="M278 1.95161C278 2.72659 277.384 3.35484 276.625 3.35484C275.866 3.35484 275.25 2.72659 275.25 1.95161C275.25 1.17663 275.866 0.548387 276.625 0.548387C277.384 0.548387 278 1.17663 278 1.95161Z" fill="white" fill-opacity="0.5"/>
<path d="M258.75 8.5C258.75 9.27498 258.134 9.90323 257.375 9.90323C256.616 9.90323 256 9.27498 256 8.5C256 7.72502 256.616 7.09677 257.375 7.09677C258.134 7.09677 258.75 7.72502 258.75 8.5Z" fill="white" fill-opacity="0.5"/>
<path d="M265.167 8.5C265.167 9.27498 264.551 9.90323 263.792 9.90323C263.032 9.90323 262.417 9.27498 262.417 8.5C262.417 7.72502 263.032 7.09677 263.792 7.09677C264.551 7.09677 265.167 7.72502 265.167 8.5Z" fill="white" fill-opacity="0.5"/>
<path d="M271.583 8.5C271.583 9.27498 270.968 9.90323 270.208 9.90323C269.449 9.90323 268.833 9.27498 268.833 8.5C268.833 7.72502 269.449 7.09677 270.208 7.09677C270.968 7.09677 271.583 7.72502 271.583 8.5Z" fill="white" fill-opacity="0.5"/>
<path d="M278 8.5C278 9.27498 277.384 9.90323 276.625 9.90323C275.866 9.90323 275.25 9.27498 275.25 8.5C275.25 7.72502 275.866 7.09677 276.625 7.09677C277.384 7.09677 278 7.72502 278 8.5Z" fill="white" fill-opacity="0.5"/>
<path d="M258.75 15.0484C258.75 15.8234 258.134 16.4516 257.375 16.4516C256.616 16.4516 256 15.8234 256 15.0484C256 14.2734 256.616 13.6452 257.375 13.6452C258.134 13.6452 258.75 14.2734 258.75 15.0484Z" fill="white" fill-opacity="0.5"/>
<path d="M265.167 15.0484C265.167 15.8234 264.551 16.4516 263.792 16.4516C263.032 16.4516 262.417 15.8234 262.417 15.0484C262.417 14.2734 263.032 13.6452 263.792 13.6452C264.551 13.6452 265.167 14.2734 265.167 15.0484Z" fill="white" fill-opacity="0.5"/>
<path d="M271.583 15.0484C271.583 15.8234 270.968 16.4516 270.208 16.4516C269.449 16.4516 268.833 15.8234 268.833 15.0484C268.833 14.2734 269.449 13.6452 270.208 13.6452C270.968 13.6452 271.583 14.2734 271.583 15.0484Z" fill="white" fill-opacity="0.5"/>
<path d="M278 15.0484C278 15.8234 277.384 16.4516 276.625 16.4516C275.866 16.4516 275.25 15.8234 275.25 15.0484C275.25 14.2734 275.866 13.6452 276.625 13.6452C277.384 13.6452 278 14.2734 278 15.0484Z" fill="white" fill-opacity="0.5"/>
<path d="M258.75 21.5968C258.75 22.3718 258.134 23 257.375 23C256.616 23 256 22.3718 256 21.5968C256 20.8218 256.616 20.1935 257.375 20.1935C258.134 20.1935 258.75 20.8218 258.75 21.5968Z" fill="white" fill-opacity="0.5"/>
<path d="M265.167 21.5968C265.167 22.3718 264.551 23 263.792 23C263.032 23 262.417 22.3718 262.417 21.5968C262.417 20.8218 263.032 20.1935 263.792 20.1935C264.551 20.1935 265.167 20.8218 265.167 21.5968Z" fill="white" fill-opacity="0.5"/>
<path d="M271.583 21.5968C271.583 22.3718 270.968 23 270.208 23C269.449 23 268.833 22.3718 268.833 21.5968C268.833 20.8218 269.449 20.1935 270.208 20.1935C270.968 20.1935 271.583 20.8218 271.583 21.5968Z" fill="white" fill-opacity="0.5"/>
<path d="M278 21.5968C278 22.3718 277.384 23 276.625 23C275.866 23 275.25 22.3718 275.25 21.5968C275.25 20.8218 275.866 20.1935 276.625 20.1935C277.384 20.1935 278 20.8218 278 21.5968Z" fill="white" fill-opacity="0.5"/>
</g>
<defs>
<linearGradient id="paint0_linear" x1="9.46834" y1="19.7368" x2="283.342" y2="116.456" gradientUnits="userSpaceOnUse">
<stop offset="0.182292" stop-color="#0CA2D9"/>
<stop offset="0.854167" stop-color="#00BBFF"/>
</linearGradient>
</defs>
</svg>
