<svg width="14" height="16" viewBox="0 0 14 16" fill="none" xmlns="http://www.w3.org/2000/svg">
<path d="M0 15.5556L1.16667 14.3889L2.33333 15.5556L3.5 14.3889L4.66667 15.5556L5.83333 14.3889L7 15.5556L8.16667 14.3889L9.33333 15.5556L10.5 14.3889L11.6667 15.5556L12.8333 14.3889L14 15.5556V0L12.8333 1.16667L11.6667 0L10.5 1.16667L9.33333 0L8.16667 1.16667L7 0L5.83333 1.16667L4.66667 0L3.5 1.16667L2.33333 0L1.16667 1.16667L0 0V15.5556ZM11.6667 5.44444H2.33333V3.88889H11.6667V5.44444ZM11.6667 8.55556H2.33333V7H11.6667V8.55556ZM11.6667 11.6667H2.33333V10.1111H11.6667V11.6667Z" fill="#0CA2D9"/>
</svg>
