<svg width="64" height="64" viewBox="0 0 64 64" fill="none" xmlns="http://www.w3.org/2000/svg">
<path fill-rule="evenodd" clip-rule="evenodd" d="M32 64C49.6731 64 64 49.6731 64 32C64 14.3269 49.6731 0 32 0C14.3269 0 0 14.3269 0 32C0 49.6731 14.3269 64 32 64Z" fill="#47B881"/>
<mask id="mask0" mask-type="alpha" maskUnits="userSpaceOnUse" x="18" y="19" width="29" height="26">
<path fill-rule="evenodd" clip-rule="evenodd" d="M32.2929 24.7171H46.5857V44.7271H18V19H32.2929V24.7171ZM20.8586 41.8686H23.7171V39.01H20.8586V41.8686ZM23.7171 36.1514H20.8586V33.2929H23.7171V36.1514ZM20.8586 30.4343H23.7171V27.5757H20.8586V30.4343ZM23.7171 24.7171H20.8586V21.8586H23.7171V24.7171ZM26.5757 41.8686H29.4343V39.01H26.5757V41.8686ZM29.4343 36.1514H26.5757V33.2929H29.4343V36.1514ZM26.5757 30.4343H29.4343V27.5757H26.5757V30.4343ZM29.4343 24.7171H26.5757V21.8586H29.4343V24.7171ZM43.7271 41.8686V27.5757H32.2929V30.4343H35.1514V33.2929H32.2929V36.1514H35.1514V39.01H32.2929V41.8686H43.7271ZM40.8686 30.4343H38.01V33.2929H40.8686V30.4343ZM38.01 36.1514H40.8686V39.01H38.01V36.1514Z" fill="white"/>
</mask>
<g mask="url(#mask0)">
<rect x="14.7554" y="13.8638" width="36" height="36" fill="#FAFAFA"/>
</g>
</svg>
