<svg width="40" height="40" viewBox="0 0 40 40" fill="none" xmlns="http://www.w3.org/2000/svg">
<rect x="0.5" y="0.5" width="39" height="39" rx="4.5" fill="#FAFAFA" stroke="#C7CED4"/>
<path fill-rule="evenodd" clip-rule="evenodd" d="M19.9986 34.544C28.0318 34.544 34.544 28.0318 34.544 19.9986C34.544 11.9653 28.0318 5.45312 19.9986 5.45312C11.9653 5.45312 5.45312 11.9653 5.45312 19.9986C5.45312 28.0318 11.9653 34.544 19.9986 34.544Z" stroke="#66788A"/>
<path d="M16.8632 22.0145C13.5293 21.9873 10.8831 19.2815 10.9104 15.9267C10.9376 12.6246 13.6662 9.96832 16.9953 10.0003C18.5883 10.0226 20.1075 10.6745 21.2198 11.813C22.3321 12.9515 22.9467 14.4838 22.9289 16.0739C22.9111 17.664 22.2623 19.1822 21.1248 20.2957C19.9873 21.4091 18.4539 22.0269 16.8608 22.0137L16.8632 22.0145ZM11.7478 15.9746C11.7398 18.8299 14.0473 21.169 16.8864 21.1818C17.5708 21.1858 18.2493 21.0546 18.8828 20.7959C19.5163 20.5371 20.0922 20.1558 20.5775 19.674C21.0628 19.1922 21.4478 18.6194 21.7103 17.9884C21.9729 17.3575 22.1078 16.681 22.1074 15.9978C22.1146 13.1753 19.7919 10.8498 16.9544 10.8402C14.0953 10.8314 11.7558 13.1377 11.7478 15.9746Z" fill="#66788A"/>
<path d="M29.0761 24.6329C29.0761 25.0764 29.097 25.5447 29.0609 26.009C29.0529 26.1153 28.8648 26.2615 28.7351 26.2959C28.3122 26.4146 27.8814 26.5036 27.446 26.562C25.2363 26.8313 23.0177 26.8489 20.8007 26.7163C19.9152 26.6635 19.0344 26.5189 18.1521 26.4158C18.1225 26.4113 18.0931 26.4051 18.0641 26.3974C17.3995 26.2432 17.3867 26.228 17.3867 25.5463C17.3867 25.2267 17.3867 24.9134 17.3867 24.6289C21.254 25.301 25.2084 25.3024 29.0761 24.6329Z" fill="#66788A"/>
<path d="M17.3848 26.9219C21.2522 27.5933 25.2068 27.5933 29.0742 26.9219C29.0742 27.363 29.0902 27.8401 29.0606 28.3148C29.055 28.4075 28.8868 28.5417 28.774 28.5665C28.1932 28.7082 27.6052 28.8183 27.0125 28.8965C24.9217 29.1155 22.8155 29.1495 20.7187 28.998C19.7931 28.9349 18.8716 28.7958 17.9548 28.6472C17.4072 28.5585 17.388 28.4874 17.388 27.928C17.3848 27.5812 17.3848 27.2351 17.3848 26.9219Z" fill="#66788A"/>
<path d="M29.0854 22.2918C29.0854 22.7298 29.0678 23.1365 29.091 23.5417C29.1086 23.8406 28.9525 23.9668 28.7035 24.014C28.2759 24.0939 27.8476 24.1834 27.4152 24.2265C26.4353 24.324 25.4529 24.4463 24.4697 24.4663C23.2687 24.4903 22.0597 24.4415 20.8572 24.3864C19.9949 24.3448 19.1342 24.2473 18.2759 24.1466C18.0213 24.1051 17.7741 24.0273 17.5417 23.9157C17.4664 23.8829 17.408 23.7511 17.3912 23.6552C17.372 23.5064 17.3699 23.356 17.3848 23.2068C17.396 23.0119 17.3567 22.6954 17.4512 22.6474C17.7021 22.5333 17.9764 22.4802 18.2519 22.4924C18.5465 22.4924 18.8387 22.6019 19.1326 22.6291C20.0029 22.709 20.8732 22.7889 21.7459 22.8376C22.2207 22.8648 22.6994 22.8312 23.1766 22.8281C23.9773 22.8225 24.7779 22.8864 25.5666 22.7985C26.7003 22.6722 27.8628 22.6978 28.9573 22.2974C28.9996 22.2901 29.0426 22.2882 29.0854 22.2918Z" fill="#66788A"/>
<path d="M19.4688 22.0888C19.5969 22.0089 19.6529 21.9809 19.7089 21.9465C20.2021 21.6269 20.6929 21.3072 21.1901 20.9987C21.3013 20.9203 21.4304 20.8709 21.5656 20.8549C23.6866 20.787 25.8091 20.7934 27.91 21.1146C28.2152 21.1656 28.516 21.2399 28.8099 21.3368C28.9076 21.3679 28.9788 21.4814 29.0629 21.5573C28.9828 21.6245 28.9124 21.7244 28.8227 21.7539C28.5301 21.8546 28.2296 21.9308 27.9244 21.9817C27.2839 22.0688 26.6433 22.1647 25.9948 22.1831C24.4784 22.227 22.9612 22.2366 21.4439 22.2422C20.9467 22.2422 20.4495 22.1903 19.9523 22.1567C19.8122 22.1471 19.6785 22.1199 19.4688 22.0888Z" fill="#66788A"/>
<path d="M11.7481 15.9735C11.7561 13.1366 14.0956 10.8303 16.9523 10.8399C19.789 10.8495 22.1124 13.1741 22.1052 15.9975C22.1057 16.6807 21.9707 17.3572 21.7081 17.9881C21.4456 18.619 21.0606 19.1919 20.5753 19.6737C20.0901 20.1555 19.5141 20.5368 18.8806 20.7956C18.2472 21.0543 17.5687 21.1855 16.8842 21.1815C14.0475 21.1679 11.7401 18.8288 11.7481 15.9735ZM21.4535 16.0271C21.4548 15.134 21.1908 14.2606 20.6948 13.5173C20.1989 12.774 19.4934 12.1941 18.6674 11.8508C17.8413 11.5076 16.9319 11.4165 16.054 11.5891C15.1762 11.7616 14.3692 12.19 13.7352 12.8201C13.1012 13.4503 12.6686 14.2539 12.492 15.1293C12.3154 16.0048 12.4028 16.9129 12.7432 17.7388C13.0835 18.5647 13.6616 19.2714 14.4042 19.7695C15.1468 20.2677 16.0207 20.5349 16.9154 20.5374C17.5107 20.5408 18.1008 20.4265 18.6516 20.2013C19.2025 19.9761 19.7032 19.6443 20.1251 19.225C20.5469 18.8058 20.8814 18.3074 21.1094 17.7585C21.3374 17.2097 21.4544 16.6212 21.4535 16.0271Z" fill="white"/>
<ellipse cx="16.8752" cy="16.0347" rx="4.52365" ry="4.51512" fill="#66788A"/>
<path d="M19.625 19.2383H18.8711L16.0078 14.8555V19.2383H15.2539V13.5508H16.0078L18.8789 17.9531V13.5508H19.625V19.2383Z" fill="white"/>
<rect x="14.8008" y="15.9141" width="5.23993" height="0.399568" fill="white"/>
<rect x="14.8008" y="16.8633" width="5.23993" height="0.399568" fill="white"/>
</svg>
