<svg width="40" height="40" viewBox="0 0 40 40" fill="none" xmlns="http://www.w3.org/2000/svg">
<rect x="0.5" y="0.5" width="39" height="39" rx="4.5" fill="#FAFAFA" stroke="#C7CED4"/>
<mask id="mask0" mask-type="alpha" maskUnits="userSpaceOnUse" x="0" y="0" width="40" height="40">
<rect x="0.5" y="0.5" width="39" height="39" rx="4.5" fill="white" stroke="white"/>
</mask>
<g mask="url(#mask0)">
</g>
<path fill-rule="evenodd" clip-rule="evenodd" d="M19.9986 34.544C28.0318 34.544 34.544 28.0318 34.544 19.9986C34.544 11.9653 28.0318 5.45312 19.9986 5.45312C11.9653 5.45312 5.45312 11.9653 5.45312 19.9986C5.45312 28.0318 11.9653 34.544 19.9986 34.544Z" stroke="#66788A"/>
<g clip-path="url(#clip0)">
<path d="M23.888 30.0004H23.0407C20.1129 30.0004 17.1852 29.9996 14.2574 29.9978C12.8551 29.9956 11.8203 28.9065 11.8194 27.4413C11.8176 24.0062 11.8176 20.5711 11.8194 17.1361C11.8194 15.6402 11.8211 14.1441 11.8164 12.6473C11.8148 12.0801 11.9262 11.5492 12.2457 11.0814C12.7368 10.3624 13.4117 10.003 14.2576 10.0019C16.293 9.99938 18.3285 9.99938 20.364 10.0019C21.7364 10.0019 23.1088 10.0019 24.4812 10.0019C25.1905 10.0019 25.7968 10.2575 26.2807 10.8004C26.71 11.2821 26.92 11.8582 26.92 12.5158C26.92 13.6116 26.92 14.7076 26.92 15.8038C26.92 17.681 26.92 19.5585 26.92 21.4361C26.92 21.5013 26.92 21.5665 26.92 21.6279H25.676C25.676 21.549 25.676 21.4693 25.676 21.3895C25.676 18.4351 25.676 15.4808 25.676 12.5264C25.676 11.9515 25.3365 11.4743 24.8251 11.3373C24.7184 11.3111 24.609 11.2988 24.4993 11.3007C21.087 11.2988 17.6743 11.2988 14.2612 11.3007C13.5492 11.3007 13.0626 11.8068 13.0623 12.5496C13.0606 15.6183 13.0606 18.687 13.0623 21.7557C13.0623 23.6567 13.0686 25.5583 13.0593 27.4587C13.0574 27.6237 13.0872 27.7874 13.147 27.9403C13.2067 28.0931 13.2951 28.232 13.407 28.3488C13.519 28.4655 13.6521 28.5579 13.7988 28.6203C13.9454 28.6827 14.1025 28.7141 14.2609 28.7124C17.0099 28.6987 19.759 28.7078 22.508 28.7056C22.6178 28.7056 22.6897 28.7341 22.758 28.8342C23.0481 29.2516 23.4066 29.6125 23.817 29.9004C23.8461 29.9209 23.8719 29.9458 23.8993 29.9687L23.888 30.0004Z" fill="#66788A"/>
<path d="M26.2955 30.0006C24.2468 29.9955 22.5942 28.27 22.6016 26.1435C22.6098 24.0295 24.2644 22.3177 26.2994 22.3203C28.3514 22.3223 30.0049 24.0412 29.9994 26.1689C29.9952 28.2875 28.3346 30.0055 26.2955 30.0006ZM26.842 26.7233H27.004C27.5208 26.7233 28.0374 26.7264 28.5542 26.7207C28.6543 26.721 28.7534 26.7005 28.8457 26.6604C28.9525 26.6088 29.0394 26.5211 29.0923 26.4116C29.1451 26.3021 29.1609 26.1771 29.1369 26.0571C29.0782 25.7784 28.8776 25.6025 28.5995 25.5997C28.0692 25.5959 27.5387 25.5997 27.0075 25.5997H26.8428C26.8428 25.5362 26.8428 25.4899 26.8428 25.4436C26.8428 24.9053 26.8428 24.3671 26.8428 23.829C26.8428 23.4539 26.6202 23.2063 26.2876 23.2075C25.978 23.2075 25.7576 23.4648 25.7576 23.8242C25.7576 24.3672 25.7576 24.9104 25.7576 25.4538C25.7576 25.499 25.7529 25.5445 25.7496 25.6005H25.5597C25.0475 25.6005 24.5353 25.5979 24.0226 25.6031C23.9317 25.6034 23.8418 25.6229 23.7582 25.6603C23.5244 25.7703 23.4135 26.0245 23.4692 26.2893C23.5225 26.5423 23.7322 26.7213 23.9962 26.7233C24.5265 26.7273 25.0571 26.7233 25.5882 26.7233H25.7576C25.7576 26.7956 25.7576 26.8471 25.7576 26.8988C25.7576 27.4466 25.7545 27.9944 25.7576 28.5422C25.76 28.8741 25.995 29.114 26.3035 29.114C26.6073 29.114 26.8396 28.8624 26.8398 28.5328C26.8398 28.2659 26.8398 27.9991 26.8398 27.7322C26.842 27.3994 26.842 27.0664 26.842 26.7233Z" fill="#66788A"/>
<path d="M23.8079 22.4036C23.8079 21.9175 23.8079 21.4601 23.8079 21.0026C23.8079 20.4548 23.8079 19.907 23.8101 19.359C23.8101 19.2609 23.7807 19.2252 23.6841 19.226C23.2266 19.23 22.7691 19.23 22.3117 19.226C22.2118 19.226 22.1884 19.2686 22.1884 19.363C22.1903 20.9875 22.1816 22.612 22.1964 24.2365C22.1997 24.597 22.0591 24.9133 22.001 25.2526C21.9957 25.2812 21.9079 25.3147 21.8582 25.315C21.1402 25.3195 20.4221 25.3192 19.7041 25.3192C17.9661 25.3192 16.2281 25.3167 14.489 25.3215C14.3498 25.3215 14.3122 25.2855 14.3125 25.1397C14.3169 23.015 14.3169 20.8903 14.3125 18.7654C14.3125 18.619 14.3523 18.5827 14.4895 18.583C17.7505 18.5868 21.0116 18.5868 24.2728 18.583C24.3996 18.583 24.435 18.6225 24.4345 18.7546C24.4297 19.8075 24.4293 20.8603 24.4331 21.9132C24.4331 22.0067 24.4057 22.0591 24.3233 22.1022C24.1578 22.1894 23.9989 22.2892 23.8079 22.4036ZM19.3281 21.9438H19.3264C19.3264 21.0961 19.3237 20.2481 19.3292 19.3993C19.3292 19.2595 19.2872 19.2246 19.1571 19.2249C17.803 19.2296 16.4495 19.2296 15.0967 19.2249C14.9696 19.2249 14.935 19.262 14.9353 19.393C14.9391 21.0934 14.9391 22.7937 14.9353 24.4941C14.9353 24.6465 14.9833 24.6745 15.1151 24.6742C16.473 24.6704 17.831 24.6704 19.1889 24.6742C19.3113 24.6742 19.3308 24.6225 19.3305 24.513C19.3267 23.6581 19.3281 22.801 19.3281 21.9436V21.9438ZM19.9506 24.6565C19.9776 24.6643 20.0051 24.6698 20.0329 24.6731C20.5083 24.6731 20.984 24.6731 21.4602 24.676C21.5607 24.676 21.5673 24.6188 21.5673 24.5399C21.5662 22.8158 21.5662 21.0917 21.5673 19.3675C21.5673 19.2472 21.5234 19.2246 21.4215 19.2272C20.9824 19.2326 20.5432 19.2354 20.104 19.2272C19.9835 19.2252 19.9476 19.258 19.9478 19.3858C19.9511 20.9576 19.9511 22.5292 19.9478 24.1007C19.9495 24.286 19.9504 24.4712 19.9506 24.6562V24.6565Z" fill="#66788A"/>
<path d="M16.9558 16.1647C16.1239 16.1647 15.2919 16.163 14.46 16.1672C14.345 16.1672 14.3055 16.1295 14.3131 16.012C14.3203 15.8977 14.3198 15.7831 14.3115 15.6689C14.303 15.5482 14.3518 15.5145 14.4625 15.5157C14.9881 15.5202 15.5137 15.5174 16.0396 15.5177L19.427 15.5194C19.6048 15.5194 19.6057 15.5194 19.6073 15.7069C19.6073 15.8116 19.5993 15.9171 19.6073 16.0214C19.6164 16.1375 19.5719 16.1672 19.4654 16.1667C18.6302 16.1627 17.7938 16.1644 16.9558 16.1647Z" fill="#66788A"/>
<path d="M19.3752 27.407C18.5474 27.407 17.7196 27.4044 16.8917 27.4098C16.76 27.4098 16.7128 27.3706 16.7271 27.2328C16.7358 27.1187 16.7358 27.0039 16.7271 26.8897C16.7213 26.7914 16.7531 26.7579 16.8509 26.7588C17.3768 26.7631 17.9027 26.7588 18.4286 26.7605C19.572 26.7605 20.7153 26.7648 21.8596 26.7605C21.9836 26.7605 22.035 26.7908 22.0242 26.9263C22.0157 27.0452 22.0152 27.1645 22.0226 27.2834C22.027 27.3775 21.993 27.4072 21.9037 27.4064C21.5241 27.4029 21.1445 27.4064 20.7649 27.4064L19.3752 27.407Z" fill="#66788A"/>
<path d="M16.9595 17.4552C16.132 17.4552 15.3047 17.4518 14.4771 17.4587C14.3399 17.4587 14.3009 17.4118 14.3125 17.2788C14.3212 17.1696 14.3219 17.0599 14.3147 16.9506C14.3081 16.8434 14.3476 16.8119 14.4489 16.8125C15.0843 16.8162 15.7197 16.8125 16.3554 16.8125H19.4277C19.6063 16.8125 19.6064 16.8125 19.6072 16.9995C19.6072 17.1041 19.6025 17.2096 19.6107 17.314C19.6198 17.4283 19.577 17.4598 19.4691 17.4592C18.6325 17.4549 17.7948 17.4569 16.9593 17.4569L16.9595 17.4552Z" fill="#66788A"/>
<path d="M16.0926 13.1001C16.0926 13.4546 16.0946 13.7723 16.0907 14.0902C16.0907 14.1474 16.0756 14.2454 16.0512 14.2514C15.9688 14.2709 15.8805 14.2617 15.7956 14.2514C15.7814 14.2497 15.7649 14.188 15.7649 14.1539C15.7633 13.6774 15.7633 13.2009 15.7649 12.7244C15.7632 12.6922 15.7729 12.6604 15.7924 12.6352C15.8706 12.5643 16.1939 12.6352 16.2461 12.7318C16.4154 13.0495 16.5826 13.3686 16.7591 13.7039C16.7618 13.6556 16.7662 13.6201 16.7657 13.5844C16.7618 13.3037 16.7604 13.0226 16.7506 12.7418C16.7462 12.6178 16.8148 12.6123 16.8993 12.62C16.9776 12.6269 17.0813 12.5815 17.0799 12.7373C17.0755 13.2087 17.0764 13.6808 17.0799 14.1519C17.0799 14.2377 17.0508 14.262 16.9701 14.2717C16.7851 14.294 16.6682 14.2391 16.5818 14.0504C16.4385 13.7374 16.268 13.4386 16.0926 13.1001Z" fill="#66788A"/>
<path d="M18.8027 13.5175C18.8063 12.8153 19.3155 12.4311 19.8636 12.6432C19.8936 12.6547 19.9229 12.6683 19.9512 12.6838C20.3162 12.888 20.4452 13.4844 20.216 13.9101C20.0222 14.2712 19.5298 14.4081 19.173 14.1946C18.8974 14.0296 18.8071 13.76 18.8027 13.5175ZM19.1557 13.4252C19.1908 13.557 19.2106 13.6799 19.2567 13.7906C19.2819 13.8555 19.3261 13.9105 19.3831 13.9476C19.4401 13.9847 19.507 14.0021 19.574 13.9973C19.6388 13.9974 19.7021 13.9775 19.7559 13.9399C19.8097 13.9024 19.8515 13.849 19.8759 13.7866C19.9805 13.5481 19.9857 13.3054 19.8609 13.0735C19.7266 12.8242 19.4217 12.8116 19.2806 13.0555C19.2166 13.165 19.1958 13.3014 19.1557 13.424V13.4252Z" fill="#66788A"/>
<path d="M22.6385 13.4404C22.6385 13.2117 22.6426 12.983 22.6369 12.7542C22.6341 12.6482 22.6693 12.6113 22.7714 12.6136C23.0091 12.6193 23.247 12.6221 23.485 12.6136C23.6129 12.6084 23.6206 12.6747 23.6253 12.7791C23.6305 12.8992 23.5811 12.9263 23.4795 12.9221C23.3609 12.916 23.2415 12.9252 23.1227 12.9198C23.0338 12.9158 23.0036 12.9484 23.0027 13.043C23.0011 13.2683 22.997 13.2683 23.216 13.268C23.2892 13.2722 23.3625 13.2716 23.4356 13.2663C23.5701 13.2483 23.5967 13.3117 23.5912 13.4378C23.5868 13.5376 23.5586 13.5733 23.4633 13.5679C23.3494 13.5613 23.2347 13.5699 23.1205 13.5651C23.0412 13.5616 23.0025 13.5859 23.0036 13.6763C23.0074 14.0319 22.9827 13.9556 23.2673 13.9622C23.345 13.9642 23.423 13.9662 23.5004 13.9622C23.5973 13.9565 23.6651 13.9622 23.662 14.1006C23.6596 14.2309 23.6222 14.2752 23.4957 14.2704C23.2536 14.261 23.011 14.2632 22.7689 14.2704C22.6646 14.273 22.6349 14.2332 22.638 14.1274C22.6448 13.8987 22.6402 13.67 22.6402 13.4413L22.6385 13.4404Z" fill="#66788A"/>
<path d="M17.2695 12.6214C17.3851 12.6214 17.4891 12.6105 17.5899 12.6271C17.6266 12.6331 17.6694 12.6986 17.6829 12.7452C17.7856 13.1048 17.8813 13.4668 17.9848 13.847C18.0012 13.8126 18.0157 13.7772 18.0282 13.741C18.116 13.4265 18.2099 13.112 18.2859 12.7943C18.3208 12.6482 18.39 12.5976 18.5258 12.6174C18.5889 12.6213 18.6521 12.6213 18.7152 12.6174C18.6488 12.8289 18.5914 13.0176 18.531 13.2032C18.4322 13.5097 18.3271 13.8142 18.2341 14.1224C18.2008 14.233 18.147 14.2733 18.0373 14.2693C17.7282 14.2579 17.7825 14.3119 17.6851 13.9983C17.5546 13.5774 17.4249 13.1564 17.2959 12.7352C17.2868 12.7063 17.2816 12.6745 17.2695 12.6214Z" fill="#66788A"/>
<path d="M22.3484 13.9923C22.4337 14.221 22.4121 14.2633 22.1562 14.281C22.0292 14.2942 21.901 14.2901 21.775 14.2687C21.3594 14.183 21.142 13.8585 21.1681 13.3887C21.1759 13.1892 21.2532 12.9995 21.3856 12.8551C21.5179 12.7107 21.6963 12.6215 21.8873 12.6042C22.0099 12.5927 22.1335 12.5964 22.2553 12.6151C22.4178 12.6388 22.4288 12.6674 22.3824 12.8332C22.3725 12.8687 22.3569 12.9024 22.3448 12.9344C21.7725 12.879 21.5538 13.0122 21.5417 13.4222C21.5354 13.6352 21.5889 13.8425 21.7923 13.9174C21.9597 13.9794 22.1521 13.9688 22.3484 13.9923Z" fill="#66788A"/>
<path d="M15.45 13.4502C15.45 13.6789 15.4462 13.9077 15.4516 14.1364C15.4541 14.2376 15.4176 14.2756 15.3237 14.2671C15.2784 14.2628 15.2285 14.2776 15.1865 14.2625C15.1445 14.2473 15.0959 14.2053 15.0956 14.1767C15.0905 13.6863 15.0905 13.1958 15.0956 12.7051C15.0956 12.6766 15.1439 12.6268 15.1752 12.6217C15.4247 12.5805 15.4475 12.6031 15.4478 12.8655C15.4496 13.0601 15.4504 13.255 15.45 13.4502Z" fill="#66788A"/>
<path d="M20.9233 13.4485C20.9233 13.6772 20.9195 13.906 20.9253 14.1347C20.9277 14.2345 20.8948 14.2759 20.7995 14.2671C20.7543 14.2628 20.7027 14.2797 20.664 14.2625C20.6253 14.2453 20.5693 14.1976 20.569 14.1627C20.5629 13.6818 20.5629 13.2008 20.569 12.7197C20.569 12.6852 20.6239 12.6403 20.6648 12.6208C20.6983 12.6042 20.7471 12.6208 20.7866 12.6165C20.8964 12.6037 20.9307 12.65 20.9269 12.7632C20.9195 12.9919 20.9247 13.2207 20.9247 13.4494L20.9233 13.4485Z" fill="#66788A"/>
</g>
<defs>
<clipPath id="clip0">
<rect x="11.8184" y="10" width="18.1818" height="20" fill="white"/>
</clipPath>
</defs>
</svg>
