<svg width="59" height="15" viewBox="0 0 59 15" fill="none" xmlns="http://www.w3.org/2000/svg">
<path d="M25.768 11.118C26.092 11.118 26.388 11.056 26.656 10.932C26.924 10.808 27.16 10.638 27.364 10.422C27.568 10.202 27.734 9.94 27.862 9.636C27.994 9.332 28.082 9 28.126 8.64L28.768 3.402H29.89L29.248 8.64C29.188 9.132 29.058 9.59 28.858 10.014C28.658 10.434 28.402 10.8 28.09 11.112C27.778 11.42 27.416 11.662 27.004 11.838C26.592 12.014 26.14 12.102 25.648 12.102C25.16 12.102 24.73 12.014 24.358 11.838C23.99 11.662 23.688 11.42 23.452 11.112C23.216 10.8 23.05 10.434 22.954 10.014C22.862 9.59 22.846 9.132 22.906 8.64L23.542 3.402H24.664L24.022 8.634C23.978 8.994 23.984 9.326 24.04 9.63C24.096 9.934 24.198 10.196 24.346 10.416C24.494 10.636 24.686 10.808 24.922 10.932C25.162 11.056 25.444 11.118 25.768 11.118ZM31.6048 10.668C31.7568 10.88 31.9388 11.032 32.1508 11.124C32.3628 11.212 32.5788 11.256 32.7988 11.256C33.0068 11.256 33.2028 11.212 33.3868 11.124C33.5708 11.036 33.7388 10.918 33.8908 10.77C34.0428 10.618 34.1788 10.442 34.2988 10.242C34.4188 10.038 34.5188 9.822 34.5988 9.594C34.6828 9.362 34.7468 9.124 34.7908 8.88C34.8348 8.632 34.8568 8.388 34.8568 8.148C34.8568 7.672 34.7708 7.31 34.5988 7.062C34.4268 6.814 34.1848 6.69 33.8728 6.69C33.6808 6.69 33.4868 6.75 33.2908 6.87C33.0948 6.986 32.9048 7.15 32.7208 7.362C32.5408 7.574 32.3708 7.826 32.2108 8.118C32.0548 8.41 31.9188 8.73 31.8028 9.078L31.6048 10.668ZM31.9288 7.572C32.0808 7.308 32.2468 7.07 32.4268 6.858C32.6068 6.642 32.7968 6.458 32.9968 6.306C33.1968 6.154 33.4028 6.038 33.6148 5.958C33.8308 5.874 34.0508 5.832 34.2748 5.832C34.7948 5.832 35.1968 6.02 35.4808 6.396C35.7688 6.772 35.9128 7.322 35.9128 8.046C35.9128 8.374 35.8788 8.702 35.8108 9.03C35.7428 9.358 35.6448 9.672 35.5168 9.972C35.3928 10.268 35.2408 10.546 35.0608 10.806C34.8848 11.062 34.6868 11.286 34.4668 11.478C34.2508 11.666 34.0148 11.814 33.7588 11.922C33.5028 12.03 33.2348 12.084 32.9548 12.084C32.6548 12.084 32.3828 12.026 32.1388 11.91C31.8948 11.79 31.6868 11.622 31.5148 11.406L31.1908 14.058H30.1528L31.1428 5.916H31.6708C31.9108 5.916 32.0308 6.036 32.0308 6.276L31.9288 7.572ZM41.0346 7.248C40.8826 7.032 40.6986 6.882 40.4826 6.798C40.2706 6.71 40.0546 6.666 39.8346 6.666C39.5186 6.666 39.2346 6.76 38.9826 6.948C38.7306 7.136 38.5146 7.38 38.3346 7.68C38.1586 7.976 38.0226 8.308 37.9266 8.676C37.8306 9.044 37.7826 9.406 37.7826 9.762C37.7826 10.238 37.8666 10.602 38.0346 10.854C38.2066 11.102 38.4506 11.226 38.7666 11.226C38.9586 11.226 39.1526 11.166 39.3486 11.046C39.5446 10.926 39.7326 10.76 39.9126 10.548C40.0966 10.332 40.2666 10.078 40.4226 9.786C40.5826 9.494 40.7206 9.174 40.8366 8.826L41.0346 7.248ZM42.5826 3.162L41.4966 12H40.9386C40.7986 12 40.7046 11.964 40.6566 11.892C40.6086 11.82 40.5846 11.732 40.5846 11.628L40.6986 10.35C40.5466 10.614 40.3806 10.852 40.2006 11.064C40.0206 11.276 39.8306 11.458 39.6306 11.61C39.4346 11.762 39.2286 11.88 39.0126 11.964C38.8006 12.044 38.5846 12.084 38.3646 12.084C37.8446 12.084 37.4406 11.896 37.1526 11.52C36.8646 11.14 36.7206 10.59 36.7206 9.87C36.7206 9.542 36.7546 9.214 36.8226 8.886C36.8906 8.558 36.9866 8.244 37.1106 7.944C37.2386 7.644 37.3906 7.366 37.5666 7.11C37.7466 6.85 37.9466 6.626 38.1666 6.438C38.3866 6.25 38.6226 6.102 38.8746 5.994C39.1306 5.886 39.3986 5.832 39.6786 5.832C39.9786 5.832 40.2506 5.892 40.4946 6.012C40.7426 6.128 40.9526 6.294 41.1246 6.51L41.5386 3.162H42.5826ZM47.2602 6.666C47.1722 6.646 47.0842 6.634 46.9962 6.63C46.9122 6.622 46.8282 6.618 46.7442 6.618C46.5042 6.618 46.2722 6.658 46.0482 6.738C45.8242 6.814 45.6142 6.922 45.4182 7.062C45.2222 7.202 45.0442 7.37 44.8842 7.566C44.7242 7.758 44.5862 7.97 44.4702 8.202C44.3582 8.434 44.2702 8.682 44.2062 8.946C44.1422 9.206 44.1102 9.474 44.1102 9.75C44.1102 10.714 44.4182 11.196 45.0342 11.196C45.2302 11.196 45.4222 11.136 45.6102 11.016C45.7982 10.892 45.9762 10.722 46.1442 10.506C46.3162 10.286 46.4742 10.028 46.6182 9.732C46.7622 9.432 46.8902 9.104 47.0022 8.748L47.2602 6.666ZM46.8522 10.398C46.7082 10.654 46.5522 10.886 46.3842 11.094C46.2202 11.302 46.0442 11.48 45.8562 11.628C45.6722 11.772 45.4762 11.884 45.2682 11.964C45.0642 12.044 44.8522 12.084 44.6322 12.084C44.3922 12.084 44.1742 12.038 43.9782 11.946C43.7822 11.85 43.6142 11.712 43.4742 11.532C43.3382 11.348 43.2322 11.124 43.1562 10.86C43.0802 10.592 43.0422 10.286 43.0422 9.942C43.0422 9.582 43.0862 9.232 43.1742 8.892C43.2662 8.548 43.3942 8.224 43.5582 7.92C43.7262 7.616 43.9262 7.338 44.1582 7.086C44.3902 6.83 44.6482 6.61 44.9322 6.426C45.2202 6.238 45.5282 6.094 45.8562 5.994C46.1842 5.89 46.5282 5.838 46.8882 5.838C47.1482 5.838 47.4002 5.86 47.6442 5.904C47.8922 5.944 48.1362 6.016 48.3762 6.12L47.6502 12H47.0982C46.9582 12 46.8622 11.964 46.8102 11.892C46.7622 11.82 46.7382 11.732 46.7382 11.628L46.8522 10.398ZM49.7051 10.854C49.7051 10.83 49.7051 10.8 49.7051 10.764C49.7051 10.724 49.7071 10.668 49.7111 10.596C49.7191 10.524 49.7291 10.43 49.7411 10.314C49.7571 10.198 49.7771 10.046 49.8011 9.858L50.1731 6.816H49.4951C49.4391 6.816 49.3931 6.798 49.3571 6.762C49.3251 6.722 49.3131 6.662 49.3211 6.582L49.3691 6.156L50.3051 6.03L50.7611 4.152C50.7811 4.092 50.8111 4.044 50.8511 4.008C50.8951 3.968 50.9491 3.948 51.0131 3.948H51.5711L51.3131 6.042H52.9091L52.8191 6.816H51.2171L50.8511 9.804C50.8311 9.968 50.8151 10.1 50.8031 10.2C50.7911 10.3 50.7811 10.38 50.7731 10.44C50.7691 10.5 50.7651 10.542 50.7611 10.566C50.7611 10.59 50.7611 10.608 50.7611 10.62C50.7611 10.824 50.8091 10.976 50.9051 11.076C51.0011 11.172 51.1291 11.22 51.2891 11.22C51.3971 11.22 51.4891 11.206 51.5651 11.178C51.6451 11.146 51.7151 11.112 51.7751 11.076C51.8351 11.04 51.8851 11.008 51.9251 10.98C51.9651 10.948 51.9991 10.932 52.0271 10.932C52.0631 10.932 52.0891 10.94 52.1051 10.956C52.1251 10.972 52.1431 10.998 52.1591 11.034L52.3871 11.544C52.1911 11.716 51.9671 11.852 51.7151 11.952C51.4671 12.048 51.2171 12.096 50.9651 12.096C50.5771 12.096 50.2711 11.99 50.0471 11.778C49.8271 11.566 49.7131 11.258 49.7051 10.854ZM56.4401 6.606C56.1881 6.606 55.9561 6.658 55.7441 6.762C55.5321 6.866 55.3441 7.01 55.1801 7.194C55.0161 7.374 54.8761 7.588 54.7601 7.836C54.6441 8.08 54.5541 8.344 54.4901 8.628C55.1061 8.552 55.6001 8.466 55.9721 8.37C56.3441 8.27 56.6301 8.164 56.8301 8.052C57.0301 7.936 57.1621 7.812 57.2261 7.68C57.2901 7.548 57.3221 7.41 57.3221 7.266C57.3221 7.194 57.3061 7.12 57.2741 7.044C57.2421 6.964 57.1901 6.892 57.1181 6.828C57.0501 6.764 56.9601 6.712 56.8481 6.672C56.7361 6.628 56.6001 6.606 56.4401 6.606ZM58.1321 10.878C57.9281 11.09 57.7281 11.272 57.5321 11.424C57.3361 11.572 57.1361 11.696 56.9321 11.796C56.7321 11.896 56.5201 11.968 56.2961 12.012C56.0761 12.06 55.8381 12.084 55.5821 12.084C55.2341 12.084 54.9221 12.026 54.6461 11.91C54.3701 11.794 54.1361 11.63 53.9441 11.418C53.7521 11.202 53.6041 10.942 53.5001 10.638C53.3961 10.334 53.3441 9.994 53.3441 9.618C53.3441 9.306 53.3761 8.996 53.4401 8.688C53.5081 8.376 53.6041 8.08 53.7281 7.8C53.8561 7.52 54.0101 7.26 54.1901 7.02C54.3741 6.78 54.5821 6.574 54.8141 6.402C55.0501 6.226 55.3081 6.088 55.5881 5.988C55.8721 5.888 56.1761 5.838 56.5001 5.838C56.8081 5.838 57.0741 5.882 57.2981 5.97C57.5221 6.058 57.7061 6.17 57.8501 6.306C57.9941 6.442 58.1001 6.592 58.1681 6.756C58.2401 6.92 58.2761 7.076 58.2761 7.224C58.2761 7.488 58.2221 7.732 58.1141 7.956C58.0061 8.176 57.8081 8.376 57.5201 8.556C57.2321 8.732 56.8361 8.886 56.3321 9.018C55.8281 9.15 55.1801 9.256 54.3881 9.336C54.3881 9.38 54.3861 9.424 54.3821 9.468C54.3821 9.508 54.3821 9.55 54.3821 9.594C54.3821 10.13 54.4981 10.54 54.7301 10.824C54.9661 11.104 55.3201 11.244 55.7921 11.244C55.9841 11.244 56.1541 11.224 56.3021 11.184C56.4541 11.144 56.5881 11.096 56.7041 11.04C56.8241 10.98 56.9281 10.916 57.0161 10.848C57.1081 10.776 57.1901 10.712 57.2621 10.656C57.3381 10.596 57.4081 10.546 57.4721 10.506C57.5361 10.466 57.6001 10.446 57.6641 10.446C57.7401 10.446 57.8081 10.48 57.8681 10.548L58.1321 10.878Z" fill="#0CA2D9"/>
<path d="M4.7 6C5.1 4 6.9 2.5 9 2.5C10.5 2.5 11.7 3.2 12.5 4.3L14.2 2.3C13 0.9 11.1 0 9 0C5.5 0 2.6 2.6 2.1 6H0L3.5 10L7 6H4.7ZM14.5 4L11 8H13.3C12.8 10 11.1 11.5 9 11.5C7.5 11.5 6.3 10.8 5.5 9.7L3.8 11.6C5 13.1 6.9 14 9 14C12.5 14 15.4 11.4 15.9 8H18L14.5 4Z" fill="#0CA2D9"/>
</svg>
