<svg width="60" height="60" viewBox="0 0 60 60" fill="none" xmlns="http://www.w3.org/2000/svg">
<path d="M5 5.99805H18V7.99809H5V5.99805Z" fill="#29485A"/>
<path d="M5 9.99854H18V11.9986H5V9.99854Z" fill="#29485A"/>
<path d="M5 13.998H14V15.9981H5V13.998Z" fill="#29485A"/>
<path d="M5 17.998H14V19.9981H5V17.998Z" fill="#29485A"/>
<path d="M0 57.998H60V59.9981H0V57.998Z" fill="#29485A"/>
<path d="M4.08508 44.9979L3.91504 42.9978C24.812 41.1868 42.711 27.3028 49.66 7.51183L52.06 0.667969L53.948 1.32797L51.548 8.17195C44.3411 28.7089 25.769 43.1189 4.08508 44.9979Z" fill="#ED1C24"/>
<path d="M5.00049 48.998H12.0004V54.998H5.00049V48.998Z" fill="#ED1C24"/>
<path d="M16 45.998H23V54.998H16V45.998Z" fill="#FBB03B"/>
<path d="M27 40.998H34V54.9981H27V40.998Z" fill="#F8CF26"/>
<path d="M38 33.9976H45V54.9975H38V33.9976Z" fill="#39B54A"/>
<path d="M49 19.998H56V54.9981H49V19.998Z" fill="#0071BC"/>
<path d="M56.9996 9.99785C56.6187 9.99984 56.2697 9.78586 56.0996 9.44484L52.5477 2.3448L45.4467 5.89781C44.9528 6.14484 44.3517 5.94387 44.1047 5.4498C43.8577 4.95586 44.0586 4.3548 44.5527 4.10777L52.5527 0.107811C53.0467 -0.139221 53.6477 0.0608185 53.8948 0.554764V0.555818L57.8947 8.55586C58.1387 9.05086 57.9347 9.65086 57.4397 9.89484C57.3027 9.96175 57.1527 9.99785 56.9996 9.99785Z" fill="#ED1C24"/>
</svg>
