<svg width="40" height="40" viewBox="0 0 40 40" fill="none" xmlns="http://www.w3.org/2000/svg">
<path fill-rule="evenodd" clip-rule="evenodd" d="M20 40C31.0457 40 40 31.0457 40 20C40 8.9543 31.0457 0 20 0C8.9543 0 0 8.9543 0 20C0 31.0457 8.9543 40 20 40Z" fill="#2482DA"/>
<path d="M30.6647 21.782H30.6342C30.3191 20.8908 29.736 20.1188 28.965 19.572C28.1939 19.0251 27.2726 18.7301 26.3273 18.7275H18.6909C18.6909 18.3224 18.53 17.9339 18.2436 17.6475C17.9572 17.3611 17.5687 17.2002 17.1636 17.2002H15.6364C15.5013 17.2002 15.3719 17.2538 15.2764 17.3493C15.1809 17.4448 15.1273 17.5743 15.1273 17.7093V18.7275H14.1091C12.8964 18.7355 11.7356 19.2208 10.8781 20.0783C10.0206 20.9358 9.53528 22.0966 9.52727 23.3093H9.288C8.9464 23.3093 8.61879 23.445 8.37725 23.6865C8.1357 23.9281 8 24.2557 8 24.5973V26.3638C8 26.4989 8.05364 26.6283 8.14911 26.7238C8.24458 26.8193 8.37407 26.8729 8.50909 26.8729H9.76145L10.1433 27.4431C11.1202 28.9088 12.4964 30.0641 14.1091 30.7726V32.4729C14.1091 32.878 14.27 33.2664 14.5564 33.5529C14.8428 33.8393 15.2313 34.0002 15.6364 34.0002H16.6545C17.0596 34.0002 17.4481 33.8393 17.7345 33.5529C18.0209 33.2664 18.1818 32.878 18.1818 32.4729V30.9457H23.2727V32.4729C23.2727 32.878 23.4336 33.2664 23.7201 33.5529C24.0065 33.8393 24.3949 34.0002 24.8 34.0002H25.8182C26.2232 34.0002 26.6117 33.8393 26.8981 33.5529C27.1845 33.2664 27.3455 32.878 27.3455 32.4729V30.9457H27.4575C28.3725 30.9443 29.2496 30.5802 29.8966 29.9332C30.5437 29.2862 30.9077 28.409 30.9091 27.494V23.3093L31.4182 23.8184V24.3275H32.4364V23.5536C32.4364 23.0838 32.2497 22.6332 31.9175 22.3009C31.5852 21.9687 31.1346 21.782 30.6647 21.782ZM12.3375 22.8002C12.186 22.8022 12.0374 22.7592 11.9105 22.6765C11.7836 22.5938 11.6841 22.4753 11.6247 22.3359C11.5654 22.1966 11.5488 22.0427 11.5771 21.8939C11.6054 21.7451 11.6773 21.6081 11.7837 21.5003C11.8901 21.3925 12.0261 21.3187 12.1745 21.2884C12.3229 21.2581 12.477 21.2726 12.6171 21.3301C12.7572 21.3876 12.8771 21.4855 12.9615 21.6113C13.0458 21.7371 13.0909 21.8851 13.0909 22.0366C13.0909 22.2391 13.0105 22.4333 12.8672 22.5765C12.724 22.7197 12.5298 22.8002 12.3273 22.8002H12.3375ZM25.8182 21.782H19.2V20.7638H25.8182V21.782Z" fill="white"/>
<path d="M23.2721 7.01807H22.2539V9.56352H23.2721V7.01807Z" fill="white"/>
<path d="M20.2174 6H19.1992V11.6H20.2174V6Z" fill="white"/>
<path d="M26.3268 6H25.3086V9.05455H26.3268V6Z" fill="white"/>
<path d="M21.4897 17.7089C22.2319 17.7075 22.9433 17.4121 23.4682 16.8873C23.993 16.3625 24.2884 15.6511 24.2897 14.9089C24.2901 14.7759 24.2799 14.6431 24.2592 14.5118C24.1831 13.9803 23.9557 13.4819 23.6042 13.076C23.2527 12.6701 22.792 12.3738 22.2768 12.2224C21.7617 12.0711 21.2139 12.071 20.6987 12.2223C20.1835 12.3736 19.7227 12.6698 19.3711 13.0756C19.0196 13.4814 18.7921 13.9798 18.7159 14.5113C18.6396 15.0428 18.7178 15.585 18.9411 16.0733C19.1644 16.5616 19.5233 16.9754 19.9752 17.2654C20.4271 17.5554 20.9528 17.7093 21.4897 17.7089Z" fill="white"/>
<path d="M24.7633 14.4458C24.7862 14.5992 24.7981 14.754 24.7989 14.9091C24.7989 14.9804 24.7989 15.0466 24.7989 15.1128C25.2299 15.027 25.6314 14.8311 25.9642 14.5441C26.2971 14.2572 26.5499 13.889 26.6982 13.4753C26.8465 13.0616 26.8852 12.6166 26.8105 12.1835C26.7358 11.7505 26.5503 11.3441 26.2719 11.0041C25.9936 10.664 25.632 10.4018 25.2222 10.2429C24.8125 10.0841 24.3686 10.034 23.9338 10.0976C23.499 10.1612 23.088 10.3363 22.7409 10.6058C22.3938 10.8753 22.1224 11.2301 21.9531 11.6357C22.1785 11.6632 22.4003 11.7144 22.6149 11.7884C23.1828 11.991 23.6837 12.3462 24.0627 12.8151C24.4418 13.2839 24.6842 13.8482 24.7633 14.4458Z" fill="white"/>
</svg>
