<svg width="40" height="40" viewBox="0 0 40 40" fill="none" xmlns="http://www.w3.org/2000/svg">
<path fill-rule="evenodd" clip-rule="evenodd" d="M20 40C31.0457 40 40 31.0457 40 20C40 8.9543 31.0457 0 20 0C8.9543 0 0 8.9543 0 20C0 31.0457 8.9543 40 20 40Z" fill="#47B881"/>
<path d="M15.1146 8C14.255 8 13.4306 8.34148 12.8227 8.94932C12.2149 9.55715 11.8734 10.3816 11.8734 11.2412V12.5229H18.3491V11.2412C18.3491 10.3827 18.0085 9.55932 17.4021 8.95167C16.7957 8.34403 15.973 8.00177 15.1146 8V8ZM9.74714 13.2907C9.57734 13.2902 9.41298 13.3506 9.2838 13.4608C9.15462 13.571 9.06914 13.7238 9.04283 13.8915L7 28.5519C7.00786 29.0271 7.20172 29.4803 7.53997 29.8142C7.87823 30.1481 8.3339 30.336 8.80918 30.3377H15.8523L17.548 18.1675C17.5952 17.8599 17.7512 17.5796 17.9876 17.3774C18.2241 17.1753 18.5253 17.0647 18.8364 17.0659H21.627L21.1863 13.8915C21.16 13.7238 21.0746 13.571 20.9454 13.4608C20.8162 13.3506 20.6518 13.2902 20.482 13.2907H19.1235V15.2935C19.1235 15.3953 19.083 15.4929 19.0111 15.5649C18.9391 15.6369 18.8414 15.6773 18.7396 15.6773C18.6378 15.6773 18.5402 15.6369 18.4682 15.5649C18.3962 15.4929 18.3558 15.3953 18.3558 15.2935V14.0284L17.4345 14.8595V16.879C17.4353 16.9297 17.4259 16.98 17.407 17.027C17.3881 17.074 17.36 17.1167 17.3243 17.1527L14.3769 20.1068C14.2894 20.1948 14.1854 20.2647 14.0708 20.3123C13.9563 20.36 13.8334 20.3845 13.7093 20.3845C13.5852 20.3845 13.4624 20.36 13.3478 20.3123C13.2332 20.2647 13.1292 20.1948 13.0417 20.1068L11.4662 18.5313C11.3778 18.444 11.3076 18.3401 11.2597 18.2255C11.2118 18.1109 11.1871 17.9879 11.1871 17.8637C11.1871 17.7395 11.2118 17.6165 11.2597 17.5019C11.3076 17.3873 11.3778 17.2834 11.4662 17.1961L14.4236 14.2387C14.4595 14.2026 14.5021 14.1739 14.5491 14.1544C14.5961 14.135 14.6465 14.125 14.6973 14.1252H17.0339H17.064L18.0153 13.2907H11.8734V15.2935C11.8734 15.3953 11.833 15.4929 11.761 15.5649C11.689 15.6369 11.5914 15.6773 11.4896 15.6773C11.3878 15.6773 11.2901 15.6369 11.2181 15.5649C11.1461 15.4929 11.1057 15.3953 11.1057 15.2935V13.2907H9.74714ZM14.8576 14.8996L12.0069 17.7435C11.9747 17.7766 11.9567 17.8209 11.9567 17.867C11.9567 17.9132 11.9747 17.9575 12.0069 17.9905L13.5825 19.5661C13.6149 19.5981 13.6587 19.616 13.7043 19.616C13.7499 19.616 13.7937 19.5981 13.8261 19.5661L16.6801 16.7221V14.9096L14.8576 14.8996ZM15.4985 15.1399C15.7171 15.1405 15.9287 15.2169 16.0973 15.3561C16.2659 15.4953 16.381 15.6887 16.4229 15.9032C16.4649 16.1178 16.4311 16.3402 16.3274 16.5327C16.2237 16.7251 16.0565 16.8757 15.8542 16.9586C15.6519 17.0415 15.4272 17.0517 15.2182 16.9875C15.0092 16.9232 14.829 16.7885 14.7083 16.6062C14.5876 16.4239 14.5338 16.2055 14.5562 15.988C14.5785 15.7705 14.6756 15.5675 14.8309 15.4136C14.9185 15.326 15.0226 15.2567 15.1372 15.2098C15.2518 15.1628 15.3746 15.139 15.4985 15.1399ZM15.4985 15.9043C15.4521 15.9062 15.4081 15.9252 15.375 15.9577C15.3437 15.9906 15.3263 16.0342 15.3263 16.0796C15.3263 16.1249 15.3437 16.1685 15.375 16.2014C15.4083 16.2275 15.4501 16.2405 15.4925 16.238C15.5348 16.2354 15.5747 16.2174 15.6047 16.1875C15.6347 16.1575 15.6526 16.1176 15.6552 16.0752C15.6578 16.0329 15.6448 15.9911 15.6186 15.9577C15.5867 15.9254 15.5438 15.9063 15.4985 15.9043ZM18.8364 17.827C18.7093 17.827 18.5863 17.8724 18.4896 17.955C18.3929 18.0376 18.3289 18.152 18.309 18.2776L16.5966 30.568C16.6028 30.9499 16.7588 31.3141 17.0311 31.582C17.3034 31.8499 17.67 32 18.052 32H28.63C28.9979 31.9993 29.352 31.8596 29.6212 31.6089C29.8905 31.3582 30.0551 31.015 30.082 30.6481C29.9003 30.6027 29.7364 30.5038 29.6114 30.3644L26.8876 27.21C26.8544 27.1718 26.8293 27.1273 26.8138 27.0791C26.7983 27.0309 26.7927 26.98 26.7975 26.9296L26.971 24.6898L26.0264 23.5382C25.584 24.0942 24.9795 24.4985 24.2968 24.6953C23.6141 24.892 22.887 24.8713 22.2166 24.6361C21.5462 24.4009 20.9657 23.9628 20.5555 23.3827C20.1454 22.8025 19.9261 22.1091 19.9279 21.3986V19.6395C19.9279 19.5377 19.9684 19.4401 20.0404 19.3681C20.1124 19.2961 20.21 19.2556 20.3118 19.2556C20.4136 19.2556 20.5112 19.2961 20.5832 19.3681C20.6552 19.4401 20.6957 19.5377 20.6957 19.6395V21.3986C20.6584 21.7699 20.6994 22.1449 20.8159 22.4994C20.9325 22.8539 21.1221 23.18 21.3724 23.4568C21.6227 23.7335 21.9283 23.9547 22.2694 24.1061C22.6105 24.2575 22.9795 24.3357 23.3527 24.3357C23.7259 24.3357 24.0949 24.2575 24.436 24.1061C24.7771 23.9547 25.0826 23.7335 25.333 23.4568C25.5833 23.18 25.7729 22.8539 25.8895 22.4994C26.006 22.1449 26.047 21.7699 26.0097 21.3986V19.6395C26.0097 19.5377 26.0502 19.4401 26.1221 19.3681C26.1941 19.2961 26.2918 19.2556 26.3936 19.2556C26.4954 19.2556 26.593 19.2961 26.665 19.3681C26.737 19.4401 26.7774 19.5377 26.7774 19.6395V21.3986C26.7747 21.9013 26.6607 22.3972 26.4436 22.8506L27.6019 24.2459L29.2208 24.356L28.363 18.2776C28.3438 18.1517 28.2799 18.0369 28.1831 17.9542C28.0863 17.8715 27.9629 17.8263 27.8356 17.827H18.8364ZM27.7154 25.0236L27.5752 26.8228L30.1922 29.8537C30.2066 29.8708 30.2243 29.8849 30.2442 29.8952C30.2641 29.9055 30.2859 29.9117 30.3082 29.9136C30.3305 29.9155 30.353 29.9129 30.3743 29.906C30.3957 29.8992 30.4154 29.8882 30.4325 29.8737L32.1015 28.4217C32.1355 28.3917 32.157 28.35 32.1616 28.3049C32.1643 28.2585 32.1487 28.213 32.1182 28.178L29.5012 25.1471L27.7154 25.0236ZM28.8103 25.3307H28.8603C29.1091 25.3396 29.3442 25.4469 29.5138 25.6291C29.6834 25.8112 29.7738 26.0533 29.7649 26.3021C29.7561 26.5508 29.6488 26.7859 29.4666 26.9556C29.2844 27.1252 29.0423 27.2155 28.7936 27.2067H28.7235C28.4747 27.1952 28.2407 27.0853 28.0729 26.9013C27.9052 26.7172 27.8174 26.4741 27.8289 26.2253C27.8404 25.9765 27.9503 25.7425 28.1343 25.5748C28.3183 25.407 28.5615 25.3192 28.8103 25.3307ZM28.8103 26.0985C28.7878 26.0964 28.7651 26.0992 28.7438 26.1067C28.7225 26.1142 28.703 26.1262 28.6868 26.1419C28.6629 26.1656 28.6466 26.196 28.64 26.229C28.6334 26.2621 28.6367 26.2963 28.6496 26.3275C28.6625 26.3586 28.6843 26.3852 28.7123 26.404C28.7403 26.4227 28.7732 26.4327 28.8069 26.4327C28.8406 26.4327 28.8736 26.4227 28.9016 26.404C28.9296 26.3852 28.9514 26.3586 28.9643 26.3275C28.9771 26.2963 28.9805 26.2621 28.9738 26.229C28.9672 26.196 28.951 26.1656 28.9271 26.1419C28.9105 26.1267 28.891 26.115 28.8698 26.1076C28.8485 26.1001 28.826 26.097 28.8036 26.0985H28.8103Z" fill="white"/>
</svg>
