<svg width="16" height="17" viewBox="0 0 16 17" fill="none" xmlns="http://www.w3.org/2000/svg">
<path d="M15.1615 0.39933L15.6003 0.838147C16.205 1.44356 16.1135 2.51681 15.3943 3.23528L6.34499 12.2846L3.4131 13.3571C3.04494 13.4924 2.68645 13.3169 2.61356 12.9666C2.58893 12.8395 2.60053 12.7081 2.64703 12.5873L3.74035 9.6301L12.7644 0.605351C13.4836 -0.113118 14.5568 -0.205344 15.1615 0.400074V0.39933ZM5.95005 1.29928C6.04773 1.29928 6.14444 1.31851 6.23468 1.35589C6.32491 1.39327 6.4069 1.44805 6.47597 1.51712C6.54503 1.58618 6.59982 1.66817 6.6372 1.75841C6.67457 1.84865 6.69381 1.94536 6.69381 2.04303C6.69381 2.1407 6.67457 2.23742 6.6372 2.32766C6.59982 2.41789 6.54503 2.49988 6.47597 2.56895C6.4069 2.63801 6.32491 2.6928 6.23468 2.73017C6.14444 2.76755 6.04773 2.78679 5.95005 2.78679H2.97503C2.58051 2.78679 2.20216 2.94351 1.9232 3.22247C1.64423 3.50144 1.48751 3.87979 1.48751 4.2743V13.1994C1.48751 13.5939 1.64423 13.9723 1.9232 14.2512C2.20216 14.5302 2.58051 14.6869 2.97503 14.6869H11.9001C12.2946 14.6869 12.673 14.5302 12.9519 14.2512C13.2309 13.9723 13.3876 13.5939 13.3876 13.1994V10.2244C13.3876 10.0271 13.466 9.83792 13.6055 9.69844C13.7449 9.55896 13.9341 9.4806 14.1314 9.4806C14.3286 9.4806 14.5178 9.55896 14.6573 9.69844C14.7968 9.83792 14.8751 10.0271 14.8751 10.2244V13.1994C14.8751 13.9884 14.5617 14.7451 14.0038 15.303C13.4458 15.861 12.6891 16.1744 11.9001 16.1744H2.97503C2.186 16.1744 1.42929 15.861 0.871365 15.303C0.313439 14.7451 0 13.9884 0 13.1994V4.2743C0 3.48528 0.313439 2.72857 0.871365 2.17064C1.42929 1.61272 2.186 1.29928 2.97503 1.29928H5.95005Z" fill="#0CA2D9"/>
</svg>
