<svg width="64" height="64" viewBox="0 0 64 64" fill="none" xmlns="http://www.w3.org/2000/svg">
<path fill-rule="evenodd" clip-rule="evenodd" d="M32 64C49.6731 64 64 49.6731 64 32C64 14.3269 49.6731 0 32 0C14.3269 0 0 14.3269 0 32C0 49.6731 14.3269 64 32 64Z" fill="#EC8C47"/>
<path d="M37.2033 23.4068H27.7965C27.4504 23.4068 27.1694 23.1258 27.1694 22.7797V19.3304C27.1692 16.3912 29.5604 14 32.4999 14C35.4393 14 37.8303 16.3912 37.8303 19.3304V22.7795C37.8303 23.1258 37.5494 23.4068 37.2033 23.4068ZM28.4235 22.1525H36.576V19.3304C36.576 17.0829 34.7474 15.2541 32.4997 15.2541C30.252 15.2541 28.4235 17.0829 28.4235 19.3304V22.1525Z" fill="black"/>
<path d="M46.2964 25.9153H18.7031L20.5845 22.7798H44.415L46.2964 25.9153Z" fill="#8C6B3B"/>
<path d="M46.2961 26.5425H18.7029C18.4767 26.5425 18.2686 26.4208 18.1572 26.2243C18.0459 26.0277 18.0486 25.7866 18.1651 25.5924L20.0465 22.4568C20.1596 22.2677 20.3638 22.1523 20.5842 22.1523H44.4148C44.6352 22.1523 44.8394 22.2677 44.9525 22.4568L46.8339 25.5924C46.9502 25.7863 46.9531 26.0277 46.8418 26.2243C46.7304 26.4207 46.5221 26.5425 46.2961 26.5425ZM19.8104 25.2882H45.1886L44.0598 23.4068H20.9396L19.8104 25.2882Z" fill="black"/>
<path d="M32.4852 27.2978L41.0337 29.2969L43.1755 20.1379L34.6271 18.1388L32.4852 27.2978Z" fill="#83D816"/>
<path d="M41.0344 29.9266C40.987 29.9266 40.939 29.9213 40.8907 29.9101L32.3418 27.9106C32.1797 27.8726 32.0396 27.7722 31.9517 27.6306C31.8639 27.4895 31.836 27.319 31.874 27.1571L34.0166 17.9978C34.0953 17.6605 34.4324 17.4503 34.7701 17.5301L43.319 19.5296C43.4811 19.5676 43.6213 19.6679 43.7091 19.8096C43.7969 19.9507 43.8248 20.1212 43.7868 20.283L41.6442 29.4423C41.5768 29.7317 41.3188 29.9266 41.0344 29.9266ZM33.238 26.8321L40.5659 28.5461L42.4225 20.6084L35.0945 18.8944L33.238 26.8321Z" fill="black"/>
<path d="M22.4772 29.0105L32.9663 27.7705L31.6377 16.532L21.1486 17.772L22.4772 29.0105Z" fill="#2A8EE6"/>
<path d="M22.4761 29.6381C22.1625 29.6381 21.8918 29.4035 21.854 29.0843L20.5258 17.8464C20.4854 17.5024 20.7312 17.1906 21.0748 17.1499L31.5637 15.9101C31.7296 15.8906 31.8948 15.9376 32.0256 16.0405C32.1564 16.1434 32.2408 16.2942 32.2602 16.4594L33.5884 27.6977C33.6079 27.8627 33.5612 28.0292 33.4579 28.1596C33.355 28.2904 33.2042 28.3748 33.0394 28.3942L22.5505 29.6337C22.5253 29.6364 22.5005 29.6381 22.4761 29.6381ZM21.8448 18.322L23.026 28.3145L32.2694 27.2224L31.0882 17.2296L21.8448 18.322Z" fill="black"/>
<path d="M28.3914 33.7093L38.4951 31.2798L35.9383 20.6468L25.8346 23.0763L28.3914 33.7093Z" fill="#ED5481"/>
<path d="M28.39 34.3362C28.1069 34.3362 27.8496 34.1432 27.7808 33.8557L25.224 23.2233C25.1432 22.8865 25.3504 22.5479 25.6872 22.4671L35.7897 20.0377C35.9521 19.9991 36.1221 20.0261 36.2637 20.1123C36.4054 20.1992 36.507 20.339 36.5459 20.5005L39.1027 31.1333C39.1416 31.2951 39.1146 31.4656 39.0277 31.6073C38.9408 31.7493 38.8014 31.8505 38.6395 31.8895L28.537 34.3187C28.4879 34.3308 28.4383 34.3362 28.39 34.3362ZM26.5898 23.5397L28.8533 32.9531L37.7365 30.8171L35.473 21.4039L26.5898 23.5397Z" fill="black"/>
<path d="M47.5504 50.3726H17.4487L18.7028 25.915H46.2961L47.5504 50.3726Z" fill="white"/>
<path d="M47.5505 50.9998H17.4489C17.2771 50.9998 17.1127 50.9292 16.9942 50.8047C16.876 50.6801 16.8139 50.5122 16.8226 50.3406L18.0769 25.883C18.0941 25.5497 18.3694 25.2881 18.7034 25.2881H46.2966C46.6306 25.2881 46.9058 25.5495 46.9231 25.883L48.1774 50.3406C48.1862 50.5124 48.1241 50.6801 48.0058 50.8047C47.8866 50.9292 47.7223 50.9998 47.5505 50.9998ZM18.1088 49.7455H46.8904L45.7004 26.5422H19.2988L18.1088 49.7455Z" fill="black"/>
<path d="M37.203 30.9324C37.8958 30.9324 38.4573 30.3709 38.4573 29.6781C38.4573 28.9854 37.8958 28.4238 37.203 28.4238C36.5103 28.4238 35.9487 28.9854 35.9487 29.6781C35.9487 30.3709 36.5103 30.9324 37.203 30.9324Z" fill="#8C6B3B"/>
<path d="M37.2031 31.5591C36.1656 31.5591 35.3218 30.7152 35.3218 29.6777C35.3218 28.6402 36.1656 27.7964 37.2031 27.7964C38.2406 27.7964 39.0845 28.6402 39.0845 29.6777C39.0845 30.7152 38.2406 31.5591 37.2031 31.5591ZM37.2031 29.0507C36.8574 29.0507 36.5761 29.332 36.5761 29.6777C36.5761 30.0235 36.8574 30.3048 37.2031 30.3048C37.5489 30.3048 37.8302 30.0235 37.8302 29.6777C37.8302 29.332 37.5489 29.0507 37.2031 29.0507Z" fill="black"/>
<path d="M27.7963 30.9324C28.489 30.9324 29.0506 30.3709 29.0506 29.6781C29.0506 28.9854 28.489 28.4238 27.7963 28.4238C27.1036 28.4238 26.542 28.9854 26.542 29.6781C26.542 30.3709 27.1036 30.9324 27.7963 30.9324Z" fill="#8C6B3B"/>
<path d="M27.7964 31.5591C26.7589 31.5591 25.915 30.7152 25.915 29.6777C25.915 28.6402 26.7589 27.7964 27.7964 27.7964C28.8339 27.7964 29.6777 28.6402 29.6777 29.6777C29.6777 30.7152 28.8339 31.5591 27.7964 31.5591ZM27.7964 29.0507C27.4506 29.0507 27.1693 29.332 27.1693 29.6777C27.1693 30.0235 27.4506 30.3048 27.7964 30.3048C28.1422 30.3048 28.4234 30.0235 28.4234 29.6777C28.4234 29.332 28.1422 29.0507 27.7964 29.0507Z" fill="black"/>
<path d="M32.4999 39.0848C29.5606 39.0848 27.1694 36.6936 27.1694 33.7544V30.3053C27.1694 29.9591 27.4504 29.6782 27.7965 29.6782C28.1426 29.6782 28.4235 29.9591 28.4235 30.3053V33.7544C28.4235 36.0019 30.2522 37.8307 32.4999 37.8307C34.7476 37.8307 36.5762 36.0021 36.5762 33.7544V30.5471C36.5448 30.4728 36.5279 30.3909 36.5279 30.3053C36.5279 29.9591 36.8088 29.6782 37.1549 29.6782H37.2033C37.5494 29.6782 37.8303 29.9591 37.8303 30.3053V33.7544C37.8303 36.6936 35.4391 39.0848 32.4999 39.0848Z" fill="black"/>
</svg>
