<svg width="143" height="195" viewBox="0 0 143 195" fill="none" xmlns="http://www.w3.org/2000/svg">
<g style="mix-blend-mode:multiply" opacity="0.69">
<path d="M142 192C142 190.344 117.596 189 87.4963 189C57.3967 189 32.9982 190.344 33 192C33.0018 193.656 57.404 195 87.5037 195C117.603 195 142.002 193.656 142 192Z" fill="black" fill-opacity="0.13"/>
</g>
<g style="mix-blend-mode:multiply" opacity="0.31">
<path d="M131.204 158.68V155.902H131.223V27.367C131.223 19.743 126.353 13.5623 120.344 13.5623H118.851C112.843 13.5623 102.987 19.743 102.987 27.367H67.4953V76.1914H37.3242V158.68C37.3242 166.304 44.1372 172.485 52.5395 172.485H142.472C134.07 172.487 131.204 166.306 131.204 158.68Z" fill="#93C9C1"/>
</g>
<path d="M17.3165 145.456L117.974 145.443C119.484 145.443 120.708 144.275 120.708 142.823V27.3648C120.708 19.7408 125.348 13.5601 133.78 13.5601H29.8253C21.3938 13.5601 14.5586 19.7408 14.5586 27.3648V142.823C14.5633 144.279 15.7961 145.456 17.3165 145.456Z" fill="#F0F0F0"/>
<path d="M91.4657 116.708H56.4391C56.257 116.709 56.0766 116.673 55.9082 116.604C55.7397 116.535 55.5867 116.433 55.4577 116.304C55.3287 116.176 55.2264 116.023 55.1566 115.855C55.0867 115.687 55.0508 115.507 55.0508 115.324C55.0506 115.142 55.0865 114.962 55.1562 114.793C55.2259 114.625 55.3282 114.472 55.4572 114.343C55.5862 114.214 55.7393 114.112 55.9078 114.043C56.0763 113.974 56.2568 113.938 56.4391 113.938H91.4692C91.8363 113.939 92.1882 114.085 92.4477 114.344C92.7071 114.604 92.8528 114.956 92.8528 115.323C92.853 115.505 92.8172 115.686 92.7475 115.854C92.6778 116.022 92.5756 116.175 92.4468 116.304C92.3179 116.432 92.1649 116.534 91.9965 116.604C91.8282 116.673 91.6478 116.709 91.4657 116.708Z" fill="#A3BBC4"/>
<path d="M105.488 106.348H56.4356C55.6708 106.348 55.0508 106.968 55.0508 107.733C55.0508 108.497 55.6708 109.117 56.4356 109.117H105.488C106.253 109.117 106.873 108.497 106.873 107.733C106.873 106.968 106.253 106.348 105.488 106.348Z" fill="#A3BBC4"/>
<path d="M49.3237 124.503H27.7852V102.964H49.3237V124.503ZM30.3771 121.915H46.7376V105.555H30.3771V121.915Z" fill="#A3BBC4"/>
<path d="M37.9972 118.628L32.6719 114.321L34.6515 112.174L37.7051 114.643L43.0526 108.838L45.3244 110.675L37.9972 118.628Z" fill="#C3D82E"/>
<path d="M49.3237 124.503H27.7852V102.964H49.3237V124.503ZM30.3771 121.915H46.7376V105.555H30.3771V121.915Z" fill="#A3BBC4"/>
<path d="M37.9972 118.628L32.6719 114.321L34.6515 112.174L37.7051 114.643L43.0526 108.838L45.3244 110.675L37.9972 118.628Z" fill="#C3D82E"/>
<path d="M105.484 77.2164H56.4356C56.0683 77.2164 55.7161 77.0705 55.4564 76.8108C55.1967 76.5511 55.0508 76.1988 55.0508 75.8316C55.0508 75.4643 55.1967 75.1121 55.4564 74.8524C55.7161 74.5927 56.0683 74.4468 56.4356 74.4468H105.488C105.855 74.4471 106.207 74.5931 106.467 74.8527C106.726 75.1123 106.872 75.4644 106.873 75.8316C106.872 76.0137 106.836 76.194 106.767 76.3621C106.697 76.5303 106.594 76.6831 106.465 76.8117C106.337 76.9403 106.184 77.0422 106.015 77.1116C105.847 77.1811 105.666 77.2167 105.484 77.2164Z" fill="#A3BBC4"/>
<path d="M105.488 84.806H56.4391C56.2569 84.8065 56.0765 84.771 55.9081 84.7016C55.7397 84.6322 55.5866 84.5303 55.4576 84.4016C55.3287 84.273 55.2263 84.1202 55.1565 83.9519C55.0867 83.7837 55.0508 83.6033 55.0508 83.4212C55.0508 83.239 55.0867 83.0587 55.1565 82.8904C55.2263 82.7222 55.3287 82.5694 55.4576 82.4407C55.5866 82.3121 55.7397 82.2102 55.9081 82.1408C56.0765 82.0714 56.2569 82.0359 56.4391 82.0364H105.491C105.859 82.0367 106.211 82.1827 106.47 82.4423C106.73 82.702 106.876 83.054 106.876 83.4212C106.876 83.6033 106.84 83.7836 106.77 83.9518C106.7 84.1199 106.598 84.2727 106.469 84.4013C106.34 84.5299 106.187 84.6318 106.019 84.7013C105.85 84.7707 105.67 84.8063 105.488 84.806Z" fill="#A3BBC4"/>
<path d="M86.8369 92.3961H56.4391C56.2574 92.3968 56.0774 92.3616 55.9093 92.2926C55.7411 92.2236 55.5883 92.1222 55.4594 91.9942C55.3304 91.8661 55.228 91.7139 55.1579 91.5463C55.0878 91.3787 55.0514 91.1989 55.0508 91.0172C55.05 90.8346 55.0854 90.6537 55.1549 90.4848C55.2244 90.316 55.3266 90.1625 55.4556 90.0334C55.5847 89.9042 55.738 89.8019 55.9068 89.7322C56.0756 89.6626 56.2565 89.6271 56.4391 89.6277H86.8404C87.0227 89.6275 87.2032 89.6634 87.3716 89.7332C87.54 89.8031 87.6929 89.9055 87.8216 90.0346C87.9503 90.1637 88.0522 90.317 88.1214 90.4856C88.1907 90.6542 88.2259 90.8349 88.2252 91.0172C88.2246 91.1989 88.1882 91.3787 88.1181 91.5463C88.048 91.7139 87.9455 91.8661 87.8166 91.9942C87.6877 92.1222 87.5348 92.2236 87.3667 92.2926C87.1986 92.3616 87.0186 92.3968 86.8369 92.3961Z" fill="#A3BBC4"/>
<path d="M49.3237 94.4605H27.7852V72.9219H49.3237V94.4605ZM30.3771 91.8732H46.7376V75.5127H30.3771V91.8732Z" fill="#A3BBC4"/>
<path d="M49.3237 94.4605H27.7852V72.9219H49.3237V94.4605ZM30.3771 91.8732H46.7376V75.5127H30.3771V91.8732Z" fill="#A3BBC4"/>
<path d="M37.9972 88.5855L32.6719 84.2792L34.6515 82.1313L37.7051 84.6006L43.0526 78.7961L45.3244 80.6332L37.9972 88.5855Z" fill="#C3D82E"/>
<path d="M105.484 54.69H56.4356C56.0683 54.69 55.7161 54.5441 55.4564 54.2844C55.1967 54.0247 55.0508 53.6725 55.0508 53.3052C55.0508 52.9379 55.1967 52.5857 55.4564 52.326C55.7161 52.0663 56.0683 51.9204 56.4356 51.9204H105.488C105.855 51.9207 106.207 52.0667 106.467 52.3263C106.726 52.586 106.872 52.938 106.873 53.3052C106.872 53.4873 106.836 53.6676 106.767 53.8358C106.697 54.0039 106.594 54.1567 106.465 54.2853C106.337 54.4139 106.184 54.5158 106.015 54.5853C105.847 54.6547 105.666 54.6903 105.484 54.69Z" fill="#A3BBC4"/>
<path d="M105.488 44.3303H56.4356C55.6708 44.3303 55.0508 44.9501 55.0508 45.7145C55.0508 46.479 55.6708 47.0987 56.4356 47.0987H105.488C106.253 47.0987 106.873 46.479 106.873 45.7145C106.873 44.9501 106.253 44.3303 105.488 44.3303Z" fill="#A3BBC4"/>
<path d="M49.3237 64.4724H27.7852V42.9326H49.3237V64.4724ZM30.3771 61.8839H46.7376V45.5234H30.3771V61.8839Z" fill="#A3BBC4"/>
<path d="M49.3237 64.4724H27.7852V42.9326H49.3237V64.4724ZM30.3771 61.8839H46.7376V45.5234H30.3771V61.8839Z" fill="#A3BBC4"/>
<path d="M37.9972 58.5966L32.6719 54.2914L34.6515 52.1424L37.7051 54.6116L43.0526 48.8083L45.3244 50.6442L37.9972 58.5966Z" fill="#C3D82E"/>
<path d="M12.4201 10.0773C12.4232 10.2433 12.3895 10.4078 12.3214 10.5592C12.2533 10.7105 12.1525 10.8449 12.0263 10.9526C11.5016 11.3944 10.6508 11.2763 10.1261 10.6897L5.19343 5.17853C4.6699 4.59423 4.6699 3.75985 5.19343 3.31811C5.71697 2.87638 6.57005 2.99441 7.09475 3.58105L12.0263 9.09804C12.2727 9.36542 12.4128 9.71376 12.4201 10.0773Z" fill="#A3BBC4"/>
<path d="M19.3753 1.51493V7.48767C19.3753 8.21455 18.7735 8.72056 18.0314 8.61772C17.2893 8.51488 16.6875 7.84293 16.6875 7.11606V1.14331C16.6875 0.416438 17.2893 -0.0895662 18.0314 0.0132711C18.7735 0.116108 19.3753 0.788054 19.3753 1.51493Z" fill="#A3BBC4"/>
<path d="M8.78908 16.387C8.78908 17.1127 8.18725 17.6187 7.44519 17.5158L1.3439 16.6709C0.601832 16.5681 0 15.8961 0 15.1693C0 14.4424 0.601832 13.9376 1.3439 14.0404L7.44519 14.8853C8.18725 14.9881 8.78908 15.6601 8.78908 16.387Z" fill="#A3BBC4"/>
<path d="M108.702 177.143C125.611 177.143 139.319 162.685 139.319 144.849C139.319 127.014 125.611 112.556 108.702 112.556C91.7933 112.556 78.0859 127.014 78.0859 144.849C78.0859 162.685 91.7933 177.143 108.702 177.143Z" fill="#86B026"/>
<path d="M105.511 177.143C122.42 177.143 136.127 162.685 136.127 144.849C136.127 127.014 122.42 112.556 105.511 112.556C88.6019 112.556 74.8945 127.014 74.8945 144.849C74.8945 162.685 88.6019 177.143 105.511 177.143Z" fill="#A4D72E"/>
<path d="M88.2823 141.719L88.273 141.728C86.2267 143.752 86.2267 147.178 88.273 149.207L97.7959 158.624C98.2345 159.067 98.7572 159.418 99.3334 159.656C99.9095 159.894 100.528 160.014 101.151 160.01C101.774 160.005 102.391 159.876 102.963 159.63C103.536 159.384 104.054 159.026 104.486 158.577L125.075 137.659C127.077 135.625 127.054 132.238 125.027 130.234C124.587 129.789 124.062 129.438 123.484 129.2C122.906 128.962 122.286 128.842 121.66 128.848C121.035 128.854 120.418 128.986 119.844 129.235C119.27 129.484 118.753 129.845 118.321 130.298L102.212 146.814C102.076 146.957 101.912 147.071 101.731 147.149C101.55 147.228 101.354 147.27 101.157 147.271C100.959 147.273 100.763 147.235 100.581 147.16C100.398 147.085 100.232 146.974 100.093 146.834L94.9247 141.723C94.4903 141.284 93.9733 140.935 93.4034 140.697C92.8335 140.459 92.2221 140.336 91.6045 140.336C90.9868 140.335 90.3752 140.457 89.805 140.695C89.2348 140.932 88.7172 141.28 88.2823 141.719Z" fill="white"/>
</svg>
