<svg width="40" height="40" viewBox="0 0 40 40" fill="none" xmlns="http://www.w3.org/2000/svg">
<path fill-rule="evenodd" clip-rule="evenodd" d="M20 40C31.0457 40 40 31.0457 40 20C40 8.9543 31.0457 0 20 0C8.9543 0 0 8.9543 0 20C0 31.0457 8.9543 40 20 40Z" fill="#FFA290"/>
<path d="M31.7971 14.8466C31.551 14.5458 31.1956 14.3545 30.7855 14.3545H28.1609C28.489 15.3114 28.3249 16.3776 27.6688 17.1978L24.5247 21.2987C23.9506 22.0642 23.0484 22.5017 22.0915 22.5017C21.1346 22.5017 20.2597 22.0642 19.6583 21.2987L16.5142 17.1978C15.8854 16.3776 15.694 15.3114 16.0221 14.3545H13.6982L13.0967 11.8939C12.96 11.3198 12.4406 10.937 11.8391 10.937H8.28496C7.60147 10.937 7 11.5111 7 12.222C7 12.9328 7.57413 13.5069 8.28496 13.5069H10.8275L11.429 15.9402C11.429 15.9675 11.4564 15.9948 11.4564 16.0222L13.9989 26.1379C14.1356 26.712 14.6551 27.0947 15.2566 27.0947H28.3249C28.9264 27.0947 29.4185 26.6846 29.5825 26.1379L32.0431 15.9675C32.1251 15.5574 32.0431 15.1473 31.7971 14.8466Z" fill="white"/>
<path d="M17.0348 32.9998C18.2881 32.9998 19.304 31.9839 19.304 30.7306C19.304 29.4774 18.2881 28.4614 17.0348 28.4614C15.7816 28.4614 14.7656 29.4774 14.7656 30.7306C14.7656 31.9839 15.7816 32.9998 17.0348 32.9998Z" fill="white"/>
<path d="M25.945 32.9998C27.1982 32.9998 28.2142 31.9839 28.2142 30.7306C28.2142 29.4774 27.1982 28.4614 25.945 28.4614C24.6917 28.4614 23.6758 29.4774 23.6758 30.7306C23.6758 31.9839 24.6917 32.9998 25.945 32.9998Z" fill="white"/>
<path d="M21.3544 19.9863C21.7372 20.4784 22.448 20.4784 22.8308 19.9863L26.0022 15.8854C26.4669 15.2839 26.0295 14.3817 25.264 14.3817H23.6509V7.54679C23.6509 7.24606 23.4049 7 23.1042 7H21.0537C20.7529 7 20.5069 7.24606 20.5069 7.54679V14.3817H18.8938C18.1283 14.3817 17.6909 15.2839 18.1557 15.8854L21.3544 19.9863Z" fill="white"/>
</svg>
