<svg width="10" height="10" viewBox="0 0 10 10" fill="none" xmlns="http://www.w3.org/2000/svg">
<path d="M4.5 0.025V1.031C3.49136 1.15934 2.56943 1.66693 1.92159 2.45061C1.27376 3.23428 0.94864 4.23523 1.01231 5.25001C1.07598 6.2648 1.52367 7.21726 2.26437 7.91381C3.00508 8.61036 3.98322 8.99874 5 9C5.97431 8.99998 6.91512 8.64441 7.64587 8C8.37663 7.35559 8.84711 6.46665 8.969 5.5H9.9755C9.7245 8.0265 7.5925 10 5 10C2.2385 10 0 7.7615 0 5C0 2.4075 1.9735 0.2755 4.5 0.025ZM9 1.707L5 5.707L4.293 5L8.293 1H6V0H10V4H9V1.707Z" fill="#333333"/>
</svg>
