<svg width="16" height="16" viewBox="0 0 16 16" fill="none" xmlns="http://www.w3.org/2000/svg">
<path d="M0.8 16C0.587827 16 0.384344 15.9157 0.234315 15.7657C0.0842856 15.6157 0 15.4122 0 15.2V0.8C0 0.587827 0.0842856 0.384344 0.234315 0.234315C0.384344 0.0842854 0.587827 0 0.8 0H12C12.2122 0 12.4157 0.0842854 12.5657 0.234315C12.7157 0.384344 12.8 0.587827 12.8 0.8V3.2H11.2V1.6H1.6V14.4H11.2V12.8H12.8V15.2C12.8 15.4122 12.7157 15.6157 12.5657 15.7657C12.4157 15.9157 12.2122 16 12 16H0.8ZM11.2 11.2V8.8H5.6V7.2H11.2V4.8L15.2 8L11.2 11.2Z" fill="#878787"/>
</svg>
