<svg width="16" height="16" viewBox="0 0 16 16" fill="none" xmlns="http://www.w3.org/2000/svg">
<path fill-rule="evenodd" clip-rule="evenodd" d="M1.58594 8.00099C2.41394 8.00099 2.96494 7.44999 2.96494 6.62199L2.96094 6.18699C2.96094 6.18699 2.75594 4.95399 4.40094 4.95399L11.0619 4.99999V6.75899C11.2174 6.91349 11.4277 7.0002 11.6469 7.0002C11.8661 7.0002 12.0764 6.91349 12.2319 6.75899L14.8049 4.18699C14.9594 4.03149 15.0461 3.82119 15.0461 3.60199C15.0461 3.38279 14.9594 3.17249 14.8049 3.01699L12.2319 0.29199C12.0764 0.137493 11.8661 0.0507813 11.6469 0.0507813C11.4277 0.0507812 11.2174 0.137493 11.0619 0.29199V2.13699C10.9009 2.08999 4.60894 2.06299 4.60894 2.06299C0.897937 2.06299 0.0859375 4.49199 0.0859375 5.46999V6.50099C0.0859375 6.89881 0.243973 7.28035 0.525277 7.56165C0.806582 7.84295 1.18811 8.00099 1.58594 8.00099Z" fill="#333333"/>
<path fill-rule="evenodd" clip-rule="evenodd" d="M13.5472 8.04199C12.7192 8.04199 12.0472 8.62599 12.0472 9.45399L12.0492 10.411C12.0042 10.768 11.4042 11.001 10.5242 11.001H3.98521L3.98321 9.44199C3.82771 9.2875 3.61741 9.20078 3.39821 9.20078C3.17901 9.20078 2.96871 9.2875 2.81321 9.44199L0.241209 12.014C0.0867118 12.1695 0 12.3798 0 12.599C0 12.8182 0.0867118 13.0285 0.241209 13.184L2.81321 15.756C2.88994 15.833 2.98112 15.8941 3.0815 15.9357C3.18189 15.9774 3.28952 15.9989 3.39821 15.9989C3.5069 15.9989 3.61453 15.9774 3.71491 15.9357C3.8153 15.8941 3.90647 15.833 3.98321 15.756L3.98521 13.905H10.5242C14.2352 13.905 15.0472 11.463 15.0472 10.484V9.45299C15.0472 8.62599 14.3752 8.04199 13.5472 8.04199Z" fill="#333333"/>
</svg>
