<svg xmlns="http://www.w3.org/2000/svg" xmlns:xlink="http://www.w3.org/1999/xlink" viewBox="0 0 66.49 66.49"><defs><style>.cls-1{fill:url(#linear-gradient);}.cls-2{fill:url(#linear-gradient-2);}.cls-3{fill:url(#linear-gradient-3);}.cls-4{fill:url(#linear-gradient-4);}.cls-5{fill:url(#linear-gradient-5);}</style><linearGradient id="linear-gradient" x1="41.71" y1="4.1" x2="53.04" y2="15.43" gradientUnits="userSpaceOnUse"><stop offset="0.17" stop-color="#0d7494"/><stop offset="0.27" stop-color="#0c6584"/><stop offset="0.47" stop-color="#083d5c"/><stop offset="0.5" stop-color="#083756"/></linearGradient><linearGradient id="linear-gradient-2" x1="10.89" y1="19.21" x2="55.59" y2="63.9" xlink:href="#linear-gradient"/><linearGradient id="linear-gradient-3" x1="19.82" y1="47.7" x2="46.66" y2="74.55" xlink:href="#linear-gradient"/><linearGradient id="linear-gradient-4" x1="12.18" y1="-0.35" x2="47.3" y2="34.77" xlink:href="#linear-gradient"/><linearGradient id="linear-gradient-5" x1="31.68" y1="40.77" x2="34.83" y2="43.91" xlink:href="#linear-gradient"/></defs><title>Tax Active</title><g id="Layer_2" data-name="Layer 2"><g id="Layer_1-2" data-name="Layer 1"><path class="cls-1" d="M44.54,12.6H55.87c-2-2.06-9.08-9.08-11.33-11.32Z"/><path class="cls-2" d="M64.54,29H2A2,2,0,0,0,0,30.91V52.2a2,2,0,0,0,2,1.95H64.54a2,2,0,0,0,1.95-1.95V30.91A2,2,0,0,0,64.54,29ZM21.82,36.23H18.57v12.6a2,2,0,1,1-3.9,0V36.23H11.43a1.95,1.95,0,1,1,0-3.89H21.82a1.95,1.95,0,0,1,0,3.89ZM39.64,50.65a2,2,0,0,1-2.51-1.14l-.69-1.85H30.05l-.7,1.86a1.95,1.95,0,1,1-3.64-1.38c5.67-15,5.42-14.35,5.44-14.39a2.29,2.29,0,0,1,4.25.06l5.38,14.33a2,2,0,0,1-1.14,2.51Zm15.42.13A2,2,0,0,1,53.47,50l-3.6-5.05L46.26,50a1.95,1.95,0,1,1-3.17-2.26l4.38-6.14-4.38-6.14a1.95,1.95,0,0,1,3.17-2.27l3.61,5.05,3.6-5.05a2,2,0,0,1,3.18,2.27l-4.39,6.14,4.39,6.14A2,2,0,0,1,55.06,50.78Z"/><path class="cls-3" d="M9.48,62.59a3.91,3.91,0,0,0,3.9,3.9H53.11a3.91,3.91,0,0,0,3.9-3.9V58.05H9.48Z"/><path class="cls-4" d="M57,16.49H42.59a1.94,1.94,0,0,1-1.94-1.95V0H13.38a4,4,0,0,0-3.9,4v21H57ZM29.09,20.65H19.74a1.95,1.95,0,0,1,0-3.9h9.35a1.95,1.95,0,0,1,0,3.9Zm0-8.31H19.74a1.95,1.95,0,1,1,0-3.9h9.35a1.95,1.95,0,0,1,0,3.9Z"/><path class="cls-5" d="M31.53,43.76H35l-1.71-4.57Z"/></g></g></svg>