<svg width="36" height="41" viewBox="0 0 36 41" fill="none" xmlns="http://www.w3.org/2000/svg">
<path d="M32.9661 22.6099H32.9225C32.4724 21.3367 31.6394 20.2339 30.5379 19.4527C29.4364 18.6715 28.1202 18.2501 26.7698 18.2463H15.8607C15.8607 17.6676 15.6308 17.1127 15.2216 16.7035C14.8124 16.2943 14.2575 16.0645 13.6788 16.0645H11.497C11.3041 16.0645 11.1191 16.1411 10.9827 16.2775C10.8464 16.4139 10.7697 16.5988 10.7697 16.7917V18.2463H9.31518C7.58275 18.2577 5.92452 18.951 4.69947 20.176C3.47443 21.4011 2.78115 23.0593 2.76971 24.7917H2.42789C1.9399 24.7917 1.47188 24.9856 1.12682 25.3307C0.781748 25.6757 0.587891 26.1437 0.587891 26.6317V29.1554C0.587891 29.3483 0.664514 29.5333 0.800904 29.6697C0.937295 29.806 1.12228 29.8827 1.31516 29.8827H3.10426L3.64972 30.6972C5.04536 32.7911 7.01132 34.4415 9.31518 35.4536V37.8827C9.31518 38.4613 9.54505 39.0163 9.95422 39.4255C10.3634 39.8346 10.9184 40.0645 11.497 40.0645H12.9516C13.5302 40.0645 14.0852 39.8346 14.4943 39.4255C14.9035 39.0163 15.1334 38.4613 15.1334 37.8827V35.7009H22.4061V37.8827C22.4061 38.4613 22.636 39.0163 23.0452 39.4255C23.4543 39.8346 24.0093 40.0645 24.5879 40.0645H26.0425C26.6211 40.0645 27.1761 39.8346 27.5853 39.4255C27.9944 39.0163 28.2243 38.4613 28.2243 37.8827V35.7009H28.3843C29.6915 35.6989 30.9446 35.1788 31.8689 34.2545C32.7932 33.3302 33.3133 32.0771 33.3152 30.7699V24.7917L34.0425 25.519V26.2463H35.4971V25.1408C35.4971 24.4696 35.2304 23.8258 34.7558 23.3512C34.2811 22.8766 33.6374 22.6099 32.9661 22.6099ZM6.78427 24.0645C6.56791 24.0674 6.35558 24.0058 6.17428 23.8877C5.99298 23.7696 5.85089 23.6003 5.76609 23.4012C5.68128 23.2021 5.65759 22.9824 5.69803 22.7698C5.73847 22.5572 5.8412 22.3615 5.99317 22.2075C6.14514 22.0534 6.33949 21.9481 6.55149 21.9048C6.76349 21.8615 6.98358 21.8822 7.18377 21.9644C7.38395 22.0465 7.5552 22.1863 7.67572 22.366C7.79625 22.5457 7.86061 22.7572 7.86063 22.9736C7.86063 23.2629 7.7457 23.5404 7.54111 23.7449C7.33653 23.9495 7.05905 24.0645 6.76972 24.0645H6.78427ZM26.0425 22.6099H16.5879V21.1554H26.0425V22.6099Z" fill="#52B141"/>
<path d="M22.4057 1.51953H20.9512V5.1559H22.4057V1.51953Z" fill="#52B141"/>
<path d="M18.0424 0.0644531H16.5879V8.06447H18.0424V0.0644531Z" fill="#52B141"/>
<path d="M26.77 0.0644531H25.3154V4.4281H26.77V0.0644531Z" fill="#52B141"/>
<path d="M19.8606 16.7891C20.9209 16.7872 21.9372 16.3651 22.6869 15.6154C23.4367 14.8656 23.8587 13.8493 23.8606 12.7891C23.8612 12.5991 23.8466 12.4094 23.817 12.2218C23.7082 11.4625 23.3834 10.7505 22.8813 10.1706C22.3792 9.59079 21.721 9.16752 20.985 8.95129C20.2491 8.73506 19.4665 8.73499 18.7305 8.95108C17.9946 9.16717 17.3363 9.59031 16.834 10.1701C16.3318 10.7498 16.0069 11.4618 15.898 12.2211C15.789 12.9803 15.9007 13.7549 16.2197 14.4525C16.5387 15.15 17.0515 15.7412 17.697 16.1555C18.3426 16.5698 19.0936 16.7897 19.8606 16.7891Z" fill="#52B141"/>
<path d="M24.537 12.129C24.5697 12.3481 24.5867 12.5693 24.5879 12.7908C24.5879 12.8926 24.5879 12.9872 24.5879 13.0817C25.2036 12.9592 25.7771 12.6793 26.2526 12.2694C26.7281 11.8595 27.0894 11.3334 27.3012 10.7425C27.5131 10.1515 27.5683 9.51575 27.4616 8.8971C27.3549 8.27845 27.0898 7.69796 26.6922 7.21214C26.2946 6.72632 25.778 6.35172 25.1926 6.12479C24.6073 5.89786 23.9732 5.82634 23.352 5.91718C22.7308 6.00802 22.1437 6.25814 21.6479 6.64319C21.152 7.02823 20.7643 7.53509 20.5225 8.11443C20.8444 8.15381 21.1613 8.22694 21.4679 8.33261C22.2791 8.62205 22.9947 9.12955 23.5362 9.79932C24.0777 10.4691 24.424 11.2752 24.537 12.129Z" fill="#52B141"/>
</svg>
