<svg width="35" height="36" viewBox="0 0 35 36" fill="none" xmlns="http://www.w3.org/2000/svg">
<path d="M33.969 11.345C33.6378 10.9401 33.1593 10.6825 32.6073 10.6825H29.0741C29.5157 11.9707 29.2949 13.406 28.4116 14.5101L24.1792 20.0307C23.4063 21.0612 22.1918 21.6501 20.9036 21.6501C19.6155 21.6501 18.4378 21.0612 17.6281 20.0307L13.3956 14.5101C12.5491 13.406 12.2915 11.9707 12.7332 10.6825H9.60484L8.79515 7.37017C8.61113 6.59729 7.91186 6.08203 7.10218 6.08203H2.31767C1.39758 6.08203 0.587891 6.85491 0.587891 7.81181C0.587891 8.76871 1.36077 9.5416 2.31767 9.5416H5.74043L6.55012 12.8171C6.55012 12.8539 6.58692 12.8907 6.58692 12.9276L10.0097 26.545C10.1937 27.3179 10.893 27.8331 11.7027 27.8331H29.2949C30.1046 27.8331 30.7671 27.2811 30.9879 26.545L34.3002 12.8539C34.4106 12.3019 34.3002 11.7498 33.969 11.345Z" fill="#FF9254"/>
<path d="M14.0967 35.7833C15.7838 35.7833 17.1514 34.4156 17.1514 32.7285C17.1514 31.0415 15.7838 29.6738 14.0967 29.6738C12.4096 29.6738 11.042 31.0415 11.042 32.7285C11.042 34.4156 12.4096 35.7833 14.0967 35.7833Z" fill="#FF9254"/>
<path d="M26.0928 35.7833C27.7799 35.7833 29.1475 34.4156 29.1475 32.7285C29.1475 31.0415 27.7799 29.6738 26.0928 29.6738C24.4057 29.6738 23.0381 31.0415 23.0381 32.7285C23.0381 34.4156 24.4057 35.7833 26.0928 35.7833Z" fill="#FF9254"/>
<path d="M19.9106 18.265C20.4259 18.9275 21.3828 18.9275 21.898 18.265L26.1673 12.7445C26.7929 11.9348 26.2041 10.7202 25.1736 10.7202H23.0021V1.51928C23.0021 1.11444 22.6709 0.783203 22.2661 0.783203H19.5058C19.1009 0.783203 18.7697 1.11444 18.7697 1.51928V10.7202H16.5983C15.5677 10.7202 14.9789 11.9348 15.6046 12.7445L19.9106 18.265Z" fill="#FF9254"/>
</svg>
