<svg width="38" height="36" viewBox="0 0 38 36" fill="none" xmlns="http://www.w3.org/2000/svg">
<path d="M12.4217 0.78125C11.1681 0.78125 9.96583 1.27924 9.0794 2.16567C8.19297 3.0521 7.69498 4.25435 7.69498 5.50795V7.37722H17.1387V5.50795C17.1387 4.25604 16.642 3.05526 15.7577 2.16911C14.8734 1.28296 13.6736 0.783829 12.4217 0.78125V0.78125ZM4.59415 8.49683C4.34652 8.49616 4.10683 8.58415 3.91844 8.74486C3.73005 8.90557 3.60539 9.1284 3.56703 9.37304L0.587891 30.7527C0.599353 31.4458 0.882072 32.1067 1.37536 32.5936C1.86864 33.0805 2.53316 33.3546 3.22628 33.357H13.4975L15.9704 15.6088C16.0392 15.1603 16.2667 14.7515 16.6116 14.4567C16.9564 14.1618 17.3957 14.0006 17.8494 14.0024H21.9189L21.2763 9.37304C21.238 9.1284 21.1133 8.90557 20.9249 8.74486C20.7365 8.58415 20.4969 8.49616 20.2492 8.49683H18.268V11.4176C18.268 11.566 18.209 11.7084 18.104 11.8134C17.9991 11.9184 17.8567 11.9774 17.7082 11.9774C17.5597 11.9774 17.4173 11.9184 17.3124 11.8134C17.2074 11.7084 17.1484 11.566 17.1484 11.4176V9.57263L15.8049 10.7847V13.7298C15.806 13.8037 15.7924 13.877 15.7648 13.9456C15.7372 14.0141 15.6962 14.0765 15.6442 14.129L11.3459 18.437C11.2183 18.5654 11.0666 18.6672 10.8995 18.7367C10.7325 18.8062 10.5533 18.842 10.3723 18.842C10.1914 18.842 10.0122 18.8062 9.84509 18.7367C9.67801 18.6672 9.52632 18.5654 9.39874 18.437L7.1011 16.1394C6.97217 16.0121 6.8698 15.8606 6.79993 15.6934C6.73006 15.5263 6.69408 15.347 6.69408 15.1658C6.69408 14.9847 6.73006 14.8053 6.79993 14.6382C6.8698 14.4711 6.97217 14.3195 7.1011 14.1922L11.414 9.8793C11.4663 9.82664 11.5285 9.78489 11.597 9.75648C11.6655 9.72807 11.739 9.71356 11.8132 9.7138H15.2207H15.2645L16.6519 8.49683H7.69498V11.4176C7.69498 11.566 7.636 11.7084 7.53102 11.8134C7.42604 11.9184 7.28365 11.9774 7.13518 11.9774C6.98671 11.9774 6.84432 11.9184 6.73934 11.8134C6.63435 11.7084 6.57537 11.566 6.57537 11.4176V8.49683H4.59415ZM12.0469 10.8431L7.8897 14.9906C7.84272 15.0388 7.81642 15.1034 7.81642 15.1707C7.81642 15.238 7.84272 15.3026 7.8897 15.3508L10.1873 17.6484C10.2347 17.6951 10.2985 17.7213 10.365 17.7213C10.4315 17.7213 10.4953 17.6951 10.5427 17.6484L14.7047 13.501V10.8577L12.0469 10.8431ZM12.9815 11.1936C13.3003 11.1945 13.6089 11.3059 13.8548 11.5089C14.1006 11.7119 14.2685 11.9939 14.3297 12.3068C14.3909 12.6197 14.3417 12.9441 14.1904 13.2247C14.0392 13.5054 13.7953 13.7249 13.5003 13.8459C13.2053 13.9668 12.8775 13.9817 12.5728 13.888C12.268 13.7943 12.0052 13.5978 11.8292 13.332C11.6531 13.0662 11.5747 12.7475 11.6073 12.4304C11.6399 12.1132 11.7815 11.8172 12.0079 11.5928C12.1357 11.4651 12.2875 11.364 12.4546 11.2955C12.6218 11.2269 12.8009 11.1923 12.9815 11.1936ZM12.9815 12.3084C12.9139 12.3111 12.8497 12.3388 12.8014 12.3863C12.7558 12.4342 12.7304 12.4978 12.7304 12.5639C12.7304 12.6301 12.7558 12.6937 12.8014 12.7416C12.8501 12.7797 12.911 12.7987 12.9728 12.795C13.0345 12.7912 13.0927 12.765 13.1364 12.7213C13.1801 12.6776 13.2063 12.6193 13.2101 12.5576C13.2138 12.4959 13.1949 12.4349 13.1567 12.3863C13.1102 12.3392 13.0476 12.3113 12.9815 12.3084ZM17.8494 15.1123C17.6639 15.1123 17.4846 15.1785 17.3436 15.299C17.2026 15.4194 17.1092 15.5863 17.0802 15.7694L14.583 33.6929C14.592 34.2499 14.8195 34.781 15.2166 35.1717C15.6136 35.5624 16.1484 35.7813 16.7054 35.7812H32.1317C32.6682 35.7802 33.1846 35.5765 33.5772 35.2109C33.9699 34.8453 34.2099 34.3448 34.2492 33.8098C33.9843 33.7435 33.7452 33.5993 33.5629 33.396L29.5907 28.7959C29.5422 28.7401 29.5056 28.6752 29.483 28.6049C29.4604 28.5346 29.4523 28.4605 29.4592 28.387L29.7124 25.1206L28.3348 23.4412C27.6896 24.2519 26.808 24.8416 25.8124 25.1285C24.8168 25.4154 23.7565 25.3853 22.7788 25.0423C21.8012 24.6993 20.9545 24.0604 20.3564 23.2143C19.7583 22.3683 19.4384 21.357 19.4412 20.3209V17.7555C19.4412 17.607 19.5001 17.4647 19.6051 17.3597C19.7101 17.2547 19.8525 17.1957 20.001 17.1957C20.1494 17.1957 20.2918 17.2547 20.3968 17.3597C20.5018 17.4647 20.5608 17.607 20.5608 17.7555V20.3209C20.5064 20.8624 20.5662 21.4092 20.7361 21.9262C20.9061 22.4432 21.1826 22.9188 21.5477 23.3224C21.9128 23.726 22.3584 24.0485 22.8558 24.2693C23.3532 24.4901 23.8914 24.6041 24.4356 24.6041C24.9798 24.6041 25.518 24.4901 26.0154 24.2693C26.5128 24.0485 26.9584 23.726 27.3235 23.3224C27.6886 22.9188 27.9651 22.4432 28.135 21.9262C28.305 21.4092 28.3648 20.8624 28.3104 20.3209V17.7555C28.3104 17.607 28.3694 17.4647 28.4744 17.3597C28.5794 17.2547 28.7218 17.1957 28.8702 17.1957C29.0187 17.1957 29.1611 17.2547 29.2661 17.3597C29.3711 17.4647 29.43 17.607 29.43 17.7555V20.3209C29.4261 21.054 29.2598 21.7772 28.9432 22.4384L30.6324 24.4732L32.9933 24.6338L31.7423 15.7694C31.7142 15.5858 31.6211 15.4184 31.4799 15.2978C31.3387 15.1772 31.1589 15.1113 30.9731 15.1123H17.8494ZM30.7979 25.6074L30.5935 28.2312L34.4099 32.6512C34.4309 32.6762 34.4567 32.6968 34.4857 32.7118C34.5148 32.7267 34.5465 32.7359 34.579 32.7386C34.6116 32.7413 34.6444 32.7376 34.6755 32.7276C34.7066 32.7176 34.7354 32.7016 34.7604 32.6804L37.1943 30.5629C37.2439 30.5191 37.2752 30.4583 37.2819 30.3925C37.2859 30.3249 37.2632 30.2585 37.2186 30.2075L33.4022 25.7875L30.7979 25.6074ZM32.3946 26.0552H32.4676C32.8304 26.0682 33.1732 26.2246 33.4206 26.4903C33.668 26.756 33.7997 27.109 33.7868 27.4718C33.7739 27.8346 33.6174 28.1774 33.3517 28.4248C33.0861 28.6722 32.733 28.8039 32.3702 28.791H32.268C31.9052 28.7742 31.564 28.614 31.3193 28.3456C31.0746 28.0772 30.9466 27.7226 30.9634 27.3598C30.9802 26.997 31.1404 26.6558 31.4088 26.4111C31.6772 26.1665 32.0318 26.0385 32.3946 26.0552ZM32.3946 27.1749C32.3618 27.1718 32.3287 27.1759 32.2976 27.1868C32.2665 27.1977 32.2382 27.2152 32.2145 27.2381C32.1797 27.2728 32.1559 27.3171 32.1463 27.3652C32.1366 27.4134 32.1415 27.4634 32.1603 27.5088C32.179 27.5542 32.2108 27.593 32.2517 27.6203C32.2925 27.6477 32.3406 27.6622 32.3897 27.6622C32.4388 27.6622 32.4869 27.6477 32.5277 27.6203C32.5686 27.593 32.6004 27.5542 32.6191 27.5088C32.6379 27.4634 32.6428 27.4134 32.6331 27.3652C32.6235 27.3171 32.5998 27.2728 32.5649 27.2381C32.5407 27.216 32.5123 27.199 32.4814 27.1881C32.4504 27.1772 32.4176 27.1727 32.3848 27.1749H32.3946Z" fill="#4794AC"/>
</svg>
