<svg width="36" height="41" viewBox="0 0 36 41" fill="none" xmlns="http://www.w3.org/2000/svg">
<path d="M32.9652 22.6099H32.9215C32.4714 21.3367 31.6385 20.2339 30.5369 19.4527C29.4354 18.6715 28.1192 18.2501 26.7688 18.2463H15.8597C15.8597 17.6676 15.6298 17.1127 15.2206 16.7035C14.8115 16.2943 14.2565 16.0645 13.6779 16.0645H11.496C11.3031 16.0645 11.1182 16.1411 10.9818 16.2775C10.8454 16.4139 10.7688 16.5988 10.7688 16.7917V18.2463H9.31421C7.58177 18.2577 5.92354 18.951 4.6985 20.176C3.47345 21.4011 2.78017 23.0593 2.76874 24.7917H2.42692C1.93892 24.7917 1.47091 24.9856 1.12584 25.3307C0.780771 25.6757 0.586914 26.1437 0.586914 26.6317V29.1554C0.586914 29.3483 0.663538 29.5333 0.799928 29.6697C0.936318 29.806 1.1213 29.8827 1.31419 29.8827H3.10328L3.64874 30.6972C5.04439 32.7911 7.01034 34.4415 9.31421 35.4536V37.8827C9.31421 38.4613 9.54408 39.0163 9.95325 39.4255C10.3624 39.8346 10.9174 40.0645 11.496 40.0645H12.9506C13.5292 40.0645 14.0842 39.8346 14.4934 39.4255C14.9025 39.0163 15.1324 38.4613 15.1324 37.8827V35.7009H22.4051V37.8827C22.4051 38.4613 22.635 39.0163 23.0442 39.4255C23.4534 39.8346 24.0083 40.0645 24.587 40.0645H26.0415C26.6202 40.0645 27.1751 39.8346 27.5843 39.4255C27.9935 39.0163 28.2233 38.4613 28.2233 37.8827V35.7009H28.3833C29.6905 35.6989 30.9436 35.1788 31.8679 34.2545C32.7922 33.3302 33.3123 32.0771 33.3143 30.7699V24.7917L34.0415 25.519V26.2463H35.4961V25.1408C35.4961 24.4696 35.2294 23.8258 34.7548 23.3512C34.2802 22.8766 33.6364 22.6099 32.9652 22.6099ZM6.78329 24.0645C6.56693 24.0674 6.3546 24.0058 6.1733 23.8877C5.992 23.7696 5.84991 23.6003 5.76511 23.4012C5.68031 23.2021 5.65662 22.9824 5.69705 22.7698C5.73749 22.5572 5.84022 22.3615 5.9922 22.2075C6.14417 22.0534 6.33851 21.9481 6.55051 21.9048C6.76252 21.8615 6.9826 21.8822 7.18279 21.9644C7.38298 22.0465 7.55422 22.1863 7.67475 22.366C7.79527 22.5457 7.85964 22.7572 7.85966 22.9736C7.85966 23.2629 7.74472 23.5404 7.54014 23.7449C7.33555 23.9495 7.05807 24.0645 6.76875 24.0645H6.78329ZM26.0415 22.6099H16.587V21.1554H26.0415V22.6099Z" fill="#FF9254"/>
<path d="M22.4057 1.51953H20.9512V5.1559H22.4057V1.51953Z" fill="#FF9254"/>
<path d="M18.0424 0.0644531H16.5879V8.06447H18.0424V0.0644531Z" fill="#FF9254"/>
<path d="M26.769 0.0644531H25.3145V4.4281H26.769V0.0644531Z" fill="#FF9254"/>
<path d="M19.8587 16.7891C20.919 16.7872 21.9353 16.3651 22.685 15.6154C23.4347 14.8656 23.8568 13.8493 23.8587 12.7891C23.8592 12.5991 23.8446 12.4094 23.8151 12.2218C23.7063 11.4625 23.3815 10.7505 22.8794 10.1706C22.3773 9.59079 21.719 9.16752 20.9831 8.95129C20.2472 8.73506 19.4646 8.73499 18.7286 8.95108C17.9926 9.16717 17.3343 9.59031 16.8321 10.1701C16.3299 10.7498 16.0049 11.4618 15.896 12.2211C15.7871 12.9803 15.8988 13.7549 16.2177 14.4525C16.5367 15.15 17.0495 15.7412 17.6951 16.1555C18.3406 16.5698 19.0916 16.7897 19.8587 16.7891Z" fill="#FF9254"/>
<path d="M24.536 12.129C24.5687 12.3481 24.5857 12.5693 24.5869 12.7908C24.5869 12.8926 24.5869 12.9872 24.5869 13.0817C25.2027 12.9592 25.7762 12.6793 26.2516 12.2694C26.7271 11.8595 27.0884 11.3334 27.3002 10.7425C27.5121 10.1515 27.5674 9.51575 27.4606 8.8971C27.3539 8.27845 27.0888 7.69796 26.6912 7.21214C26.2936 6.72632 25.777 6.35172 25.1916 6.12479C24.6063 5.89786 23.9722 5.82634 23.351 5.91718C22.7298 6.00802 22.1427 6.25814 21.6469 6.64319C21.151 7.02823 20.7633 7.53509 20.5215 8.11443C20.8434 8.15381 21.1603 8.22694 21.4669 8.33261C22.2781 8.62205 22.9938 9.12955 23.5352 9.79932C24.0767 10.4691 24.423 11.2752 24.536 12.129Z" fill="#FF9254"/>
</svg>
