<svg width="24" height="25" viewBox="0 0 24 25" fill="none" xmlns="http://www.w3.org/2000/svg">
<path d="M7.01819 10.2782L6.93951 8.45129C6.90988 7.76321 7.44597 7.17887 8.13473 7.1485L17.1293 6.76114L17.0246 4.33095C17.0116 4.02859 17.1821 3.74663 17.4568 3.61873C17.7316 3.49082 18.0579 3.54188 18.2812 3.74672L23.0709 8.1409C23.376 8.42077 23.3964 8.89551 23.1165 9.20058L18.7224 13.9903C18.5175 14.2135 18.1974 14.2917 17.9127 14.1879C17.628 14.0841 17.4333 13.82 17.4209 13.5155L17.3155 11.086L8.32098 11.4734C7.63499 11.5022 7.04868 10.9698 7.01819 10.2782Z" fill="#24ABDC"/>
<path d="M5.34285 20.3756L0.553154 15.9814C0.248088 15.7016 0.227643 15.2268 0.507519 14.9218L4.90171 10.1321C5.10655 9.90878 5.42663 9.83059 5.71137 9.9344C5.99612 10.0382 6.19086 10.3037 6.20321 10.6068L6.30854 13.0363L15.3031 12.6489C15.9912 12.6193 16.5755 13.1554 16.6059 13.8441L16.6846 15.671C16.7142 16.3591 16.1781 16.9435 15.4893 16.9738L6.49479 17.3612L6.59945 19.7914C6.61247 20.0937 6.44201 20.3757 6.16724 20.5036C5.89247 20.6315 5.56612 20.5805 5.34285 20.3756Z" fill="#24ABDC"/>
</svg>
