<svg width="25" height="24" viewBox="0 0 25 24" fill="none" xmlns="http://www.w3.org/2000/svg">
<path d="M8.10507 9.95978V8.1312C8.10507 7.44248 8.66581 6.88174 9.35524 6.88103L18.3581 6.88103L18.3581 4.44859C18.3581 4.14594 18.5406 3.87159 18.8206 3.75562C19.1006 3.63966 19.4244 3.70471 19.6387 3.91896L24.2349 8.51516C24.5276 8.8079 24.5276 9.28307 24.2349 9.57582L19.6387 14.172C19.4244 14.3863 19.1013 14.4506 18.8213 14.3346C18.5413 14.2187 18.3581 13.9464 18.3588 13.6417L18.3581 11.2099L9.35524 11.2099C8.66863 11.2092 8.10578 10.652 8.10507 9.95978Z" fill="white"/>
<path d="M5.99703 19.9757L1.40084 15.3795C1.1081 15.0868 1.1081 14.6116 1.40084 14.3189L5.99704 9.72268C6.2113 9.50843 6.53445 9.44408 6.81446 9.56005C7.09448 9.67601 7.27762 9.94966 7.27691 10.253L7.27761 12.6848L16.2805 12.6847C16.9692 12.6847 17.53 13.2455 17.5307 13.9349L17.5307 15.7635C17.5307 16.4522 16.9699 17.0129 16.2805 17.0137L7.27761 17.0137L7.27761 19.4461C7.27761 19.7488 7.09517 20.0231 6.81516 20.1391C6.53514 20.255 6.21129 20.19 5.99703 19.9757Z" fill="white"/>
</svg>
