<svg width="15" height="16" viewBox="0 0 15 16" fill="none" xmlns="http://www.w3.org/2000/svg">
<path d="M1 3.80078H2.4H13.6" stroke="#333333" stroke-width="2" stroke-linecap="round" stroke-linejoin="round"/>
<path d="M4.49941 3.8V2.4C4.49941 2.0287 4.64691 1.6726 4.90946 1.41005C5.17202 1.1475 5.52811 1 5.89941 1H8.69941C9.07072 1 9.42681 1.1475 9.68936 1.41005C9.95191 1.6726 10.0994 2.0287 10.0994 2.4V3.8M12.1994 3.8V13.6C12.1994 13.9713 12.0519 14.3274 11.7894 14.5899C11.5268 14.8525 11.1707 15 10.7994 15H3.79941C3.42811 15 3.07202 14.8525 2.80946 14.5899C2.54691 14.3274 2.39941 13.9713 2.39941 13.6V3.8H12.1994Z" stroke="#333333" stroke-width="2" stroke-linecap="round" stroke-linejoin="round"/>
<path d="M5.90039 7.29999V11.5" stroke="#333333" stroke-width="2" stroke-linecap="round" stroke-linejoin="round"/>
<path d="M8.69922 7.29999V11.5" stroke="#333333" stroke-width="2" stroke-linecap="round" stroke-linejoin="round"/>
</svg>
