<svg width="21" height="21" viewBox="0 0 21 21" fill="none" xmlns="http://www.w3.org/2000/svg">
<g clip-path="url(#clip0)">
<path d="M21 3.98869C20.2191 4.33125 19.3869 4.55831 18.5194 4.66856C19.4119 4.13569 20.0931 3.29831 20.4133 2.289C19.5812 2.78512 18.6624 3.13556 17.6833 3.33113C16.8932 2.48981 15.7671 1.96875 14.5386 1.96875C12.1551 1.96875 10.2362 3.90338 10.2362 6.27506C10.2362 6.61631 10.2651 6.94444 10.3359 7.25681C6.75675 7.08225 3.58969 5.36681 1.46212 2.75363C1.09069 3.39806 0.872813 4.13569 0.872813 4.92975C0.872813 6.42075 1.64062 7.74244 2.78513 8.50762C2.09344 8.4945 1.41488 8.29369 0.84 7.97738C0.84 7.9905 0.84 8.00756 0.84 8.02462C0.84 10.1167 2.33231 11.8545 4.28925 12.2548C3.93881 12.3506 3.55687 12.3966 3.1605 12.3966C2.88488 12.3966 2.60662 12.3808 2.34544 12.3231C2.90325 14.028 4.48613 15.2814 6.36825 15.3221C4.9035 16.4679 3.04369 17.1583 1.03031 17.1583C0.67725 17.1583 0.338625 17.1426 0 17.0992C1.90706 18.3291 4.16719 19.0312 6.6045 19.0312C14.5267 19.0312 18.858 12.4688 18.858 6.78038C18.858 6.59006 18.8514 6.40631 18.8423 6.22388C19.6967 5.6175 20.4146 4.86019 21 3.98869Z" fill="#03A9F4"/>
</g>
<defs>
<clipPath id="clip0">
<rect width="21" height="21" fill="white"/>
</clipPath>
</defs>
</svg>
