<svg width="137" height="137" viewBox="0 0 137 137" fill="none" xmlns="http://www.w3.org/2000/svg">
<circle cx="63.9999" cy="63.9999" r="54.0741" fill="#00A7E1"/>
<path d="M126.921 26.9873C134.531 39.9234 137.968 54.8905 136.765 69.8505C135.562 84.8104 129.778 99.0361 120.199 110.59C110.62 122.144 97.7134 130.465 83.2356 134.42C68.7577 138.375 53.4128 137.771 39.2905 132.691L64 63.9998L126.921 26.9873Z" fill="#003459"/>
<path d="M19.0728 19.0744C25.932 12.2152 34.2708 7.01756 43.4498 3.88005C52.6289 0.742535 62.4044 -0.251572 72.0272 0.973933C81.6499 2.19944 90.8643 5.61201 98.9639 10.9501C107.064 16.2881 113.833 23.4099 118.754 31.7694L64.0002 64.0019L19.0728 19.0744Z" fill="#2A4047"/>
<path d="M43.0516 123.986C34.6561 121.054 26.9696 116.393 20.4892 110.303L63.9999 64.0019L43.0516 123.986Z" fill="#007EA7"/>
</svg>
