<svg width="15" height="14" viewBox="0 0 15 14" fill="none" xmlns="http://www.w3.org/2000/svg">
<g clip-path="url(#clip0)">
<path d="M11.0833 12.1134C11.0833 11.9643 11.0284 11.8353 10.9188 11.7263C10.8091 11.6173 10.6792 11.5628 10.5291 11.5628C10.379 11.5628 10.2491 11.6173 10.1395 11.7263C10.0298 11.8353 9.97494 11.9643 9.97494 12.1134C9.97494 12.2625 10.0298 12.3916 10.1395 12.5006C10.2491 12.6095 10.379 12.664 10.5291 12.664C10.6792 12.664 10.8091 12.6095 10.9188 12.5006C11.0284 12.3916 11.0833 12.2625 11.0833 12.1134ZM13.2999 12.1134C13.2999 11.9643 13.2451 11.8353 13.1354 11.7263C13.0257 11.6173 12.8958 11.5628 12.7458 11.5628C12.5957 11.5628 12.4658 11.6173 12.3561 11.7263C12.2464 11.8353 12.1916 11.9643 12.1916 12.1134C12.1916 12.2625 12.2464 12.3916 12.3561 12.5006C12.4658 12.6095 12.5957 12.664 12.7458 12.664C12.8958 12.664 13.0257 12.6095 13.1354 12.5006C13.2451 12.3916 13.2999 12.2625 13.2999 12.1134ZM14.4083 10.1864V12.9393C14.4083 13.1687 14.3274 13.3637 14.1658 13.5243C14.0042 13.6849 13.8079 13.7652 13.577 13.7652H0.831245C0.600344 13.7652 0.404078 13.6849 0.242447 13.5243C0.0808155 13.3637 0 13.1687 0 12.9393V10.1864C0 9.95696 0.0808155 9.76196 0.242447 9.60137C0.404078 9.44078 0.600344 9.36049 0.831245 9.36049H4.52855C4.64978 9.68167 4.85326 9.94549 5.139 10.152C5.42474 10.3584 5.74367 10.4617 6.0958 10.4617H8.31245C8.66458 10.4617 8.98351 10.3584 9.26925 10.152C9.55499 9.94549 9.75847 9.68167 9.8797 9.36049H13.577C13.8079 9.36049 14.0042 9.44078 14.1658 9.60137C14.3274 9.76196 14.4083 9.95696 14.4083 10.1864ZM11.5941 4.61166C11.496 4.84108 11.3257 4.95578 11.0833 4.95578H8.86662V8.8099C8.86662 8.95902 8.81178 9.08806 8.7021 9.19703C8.59242 9.306 8.46254 9.36049 8.31245 9.36049H6.0958C5.94571 9.36049 5.81583 9.306 5.70615 9.19703C5.59647 9.08806 5.54164 8.95902 5.54164 8.8099V4.95578H3.32498C3.08253 4.95578 2.91224 4.84108 2.81411 4.61166C2.71598 4.38799 2.75639 4.19012 2.93533 4.01806L6.81448 0.163944C6.91839 0.0549736 7.04827 0.000488281 7.20413 0.000488281C7.35998 0.000488281 7.48987 0.0549736 7.59377 0.163944L11.4729 4.01806C11.6519 4.19012 11.6923 4.38799 11.5941 4.61166Z" fill="#333333"/>
</g>
<defs>
<clipPath id="clip0">
<rect width="14.4083" height="13.7647" fill="white" transform="translate(0 0.000488281)"/>
</clipPath>
</defs>
</svg>
