<svg width="51" height="48" viewBox="0 0 51 48" fill="none" xmlns="http://www.w3.org/2000/svg">
<g filter="url(#filter0_dd)">
<path d="M32.1832 29.1C31.8679 29.0955 31.5668 28.9678 31.3445 28.7441L28.3699 25.7755C28.2559 25.6632 28.1654 25.5294 28.1036 25.3818C28.0418 25.2342 28.0099 25.0757 28.0099 24.9157C28.0099 24.7557 28.0418 24.5973 28.1036 24.4496C28.1654 24.302 28.2559 24.1682 28.3699 24.0559L31.3445 21.0874C31.5639 20.857 31.8653 20.7226 32.1832 20.7133H45.8313V15.464C45.8267 13.8607 45.191 12.3238 44.0618 11.1856C42.9327 10.0474 41.4008 9.3995 39.7977 9.38206L29.9447 2.79935C29.4282 2.45361 28.8486 2.21306 28.2391 2.09144C27.6295 1.96982 27.002 1.96952 26.3923 2.09055C25.7827 2.21159 25.2028 2.45159 24.686 2.79683C24.1691 3.14207 23.7254 3.58579 23.3801 4.10262L22.65 5.20677L19.1565 3.95781C17.853 3.49402 16.4188 3.56493 15.1673 4.15506C13.9159 4.74518 12.9488 5.80656 12.4773 7.10738L11.6627 9.38206H10.0819C8.47037 9.38684 6.92618 10.0291 5.78663 11.1687C4.64708 12.3082 4.00478 13.8524 4 15.464L4 35.9181C4.00478 37.5296 4.64708 39.0738 5.78663 40.2134C6.92618 41.3529 8.47037 41.9952 10.0819 42H39.7494C41.3614 41.9968 42.9066 41.355 44.0464 40.2151C45.1863 39.0752 45.8281 37.5301 45.8313 35.9181V29.1H32.1832ZM25.6306 5.93685C25.9791 5.42003 26.5175 5.06165 27.1287 4.93963C27.74 4.8176 28.3747 4.9418 28.8949 5.28521L35.0371 9.38206H34.2769L25.4496 6.2325L25.6306 5.93685ZM14.7339 9.38206L15.0778 8.42875C15.3423 7.69438 15.887 7.09475 16.5927 6.76115C17.2983 6.42754 18.1074 6.38715 18.8428 6.64882L26.4512 9.38206H14.7339Z" fill="#FF9254"/>
<path d="M44.8062 21.7456H32.5519C32.433 21.7454 32.3153 21.7687 32.2055 21.8143C32.0957 21.8599 31.9961 21.9268 31.9123 22.0111L29.5773 24.334C29.4936 24.3983 29.4251 24.4801 29.3766 24.5739C29.3282 24.6676 29.3009 24.7708 29.2969 24.8762C29.2929 24.9816 29.3121 25.0866 29.3533 25.1838C29.3944 25.2809 29.4565 25.3678 29.535 25.4382L31.9123 27.8094C32.0823 27.9792 32.3116 28.0766 32.5519 28.0809H44.8062C45.3429 28.0794 45.8574 27.8663 46.238 27.4879C46.6187 27.1095 46.8348 26.5964 46.8396 26.0597V23.7729C46.838 23.2347 46.623 22.719 46.2419 22.339C45.8607 21.959 45.3444 21.7456 44.8062 21.7456ZM34.3318 26.9225C33.9642 26.9225 33.6049 26.8135 33.2993 26.6093C32.9937 26.4051 32.7555 26.1149 32.6149 25.7753C32.4742 25.4357 32.4374 25.0621 32.5091 24.7016C32.5808 24.3411 32.7578 24.01 33.0177 23.7501C33.2776 23.4902 33.6087 23.3132 33.9692 23.2415C34.3297 23.1698 34.7034 23.2066 35.043 23.3472C35.3825 23.4879 35.6728 23.7261 35.877 24.0317C36.0812 24.3373 36.1902 24.6966 36.1902 25.0641C36.1902 25.557 35.9944 26.0297 35.6458 26.3782C35.2973 26.7267 34.8247 26.9225 34.3318 26.9225Z" fill="#FF9254"/>
</g>
<defs>
<filter id="filter0_dd" x="0" y="0" width="50.8396" height="48" filterUnits="userSpaceOnUse" color-interpolation-filters="sRGB">
<feFlood flood-opacity="0" result="BackgroundImageFix"/>
<feColorMatrix in="SourceAlpha" type="matrix" values="0 0 0 0 0 0 0 0 0 0 0 0 0 0 0 0 0 0 127 0"/>
<feOffset dy="2"/>
<feGaussianBlur stdDeviation="2"/>
<feColorMatrix type="matrix" values="0 0 0 0 0.196487 0 0 0 0 0.196487 0 0 0 0 0.279476 0 0 0 0.06 0"/>
<feBlend mode="multiply" in2="BackgroundImageFix" result="effect1_dropShadow"/>
<feColorMatrix in="SourceAlpha" type="matrix" values="0 0 0 0 0 0 0 0 0 0 0 0 0 0 0 0 0 0 127 0"/>
<feOffset dy="2"/>
<feGaussianBlur stdDeviation="1"/>
<feColorMatrix type="matrix" values="0 0 0 0 0.196487 0 0 0 0 0.196487 0 0 0 0 0.279476 0 0 0 0.06 0"/>
<feBlend mode="multiply" in2="effect1_dropShadow" result="effect2_dropShadow"/>
<feBlend mode="normal" in="SourceGraphic" in2="effect2_dropShadow" result="shape"/>
</filter>
</defs>
</svg>
