<svg width="34" height="32" viewBox="0 0 34 32" fill="none" xmlns="http://www.w3.org/2000/svg">
<path d="M22.3713 21.6771C22.121 21.6735 21.8821 21.5712 21.7056 21.3922L19.3444 19.0168C19.2539 18.927 19.182 18.8199 19.133 18.7018C19.0839 18.5837 19.0587 18.4569 19.0587 18.3289C19.0587 18.2008 19.0839 18.074 19.133 17.9559C19.182 17.8378 19.2539 17.7307 19.3444 17.6409L21.7056 15.2655C21.8797 15.0812 22.1189 14.9736 22.3713 14.9661H33.205V10.7658C33.2013 9.48289 32.6967 8.25305 31.8004 7.34229C30.9041 6.43154 29.6881 5.91311 28.4156 5.89916L20.5944 0.631807C20.1844 0.355156 19.7244 0.162671 19.2405 0.0653543C18.7567 -0.0319626 18.2586 -0.0322031 17.7746 0.0646464C17.2907 0.161496 16.8304 0.353537 16.4202 0.629792C16.0099 0.906047 15.6577 1.2611 15.3836 1.67466L14.8041 2.55818L12.031 1.55878C10.9962 1.18767 9.85783 1.24441 8.86444 1.71662C7.87104 2.18882 7.10338 3.03812 6.72912 4.079L6.08255 5.89916H4.82772C3.5485 5.90298 2.32275 6.41694 1.41819 7.32878C0.513641 8.24062 0.00379032 9.47625 0 10.7658L0 27.1327C0.00379032 28.4223 0.513641 29.6579 1.41819 30.5697C2.32275 31.4816 3.5485 31.9955 4.82772 31.9993H28.3772C29.6569 31.9968 30.8833 31.4832 31.7882 30.5711C32.693 29.659 33.2024 28.4226 33.205 27.1327V21.6771H22.3713ZM17.17 3.14237C17.4466 2.72882 17.874 2.44205 18.3592 2.34441C18.8444 2.24677 19.3482 2.34615 19.7611 2.62094L24.6367 5.89916H24.0332L17.0263 3.37894L17.17 3.14237ZM8.52036 5.89916L8.79335 5.13633C9.0033 4.54871 9.43569 4.0689 9.99583 3.80196C10.556 3.53501 11.1982 3.50269 11.7819 3.71207L17.8214 5.89916H8.52036Z" fill="#1B8BC8"/>
<path d="M32.3905 15.7925H22.6632C22.5689 15.7923 22.4754 15.811 22.3883 15.8474C22.3012 15.8839 22.222 15.9374 22.1556 16.0049L20.3021 17.8637C20.2356 17.9151 20.1812 17.9806 20.1428 18.0556C20.1043 18.1306 20.0827 18.2132 20.0795 18.2975C20.0763 18.3819 20.0916 18.4659 20.1243 18.5436C20.1569 18.6214 20.2062 18.6909 20.2685 18.7472L22.1556 20.6446C22.2905 20.7805 22.4725 20.8584 22.6632 20.8619H32.3905C32.8166 20.8606 33.2249 20.6901 33.5271 20.3874C33.8292 20.0846 34.0008 19.674 34.0046 19.2445V17.4147C34.0033 16.984 33.8327 16.5714 33.5301 16.2673C33.2276 15.9632 32.8178 15.7925 32.3905 15.7925ZM24.0761 19.9349C23.7844 19.9349 23.4992 19.8477 23.2566 19.6843C23.014 19.5209 22.8249 19.2887 22.7133 19.0169C22.6016 18.7452 22.5724 18.4462 22.6293 18.1578C22.6862 17.8693 22.8267 17.6044 23.033 17.3964C23.2393 17.1884 23.5022 17.0468 23.7883 16.9894C24.0745 16.9321 24.3711 16.9615 24.6406 17.0741C24.9102 17.1866 25.1406 17.3772 25.3026 17.6217C25.4647 17.8663 25.5512 18.1538 25.5512 18.4479C25.5512 18.8423 25.3958 19.2205 25.1192 19.4994C24.8425 19.7782 24.4673 19.9349 24.0761 19.9349Z" fill="#1B8BC8"/>
</svg>
