<svg width="22" height="19" viewBox="0 0 22 19" fill="none" xmlns="http://www.w3.org/2000/svg">
<path d="M20.1961 13.4039H6.23906L6.93984 11.9766L18.5836 11.9555C18.9773 11.9555 19.3148 11.6742 19.3852 11.2852L20.9977 2.25937C21.0398 2.02266 20.9766 1.77891 20.8219 1.59375C20.7454 1.50263 20.6501 1.42922 20.5424 1.37863C20.4348 1.32804 20.3174 1.30148 20.1984 1.30078L5.38594 1.25156L5.25937 0.65625C5.17969 0.276562 4.8375 0 4.44844 0H0.827344C0.607918 0 0.39748 0.0871662 0.242323 0.242323C0.0871663 0.39748 0 0.607919 0 0.827344C0 1.04677 0.0871663 1.25721 0.242323 1.41236C0.39748 1.56752 0.607918 1.65469 0.827344 1.65469H3.77812L4.33125 4.28437L5.69297 10.8773L3.93984 13.7391C3.8488 13.8619 3.79396 14.0078 3.78154 14.1603C3.76911 14.3127 3.79959 14.4656 3.86953 14.6016C4.01016 14.8805 4.29375 15.0563 4.60781 15.0563H6.07969C5.7659 15.473 5.59642 15.9807 5.59687 16.5023C5.59687 17.8289 6.675 18.907 8.00156 18.907C9.32812 18.907 10.4062 17.8289 10.4062 16.5023C10.4062 15.9797 10.2328 15.4711 9.92344 15.0563H13.6992C13.3854 15.473 13.2159 15.9807 13.2164 16.5023C13.2164 17.8289 14.2945 18.907 15.6211 18.907C16.9477 18.907 18.0258 17.8289 18.0258 16.5023C18.0258 15.9797 17.8523 15.4711 17.543 15.0563H20.1984C20.6531 15.0563 21.0258 14.6859 21.0258 14.2289C21.0244 14.0097 20.9364 13.8 20.781 13.6454C20.6255 13.4908 20.4153 13.404 20.1961 13.4039ZM5.73047 2.88281L19.2258 2.92734L17.9039 10.3289L7.30312 10.3477L5.73047 2.88281ZM8.00156 17.243C7.59375 17.243 7.26094 16.9102 7.26094 16.5023C7.26094 16.0945 7.59375 15.7617 8.00156 15.7617C8.40937 15.7617 8.74219 16.0945 8.74219 16.5023C8.74219 16.6988 8.66416 16.8871 8.52526 17.026C8.38637 17.1649 8.19799 17.243 8.00156 17.243ZM15.6211 17.243C15.2133 17.243 14.8805 16.9102 14.8805 16.5023C14.8805 16.0945 15.2133 15.7617 15.6211 15.7617C16.0289 15.7617 16.3617 16.0945 16.3617 16.5023C16.3617 16.6988 16.2837 16.8871 16.1448 17.026C16.0059 17.1649 15.8175 17.243 15.6211 17.243Z" fill="white"/>
</svg>
