<svg width="50" height="50" viewBox="0 0 50 50" fill="none" xmlns="http://www.w3.org/2000/svg">
<circle cx="25" cy="25" r="25" fill="white"/>
<path d="M12 37.4917V38.7187C12 38.874 12.1259 39 12.2813 39H14.1751C14.3304 39 14.4563 38.874 14.4563 38.7187V37.4917H12Z" fill="#005981"/>
<path d="M18.8944 23.6101H17.2069V22.6201H15.0918V26.8671H17.2069V25.8771H18.8944V26.8671H21.24V22.6201H18.8944V23.6101Z" fill="#005981"/>
<path d="M18.61 22.6201H17.4883V23.3295H18.61V22.6201Z" fill="#005981"/>
<path d="M18.61 26.1577H17.4883V26.867H18.61V26.1577Z" fill="#005981"/>
<path d="M26.0607 23.6101H24.3788V22.6201H22.1455V26.8671H24.3731V25.8771H26.0607V26.8671H28.2938V22.6201H26.0607V23.6101Z" fill="#005981"/>
<path d="M25.781 22.6201H24.6592V23.3295H25.781V22.6201Z" fill="#005981"/>
<path d="M25.778 26.1577H24.6562V26.867H25.778V26.1577Z" fill="#005981"/>
<path d="M33.1087 23.6101H31.4268V22.6201H29.1992V26.8671H31.4268V25.8771H33.1143V26.8671H35.342V22.6201H33.1087V23.6101Z" fill="#005981"/>
<path d="M32.8278 22.6201H31.7061V23.3295H32.8278V22.6201Z" fill="#005981"/>
<path d="M32.8317 26.1577H31.71V26.867H32.8317V26.1577Z" fill="#005981"/>
<path d="M21.3922 16.3819L20.7452 15.9881L20.3796 16.2131L20.014 15.9881L19.3671 16.3819V14.9868H16.3857V20.3532H19.3671V18.9582L20.014 19.3519L20.3796 19.1269L20.7452 19.3519L21.3922 18.9582V20.3532H24.3735V14.9868H21.3922V16.3819Z" fill="#005981"/>
<path d="M31.0669 16.3819L30.42 15.9881L30.06 16.2131L29.6943 15.9881L29.0475 16.3819V14.9868H26.0605V20.3532H29.0475V18.9582L29.6943 19.3519L30.06 19.1269L30.42 19.3519L31.0669 18.9582V20.3532H34.0539V14.9868H31.0669V16.3819Z" fill="#005981"/>
<path d="M20.3797 15.8819L20.7444 15.6618L21.1091 15.8819V14.9868H19.6504V15.8819L20.0151 15.6618L20.3797 15.8819Z" fill="#005981"/>
<path d="M30.0574 15.8819L30.4221 15.6618L30.7867 15.8819V14.9868H29.3281V15.8819L29.6928 15.6618L30.0574 15.8819Z" fill="#005981"/>
<path d="M20.3797 19.4585L20.0151 19.6786L19.6504 19.4585V20.3536H21.1091V19.4585L20.7444 19.6786L20.3797 19.4585Z" fill="#005981"/>
<path d="M30.0574 19.4585L29.6928 19.6786L29.3281 19.4585V20.3536H30.7867V19.4585L30.4221 19.6786L30.0574 19.4585Z" fill="#005981"/>
<path d="M35.9814 37.4917V38.7187C35.9814 38.8741 36.1073 39 36.2627 39H38.1565C38.3119 39 38.4378 38.8741 38.4378 38.7187V37.4917H35.9814Z" fill="#005981"/>
<path d="M21.3922 30.5293L20.7452 30.1356L20.3796 30.3606L20.014 30.1356L19.3671 30.5293V29.1343H16.3857V34.5063H19.3671V33.1113L20.014 33.505L20.3796 33.28L20.7452 33.505L21.3922 33.1113V34.5063H24.3735V29.1343H21.3922V30.5293Z" fill="#005981"/>
<path d="M31.0669 30.5293L30.42 30.1356L30.06 30.3606L29.6943 30.1356L29.0475 30.5293V29.1343H26.0605V34.5063H29.0475V33.1113L29.6943 33.505L30.06 33.28L30.42 33.505L31.0669 33.1113V34.5063H34.0539V29.1343H31.0669V30.5293Z" fill="#005981"/>
<path d="M36.3548 36.9307H38.0649V12H36.3548V13.2825H14.0848V12H12.3691V36.9307H14.0848V36.2107H36.3548V36.9307ZM14.0848 14.4244H36.3548V20.9159H14.0848V14.4244ZM14.0848 22.0578H36.3548V27.4298H14.0848V22.0578ZM14.0848 35.0688V28.5717H36.3548V35.0688H14.0848Z" fill="#005981"/>
<path d="M20.3797 30.0294L20.7444 29.8092L21.1091 30.0294V29.1343H19.6504V30.0294L20.0151 29.8092L20.3797 30.0294Z" fill="#005981"/>
<path d="M30.0574 30.0294L30.4221 29.8092L30.7867 30.0294V29.1343H29.3281V30.0294L29.6928 29.8092L30.0574 30.0294Z" fill="#005981"/>
<path d="M20.3797 33.6113L20.0151 33.8314L19.6504 33.6113V34.5065H21.1091V33.6113L20.7444 33.8314L20.3797 33.6113Z" fill="#005981"/>
<path d="M30.0574 33.6113L29.6928 33.8314L29.3281 33.6113V34.5065H30.7867V33.6113L30.4221 33.8314L30.0574 33.6113Z" fill="#005981"/>
</svg>
