<svg width="50" height="50" viewBox="0 0 50 50" fill="none" xmlns="http://www.w3.org/2000/svg">
<circle cx="25" cy="25" r="25" fill="white"/>
<path d="M28.3203 33.6523V35.3881C28.8411 35.3447 29.3184 35.0844 29.3184 34.5636C29.3184 33.9995 28.8844 33.8259 28.3203 33.6523Z" fill="#004B6D"/>
<path d="M31.6614 24.1488C31.4011 24.3223 31.1407 24.4091 30.8369 24.4091C30.9671 24.6261 31.0105 24.8865 31.0105 25.1469C31.0105 26.0581 30.2728 26.7959 29.3615 26.7959H27.4521C26.5408 26.7959 25.8031 26.0581 25.8031 25.1469C25.8031 24.7997 25.9333 24.4525 26.1069 24.1922C25.5861 23.8884 25.2824 23.4111 25.2824 22.6733C18.6863 33.6957 18.6863 35.5183 18.9033 35.822C20.1618 37.6012 23.6768 38.7729 27.8861 38.7729C32.1388 38.7729 35.6538 37.6012 36.9122 35.822C37.4764 34.9975 35.2632 30.0071 31.6614 24.1488Z" fill="#004B6D"/>
<g clip-path="url(#clip0)">
<path d="M29.1103 31.4439H28.1552L28.3718 31.8019H29.1103V31.4439ZM29.1351 33.0582C29.128 32.9866 29.1221 32.9161 29.1174 32.8467C29.1127 32.7772 29.1103 32.7122 29.1103 32.6514V32.199H28.6132L29.1351 33.0582ZM27.6191 31.8019L27.4025 31.4439H26.6427V31.8019H27.6191ZM26.6214 30.1584C26.6285 30.2278 26.6332 30.2961 26.6356 30.3634C26.6403 30.4285 26.6427 30.4893 26.6427 30.5457V31.0501H27.1611L26.6214 30.1584ZM29.792 31.4439V31.8019H30.3956V32.0135C30.3956 32.0612 30.3743 32.1046 30.3317 32.1437C30.2914 32.1806 30.2405 32.199 30.179 32.199H29.792V33.9533H29.1316C29.0677 33.9533 29.0132 33.9435 28.9683 33.924C28.9233 33.9023 28.8807 33.8675 28.8404 33.8198L27.857 32.199H26.6427V33.9533H25.961V32.199H25.3574V31.8019H25.961V31.4439H25.3574V31.2356C25.3574 31.1879 25.3775 31.1456 25.4178 31.1087C25.4604 31.0697 25.5136 31.0501 25.5776 31.0501H25.961V29.2666H26.6285C26.664 29.2666 26.6948 29.2688 26.7208 29.2731C26.7468 29.2753 26.7693 29.2807 26.7883 29.2894C26.8096 29.2981 26.8297 29.3111 26.8486 29.3284C26.8676 29.3458 26.8877 29.3675 26.909 29.3935L27.9138 31.0501H29.1103V29.2666H29.792V31.0501H30.3956V31.4439H29.792Z" fill="white"/>
</g>
<path d="M31.4447 22.8036C31.4447 22.4131 31.1409 22.0659 30.707 22.0659H26.9316C26.5411 22.0659 26.2373 22.3697 26.2373 22.8036C26.2373 23.1942 26.5411 23.498 26.9316 23.498H30.707C31.1409 23.498 31.4447 23.1942 31.4447 22.8036Z" fill="#004B6D"/>
<path d="M26.8447 18.811H29.7088L28.1466 17.0752C27.8428 17.2922 27.2353 17.8563 26.8447 18.811Z" fill="#004B6D"/>
<path d="M27.4526 24.4526C27.062 24.4526 26.7148 24.7564 26.7148 25.147C26.7148 25.5375 27.0186 25.8413 27.4526 25.8413H29.4053C29.7959 25.8413 30.0997 25.5375 30.0997 25.147C30.0997 24.7564 29.7959 24.4526 29.4053 24.4526H27.4526Z" fill="#004B6D"/>
<path d="M25.0656 21.2847C24.892 21.0243 24.8052 20.7205 24.8052 20.4168C24.8052 19.7659 25.1958 19.1583 25.7599 18.898C26.2372 17.3357 27.2353 16.5112 27.7127 16.2075C28.0598 15.9905 28.4938 16.0339 28.7542 16.3377L30.49 18.2904C30.9673 18.8112 32.2692 18.0301 31.6616 17.2056L30.0994 14.9056C29.7956 14.4717 29.2749 14.2113 28.7108 14.2547H23.4166C22.6355 14.2547 21.8544 14.6019 21.377 15.2094C20.3355 16.4678 18.9903 18.4206 18.6865 18.898V28.4449H20.9431C21.9411 26.5355 23.3298 24.1921 25.0656 21.2847Z" fill="#004B6D"/>
<path d="M26.7576 13.2999H28.667C29.4915 13.2131 30.3594 13.6471 30.8368 14.3414L31.2707 14.9489C32.5726 11.4773 32.5292 11.6509 32.4858 11.6075C32.4424 11.6509 31.5745 11.8245 31.5745 11.8245C31.3141 11.9547 30.967 11.9547 30.7066 11.7811L29.3613 11L28.0161 11.7811C27.7557 11.9547 27.452 11.9547 27.1482 11.8245C26.3671 11.6075 26.3671 11.6509 26.2803 11.6075C26.1935 11.6509 26.1935 11.4773 26.7576 13.2999Z" fill="#004B6D"/>
<path d="M17.4282 16.6846H14.3038C14.1302 16.6846 14 16.8148 14 16.9883V29.4427C14 29.6163 14.1302 29.7465 14.3038 29.7465H17.3848C17.5584 29.7465 17.6886 29.6163 17.6886 29.4427V16.9883C17.732 16.8148 17.6018 16.6846 17.4282 16.6846ZM16.3433 19.1581C16.3433 19.4185 16.1264 19.6354 15.866 19.6354C15.6056 19.6354 15.3886 19.4185 15.3886 19.1581V18.2468C15.3886 17.9864 15.6056 17.7694 15.866 17.7694C16.1264 17.7694 16.3433 17.9864 16.3433 18.2468V19.1581Z" fill="#004B6D"/>
<path d="M26.498 19.7222C26.1075 19.7222 25.8037 20.0259 25.8037 20.4599C25.8037 20.8504 26.1075 21.1542 26.498 21.1542C27.9301 21.1542 31.1847 21.1542 32.6167 21.1542C33.0073 21.1542 33.311 20.8504 33.311 20.4599C33.311 20.0693 33.0073 19.7656 32.6167 19.7222C31.9658 19.7222 34.8733 19.7222 26.498 19.7222Z" fill="#004B6D"/>
<defs>
<clipPath id="clip0">
<rect width="5.2074" height="4.77345" fill="white" transform="translate(25.2822 29.2261)"/>
</clipPath>
</defs>
</svg>
