<svg width="50" height="50" viewBox="0 0 50 50" fill="none" xmlns="http://www.w3.org/2000/svg">
<circle cx="25" cy="25" r="25" fill="white"/>
<path d="M18.702 23.9648C18.9652 23.9648 19.1406 23.7894 19.1406 23.5262V22.649C19.1406 22.3859 18.9652 22.2104 18.702 22.2104H16.0704C15.8073 22.2104 15.6318 22.3859 15.6318 22.649V23.5262C15.6318 23.7894 15.8073 23.9648 16.0704 23.9648H16.509V30.5438H16.0704C15.8073 30.5438 15.6318 30.7192 15.6318 30.9824V31.8596C15.6318 32.1227 15.8073 32.2982 16.0704 32.2982H18.702C18.9652 32.2982 19.1406 32.1227 19.1406 31.8596V30.9824C19.1406 30.7192 18.9652 30.5438 18.702 30.5438H18.2634V23.9648H18.702Z" fill="#8E7857"/>
<path d="M34.4911 23.9648C34.7542 23.9648 34.9297 23.7894 34.9297 23.5262V22.649C34.9297 22.3859 34.7542 22.2104 34.4911 22.2104H31.8595C31.5963 22.2104 31.4209 22.3859 31.4209 22.649V23.5262C31.4209 23.7894 31.5963 23.9648 31.8595 23.9648H32.2981V30.5438H31.8595C31.5963 30.5438 31.4209 30.7192 31.4209 30.9824V31.8596C31.4209 32.1227 31.5963 32.2982 31.8595 32.2982H34.4911C34.7542 32.2982 34.9297 32.1227 34.9297 31.8596V30.9824C34.9297 30.7192 34.7542 30.5438 34.4911 30.5438H34.0525V23.9648H34.4911Z" fill="#8E7857"/>
<path d="M25.2807 13L13 19.5789V21.3333H37.5614V19.5789L25.2807 13ZM25.2807 18.7018C24.3158 18.7018 23.5263 17.9123 23.5263 16.9474C23.5263 15.9825 24.3158 15.193 25.2807 15.193C26.2456 15.193 27.0351 15.9825 27.0351 16.9474C27.0351 17.9123 26.2456 18.7018 25.2807 18.7018Z" fill="#8E7857"/>
<path d="M19.0965 35.8071H13V37.5615H20.0175C19.6228 37.0352 19.3158 36.4212 19.0965 35.8071Z" fill="#8E7857"/>
<path d="M31.465 35.8071C31.2457 36.4212 30.9387 37.0352 30.5439 37.5615H37.5615V35.8071H31.465Z" fill="#8E7857"/>
<path d="M18.7014 33.6139C18.7014 33.4823 18.7014 33.3069 18.7453 33.1753H14.3154V34.9297H18.833C18.7453 34.4911 18.7014 34.0525 18.7014 33.6139Z" fill="#8E7857"/>
<path d="M31.8162 33.1753C31.8162 33.3069 31.8601 33.4823 31.8601 33.6139C31.8601 34.0525 31.8162 34.4911 31.7285 34.9297H36.2461V33.1753H31.8162Z" fill="#8E7857"/>
<path d="M29.2284 22.2104H26.5968C26.3336 22.2104 26.1582 22.3859 26.1582 22.649V23.5262C26.1582 23.7894 26.3336 23.9648 26.5968 23.9648H27.0354V27.2982C27.6494 27.4736 28.2635 27.7368 28.7898 28.0438V23.9648H29.2284C29.4915 23.9648 29.667 23.7894 29.667 23.5262V22.649C29.667 22.3859 29.4915 22.2104 29.2284 22.2104Z" fill="#8E7857"/>
<path d="M23.9647 22.2104H21.3331C21.07 22.2104 20.8945 22.3859 20.8945 22.649V23.5262C20.8945 23.7894 21.07 23.9648 21.3331 23.9648H21.7717V28.0438C22.298 27.7368 22.9121 27.4736 23.5261 27.2982V23.9648H23.9647C24.2279 23.9648 24.4033 23.7894 24.4033 23.5262V22.649C24.4033 22.3859 24.2279 22.2104 23.9647 22.2104Z" fill="#8E7857"/>
<path d="M20.8945 33.614C20.8945 33.038 21.008 32.4677 21.2284 31.9356C21.4488 31.4034 21.7719 30.9199 22.1792 30.5126C22.5864 30.1054 23.0699 29.7823 23.6021 29.5619C24.1342 29.3415 24.7045 29.228 25.2805 29.228C25.8565 29.228 26.4268 29.3415 26.9589 29.5619C27.4911 29.7823 27.9746 30.1054 28.3818 30.5126C28.7891 30.9199 29.1122 31.4034 29.3326 31.9356C29.553 32.4677 29.6665 33.038 29.6665 33.614C29.6665 34.7772 29.2044 35.8928 28.3818 36.7153C27.5593 37.5379 26.4437 38 25.2805 38C24.1173 38 23.0017 37.5379 22.1792 36.7153C21.3566 35.8928 20.8945 34.7772 20.8945 33.614ZM25.2805 31.421C25.1836 31.421 25.0906 31.4595 25.0221 31.5281C24.9535 31.5966 24.915 31.6896 24.915 31.7865V33.2485H23.453C23.3561 33.2485 23.2631 33.287 23.1946 33.3555C23.126 33.4241 23.0875 33.5171 23.0875 33.614C23.0875 33.7109 23.126 33.8039 23.1946 33.8724C23.2631 33.941 23.3561 33.9795 23.453 33.9795H24.915V35.4415C24.915 35.5384 24.9535 35.6314 25.0221 35.6999C25.0906 35.7685 25.1836 35.807 25.2805 35.807C25.3774 35.807 25.4704 35.7685 25.5389 35.6999C25.6075 35.6314 25.646 35.5384 25.646 35.4415V33.9795H27.108C27.2049 33.9795 27.2979 33.941 27.3664 33.8724C27.435 33.8039 27.4735 33.7109 27.4735 33.614C27.4735 33.5171 27.435 33.4241 27.3664 33.3555C27.2979 33.287 27.2049 33.2485 27.108 33.2485H25.646V31.7865C25.646 31.6896 25.6075 31.5966 25.5389 31.5281C25.4704 31.4595 25.3774 31.421 25.2805 31.421Z" fill="#8E7857"/>
</svg>
