<svg width="50" height="50" viewBox="0 0 50 50" fill="none" xmlns="http://www.w3.org/2000/svg">
<circle cx="25" cy="25" r="25" fill="white"/>
<path fill-rule="evenodd" clip-rule="evenodd" d="M20.609 18.3462C20.1534 18.3462 19.7843 18.7153 19.7843 19.171C19.7843 19.6266 20.1534 19.9949 20.609 19.9949H28.0535C28.5091 19.9949 28.8778 19.6266 28.8778 19.171C28.8778 18.7153 28.5091 18.3462 28.0535 18.3462H20.609ZM27.9239 20.7003H20.8077C20.4876 21.3836 19.7456 22.1162 18.8639 22.9865C16.7976 25.0265 13.9646 27.8233 14.0003 32.517C14.0434 38.0824 18.198 39 24.3494 39H24.3658H24.3827C26.6093 39 28.5743 38.8797 30.1773 38.4623C29.3274 37.5392 28.8084 36.3066 28.8084 34.9529C28.8084 32.0904 31.1289 29.7699 33.9913 29.7699C34.1304 29.7699 34.2681 29.7754 34.4044 29.7862C33.6047 26.6755 31.4976 24.5954 29.8676 22.9862C28.9861 22.116 28.2441 21.3835 27.9239 20.7003ZM20.9482 17.8285H27.8716C28.3385 16.2534 28.931 15.4491 29.3175 14.9244C29.7854 14.2893 29.9514 14.0639 29.2271 13.3773C27.905 12.1231 23.4301 11.2755 20.4964 12.8787C18.6628 13.8805 18.8949 14.2035 19.5786 15.1553C19.9887 15.7261 20.5613 16.5232 20.9482 17.8285ZM26.1346 28.6361H24.8966L25.1774 29.1423H26.1346V28.6361ZM26.1668 30.9188C26.1576 30.8176 26.15 30.7178 26.1438 30.6197C26.1377 30.5215 26.1346 30.4294 26.1346 30.3435V29.7038H25.4903L26.1668 30.9188ZM24.2017 29.1423L23.9209 28.6361H22.9361V29.1423H24.2017ZM22.9084 26.8182C22.9176 26.9164 22.9238 27.013 22.9268 27.1081C22.933 27.2002 22.9361 27.2861 22.9361 27.3659V28.0792H23.608L22.9084 26.8182ZM27.0183 28.6361V29.1423H27.8007V29.4415C27.8007 29.509 27.773 29.5703 27.7178 29.6256C27.6657 29.6777 27.5997 29.7038 27.5199 29.7038H27.0183V32.1844H26.1622C26.0794 32.1844 26.0088 32.1706 25.9505 32.143C25.8922 32.1123 25.837 32.0633 25.7849 31.9958L24.51 29.7038H22.9361V32.1844H22.0524V29.7038H21.27V29.1423H22.0524V28.6361H21.27V28.3415C21.27 28.274 21.2961 28.2142 21.3483 28.1621C21.4035 28.1068 21.4725 28.0792 21.5554 28.0792H22.0524V25.5572H22.9176C22.9637 25.5572 23.0036 25.5602 23.0373 25.5664C23.0711 25.5694 23.1002 25.5771 23.1247 25.5894C23.1524 25.6017 23.1784 25.6201 23.203 25.6446C23.2275 25.6692 23.2536 25.6998 23.2812 25.7367L24.5837 28.0792H26.1346V25.5572H27.0183V28.0792H27.8007V28.6361H27.0183Z" fill="#076A52"/>
<path d="M30 35C30 34.4747 30.1035 33.9546 30.3045 33.4693C30.5055 32.984 30.8001 32.543 31.1716 32.1716C31.543 31.8001 31.984 31.5055 32.4693 31.3045C32.9546 31.1035 33.4747 31 34 31C34.5253 31 35.0454 31.1035 35.5307 31.3045C36.016 31.5055 36.457 31.8001 36.8284 32.1716C37.1999 32.543 37.4945 32.984 37.6955 33.4693C37.8965 33.9546 38 34.4747 38 35C38 36.0609 37.5786 37.0783 36.8284 37.8284C36.0783 38.5786 35.0609 39 34 39C32.9391 39 31.9217 38.5786 31.1716 37.8284C30.4214 37.0783 30 36.0609 30 35ZM34 33C33.9116 33 33.8268 33.0351 33.7643 33.0976C33.7018 33.1601 33.6667 33.2449 33.6667 33.3333V34.6667H32.3333C32.2449 34.6667 32.1601 34.7018 32.0976 34.7643C32.0351 34.8268 32 34.9116 32 35C32 35.0884 32.0351 35.1732 32.0976 35.2357C32.1601 35.2982 32.2449 35.3333 32.3333 35.3333H33.6667V36.6667C33.6667 36.7551 33.7018 36.8399 33.7643 36.9024C33.8268 36.9649 33.9116 37 34 37C34.0884 37 34.1732 36.9649 34.2357 36.9024C34.2982 36.8399 34.3333 36.7551 34.3333 36.6667V35.3333H35.6667C35.7551 35.3333 35.8399 35.2982 35.9024 35.2357C35.9649 35.1732 36 35.0884 36 35C36 34.9116 35.9649 34.8268 35.9024 34.7643C35.8399 34.7018 35.7551 34.6667 35.6667 34.6667H34.3333V33.3333C34.3333 33.2449 34.2982 33.1601 34.2357 33.0976C34.1732 33.0351 34.0884 33 34 33Z" fill="#076A52"/>
</svg>
