<svg width="50" height="50" viewBox="0 0 50 50" fill="none" xmlns="http://www.w3.org/2000/svg">
<circle cx="25" cy="25" r="25" fill="white"/>
<path fill-rule="evenodd" clip-rule="evenodd" d="M25.9757 18.4833C25.9757 19.8859 27.1141 21.0243 28.5167 21.0243H34V35.8684C34 36.712 33.319 37.393 32.4754 37.393H17.5246C16.6861 37.393 16 36.712 16 35.8684V14.5246C16 13.681 16.681 13 17.5246 13H25.9757V18.4833ZM26.8803 26.3247L24.2021 23.6465C24.004 23.4483 23.6838 23.4483 23.4856 23.6465L18.7849 28.3473C18.5867 28.5455 18.5867 28.8656 18.7849 29.0638C18.8865 29.1654 19.0136 29.2112 19.1457 29.2112C19.2727 29.2112 19.4049 29.1654 19.5014 29.0638L23.8413 24.7239L26.5195 27.402C26.7177 27.6002 27.0429 27.6002 27.2411 27.402L30.5342 24.109C30.7324 23.9108 30.7324 23.5855 30.5342 23.3874C30.336 23.1892 30.0158 23.1892 29.8176 23.3874L26.8803 26.3247ZM18.0327 35.3602H20.2586V30.7815H18.0327V35.3602ZM21.9356 35.3602H24.1615V29.8159H21.9356V35.3602ZM25.8385 35.3602H28.0644V32.4433H25.8385V35.3602ZM29.7414 35.3602H31.9672V27.2394H29.7414V35.3602ZM20.49 19.1517H21.3288V19.4947H20.6802L20.49 19.1517ZM21.3351 20.4958C21.3392 20.5623 21.3444 20.6299 21.3506 20.6985L20.8922 19.8752H21.3288V20.3087C21.3288 20.3669 21.3309 20.4292 21.3351 20.4958ZM19.8289 19.1517L20.0191 19.4947H19.1615V19.1517H19.8289ZM19.1553 18.1164C19.1532 18.052 19.149 17.9865 19.1428 17.9199L19.6168 18.7744H19.1615V18.291C19.1615 18.237 19.1594 18.1788 19.1553 18.1164ZM21.9276 19.4947V19.1517H22.4577V18.7744H21.9276V17.0655H21.3288V18.7744H20.2779L19.3954 17.1871C19.3767 17.1622 19.359 17.1414 19.3424 17.1247C19.3258 17.1081 19.3081 17.0956 19.2894 17.0873C19.2727 17.079 19.253 17.0738 19.2301 17.0717C19.2073 17.0676 19.1802 17.0655 19.149 17.0655H18.5628V18.7744H18.226C18.1699 18.7744 18.1231 18.7931 18.0857 18.8305C18.0503 18.8659 18.0327 18.9064 18.0327 18.9521V19.1517H18.5628V19.4947H18.0327V19.8752H18.5628V21.556H19.1615V19.8752H20.228L21.0918 21.4282C21.1272 21.4739 21.1646 21.5072 21.2041 21.528C21.2436 21.5467 21.2914 21.556 21.3475 21.556H21.9276V19.8752H22.2675C22.3215 19.8752 22.3662 19.8575 22.4016 19.8222C22.439 19.7848 22.4577 19.7432 22.4577 19.6974V19.4947H21.9276Z" fill="#FF8736"/>
<path d="M28.5167 20.0077H33.8629C33.7867 19.8451 33.685 19.6926 33.5529 19.5605C27.1106 13.1182 27.3937 13.3179 26.9922 13.1421V18.4831C26.9922 19.3267 27.6732 20.0077 28.5167 20.0077Z" fill="#FF8736"/>
</svg>
