<svg width="50" height="50" viewBox="0 0 50 50" fill="none" xmlns="http://www.w3.org/2000/svg">
<circle cx="25" cy="25" r="25" fill="white"/>
<g clip-path="url(#clip0)">
<path d="M12.8439 21.3197V21.8693C12.8429 21.8962 12.8475 21.923 12.8573 21.9481C12.8672 21.9732 12.8821 21.996 12.9012 22.015C12.9202 22.0341 12.943 22.049 12.9681 22.0588C12.9931 22.0687 13.02 22.0733 13.0469 22.0723H36.8544C36.8812 22.0728 36.9078 22.0678 36.9326 22.0578C36.9575 22.0478 36.9801 22.0328 36.999 22.0139C37.018 21.9949 37.0329 21.9724 37.0429 21.9475C37.053 21.9227 37.0579 21.8961 37.0574 21.8693V21.3477C37.0581 21.3136 37.0505 21.2798 37.0353 21.2493C37.02 21.2188 36.9976 21.1925 36.9699 21.1726L25.0679 13.0408C25.0348 13.0138 24.9934 12.999 24.9506 12.999C24.9079 12.999 24.8665 13.0138 24.8334 13.0408L12.9314 21.1131C12.9032 21.1395 12.8808 21.1716 12.8658 21.2071C12.8507 21.2427 12.8432 21.281 12.8439 21.3197Z" fill="#096DD9"/>
<path d="M13.4531 32.7314V33.6871C13.4531 33.7799 13.49 33.8689 13.5557 33.9346C13.6213 34.0002 13.7103 34.0371 13.8032 34.0371H36.3644C36.4573 34.0371 36.5463 34.0002 36.612 33.9346C36.6776 33.8689 36.7145 33.7799 36.7145 33.6871V32.7314C36.7145 32.6386 36.6776 32.5495 36.612 32.4839C36.5463 32.4182 36.4573 32.3813 36.3644 32.3813H13.7997C13.7091 32.3872 13.6238 32.4261 13.5599 32.4906C13.4961 32.5551 13.4581 32.6408 13.4531 32.7314Z" fill="#096DD9"/>
<path d="M33.0527 25.6021C33.1075 25.6031 33.162 25.5929 33.2126 25.5719C33.2633 25.551 33.3091 25.5199 33.3472 25.4805C33.3853 25.4411 33.4149 25.3942 33.4341 25.3429C33.4533 25.2915 33.4617 25.2368 33.4588 25.182V24.6884H35.7517C35.7786 24.6894 35.8054 24.6848 35.8305 24.675C35.8556 24.6651 35.8784 24.6502 35.8974 24.6312C35.9165 24.6121 35.9314 24.5893 35.9413 24.5643C35.9511 24.5392 35.9557 24.5123 35.9547 24.4854V23.2637C35.9557 23.2368 35.9511 23.2099 35.9413 23.1849C35.9314 23.1598 35.9165 23.137 35.8974 23.118C35.8784 23.0989 35.8556 23.084 35.8305 23.0741C35.8054 23.0643 35.7786 23.0597 35.7517 23.0607H13.9745C13.9478 23.0602 13.9211 23.0651 13.8963 23.0752C13.8714 23.0852 13.8489 23.1001 13.8299 23.1191C13.811 23.138 13.796 23.1606 13.786 23.1855C13.776 23.2103 13.771 23.2369 13.7715 23.2637V24.4854C13.771 24.5122 13.776 24.5388 13.786 24.5637C13.796 24.5885 13.811 24.6111 13.8299 24.63C13.8489 24.649 13.8714 24.6639 13.8963 24.674C13.9211 24.684 13.9478 24.6889 13.9745 24.6884H15.9209V25.182C15.918 25.2368 15.9264 25.2915 15.9456 25.3429C15.9648 25.3942 15.9944 25.4411 16.0325 25.4805C16.0706 25.5199 16.1164 25.551 16.167 25.5719C16.2177 25.5929 16.2721 25.6031 16.3269 25.6021H16.551V30.0898H16.3199C16.2662 30.0893 16.2129 30.0997 16.1633 30.1205C16.1137 30.1413 16.0689 30.1719 16.0316 30.2105C15.9942 30.2492 15.9651 30.2951 15.9461 30.3453C15.9271 30.3956 15.9185 30.4492 15.9209 30.5029V31.3081C15.9199 31.3616 15.9298 31.4149 15.9499 31.4646C15.9699 31.5143 15.9998 31.5594 16.0377 31.5973C16.0756 31.6352 16.1207 31.6651 16.1704 31.6851C16.2201 31.7052 16.2734 31.7151 16.3269 31.7141H19.0259C19.0798 31.7155 19.1334 31.706 19.1835 31.6862C19.2336 31.6663 19.2792 31.6365 19.3174 31.5986C19.3557 31.5606 19.3859 31.5153 19.4062 31.4654C19.4265 31.4155 19.4364 31.3619 19.4355 31.3081V30.5029C19.4369 30.4489 19.4273 30.3951 19.4072 30.345C19.3871 30.2948 19.3569 30.2493 19.3185 30.2113C19.2802 30.1732 19.2344 30.1434 19.1841 30.1237C19.1337 30.1041 19.0799 30.0949 19.0259 30.0968H18.7949V25.6021H19.0259C19.0798 25.6035 19.1334 25.594 19.1835 25.5742C19.2336 25.5543 19.2792 25.5245 19.3174 25.4866C19.3557 25.4486 19.3859 25.4033 19.4062 25.3534C19.4265 25.3034 19.4364 25.2499 19.4355 25.196V24.6884H23.2371V25.182C23.2342 25.2368 23.2426 25.2915 23.2618 25.3429C23.281 25.3942 23.3106 25.4411 23.3487 25.4805C23.3868 25.5199 23.4326 25.551 23.4833 25.5719C23.5339 25.5929 23.5884 25.6031 23.6432 25.6021H23.9022V30.0898H23.6712C23.6168 30.0884 23.5628 30.0981 23.5124 30.1184C23.462 30.1387 23.4163 30.1692 23.3782 30.208C23.3401 30.2467 23.3104 30.2929 23.2909 30.3437C23.2715 30.3944 23.2627 30.4486 23.2651 30.5029V31.3081C23.2641 31.3619 23.2741 31.4155 23.2944 31.4654C23.3147 31.5153 23.3449 31.5606 23.3831 31.5986C23.4214 31.6365 23.467 31.6663 23.5171 31.6862C23.5672 31.706 23.6208 31.7155 23.6747 31.7141H26.3736C26.4272 31.7151 26.4804 31.7052 26.5301 31.6851C26.5798 31.6651 26.625 31.6352 26.6629 31.5973C26.7008 31.5594 26.7306 31.5143 26.7507 31.4646C26.7708 31.4149 26.7806 31.3616 26.7797 31.3081V30.5029C26.7811 30.4492 26.7716 30.3957 26.7517 30.3458C26.7318 30.2959 26.702 30.2506 26.664 30.2126C26.626 30.1746 26.5806 30.1447 26.5307 30.1248C26.4808 30.1049 26.4273 30.0954 26.3736 30.0968H26.1426V25.6021H26.3736C26.4272 25.603 26.4804 25.5932 26.5301 25.5731C26.5798 25.5531 26.625 25.5232 26.6629 25.4853C26.7008 25.4474 26.7306 25.4022 26.7507 25.3525C26.7708 25.3028 26.7806 25.2496 26.7797 25.196V24.6884H29.9302V25.182C29.9274 25.2356 29.9354 25.2892 29.9537 25.3396C29.9721 25.39 30.0004 25.4362 30.037 25.4754C30.0736 25.5146 30.1177 25.546 30.1667 25.5678C30.2157 25.5896 30.2686 25.6012 30.3223 25.6021H30.5848V30.0898H30.3503C30.296 30.0884 30.2419 30.0981 30.1915 30.1184C30.1411 30.1387 30.0954 30.1692 30.0573 30.208C30.0192 30.2467 29.9895 30.2929 29.97 30.3437C29.9506 30.3944 29.9418 30.4486 29.9442 30.5029V31.3081C29.9433 31.3616 29.9531 31.4149 29.9732 31.4646C29.9933 31.5143 30.0231 31.5594 30.061 31.5973C30.0989 31.6352 30.1441 31.6651 30.1938 31.6851C30.2435 31.7052 30.2967 31.7151 30.3503 31.7141H33.0527C33.1063 31.7151 33.1595 31.7052 33.2092 31.6851C33.2589 31.6651 33.3041 31.6352 33.342 31.5973C33.3799 31.5594 33.4098 31.5143 33.4298 31.4646C33.4499 31.4149 33.4597 31.3616 33.4588 31.3081V30.5029C33.4602 30.4492 33.4507 30.3957 33.4308 30.3458C33.4109 30.2959 33.3811 30.2506 33.3431 30.2126C33.3051 30.1746 33.2597 30.1447 33.2098 30.1248C33.1599 30.1049 33.1065 30.0954 33.0527 30.0968H32.8217V25.6021H33.0527Z" fill="#096DD9"/>
<path d="M37.6978 34.7043H12.4341C12.3786 34.7025 12.3233 34.7116 12.2714 34.7312C12.2195 34.7508 12.172 34.7806 12.1317 34.8186C12.0913 34.8567 12.0589 34.9024 12.0363 34.9531C12.0137 35.0038 12.0014 35.0584 12 35.1139V36.5631C12.0026 36.6778 12.0491 36.787 12.1299 36.8684C12.2106 36.9498 12.3195 36.9972 12.4341 37.0007H37.7258C37.841 36.998 37.9508 36.9511 38.0322 36.8696C38.1137 36.7881 38.1607 36.6784 38.1634 36.5631V35.1139C38.1496 35.0004 38.0945 34.8959 38.0087 34.8203C37.9228 34.7448 37.8121 34.7035 37.6978 34.7043Z" fill="#096DD9"/>
</g>
<defs>
<clipPath id="clip0">
<rect width="26.1634" height="24" fill="white" transform="translate(12 13)"/>
</clipPath>
</defs>
</svg>
