<svg width="50" height="50" viewBox="0 0 50 50" fill="none" xmlns="http://www.w3.org/2000/svg">
<circle cx="25" cy="25" r="25" fill="white"/>
<path d="M20.0142 24.6349C23.14 24.6349 25.6739 22.1009 25.6739 18.9752C25.6739 15.8494 23.14 13.3154 20.0142 13.3154C16.8884 13.3154 14.3545 15.8494 14.3545 18.9752C14.3545 22.1009 16.8884 24.6349 20.0142 24.6349Z" fill="#D85152"/>
<path d="M25.3511 18.9749C25.3415 21.1791 23.9458 23.2261 21.8603 23.9865C20.8015 24.3715 19.6368 24.4197 18.5492 24.1116C17.5032 23.8165 16.576 23.1972 15.8829 22.363C14.452 20.6401 14.2883 18.115 15.4434 16.2092C16.5952 14.3066 18.8861 13.2927 21.071 13.7419C23.2528 14.1911 24.9468 15.9782 25.2901 18.1728C25.3351 18.4359 25.3511 18.7054 25.3511 18.9749C25.3543 19.3888 25.996 19.3888 25.9928 18.9749C25.9864 17.7428 25.611 16.5172 24.8891 15.5162C24.18 14.528 23.195 13.774 22.0528 13.3537C19.7138 12.4938 16.9802 13.2414 15.4049 15.1665C14.622 16.1258 14.1472 17.2905 14.0509 18.5257C13.9547 19.7546 14.253 21.0123 14.8915 22.0646C15.5076 23.0817 16.4348 23.9191 17.5193 24.41C18.6711 24.9298 19.9577 25.0806 21.1994 24.8335C23.6025 24.3587 25.5436 22.3438 25.9126 19.9246C25.9607 19.6102 25.9896 19.2925 25.9896 18.9749C25.996 18.561 25.3543 18.561 25.3511 18.9749Z" fill="#D85152"/>
<path d="M32.8134 25.3041C35.1471 25.3041 37.039 23.4123 37.039 21.0786C37.039 18.7449 35.1471 16.853 32.8134 16.853C30.4797 16.853 28.5879 18.7449 28.5879 21.0786C28.5879 23.4123 30.4797 25.3041 32.8134 25.3041Z" fill="#D85152"/>
<path d="M36.7175 21.0763C36.7078 22.687 35.6907 24.1885 34.1635 24.7404C32.6074 25.3018 30.8588 24.8238 29.7968 23.5564C28.7476 22.3019 28.6257 20.4507 29.4695 19.055C30.3037 17.6721 31.9721 16.9214 33.5635 17.2422C35.1678 17.563 36.4094 18.8625 36.6725 20.4763C36.7078 20.6753 36.7175 20.8774 36.7175 21.0763C36.7207 21.4902 37.3624 21.4902 37.3592 21.0763C37.3495 19.1705 36.1431 17.4572 34.356 16.7994C32.5882 16.1513 30.5123 16.716 29.3187 18.1727C28.1091 19.6485 27.9262 21.7758 28.9177 23.4185C29.9091 25.0612 31.8598 25.905 33.7336 25.5264C35.5464 25.1639 37.0191 23.6334 37.2982 21.8014C37.3335 21.5608 37.3559 21.3169 37.3592 21.0731C37.3624 20.6624 36.7207 20.6624 36.7175 21.0763Z" fill="#D85152"/>
<path d="M29.7121 33.0295V35.3428C29.7121 36.0775 29.1025 36.6711 28.3678 36.6711H11.6613C10.9266 36.6711 10.333 36.0775 10.333 35.3428V33.0295C10.333 29.4649 13.2238 26.5645 16.7884 26.5645H23.2438C24.7133 26.5645 26.0737 27.0586 27.1614 27.8863C28.7046 29.0671 29.7121 30.9312 29.7121 33.0295Z" fill="#D85152"/>
<path d="M29.3746 33.0312C29.3746 33.7338 29.3746 34.4365 29.3746 35.1391C29.3746 35.2354 29.381 35.3348 29.3714 35.4343C29.3489 35.7038 29.211 35.9573 29.0024 36.1305C28.8067 36.2909 28.5661 36.3551 28.3158 36.3551C27.4078 36.3583 26.4998 36.3551 25.5918 36.3551C23.856 36.3551 22.1203 36.3551 20.3813 36.3551C18.5942 36.3551 16.807 36.3551 15.0199 36.3551C13.9611 36.3551 12.8991 36.3551 11.8404 36.3551C11.7794 36.3551 11.7216 36.3551 11.6607 36.3551C11.1602 36.3487 10.7238 35.9829 10.6564 35.4792C10.6179 35.1969 10.65 34.8921 10.65 34.6097C10.65 34.1734 10.65 33.7338 10.65 33.2975C10.65 32.9092 10.6532 32.5242 10.711 32.1392C10.804 31.5296 10.9837 30.9264 11.2532 30.3713C11.789 29.274 12.6393 28.3468 13.6916 27.7308C14.6381 27.1757 15.7162 26.8966 16.8103 26.8966C17.3525 26.8966 17.8947 26.8966 18.4337 26.8966C19.993 26.8966 21.5492 26.8966 23.1085 26.8966C24.2828 26.8966 25.4153 27.1757 26.4228 27.7917C27.6099 28.5136 28.5436 29.6494 29.0088 30.9617C29.2559 31.6258 29.3714 32.3221 29.3746 33.0312C29.3778 33.445 30.0195 33.445 30.0163 33.0312C30.0099 31.4911 29.4869 30.0088 28.5308 28.8024C27.565 27.58 26.1533 26.7105 24.6261 26.3993C23.901 26.2517 23.179 26.2549 22.4475 26.2549C21.5748 26.2549 20.7053 26.2549 19.8326 26.2549C19.0048 26.2549 18.1739 26.2549 17.3461 26.2549C16.6113 26.2549 15.883 26.2741 15.1611 26.4506C12.5751 27.0795 10.5217 29.2869 10.1014 31.9242C9.9634 32.7873 10.0083 33.6761 10.0083 34.5488C10.0083 34.8568 9.98586 35.1712 10.0147 35.4792C10.0789 36.1883 10.6019 36.8171 11.311 36.9583C11.5997 37.0161 11.9045 36.9968 12.1965 36.9968C12.7291 36.9968 13.2649 36.9968 13.7975 36.9968C15.5012 36.9968 17.2017 36.9968 18.9054 36.9968C20.7759 36.9968 22.6464 36.9968 24.517 36.9968C25.6977 36.9968 26.8816 36.9968 28.0623 36.9968C28.1554 36.9968 28.2484 36.9968 28.3415 36.9968C28.8035 36.9936 29.2591 36.8139 29.5735 36.4674C29.9168 36.092 30.0131 35.6396 30.0131 35.1487C30.0131 34.7188 30.0131 34.2889 30.0131 33.8589C30.0131 33.583 30.0131 33.3071 30.0131 33.0312C30.0163 32.6173 29.3746 32.6173 29.3746 33.0312Z" fill="#D85152"/>
<path d="M40.0428 31.3437V33.5126C40.0428 33.9201 39.7316 34.2666 39.3337 34.2987H31.1874V32.8452C31.1874 30.5223 30.1126 28.4496 28.4346 27.0989C28.9736 26.8775 29.5607 26.7588 30.18 26.7588H35.4515C37.9862 26.7588 40.0428 28.809 40.0428 31.3437Z" fill="#D85152"/>
<path d="M39.7217 31.3437C39.7217 32.0624 39.7442 32.7875 39.7217 33.5094C39.7121 33.7918 39.5003 33.9683 39.2308 33.9683C38.9966 33.9683 38.7624 33.9683 38.5282 33.9683C36.6384 33.9683 34.7486 33.9683 32.8556 33.9683C32.2973 33.9683 31.7422 33.9683 31.184 33.9683C31.2898 34.0741 31.3989 34.1832 31.5048 34.2891C31.5048 33.5993 31.5369 32.8966 31.4759 32.21C31.3604 30.8753 30.908 29.5727 30.138 28.4722C29.7209 27.8722 29.2236 27.3331 28.6557 26.8711C28.6076 27.0508 28.5626 27.2273 28.5145 27.4069C29.06 27.1856 29.6279 27.0765 30.215 27.0765C30.43 27.0765 30.6481 27.0765 30.8631 27.0765C31.7037 27.0765 32.5411 27.0765 33.3818 27.0765C34.0363 27.0765 34.6908 27.0765 35.3486 27.0765C36.3175 27.0765 37.2448 27.3524 38.0244 27.9395C39.0928 28.7352 39.7153 30.0154 39.7217 31.3437C39.7249 31.7576 40.3666 31.7576 40.3634 31.3437C40.357 30.0186 39.8212 28.732 38.865 27.8112C37.9506 26.9289 36.7186 26.4348 35.448 26.4316C34.0106 26.4251 32.57 26.4316 31.1326 26.4316C30.8407 26.4316 30.5519 26.4316 30.2599 26.4316C29.6054 26.4316 28.9605 26.5407 28.3509 26.7845C28.152 26.8647 28.0012 27.1503 28.2097 27.3203C29.1626 28.0936 29.9294 29.0978 30.3754 30.2464C30.6032 30.8336 30.7637 31.4528 30.8278 32.0817C30.8695 32.4731 30.8663 32.8645 30.8663 33.2592C30.8663 33.6025 30.8663 33.9458 30.8663 34.2891C30.8663 34.4624 31.0139 34.61 31.1872 34.61C31.6556 34.61 32.1208 34.61 32.5893 34.61C33.5967 34.61 34.6042 34.61 35.6117 34.61C36.5485 34.61 37.4886 34.61 38.4255 34.61C38.6854 34.61 38.942 34.61 39.2019 34.61C39.6126 34.61 39.9976 34.4367 40.2126 34.0709C40.4276 33.7052 40.3634 33.2175 40.3634 32.8068C40.3634 32.3512 40.3634 31.8924 40.3634 31.4368C40.3634 31.4079 40.3634 31.3758 40.3634 31.3469C40.3634 30.9298 39.7217 30.9298 39.7217 31.3437Z" fill="#D85152"/>
</svg>
