<svg width="50" height="50" viewBox="0 0 50 50" fill="none" xmlns="http://www.w3.org/2000/svg">
<circle cx="25" cy="25" r="25" fill="white"/>
<g clip-path="url(#clip0)">
<path d="M28.564 28.9235C28.3787 28.9209 28.2018 28.8458 28.0711 28.7143L26.3229 26.9696C26.2559 26.9036 26.2026 26.8249 26.1663 26.7382C26.13 26.6514 26.1113 26.5583 26.1113 26.4643C26.1113 26.3702 26.13 26.2771 26.1663 26.1904C26.2026 26.1036 26.2559 26.0249 26.3229 25.9589L28.0711 24.2142C28.2 24.0789 28.3772 23.9998 28.564 23.9944H36.5854V20.9092C36.5827 19.967 36.2091 19.0636 35.5454 18.3947C34.8818 17.7258 33.9815 17.345 33.0393 17.3347L27.2484 13.4659C26.9448 13.2627 26.6042 13.1213 26.2459 13.0498C25.8877 12.9784 25.5189 12.9782 25.1606 13.0493C24.8023 13.1204 24.4615 13.2615 24.1577 13.4644C23.8539 13.6673 23.5931 13.9281 23.3902 14.2319L22.9611 14.8808L20.9079 14.1468C20.1418 13.8742 19.2989 13.9158 18.5633 14.2627C17.8278 14.6095 17.2594 15.2333 16.9823 15.9978L16.5036 17.3347H15.5745C14.6274 17.3375 13.7198 17.715 13.0501 18.3848C12.3803 19.0545 12.0028 19.9621 12 20.9092L12 32.9307C12.0028 33.8778 12.3803 34.7854 13.0501 35.4551C13.7198 36.1249 14.6274 36.5024 15.5745 36.5052H33.0109C33.9583 36.5033 34.8664 36.1261 35.5364 35.4562C36.2063 34.7862 36.5835 33.8781 36.5854 32.9307V28.9235H28.564ZM24.7129 15.3099C24.9177 15.0061 25.2341 14.7955 25.5934 14.7238C25.9526 14.6521 26.3257 14.7251 26.6314 14.9269L30.2414 17.3347H29.7945L24.6065 15.4836L24.7129 15.3099ZM18.3086 17.3347L18.5107 16.7744C18.6662 16.3428 18.9863 15.9904 19.401 15.7943C19.8158 15.5983 20.2913 15.5745 20.7235 15.7283L25.1952 17.3347H18.3086Z" fill="#0CA2D9"/>
<path d="M35.9827 24.6006H28.7805C28.7107 24.6005 28.6415 24.6142 28.5769 24.641C28.5124 24.6677 28.4539 24.7071 28.4046 24.7566L27.0323 26.1219C26.9831 26.1596 26.9428 26.2077 26.9143 26.2628C26.8859 26.3179 26.8699 26.3786 26.8675 26.4405C26.8651 26.5025 26.8764 26.5642 26.9006 26.6213C26.9248 26.6784 26.9613 26.7294 27.0074 26.7708L28.4046 28.1645C28.5046 28.2643 28.6393 28.3215 28.7805 28.324H35.9827C36.2982 28.3231 36.6005 28.1979 36.8242 27.9755C37.048 27.7531 37.175 27.4515 37.1778 27.1361V25.7921C37.1768 25.4758 37.0505 25.1727 36.8265 24.9494C36.6025 24.726 36.2991 24.6006 35.9827 24.6006ZM29.8266 27.6432C29.6106 27.6432 29.3994 27.5791 29.2198 27.4591C29.0402 27.3391 28.9002 27.1685 28.8176 26.9689C28.7349 26.7694 28.7133 26.5498 28.7554 26.3379C28.7975 26.126 28.9016 25.9314 29.0543 25.7787C29.2071 25.6259 29.4017 25.5219 29.6135 25.4797C29.8254 25.4376 30.045 25.4592 30.2446 25.5419C30.4442 25.6246 30.6148 25.7646 30.7348 25.9442C30.8548 26.1238 30.9188 26.3349 30.9188 26.551C30.9188 26.8406 30.8038 27.1184 30.5989 27.3233C30.3941 27.5281 30.1163 27.6432 29.8266 27.6432Z" fill="#0CA2D9"/>
</g>
<defs>
<clipPath id="clip0">
<rect width="25.1741" height="23.5038" fill="white" transform="translate(12 13)"/>
</clipPath>
</defs>
</svg>
