<svg width="50" height="50" viewBox="0 0 50 50" fill="none" xmlns="http://www.w3.org/2000/svg">
<circle cx="25" cy="25" r="25" fill="white"/>
<path d="M32.448 13H16.9527C15.3375 13 14 14.3123 14 15.9527V34.0473C14 35.6625 15.3123 37 16.9527 37H32.4732C34.0883 37 35.4259 35.6877 35.4259 34.0473V15.9527C35.4006 14.3123 34.0883 13 32.448 13ZM23.4637 29.3028L20.3849 32.8864C20.2082 33.0883 19.8801 33.0883 19.6782 32.8864L17.836 30.6151C17.6845 30.4385 17.7098 30.1861 17.8612 30.0095L18.2902 29.5804C18.4669 29.4038 18.7445 29.4038 18.9211 29.5804L20.0063 30.6656L22.3785 28.2934C22.5552 28.1167 22.8328 28.1167 23.0095 28.2934L23.4133 28.6972C23.6151 28.8486 23.6151 29.1262 23.4637 29.3028ZM23.4637 23.7003L20.3849 27.2839C20.2082 27.4858 19.8801 27.4858 19.6782 27.2839L17.836 25.0126C17.6845 24.836 17.7098 24.5836 17.8612 24.4069L18.2902 23.9779C18.4669 23.8013 18.7445 23.8013 18.9211 23.9779L20.0063 25.0631L22.3785 22.6909C22.5552 22.5142 22.8328 22.5142 23.0095 22.6909L23.4133 23.0946C23.6151 23.2461 23.6151 23.5237 23.4637 23.7003ZM23.4637 18.0978L20.3849 21.6814C20.2082 21.8833 19.8801 21.8833 19.6782 21.6814L17.836 19.4101C17.6845 19.2334 17.7098 18.9811 17.8612 18.8044L18.2902 18.3754C18.4669 18.1987 18.7445 18.1987 18.9211 18.3754L20.0063 19.4606L22.3785 17.0883C22.5552 16.9117 22.8328 16.9117 23.0095 17.0883L23.4133 17.4921C23.6151 17.6435 23.6151 17.9211 23.4637 18.0978ZM31.6404 31.5237C31.6404 31.6751 31.5142 31.8013 31.3628 31.8013H24.9274C24.776 31.8013 24.6498 31.6751 24.6498 31.5237V30.4132C24.6498 30.2618 24.776 30.1356 24.9274 30.1356H31.388C31.5394 30.1356 31.6656 30.2618 31.6656 30.4132V31.5237H31.6404ZM31.6404 25.9211C31.6404 26.0726 31.5142 26.1987 31.3628 26.1987H24.9274C24.776 26.1987 24.6498 26.0726 24.6498 25.9211V24.8107C24.6498 24.6593 24.776 24.5331 24.9274 24.5331H31.388C31.5394 24.5331 31.6656 24.6593 31.6656 24.8107V25.9211H31.6404ZM31.6404 20.3186C31.6404 20.47 31.5142 20.5962 31.3628 20.5962H24.9274C24.776 20.5962 24.6498 20.47 24.6498 20.3186V19.2082C24.6498 19.0568 24.776 18.9306 24.9274 18.9306H31.388C31.5394 18.9306 31.6656 19.0568 31.6656 19.2082V20.3186H31.6404Z" fill="#0CA2D9"/>
</svg>
