<svg width="50" height="50" viewBox="0 0 50 50" fill="none" xmlns="http://www.w3.org/2000/svg">
<circle cx="25" cy="25" r="25" fill="white"/>
<path d="M13.4508 31.1852L11.2884 31.6377C11.2074 31.654 11.1346 31.6976 11.0821 31.7613C11.0296 31.8249 11.0006 31.9047 11 31.9873V38.6423C11.0007 38.6962 11.0133 38.7492 11.0371 38.7975C11.0608 38.8459 11.095 38.8883 11.1372 38.9218C11.1793 38.9552 11.2284 38.9789 11.2809 38.991C11.3334 39.0032 11.3879 39.0035 11.4405 38.9919L13.6028 38.5394C13.6837 38.5231 13.7566 38.4795 13.8091 38.4158C13.8616 38.3522 13.8906 38.2724 13.8912 38.1898V31.5348C13.8905 31.4809 13.8778 31.4279 13.8541 31.3796C13.8304 31.3313 13.7962 31.2888 13.754 31.2553C13.7119 31.2219 13.6628 31.1982 13.6103 31.1861C13.5578 31.174 13.5033 31.1737 13.4508 31.1852ZM12.4456 37.8236C12.3264 37.8213 12.2106 37.7839 12.1126 37.716C12.0147 37.6482 11.9389 37.5529 11.8949 37.4421C11.8509 37.3313 11.8406 37.2101 11.8653 37.0934C11.8899 36.9768 11.9485 36.8701 12.0335 36.7867C12.1186 36.7032 12.2265 36.6467 12.3435 36.6243C12.4606 36.6019 12.5816 36.6146 12.6915 36.6607C12.8014 36.7069 12.8952 36.7844 12.9612 36.8837C13.0272 36.9829 13.0624 37.0995 13.0624 37.2186C13.0608 37.3807 12.9949 37.5354 12.8793 37.6489C12.7636 37.7623 12.6076 37.8252 12.4456 37.8236Z" fill="#0CA2D9"/>
<path d="M32.3092 32.0948C29.4697 34.365 22.205 31.932 27.0497 31.468C31.7345 31.0194 31.4052 27.7927 28.9388 28.6122C26.7422 29.342 25.2816 28.1918 21.4211 28.8336C18.8935 29.2539 17.9251 29.6224 16.4708 31.1546C16.4517 31.175 16.4281 31.1905 16.4018 31.1999C16.269 31.2461 15.8086 31.4044 15.1533 31.6317C15.1184 31.6435 15.088 31.6659 15.0663 31.6957C15.0447 31.7255 15.0327 31.7612 15.0322 31.7981V36.9208C15.0328 36.9489 15.04 36.9765 15.0532 37.0014C15.0665 37.0262 15.0853 37.0476 15.1084 37.0638C15.1314 37.08 15.1579 37.0906 15.1857 37.0947C15.2136 37.0987 15.242 37.0962 15.2687 37.0873C16.9451 36.5511 18.0845 36.248 18.2156 36.2942C25.0854 38.7155 27.1623 37.7304 28.3109 37.2808C29.8546 36.6765 32.3092 35.7259 33.5947 35.0109C34.9869 34.2366 36.3944 32.0828 38.3022 30.8111C40.2471 29.5148 38.087 27.4756 32.3092 32.0948Z" fill="#0CA2D9"/>
<path d="M28.5 15.7271C27.7032 15.8862 27.0957 16.437 27.0957 17.0723C27.0957 17.2827 27.099 17.8737 28.5 18.3191V15.7271Z" fill="#0CA2D9"/>
<path d="M30.8378 21.1052C30.8378 20.8948 30.8345 20.3038 29.4336 19.8584V22.4504C30.2303 22.2913 30.8378 21.7405 30.8378 21.1052Z" fill="#0CA2D9"/>
<path d="M29.044 27.1778C30.6438 27.1778 32.2077 26.7034 33.5379 25.8146C34.8681 24.9257 35.9049 23.6624 36.5171 22.1844C37.1294 20.7063 37.2895 19.0799 36.9774 17.5108C36.6653 15.9417 35.8949 14.5004 34.7637 13.3692C33.6324 12.2379 32.1911 11.4675 30.622 11.1554C29.0529 10.8433 27.4265 11.0035 25.9485 11.6157C24.4704 12.228 23.2071 13.2647 22.3183 14.5949C21.4295 15.9252 20.9551 17.4891 20.9551 19.0889C20.9551 21.2342 21.8073 23.2916 23.3243 24.8086C24.8412 26.3256 26.8987 27.1778 29.044 27.1778Z" fill="#0CA2D9"/>
<g clip-path="url(#clip0)">
<path d="M30.6543 18.8466H29.399L29.6837 19.3599H30.6543V18.8466ZM30.687 21.1613C30.6777 21.0586 30.6699 20.9575 30.6637 20.8579C30.6574 20.7584 30.6543 20.665 30.6543 20.5779V19.9293H30.001L30.687 21.1613ZM28.6943 19.3599L28.4097 18.8466H27.411V19.3599H28.6943ZM27.383 17.0033C27.3923 17.1028 27.3986 17.2008 27.4017 17.2973C27.4079 17.3906 27.411 17.4777 27.411 17.5586V18.2819H28.0923L27.383 17.0033ZM31.5503 18.8466V19.3599H32.3437V19.6633C32.3437 19.7317 32.3157 19.7939 32.2597 19.8499C32.2068 19.9028 32.1399 19.9293 32.059 19.9293H31.5503V22.4446H30.6823C30.5983 22.4446 30.5268 22.4306 30.4677 22.4026C30.4086 22.3715 30.3526 22.3217 30.2997 22.2533L29.007 19.9293H27.411V22.4446H26.515V19.9293H25.7217V19.3599H26.515V18.8466H25.7217V18.5479C25.7217 18.4795 25.7481 18.4188 25.801 18.3659C25.857 18.3099 25.927 18.2819 26.011 18.2819H26.515V15.7246H27.3923C27.439 15.7246 27.4795 15.7277 27.5137 15.7339C27.5479 15.7371 27.5775 15.7448 27.6023 15.7573C27.6303 15.7697 27.6568 15.7884 27.6817 15.8133C27.7066 15.8382 27.733 15.8693 27.761 15.9066L29.0817 18.2819H30.6543V15.7246H31.5503V18.2819H32.3437V18.8466H31.5503Z" fill="white"/>
</g>
<defs>
<clipPath id="clip0">
<rect width="6.84444" height="6.84444" fill="white" transform="translate(25.6221 15.6665)"/>
</clipPath>
</defs>
</svg>
