<svg width="50" height="50" viewBox="0 0 50 50" fill="none" xmlns="http://www.w3.org/2000/svg">
<circle cx="25" cy="25" r="25" fill="white"/>
<path d="M29.7573 14.394V17.3965H21.0903V14.394H18C16.8954 14.394 16 15.2895 16 16.394V36C16 37.1046 16.8954 38 18 38H27.7583C28.3106 38 28.7583 37.5523 28.7583 37V31.9106H33.8477C34.3999 31.9106 34.8477 31.4629 34.8477 30.9106V16.394C34.8477 15.2895 33.9522 14.394 32.8477 14.394H29.7573ZM30.2231 37.2757C30.2231 37.543 30.5463 37.6769 30.7353 37.4879L34.3355 33.8876C34.5245 33.6986 34.3907 33.3755 34.1234 33.3755H30.2231V37.2757Z" fill="#2731AE"/>
<path d="M23.5547 13C23.0024 13 22.5547 13.4477 22.5547 14V14.394V14.9316C22.5547 15.4839 23.0024 15.9316 23.5547 15.9316H27.292C27.8443 15.9316 28.292 15.4839 28.292 14.9316V14.394V14C28.292 13.4477 27.8443 13 27.292 13H23.5547Z" fill="#2731AE"/>
<g clip-path="url(#clip0)">
<path d="M26.9653 25.8232H25.6935L25.9819 26.3433H26.9653V25.8232ZM26.9984 28.1684C26.989 28.0643 26.9811 27.9619 26.9748 27.861C26.9685 27.7602 26.9653 27.6656 26.9653 27.5773V26.9201H26.3034L26.9984 28.1684ZM24.9796 26.3433L24.6911 25.8232H23.6793V26.3433H24.9796ZM23.651 23.9556C23.6604 24.0565 23.6667 24.1558 23.6699 24.2535C23.6762 24.3481 23.6793 24.4363 23.6793 24.5183V25.2511H24.3696L23.651 23.9556ZM27.8731 25.8232V26.3433H28.6769V26.6506C28.6769 26.72 28.6485 26.783 28.5918 26.8398C28.5382 26.8934 28.4704 26.9201 28.3885 26.9201H27.8731V29.4686H26.9937C26.9086 29.4686 26.8361 29.4544 26.7762 29.426C26.7163 29.3945 26.6596 29.3441 26.606 29.2747L25.2963 26.9201H23.6793V29.4686H22.7715V26.9201H21.9678V26.3433H22.7715V25.8232H21.9678V25.5206C21.9678 25.4513 21.9946 25.3898 22.0482 25.3362C22.1049 25.2795 22.1758 25.2511 22.2609 25.2511H22.7715V22.6602H23.6604C23.7077 22.6602 23.7487 22.6633 23.7834 22.6696C23.818 22.6728 23.848 22.6806 23.8732 22.6933C23.9016 22.7059 23.9283 22.7248 23.9536 22.75C23.9788 22.7752 24.0056 22.8067 24.0339 22.8446L25.372 25.2511H26.9653V22.6602H27.8731V25.2511H28.6769V25.8232H27.8731Z" fill="white"/>
</g>
<defs>
<clipPath id="clip0">
<rect width="6.93451" height="6.93451" fill="white" transform="translate(21.8672 22.6016)"/>
</clipPath>
</defs>
</svg>
