<svg width="50" height="50" viewBox="0 0 50 50" fill="none" xmlns="http://www.w3.org/2000/svg">
<circle cx="25" cy="25" r="25" fill="white"/>
<path d="M33.571 13H30.1424C29.9057 13 29.7139 13.1919 29.7139 13.4286V15.1429C29.7139 15.3796 29.9057 15.5714 30.1424 15.5714H33.571C33.8077 15.5714 33.9996 15.3796 33.9996 15.1429V13.4286C33.9996 13.1919 33.8077 13 33.571 13Z" fill="#F5A623"/>
<path d="M27.5711 23.714H36.1426C36.2562 23.7139 36.3652 23.6687 36.4455 23.5884C36.5258 23.508 36.571 23.3991 36.5711 23.2854V21.1426C36.5702 20.3472 36.2539 19.5847 35.6914 19.0223C35.129 18.4599 34.3665 18.1435 33.5711 18.1426H30.1426C29.3472 18.1435 28.5847 18.4599 28.0223 19.0223C27.4599 19.5847 27.1435 20.3472 27.1426 21.1426V23.2854C27.1427 23.3991 27.1879 23.508 27.2682 23.5884C27.3486 23.6687 27.4575 23.7139 27.5711 23.714Z" fill="#F5A623"/>
<path d="M33.1427 16.4287H30.5713V17.2859H33.1427V16.4287Z" fill="#F5A623"/>
<path d="M35.7141 27.1428C35.8277 27.1428 35.9367 27.0976 36.0171 27.0173C36.0975 26.9369 36.1426 26.8279 36.1426 26.7142C36.1426 26.6006 36.0975 26.4915 36.0171 26.4112C35.9367 26.3308 35.8277 26.2856 35.7141 26.2856H29.8232L30.2994 27.1428H35.7141Z" fill="#F5A623"/>
<path d="M36.571 28H30.7754L31.2516 28.8571H31.4281C31.7311 28.8564 32.0246 28.9629 32.2566 29.1579C32.4885 29.3529 32.6439 29.6237 32.6953 29.9223C32.7466 30.221 32.6906 30.5281 32.5371 30.7894C32.3836 31.0506 32.1425 31.2491 31.8567 31.3496V34.8571C31.8562 35.0033 31.8304 35.1484 31.7803 35.2857H36.571C36.6846 35.2856 36.7935 35.2404 36.8739 35.1601C36.9542 35.0797 36.9994 34.9708 36.9995 34.8571V28.4286C36.9994 28.3149 36.9542 28.206 36.8739 28.1257C36.7935 28.0453 36.6846 28.0001 36.571 28Z" fill="#F5A623"/>
<path d="M30.9209 36.9997H35.7142C35.8278 36.9996 35.9367 36.9544 36.0171 36.8741C36.0974 36.7937 36.1426 36.6848 36.1427 36.5711V36.1426H30.9999V36.5711C30.9984 36.7175 30.9717 36.8625 30.9209 36.9997Z" fill="#F5A623"/>
<path d="M29.3029 25.4284H35.7141C35.8278 25.4284 35.9368 25.3833 36.0172 25.3029C36.0976 25.2225 36.1427 25.1135 36.1427 24.9999C36.1427 24.8862 36.0976 24.7772 36.0172 24.6968C35.9368 24.6164 35.8278 24.5713 35.7141 24.5713H27.9999C27.8862 24.5714 27.7773 24.6166 27.6969 24.6969C27.6166 24.7773 27.5714 24.8862 27.5713 24.9999H28.3527C28.5323 25.0007 28.7097 25.0393 28.8733 25.1131C29.037 25.1869 29.1834 25.2944 29.3029 25.4284Z" fill="#F5A623"/>
<path d="M16.1297 26.0776C16.1669 26.0109 16.2213 25.9553 16.2871 25.9166C16.353 25.8779 16.4279 25.8575 16.5043 25.8574H28.3528C28.4292 25.8575 28.5042 25.8779 28.57 25.9166C28.6359 25.9553 28.6902 26.0109 28.7274 26.0776L30.2718 28.8574H14.5854L16.1297 26.0776ZM29.7143 37.0003H15.1429C15.0292 37.0002 14.9203 36.955 14.8399 36.8746C14.7596 36.7943 14.7144 36.6853 14.7143 36.5717V36.1431H30.1429V36.5717C30.1427 36.6853 30.0976 36.7943 30.0172 36.8746C29.9369 36.955 29.8279 37.0002 29.7143 37.0003ZM30.5714 35.286H14.2857C14.1721 35.2859 14.0631 35.2407 13.9828 35.1603C13.9024 35.08 13.8573 34.9711 13.8571 34.8574V31.4289H20.2857V31.8574C20.2861 32.1983 20.4217 32.5251 20.6627 32.7661C20.9037 33.0072 21.2305 33.1428 21.5714 33.1431H23.2857C23.6266 33.1428 23.9534 33.0072 24.1944 32.7661C24.4355 32.5251 24.5711 32.1983 24.5714 31.8574V31.4289H31V34.8574C30.9999 34.9711 30.9547 35.08 30.8743 35.1603C30.794 35.2407 30.6851 35.2859 30.5714 35.286ZM21.1429 31.4289H23.7143V31.8574C23.7142 31.9711 23.669 32.08 23.5886 32.1603C23.5083 32.2407 23.3993 32.2859 23.2857 32.286H21.5714C21.4578 32.2859 21.3489 32.2407 21.2685 32.1603C21.1882 32.08 21.143 31.9711 21.1429 31.8574V31.4289ZM31.4286 30.5717H13.4286C13.3149 30.5717 13.2059 30.5266 13.1255 30.4462C13.0452 30.3658 13 30.2568 13 30.1431C13 30.0295 13.0452 29.9205 13.1255 29.8401C13.2059 29.7597 13.3149 29.7146 13.4286 29.7146H31.4286C31.5422 29.7146 31.6512 29.7597 31.7316 29.8401C31.812 29.9205 31.8571 30.0295 31.8571 30.1431C31.8571 30.2568 31.812 30.3658 31.7316 30.4462C31.6512 30.5266 31.5422 30.5717 31.4286 30.5717Z" fill="#F5A623"/>
</svg>
