<svg width="50" height="50" viewBox="0 0 50 50" fill="none" xmlns="http://www.w3.org/2000/svg">
<circle cx="25" cy="25" r="25" fill="white"/>
<path d="M16 25H22V19H16V13H12C10.8954 13 10 13.8954 10 15V35C10 36.1046 10.8954 37 12 37H20C21.1046 37 22 36.1046 22 35V26H16V25Z" fill="#BB6BD9"/>
<path d="M17 13V18H22L17 13Z" fill="#BB6BD9"/>
<path d="M34 13V19H28V25H33.993L30.92 22.144L31.602 21.411L36 25.501L31.602 29.59L30.92 28.857L33.995 26H28V35C28 36.1046 28.8954 37 30 37H38C39.1046 37 40 36.1046 40 35V15C40 13.8954 39.1046 13 38 13H34Z" fill="#BB6BD9"/>
<path d="M33 13L28 18H33V13Z" fill="#BB6BD9"/>
<path d="M28 25H22V26H28V25Z" fill="#BB6BD9"/>
</svg>
