<svg width="50" height="50" viewBox="0 0 50 50" fill="none" xmlns="http://www.w3.org/2000/svg">
<circle cx="25" cy="25" r="25" fill="white"/>
<path d="M35.497 13.5925L36.1481 14.2437C37.0453 15.142 36.9096 16.7345 35.8424 17.8006L22.4149 31.2281L18.0644 32.8195C17.5182 33.0204 16.9862 32.7599 16.8781 32.2402C16.8415 32.0516 16.8587 31.8566 16.9277 31.6773L18.55 27.2894L31.9401 13.8982C33.0073 12.8322 34.5998 12.6953 35.497 13.5936V13.5925ZM21.8288 14.9279C21.9738 14.9279 22.1173 14.9564 22.2512 15.0119C22.3851 15.0674 22.5067 15.1487 22.6092 15.2511C22.7117 15.3536 22.793 15.4753 22.8484 15.6092C22.9039 15.7431 22.9324 15.8866 22.9324 16.0315C22.9324 16.1764 22.9039 16.3199 22.8484 16.4538C22.793 16.5877 22.7117 16.7094 22.6092 16.8119C22.5067 16.9143 22.3851 16.9956 22.2512 17.0511C22.1173 17.1066 21.9738 17.1351 21.8288 17.1351H17.4144C16.829 17.1351 16.2676 17.3677 15.8537 17.7816C15.4398 18.1955 15.2072 18.7569 15.2072 19.3423V32.5856C15.2072 33.171 15.4398 33.7324 15.8537 34.1463C16.2676 34.5602 16.829 34.7928 17.4144 34.7928H30.6577C31.2431 34.7928 31.8045 34.5602 32.2184 34.1463C32.6323 33.7324 32.8649 33.171 32.8649 32.5856V28.1712C32.8649 27.8785 32.9812 27.5978 33.1881 27.3908C33.3951 27.1838 33.6758 27.0676 33.9685 27.0676C34.2612 27.0676 34.5419 27.1838 34.7489 27.3908C34.9558 27.5978 35.0721 27.8785 35.0721 28.1712V32.5856C35.0721 33.7564 34.607 34.8792 33.7791 35.707C32.9513 36.5349 31.8285 37 30.6577 37H17.4144C16.2436 37 15.1208 36.5349 14.293 35.707C13.4651 34.8792 13 33.7564 13 32.5856V19.3423C13 18.1715 13.4651 17.0487 14.293 16.2209C15.1208 15.393 16.2436 14.9279 17.4144 14.9279H21.8288Z" fill="#52C41A"/>
</svg>
