<svg width="50" height="50" viewBox="0 0 50 50" fill="none" xmlns="http://www.w3.org/2000/svg">
<circle cx="25" cy="25" r="25" fill="white"/>
<path d="M20.9041 13C19.2563 13 17.9452 14.3111 17.9452 15.9589V31.7397H27.9726C28.1034 31.7397 28.2288 31.7917 28.3213 31.8842C28.4138 31.9767 28.4657 32.1021 28.4658 32.2329V34.2055C28.4658 35.57 29.4265 36.6813 30.7055 36.9384C30.76 36.9501 30.8121 36.9709 30.8596 37H31.2603C32.817 37 34.0548 35.7622 34.0548 34.2055V15.9589C34.0548 14.7635 34.6213 13.7238 35.4623 13H20.9041ZM20.6164 17.9315C20.6233 17.9314 20.6301 17.9314 20.637 17.9315C20.6711 17.9279 20.7056 17.9279 20.7397 17.9315H25.3425C25.4078 17.9306 25.4727 17.9427 25.5333 17.967C25.594 17.9914 25.6492 18.0276 25.6957 18.0735C25.7422 18.1193 25.7792 18.174 25.8044 18.2343C25.8297 18.2946 25.8426 18.3593 25.8426 18.4247C25.8426 18.49 25.8297 18.5547 25.8044 18.615C25.7792 18.6753 25.7422 18.73 25.6957 18.7759C25.6492 18.8217 25.594 18.8579 25.5333 18.8823C25.4727 18.9067 25.4078 18.9187 25.3425 18.9178H20.7397C20.675 18.9259 20.6092 18.9212 20.5463 18.9039C20.4834 18.8866 20.4245 18.857 20.373 18.817C20.2689 18.736 20.2013 18.6171 20.1849 18.4863C20.1686 18.3555 20.2049 18.2236 20.2858 18.1195C20.3667 18.0155 20.4856 17.9479 20.6164 17.9315ZM20.6164 21.2192C20.6233 21.219 20.6301 21.219 20.637 21.2192C20.6711 21.2156 20.7056 21.2156 20.7397 21.2192H31.2603C31.3256 21.2183 31.3905 21.2303 31.4511 21.2547C31.5118 21.2791 31.567 21.3152 31.6135 21.3611C31.6601 21.407 31.697 21.4617 31.7222 21.522C31.7475 21.5823 31.7604 21.647 31.7604 21.7123C31.7604 21.7777 31.7475 21.8424 31.7222 21.9027C31.697 21.963 31.6601 22.0176 31.6135 22.0635C31.567 22.1094 31.5118 22.1456 31.4511 22.17C31.3905 22.1943 31.3256 22.2064 31.2603 22.2055H20.7397C20.675 22.2136 20.6092 22.2088 20.5463 22.1915C20.4834 22.1742 20.4245 22.1447 20.373 22.1046C20.2689 22.0237 20.2013 21.9048 20.1849 21.774C20.1686 21.6432 20.2049 21.5113 20.2858 21.4072C20.3667 21.3032 20.4856 21.2355 20.6164 21.2192ZM20.6164 24.5068C20.6233 24.5067 20.6301 24.5067 20.637 24.5068C20.6711 24.5033 20.7056 24.5033 20.7397 24.5068H31.2603C31.3256 24.5059 31.3905 24.518 31.4511 24.5424C31.5118 24.5667 31.567 24.6029 31.6135 24.6488C31.6601 24.6947 31.697 24.7494 31.7222 24.8097C31.7475 24.8699 31.7604 24.9346 31.7604 25C31.7604 25.0654 31.7475 25.1301 31.7222 25.1903C31.697 25.2506 31.6601 25.3053 31.6135 25.3512C31.567 25.3971 31.5118 25.4333 31.4511 25.4576C31.3905 25.482 31.3256 25.4941 31.2603 25.4932H20.7397C20.6089 25.5095 20.477 25.4732 20.373 25.3923C20.2689 25.3114 20.2013 25.1924 20.1849 25.0616C20.1686 24.9309 20.2049 24.7989 20.2858 24.6949C20.3667 24.5908 20.4856 24.5232 20.6164 24.5068ZM20.6164 27.7945C20.6233 27.7944 20.6301 27.7944 20.637 27.7945C20.6711 27.7909 20.7056 27.7909 20.7397 27.7945H25.3425C25.4078 27.7936 25.4727 27.8057 25.5333 27.83C25.594 27.8544 25.6492 27.8906 25.6957 27.9365C25.7422 27.9824 25.7792 28.037 25.8044 28.0973C25.8297 28.1576 25.8426 28.2223 25.8426 28.2877C25.8426 28.353 25.8297 28.4177 25.8044 28.478C25.7792 28.5383 25.7422 28.593 25.6957 28.6389C25.6492 28.6848 25.594 28.7209 25.5333 28.7453C25.4727 28.7697 25.4078 28.7817 25.3425 28.7808H20.7397C20.6089 28.7972 20.477 28.7609 20.373 28.68C20.2689 28.599 20.2013 28.4801 20.1849 28.3493C20.1686 28.2185 20.2049 28.0866 20.2858 27.9825C20.3667 27.8785 20.4856 27.8109 20.6164 27.7945ZM14 32.726V34.2055C14 35.7622 15.2378 37 16.7945 37H28.7945C28.0096 36.3067 27.4795 35.3339 27.4795 34.2055V32.726H14Z" fill="#016DA4"/>
</svg>
