<svg width="50" height="50" viewBox="0 0 50 50" fill="none" xmlns="http://www.w3.org/2000/svg">
<circle cx="25" cy="25" r="25" fill="white"/>
<g clip-path="url(#clip0)">
<path fill-rule="evenodd" clip-rule="evenodd" d="M32.9474 28.7669C33.6446 28.7669 34.2105 29.3315 34.2105 30.03V31.2932H35.4737C36.1709 31.2932 36.7368 31.8578 36.7368 32.5563C36.7368 33.2536 36.1709 33.8195 35.4737 33.8195H34.2105V35.0827C34.2105 35.7799 33.6446 36.3458 32.9474 36.3458C32.2501 36.3458 31.6842 35.7799 31.6842 35.0827V33.8195H30.4211C29.7238 33.8195 29.1579 33.2536 29.1579 32.5563C29.1579 31.8578 29.7238 31.2932 30.4211 31.2932H31.6842V30.03C31.6842 29.3315 32.2501 28.7669 32.9474 28.7669ZM28.5263 13C30.2707 13 31.6842 14.4147 31.6842 16.1579V25.6316H27.2632C26.9145 25.6316 26.6316 25.9145 26.6316 26.2632V34.4737C26.6316 35.1684 26.0632 35.7368 25.3684 35.7368C24.6737 35.7368 24.1053 35.1684 24.1053 34.4737V33.2105L21.5789 33.1903V34.4737C21.5789 35.1684 21.0105 35.7368 20.3158 35.7368C19.6211 35.7368 19.0526 35.1684 19.0526 34.4737V33.1688L16.5263 33.1474V34.4737C16.5263 35.1684 15.9579 35.7368 15.2632 35.7368C14.5684 35.7368 14 35.1684 14 34.4737V16.1579C14 14.4147 15.4135 13 17.1579 13H28.5263ZM26.6442 20.5789H19.04C18.3491 20.5789 17.7895 21.1385 17.7895 21.8295V21.8547C17.7895 22.5444 18.3491 23.1053 19.04 23.1053H26.6442C27.3352 23.1053 27.8947 22.5444 27.8947 21.8547V21.8295C27.8947 21.1385 27.3352 20.5789 26.6442 20.5789ZM26.6442 15.5263H19.04C18.3491 15.5263 17.7895 16.0859 17.7895 16.7768V16.8021C17.7895 17.4931 18.3491 18.0526 19.04 18.0526H26.6442C27.3352 18.0526 27.8947 17.4931 27.8947 16.8021V16.7768C27.8947 16.0859 27.3352 15.5263 26.6442 15.5263Z" fill="#D85152"/>
</g>
<defs>
<clipPath id="clip0">
<rect width="22.7368" height="30" fill="white" transform="translate(14 13)"/>
</clipPath>
</defs>
</svg>
