<svg width="50" height="50" viewBox="0 0 50 50" fill="none" xmlns="http://www.w3.org/2000/svg">
<circle cx="25" cy="25" r="25" fill="white"/>
<path d="M20.7283 26.8473C21.0653 26.8473 21.3385 26.5741 21.3385 26.2371C21.3385 25.9001 21.0653 25.627 20.7283 25.627C20.3913 25.627 20.1182 25.9001 20.1182 26.2371C20.1182 26.5741 20.3913 26.8473 20.7283 26.8473Z" fill="#005981"/>
<path d="M25.6092 29.6949C25.9462 29.6949 26.2194 29.4218 26.2194 29.0848C26.2194 28.7478 25.9462 28.4746 25.6092 28.4746C25.2722 28.4746 24.999 28.7478 24.999 29.0848C24.999 29.4218 25.2722 29.6949 25.6092 29.6949Z" fill="#005981"/>
<path d="M32.6933 36.4067C32.3917 36.4067 32.0895 36.2954 31.8535 36.0717L29.2955 33.6444C28.8068 33.1805 28.7864 32.4082 29.2502 31.9193C29.7139 31.4304 30.4864 31.4098 30.9753 31.8739L32.6581 33.471L33.3389 32.7701V18.3051L26.6271 12H14.611C13.7212 12 13 12.7285 13 13.6271V36.4067C13 37.3052 13.7212 38.0338 14.611 38.0338H31.7278C32.6177 38.0338 33.3389 37.3052 33.3389 36.4067V36.4046V36.2206C33.1422 36.3434 32.9183 36.4067 32.6933 36.4067ZM19.3051 26.237C19.3051 25.4507 19.9425 24.8135 20.7288 24.8135C21.5151 24.8135 22.1525 25.4507 22.1525 26.237C22.1525 27.0237 21.5151 27.6609 20.7288 27.6609C19.9425 27.6609 19.3051 27.0237 19.3051 26.237ZM21.5419 30.5084C21.4644 30.5084 21.3859 30.4864 21.3168 30.4401C21.1299 30.3156 21.0794 30.063 21.2039 29.8761L24.4581 24.9947C24.5828 24.8076 24.8352 24.757 25.0221 24.8818C25.209 25.0063 25.2595 25.2589 25.135 25.4458L21.8808 30.3272C21.8023 30.4449 21.6735 30.5084 21.5419 30.5084ZM25.6101 30.5084C24.8238 30.5084 24.1864 29.871 24.1864 29.0847C24.1864 28.2982 24.8238 27.6609 25.6101 27.6609C26.3964 27.6609 27.0338 28.2982 27.0338 29.0847C27.0338 29.871 26.3964 30.5084 25.6101 30.5084ZM26.8304 16.8181V13.3074L31.9343 18.1017H28.063C27.3835 18.1017 26.8304 17.5259 26.8304 16.8181Z" fill="#005981"/>
<path d="M36.8848 31.4021C37.0414 31.2408 37.0376 30.9833 36.8765 30.8269C36.7154 30.6701 36.4575 30.6744 36.3013 30.8353L32.631 34.6146L30.3646 32.4642C30.2015 32.3096 29.9442 32.3161 29.7894 32.4793C29.6348 32.6424 29.6415 32.8997 29.8045 33.0544L32.3625 35.4817C32.4412 35.5561 32.5419 35.5933 32.6425 35.5933C32.7485 35.5933 32.8547 35.5521 32.9344 35.4701" fill="#005981"/>
</svg>
