<svg width="50" height="55" viewBox="0 0 50 55" fill="none" xmlns="http://www.w3.org/2000/svg">
<circle cx="25" cy="30" r="25" fill="white"/>
<path d="M9 18V33.2727H18.2727V31.0909H13.9091V30.5455C13.9091 29.3455 12.9273 28.3636 11.7273 28.3636H11.1818V22.9091H11.7273C12.9273 22.9091 13.9091 21.9273 13.9091 20.7273V20.1818H27V20.7273C27 21.9273 27.9818 22.9091 29.1818 22.9091H29.7273V25.6364H31.9091V18H9Z" fill="#016DA4"/>
<path d="M25.9634 21.2725H14.9452C14.727 22.6361 13.6361 23.727 12.2725 23.9452V27.327C13.6361 27.5452 14.727 28.6361 14.9452 29.9997H18.2725V25.6361H28.6361V23.9452C27.2725 23.727 26.1816 22.6361 25.9634 21.2725Z" fill="#016DA4"/>
<path d="M39.5451 23.4546H32.9996V24.5455H39.5451C40.1451 24.5455 40.636 25.0364 40.636 25.6364C40.636 26.2364 40.1451 26.7273 39.5451 26.7273H19.3633V42H39.5451C40.7451 42 41.7269 41.0182 41.7269 39.8182V25.6364C41.7269 24.4364 40.7451 23.4546 39.5451 23.4546ZM23.1815 36C22.2542 36 21.5451 35.291 21.5451 34.3637C21.5451 33.4364 22.2542 32.7273 23.1815 32.7273C24.1087 32.7273 24.8178 33.4364 24.8178 34.3637C24.8178 35.291 24.1087 36 23.1815 36Z" fill="#016DA4"/>
</svg>
