<svg width="50" height="50" viewBox="0 0 50 50" fill="none" xmlns="http://www.w3.org/2000/svg">
<circle cx="25" cy="25" r="25" fill="white"/>
<g clip-path="url(#clip0)">
<path d="M20.1146 13C19.255 13 18.4306 13.3415 17.8228 13.9493C17.2149 14.5572 16.8734 15.3816 16.8734 16.2412V17.5229H23.3491V16.2412C23.3491 15.3827 23.0085 14.5593 22.4021 13.9517C21.7957 13.344 20.9731 13.0018 20.1146 13V13ZM14.7471 18.2907C14.5773 18.2902 14.413 18.3506 14.2838 18.4608C14.1546 18.571 14.0691 18.7238 14.0428 18.8915L12 33.5519C12.0079 34.0271 12.2017 34.4803 12.54 34.8142C12.8782 35.1481 13.3339 35.336 13.8092 35.3377H20.8523L22.548 23.1675C22.5952 22.8599 22.7512 22.5796 22.9877 22.3774C23.2241 22.1753 23.5253 22.0647 23.8364 22.0659H26.627L26.1864 18.8915C26.1601 18.7238 26.0746 18.571 25.9454 18.4608C25.8162 18.3506 25.6519 18.2902 25.4821 18.2907H24.1235V20.2935C24.1235 20.3953 24.0831 20.4929 24.0111 20.5649C23.9391 20.6369 23.8414 20.6773 23.7396 20.6773C23.6378 20.6773 23.5402 20.6369 23.4682 20.5649C23.3962 20.4929 23.3558 20.3953 23.3558 20.2935V19.0284L22.4345 19.8595V21.879C22.4353 21.9297 22.4259 21.98 22.407 22.027C22.3881 22.074 22.36 22.1167 22.3243 22.1527L19.3769 25.1068C19.2894 25.1948 19.1854 25.2647 19.0708 25.3123C18.9563 25.36 18.8334 25.3845 18.7093 25.3845C18.5852 25.3845 18.4624 25.36 18.3478 25.3123C18.2332 25.2647 18.1292 25.1948 18.0417 25.1068L16.4662 23.5313C16.3778 23.444 16.3076 23.3401 16.2597 23.2255C16.2118 23.1109 16.1871 22.9879 16.1871 22.8637C16.1871 22.7395 16.2118 22.6165 16.2597 22.5019C16.3076 22.3873 16.3778 22.2834 16.4662 22.1961L19.4236 19.2387C19.4595 19.2026 19.5021 19.1739 19.5491 19.1544C19.5961 19.135 19.6465 19.125 19.6974 19.1252H22.0339H22.064L23.0153 18.2907H16.8734V20.2935C16.8734 20.3953 16.833 20.4929 16.761 20.5649C16.689 20.6369 16.5914 20.6773 16.4896 20.6773C16.3878 20.6773 16.2901 20.6369 16.2181 20.5649C16.1461 20.4929 16.1057 20.3953 16.1057 20.2935V18.2907H14.7471ZM19.8576 19.8996L17.007 22.7435C16.9747 22.7766 16.9567 22.8209 16.9567 22.867C16.9567 22.9132 16.9747 22.9575 17.007 22.9905L18.5825 24.5661C18.615 24.5981 18.6587 24.616 18.7043 24.616C18.7499 24.616 18.7937 24.5981 18.8261 24.5661L21.6801 21.7221V19.9096L19.8576 19.8996ZM20.4985 20.1399C20.7171 20.1405 20.9287 20.2169 21.0973 20.3561C21.2659 20.4953 21.381 20.6887 21.4229 20.9032C21.4649 21.1178 21.4312 21.3402 21.3275 21.5327C21.2237 21.7251 21.0565 21.8757 20.8542 21.9586C20.6519 22.0415 20.4272 22.0517 20.2182 21.9875C20.0092 21.9232 19.829 21.7885 19.7083 21.6062C19.5876 21.4239 19.5338 21.2055 19.5562 20.988C19.5785 20.7705 19.6756 20.5675 19.8309 20.4136C19.9185 20.326 20.0226 20.2567 20.1372 20.2098C20.2518 20.1628 20.3746 20.139 20.4985 20.1399ZM20.4985 20.9043C20.4521 20.9062 20.4081 20.9252 20.375 20.9577C20.3437 20.9906 20.3263 21.0342 20.3263 21.0796C20.3263 21.1249 20.3437 21.1685 20.375 21.2014C20.4084 21.2275 20.4502 21.2405 20.4925 21.238C20.5348 21.2354 20.5747 21.2174 20.6047 21.1875C20.6347 21.1575 20.6527 21.1176 20.6552 21.0752C20.6578 21.0329 20.6448 20.9911 20.6186 20.9577C20.5867 20.9254 20.5438 20.9063 20.4985 20.9043ZM23.8364 22.827C23.7093 22.827 23.5863 22.8724 23.4896 22.955C23.3929 23.0376 23.3289 23.152 23.309 23.2776L21.5967 35.568C21.6028 35.9499 21.7588 36.3141 22.0311 36.582C22.3034 36.8499 22.67 37 23.052 37H33.63C33.9979 36.9993 34.352 36.8596 34.6213 36.6089C34.8905 36.3582 35.0551 36.015 35.0821 35.6481C34.9004 35.6027 34.7364 35.5038 34.6114 35.3644L31.8876 32.21C31.8544 32.1718 31.8293 32.1273 31.8138 32.0791C31.7983 32.0309 31.7928 31.98 31.7975 31.9296L31.9711 29.6898L31.0264 28.5382C30.584 29.0942 29.9795 29.4985 29.2968 29.6953C28.6141 29.892 27.8871 29.8713 27.2167 29.6361C26.5462 29.4009 25.9657 28.9628 25.5556 28.3827C25.1454 27.8025 24.9261 27.1091 24.928 26.3986V24.6395C24.928 24.5377 24.9684 24.4401 25.0404 24.3681C25.1124 24.2961 25.21 24.2556 25.3118 24.2556C25.4136 24.2556 25.5113 24.2961 25.5833 24.3681C25.6552 24.4401 25.6957 24.5377 25.6957 24.6395V26.3986C25.6584 26.7699 25.6994 27.1449 25.8159 27.4994C25.9325 27.8539 26.1221 28.18 26.3724 28.4568C26.6228 28.7335 26.9283 28.9547 27.2694 29.1061C27.6105 29.2575 27.9795 29.3357 28.3527 29.3357C28.7259 29.3357 29.0949 29.2575 29.436 29.1061C29.7771 28.9547 30.0827 28.7335 30.333 28.4568C30.5834 28.18 30.7729 27.8539 30.8895 27.4994C31.006 27.1449 31.047 26.7699 31.0097 26.3986V24.6395C31.0097 24.5377 31.0502 24.4401 31.1222 24.3681C31.1942 24.2961 31.2918 24.2556 31.3936 24.2556C31.4954 24.2556 31.5931 24.2961 31.665 24.3681C31.737 24.4401 31.7775 24.5377 31.7775 24.6395V26.3986C31.7748 26.9013 31.6608 27.3972 31.4437 27.8506L32.6019 29.2459L34.2209 29.356L33.363 23.2776C33.3438 23.1517 33.2799 23.0369 33.1831 22.9542C33.0863 22.8715 32.963 22.8263 32.8356 22.827H23.8364ZM32.7154 30.0236L32.5752 31.8228L35.1922 34.8537C35.2067 34.8708 35.2243 34.8849 35.2442 34.8952C35.2642 34.9055 35.2859 34.9117 35.3082 34.9136C35.3306 34.9155 35.353 34.9129 35.3744 34.906C35.3957 34.8992 35.4155 34.8882 35.4325 34.8737L37.1015 33.4217C37.1355 33.3917 37.157 33.35 37.1616 33.3049C37.1644 33.2585 37.1488 33.213 37.1182 33.178L34.5013 30.1471L32.7154 30.0236ZM33.8103 30.3307H33.8604C34.1091 30.3396 34.3442 30.4469 34.5138 30.6291C34.6835 30.8112 34.7738 31.0533 34.765 31.3021C34.7561 31.5508 34.6488 31.7859 34.4666 31.9556C34.2845 32.1252 34.0424 32.2155 33.7936 32.2067H33.7235C33.4747 32.1952 33.2407 32.0853 33.073 31.9013C32.9052 31.7172 32.8174 31.4741 32.8289 31.2253C32.8404 30.9765 32.9503 30.7425 33.1343 30.5748C33.3184 30.407 33.5615 30.3192 33.8103 30.3307ZM33.8103 31.0985C33.7878 31.0964 33.7651 31.0992 33.7438 31.1067C33.7225 31.1142 33.703 31.1262 33.6868 31.1419C33.6629 31.1656 33.6467 31.196 33.64 31.229C33.6334 31.2621 33.6368 31.2963 33.6496 31.3275C33.6625 31.3586 33.6843 31.3852 33.7123 31.404C33.7403 31.4227 33.7733 31.4327 33.807 31.4327C33.8407 31.4327 33.8736 31.4227 33.9016 31.404C33.9296 31.3852 33.9514 31.3586 33.9643 31.3275C33.9772 31.2963 33.9805 31.2621 33.9739 31.229C33.9673 31.196 33.951 31.1656 33.9271 31.1419C33.9105 31.1267 33.891 31.115 33.8698 31.1076C33.8486 31.1001 33.8261 31.097 33.8036 31.0985H33.8103Z" fill="#0CA2D9"/>
</g>
<defs>
<clipPath id="clip0">
<rect width="25.175" height="24" fill="white" transform="translate(12 13)"/>
</clipPath>
</defs>
</svg>
