<svg width="50" height="50" viewBox="0 0 50 50" fill="none" xmlns="http://www.w3.org/2000/svg">
<circle cx="25" cy="25" r="25" fill="white"/>
<path d="M15 15C13.8954 15 13 15.8954 13 17V29.6667C13 30.7713 13.8954 31.6667 15 31.6667H34.3334C35.438 31.6667 36.3334 30.7713 36.3334 29.6667V17C36.3334 15.8954 35.438 15 34.3334 15H15ZM27.1667 18.3333H32.1667V23.3333H30.5001V21.1783L25.5 26.1783L23 23.6784L18.5892 28.0892L17.4108 26.9108L23 21.3215L25.5 23.8216L29.3217 20H27.1667V18.3333ZM18.8334 33.3333V35H30.5001V33.3333H18.8334Z" fill="black"/>
</svg>
