<svg width="50" height="50" viewBox="0 0 50 50" fill="none" xmlns="http://www.w3.org/2000/svg">
<circle cx="25" cy="25" r="25" fill="white"/>
<path d="M37.8611 35.9628L35.5463 33.6479L34.8936 34.3007L37.2084 36.6109C37.2951 36.6971 37.4124 36.7455 37.5348 36.7455C37.6571 36.7455 37.7744 36.6971 37.8611 36.6109C37.946 36.5244 37.9935 36.408 37.9935 36.2868C37.9935 36.1657 37.946 36.0493 37.8611 35.9628Z" fill="#D85152"/>
<path d="M34.6576 26.065C33.9453 25.353 33.0379 24.8682 32.0501 24.6719C31.0623 24.4756 30.0384 24.5766 29.108 24.9621C28.1776 25.3476 27.3824 26.0003 26.8229 26.8378C26.2635 27.6752 25.9648 28.6597 25.9648 29.6668C25.9648 30.6739 26.2635 31.6584 26.8229 32.4958C27.3824 33.3333 28.1776 33.986 29.108 34.3715C30.0384 34.757 31.0623 34.858 32.0501 34.6617C33.0379 34.4654 33.9453 33.9806 34.6576 33.2687C35.1307 32.7957 35.5061 32.2342 35.7621 31.6162C36.0182 30.9982 36.15 30.3358 36.15 29.6668C36.15 28.9978 36.0182 28.3354 35.7621 27.7174C35.5061 27.0994 35.1307 26.5379 34.6576 26.065ZM27.4307 28.2779C27.3727 27.9149 27.4609 27.5436 27.6761 27.2455C27.7855 27.0958 27.9238 26.9695 28.0829 26.8741C28.2419 26.7787 28.4184 26.7161 28.602 26.69C28.9592 26.636 29.3233 26.7233 29.6172 26.9333C29.9111 27.1433 30.1115 27.4596 30.1761 27.815C30.2342 28.178 30.146 28.5493 29.9307 28.8474C29.8217 28.9979 29.6836 29.1251 29.5246 29.2213C29.3655 29.3176 29.1888 29.3809 29.0048 29.4075C28.9308 29.4121 28.8566 29.4121 28.7826 29.4075C28.449 29.4117 28.1251 29.2956 27.8701 29.0805C27.615 28.8654 27.4459 28.5657 27.3937 28.2363L27.4307 28.2779ZM29.5326 32.5835C29.4895 32.6424 29.4331 32.6904 29.3679 32.7234C29.3027 32.7564 29.2306 32.7735 29.1576 32.7733C29.0616 32.774 28.9678 32.7449 28.8891 32.6899C28.8394 32.6545 28.7972 32.6096 28.7649 32.5578C28.7326 32.506 28.7109 32.4483 28.701 32.388C28.6911 32.3278 28.6932 32.2662 28.7072 32.2068C28.7212 32.1473 28.7468 32.0913 28.7826 32.0418L32.5789 26.7872C32.6504 26.6881 32.7582 26.6213 32.8787 26.6014C32.9993 26.5814 33.1228 26.6099 33.2224 26.6807C33.2721 26.7161 33.3143 26.7611 33.3466 26.8129C33.3789 26.8647 33.4006 26.9224 33.4105 26.9826C33.4204 27.0429 33.4183 27.1045 33.4043 27.1639C33.3903 27.2233 33.3646 27.2794 33.3289 27.3288L29.5326 32.5835ZM34.4354 32.1205C34.3259 32.2702 34.1876 32.3965 34.0286 32.492C33.8696 32.5874 33.693 32.65 33.5094 32.6761C33.4355 32.6829 33.3611 32.6829 33.2872 32.6761C33.006 32.6808 32.7299 32.6001 32.4956 32.4446C32.345 32.3356 32.2178 32.1975 32.1216 32.0384C32.0253 31.8794 31.962 31.7026 31.9354 31.5187C31.8773 31.1556 31.9655 30.7843 32.1807 30.4862C32.3398 30.2629 32.5614 30.0916 32.8176 29.994C33.0738 29.8964 33.3532 29.8768 33.6205 29.9377C33.8879 29.9986 34.1312 30.1373 34.3199 30.3362C34.5085 30.5352 34.6341 30.7855 34.6807 31.0557C34.712 31.2384 34.7064 31.4255 34.6643 31.606C34.6222 31.7865 34.5443 31.9567 34.4354 32.1066V32.1205Z" fill="#D85152"/>
<path d="M29.2037 28.3101C29.274 28.2107 29.3023 28.0876 29.2825 27.9675C29.2647 27.858 29.2082 27.7585 29.1232 27.6871C29.0382 27.6157 28.9305 27.5772 28.8195 27.5787H28.7408C28.6199 27.5982 28.5117 27.6648 28.4399 27.7638C28.4037 27.8133 28.3777 27.8695 28.3634 27.9291C28.3491 27.9887 28.3467 28.0505 28.3565 28.1111C28.3714 28.2015 28.4127 28.2855 28.4753 28.3524C28.5379 28.4193 28.6189 28.4661 28.7082 28.4869C28.7974 28.5077 28.8908 28.5016 28.9766 28.4693C29.0623 28.437 29.1365 28.38 29.1899 28.3055L29.2037 28.3101Z" fill="#D85152"/>
<path d="M33.3104 30.8287H33.2364C33.1156 30.8481 33.0074 30.9145 32.9354 31.0134C32.8634 31.1122 32.8334 31.2356 32.8521 31.3565C32.8602 31.4168 32.8809 31.4748 32.9128 31.5266C32.9447 31.5784 32.9871 31.623 33.0373 31.6574C33.136 31.7293 33.2592 31.7593 33.3799 31.7408C33.5007 31.7212 33.6089 31.6547 33.6808 31.5556C33.717 31.5061 33.743 31.4499 33.7573 31.3903C33.7716 31.3307 33.7739 31.2689 33.7641 31.2084C33.7446 31.0875 33.678 30.9793 33.579 30.9074C33.4997 30.8541 33.4059 30.8266 33.3104 30.8287Z" fill="#D85152"/>
<path d="M28.2776 16.7038H30.8655L27.8146 13.6528V16.2084C27.8102 16.2719 27.8188 16.3356 27.8401 16.3955C27.8614 16.4555 27.8948 16.5104 27.9382 16.5569C27.9816 16.6034 28.0342 16.6404 28.0926 16.6657C28.151 16.691 28.214 16.7039 28.2776 16.7038Z" fill="#D85152"/>
<path d="M28.7407 35.2222H16.7407C16.618 35.2222 16.5002 35.1734 16.4134 35.0866C16.3265 34.9998 16.2778 34.882 16.2778 34.7592C16.2778 34.6365 16.3265 34.5187 16.4134 34.4319C16.5002 34.3451 16.618 34.2963 16.7407 34.2963H27.2129C27.069 34.1787 26.9314 34.0536 26.8009 33.9213C26.3653 33.4882 25.9998 32.99 25.7176 32.4444H16.7037C16.5809 32.4444 16.4632 32.3957 16.3763 32.3088C16.2895 32.222 16.2407 32.1043 16.2407 31.9815C16.2407 31.8587 16.2895 31.7409 16.3763 31.6541C16.4632 31.5673 16.5809 31.5185 16.7037 31.5185H25.3333C25.1407 30.9199 25.0408 30.2954 25.037 29.6667H16.7037C16.5809 29.6667 16.4632 29.6179 16.3763 29.5311C16.2895 29.4442 16.2407 29.3265 16.2407 29.2037C16.2407 29.0809 16.2895 28.9632 16.3763 28.8763C16.4632 28.7895 16.5809 28.7407 16.7037 28.7407H25.1157C25.2154 28.0951 25.4187 27.4698 25.7176 26.8889H16.7037C16.5809 26.8889 16.4632 26.8401 16.3763 26.7533C16.2895 26.6665 16.2407 26.5487 16.2407 26.4259C16.2407 26.3031 16.2895 26.1854 16.3763 26.0986C16.4632 26.0117 16.5809 25.963 16.7037 25.963H26.3194C26.4625 25.7701 26.6171 25.5862 26.7824 25.412C27.3988 24.7964 28.1415 24.3219 28.9592 24.0214C29.7769 23.7208 30.6501 23.6014 31.5185 23.6713V17.6296H28.2778C28.0926 17.6297 27.9093 17.5927 27.7387 17.5209C27.568 17.4491 27.4134 17.3439 27.284 17.2115C27.1546 17.079 27.053 16.9221 26.9851 16.7498C26.9173 16.5775 26.8846 16.3934 26.8889 16.2083V13H13.463C13.3499 12.9991 13.2404 13.0395 13.1552 13.1137C13.0699 13.1879 13.0147 13.2907 13 13.4028V37.5972C13.0147 37.7093 13.0699 37.8121 13.1552 37.8863C13.2404 37.9605 13.3499 38.0009 13.463 38H31.0555C31.1783 38 31.2961 37.9512 31.3829 37.8644C31.4697 37.7776 31.5185 37.6598 31.5185 37.537V35.6852C31.3657 35.6852 31.2083 35.6852 31.0555 35.6852C30.2609 35.6852 29.4742 35.5278 28.7407 35.2222ZM17.1667 22.7222V15.7778C17.1667 15.4094 17.313 15.0562 17.5735 14.7957C17.8339 14.5352 18.1872 14.3889 18.5555 14.3889C18.9239 14.3889 19.2772 14.5352 19.5376 14.7957C19.7981 15.0562 19.9444 15.4094 19.9444 15.7778V22.7222H20.8704V18.0926C20.8704 17.7242 21.0167 17.371 21.2772 17.1105C21.5376 16.85 21.8909 16.7037 22.2592 16.7037C22.6276 16.7037 22.9809 16.85 23.2413 17.1105C23.5018 17.371 23.6481 17.7242 23.6481 18.0926V22.7222H24.5741V20.4074C24.5741 20.0391 24.7204 19.6858 24.9809 19.4253C25.2413 19.1649 25.5946 19.0185 25.9629 19.0185C26.3313 19.0185 26.6846 19.1649 26.945 19.4253C27.2055 19.6858 27.3518 20.0391 27.3518 20.4074V22.7222C27.4746 22.7222 27.5924 22.771 27.6792 22.8578C27.766 22.9446 27.8148 23.0624 27.8148 23.1852C27.8148 23.308 27.766 23.4257 27.6792 23.5126C27.5924 23.5994 27.4746 23.6482 27.3518 23.6482H17.1667C17.0439 23.6482 16.9261 23.5994 16.8393 23.5126C16.7525 23.4257 16.7037 23.308 16.7037 23.1852C16.7037 23.0624 16.7525 22.9446 16.8393 22.8578C16.9261 22.771 17.0439 22.7222 17.1667 22.7222Z" fill="#D85152"/>
<path d="M26.4259 20.4073C26.4259 20.2845 26.3771 20.1668 26.2903 20.0799C26.2035 19.9931 26.0857 19.9443 25.963 19.9443C25.8402 19.9443 25.7224 19.9931 25.6356 20.0799C25.5488 20.1668 25.5 20.2845 25.5 20.4073V22.7221H26.4259V20.4073Z" fill="#D85152"/>
<path d="M22.7218 18.0928C22.7218 17.9701 22.673 17.8523 22.5862 17.7655C22.4994 17.6787 22.3816 17.6299 22.2589 17.6299C22.1361 17.6299 22.0183 17.6787 21.9315 17.7655C21.8447 17.8523 21.7959 17.9701 21.7959 18.0928V22.7225H22.7218V18.0928Z" fill="#D85152"/>
<path d="M19.0187 15.7779C19.0187 15.6551 18.9699 15.5374 18.8831 15.4505C18.7963 15.3637 18.6785 15.3149 18.5557 15.3149C18.433 15.3149 18.3152 15.3637 18.2284 15.4505C18.1415 15.5374 18.0928 15.6551 18.0928 15.7779V22.7223H19.0187V15.7779Z" fill="#D85152"/>
</svg>
