<svg width="50" height="50" viewBox="0 0 50 50" fill="none" xmlns="http://www.w3.org/2000/svg">
<circle cx="25" cy="25" r="25" fill="white"/>
<path d="M31.3759 31.1706C31.064 31.1706 30.7719 31.2852 30.5508 31.4947C30.3307 31.7042 30.2086 31.9808 30.2086 32.2762C30.2086 32.5716 30.3307 32.8483 30.5508 33.0578C30.7719 33.2662 31.064 33.3818 31.3759 33.3818C31.6878 33.3818 31.9799 33.2662 32.2011 33.0578C32.4212 32.8483 32.5432 32.5716 32.5432 32.2762C32.5432 31.9808 32.4212 31.7042 32.2011 31.4947C32.093 31.3916 31.9645 31.3099 31.8228 31.2542C31.6812 31.1986 31.5293 31.1702 31.3759 31.1706ZM35.6768 33.4974L34.9946 32.9451C35.027 32.7574 35.0436 32.5657 35.0436 32.375C35.0436 32.1843 35.027 31.9917 34.9946 31.8049L35.6768 31.2526C35.7284 31.2108 35.7653 31.1552 35.7826 31.0931C35.7999 31.0309 35.7969 30.9653 35.7738 30.9048L35.7645 30.8792C35.5767 30.3819 35.2954 29.9209 34.9341 29.5186L34.9153 29.4979C34.8715 29.449 34.813 29.4139 34.7476 29.3972C34.6823 29.3804 34.6131 29.3828 34.5492 29.404L33.7021 29.6896C33.3892 29.4465 33.0408 29.2548 32.6632 29.1215L32.4994 28.2826C32.487 28.2194 32.4547 28.1613 32.4066 28.1159C32.3585 28.0706 32.297 28.0402 32.2303 28.0287L32.2021 28.0238C31.6597 27.9309 31.088 27.9309 30.5456 28.0238L30.5174 28.0287C30.4506 28.0402 30.3891 28.0706 30.3411 28.1159C30.293 28.1613 30.2606 28.2194 30.2483 28.2826L30.0835 29.1254C29.7094 29.2599 29.361 29.4511 29.0518 29.6915L28.1985 29.404C28.1346 29.3826 28.0654 29.3802 28 29.3969C27.9346 29.4137 27.8761 29.4489 27.8323 29.4979L27.8136 29.5186C27.4529 29.9214 27.1717 30.3822 26.9832 30.8792L26.9738 30.9048C26.9269 31.0283 26.9655 31.1667 27.0708 31.2526L27.7614 31.8109C27.7291 31.9966 27.7134 32.1863 27.7134 32.374C27.7134 32.5637 27.7291 32.7534 27.7614 32.9372L27.0729 33.4955C27.0214 33.5372 26.9845 33.5929 26.9672 33.655C26.9498 33.7171 26.9529 33.7828 26.9759 33.8432L26.9853 33.8689C27.1741 34.3659 27.4526 34.8253 27.8157 35.2294L27.8344 35.2502C27.8783 35.299 27.9368 35.3342 28.0021 35.3509C28.0675 35.3677 28.1367 35.3653 28.2006 35.344L29.0539 35.0565C29.3647 35.2986 29.7111 35.4903 30.0855 35.6227L30.2504 36.4655C30.2627 36.5287 30.2951 36.5868 30.3432 36.6321C30.3912 36.6775 30.4527 36.7079 30.5195 36.7194L30.5477 36.7243C31.0954 36.8177 31.6564 36.8177 32.2042 36.7243L32.2324 36.7194C32.2991 36.7079 32.3606 36.6775 32.4087 36.6321C32.4568 36.5868 32.4891 36.5287 32.5015 36.4655L32.6653 35.6266C33.0429 35.4923 33.3913 35.3016 33.7042 35.0585L34.5513 35.344C34.6152 35.3654 34.6844 35.3679 34.7498 35.3512C34.8152 35.3344 34.8737 35.2992 34.9174 35.2502L34.9362 35.2294C35.2992 34.8234 35.5777 34.3659 35.7665 33.8689L35.7759 33.8432C35.8208 33.7207 35.7822 33.5834 35.6768 33.4974ZM31.3759 34.0132C30.363 34.0132 29.5421 33.2356 29.5421 32.2762C29.5421 31.3169 30.363 30.5393 31.3759 30.5393C32.3888 30.5393 33.2098 31.3169 33.2098 32.2762C33.2098 33.2356 32.3888 34.0132 31.3759 34.0132Z" fill="#641183"/>
<path fill-rule="evenodd" clip-rule="evenodd" d="M13 17.1194C13 15.3984 14.3984 14 16.1194 14H32.0621C30.9312 14.5846 30.1525 15.7645 30.1525 17.1194V26.1715C27.2866 26.6413 25.0847 29.1328 25.0847 32.1279C25.0847 34.1272 26.0689 35.8997 27.573 37H17.2881V33.1009C17.2873 32.8868 17.1139 32.7135 16.8998 32.7126H13V17.1194ZM30.9322 17.1186C30.9322 15.6069 32.1493 14.3898 33.661 14.3898C35.1728 14.3898 36.3898 15.6069 36.3898 17.1186V19.4576H30.9322V17.1186ZM24.3051 17.8983H20.7966C20.2767 17.8983 20.2767 18.678 20.7966 18.678H24.3051C24.825 18.678 24.825 17.8983 24.3051 17.8983ZM27.8136 20.2373H20.7966C20.2767 20.2373 20.2767 21.0169 20.7966 21.0169H27.8136C28.3335 21.0169 28.3335 20.2373 27.8136 20.2373ZM27.8136 22.5763H20.7966C20.2767 22.5763 20.2767 23.3559 20.7966 23.3559H27.8136C28.3335 23.3559 28.3335 22.5763 27.8136 22.5763ZM27.8136 24.9153H20.7966C20.2767 24.9153 20.2767 25.6949 20.7966 25.6949H27.8136C28.3335 25.6949 28.3335 24.9153 27.8136 24.9153ZM13.115 33.7687C13.0414 33.6955 13 33.596 13 33.4923L16.5077 33.4923V37C16.4042 36.9998 16.3051 36.9584 16.2321 36.885L13.115 33.7687ZM16.8482 20.4363H17.6589V20.7678H17.032L16.8482 20.4363ZM17.6649 21.7352C17.6689 21.7995 17.6739 21.8648 17.68 21.9311L17.2369 21.1355H17.6589V21.5544C17.6589 21.6106 17.6609 21.6709 17.6649 21.7352ZM16.2093 20.4363L16.3931 20.7678H15.5643V20.4363H16.2093ZM15.5583 19.4358C15.5563 19.3735 15.5523 19.3102 15.5463 19.2459L16.0043 20.0716H15.5643V19.6045C15.5643 19.5523 15.5623 19.496 15.5583 19.4358ZM18.2375 20.7678V20.4363H18.7498V20.0716H18.2375V18.4201H17.6589V20.0716H16.6432L15.7904 18.5377C15.7723 18.5136 15.7552 18.4935 15.7391 18.4774C15.7231 18.4613 15.706 18.4493 15.6879 18.4412C15.6718 18.4332 15.6527 18.4282 15.6306 18.4262C15.6085 18.4221 15.5824 18.4201 15.5523 18.4201H14.9857V20.0716H14.6602C14.606 20.0716 14.5608 20.0897 14.5246 20.1259C14.4905 20.16 14.4734 20.1992 14.4734 20.2434V20.4363H14.9857V20.7678H14.4734V21.1355H14.9857V22.7599H15.5643V21.1355H16.595L17.4298 22.6363C17.464 22.6805 17.5001 22.7127 17.5383 22.7328C17.5765 22.7508 17.6227 22.7599 17.677 22.7599H18.2375V21.1355H18.566C18.6182 21.1355 18.6614 21.1184 18.6956 21.0842C18.7318 21.0481 18.7498 21.0079 18.7498 20.9637V20.7678H18.2375Z" fill="#641183"/>
</svg>
