<svg width="50" height="50" viewBox="0 0 50 50" fill="none" xmlns="http://www.w3.org/2000/svg">
<circle cx="25" cy="25" r="25" fill="white"/>
<path d="M36.476 26.2119H13.5059L20.0652 32.5044V28.0745H36.476V26.2119Z" fill="#EB5757"/>
<path d="M36.4916 25.6986C35.7264 25.6986 34.9663 25.6986 34.2011 25.6986C32.3687 25.6986 30.5363 25.6986 28.704 25.6986C26.489 25.6986 24.274 25.6986 22.0591 25.6986C20.1512 25.6986 18.2433 25.6986 16.3354 25.6986C15.4091 25.6986 14.4678 25.6583 13.5415 25.6986C13.5264 25.6986 13.5163 25.6986 13.5012 25.6986C13.0733 25.6986 12.8267 26.2523 13.1438 26.5594C13.8889 27.2692 14.6289 27.974 15.3638 28.6838C16.5418 29.8164 17.7248 30.944 18.9027 32.0767C19.1746 32.3385 19.4464 32.6002 19.7233 32.862C20.0354 33.159 20.5841 32.9476 20.5841 32.5046C20.5841 31.2058 20.5841 29.907 20.5841 28.6083C20.5841 28.422 20.5841 28.2357 20.5841 28.0495C20.418 28.2156 20.2468 28.3868 20.0807 28.5529C21.9332 28.5529 23.7908 28.5529 25.6433 28.5529C28.5882 28.5529 31.528 28.5529 34.4729 28.5529C35.1475 28.5529 35.822 28.5529 36.4966 28.5529C36.7684 28.5529 37 28.3213 37 28.0495C37 27.4353 37 26.8161 37 26.202C37 25.5526 35.9932 25.5526 35.9932 26.202C35.9932 26.8161 35.9932 27.4353 35.9932 28.0495C36.1593 27.8834 36.3305 27.7122 36.4966 27.5461C34.6441 27.5461 32.7865 27.5461 30.934 27.5461C27.9891 27.5461 25.0493 27.5461 22.1044 27.5461C21.4298 27.5461 20.7552 27.5461 20.0807 27.5461C19.8089 27.5461 19.5773 27.7776 19.5773 28.0495C19.5773 29.3483 19.5773 30.647 19.5773 31.9458C19.5773 32.1321 19.5773 32.3183 19.5773 32.5046C19.8642 32.3838 20.1512 32.268 20.4381 32.1472C19.6981 31.4374 18.9581 30.7326 18.2231 30.0228C17.0452 28.8902 15.8622 27.7625 14.6842 26.6299C14.4124 26.3681 14.1406 26.1064 13.8637 25.8446C13.7429 26.1315 13.6271 26.4185 13.5063 26.7054C14.2714 26.7054 15.0316 26.7054 15.7967 26.7054C17.6291 26.7054 19.4615 26.7054 21.2939 26.7054C23.5089 26.7054 25.7238 26.7054 27.9388 26.7054C29.8467 26.7054 31.7546 26.7054 33.6625 26.7054C34.5937 26.7054 35.5301 26.7406 36.4563 26.7054C36.4714 26.7054 36.4815 26.7054 36.4966 26.7054C37.141 26.7054 37.141 25.6986 36.4916 25.6986Z" fill="#EB5757"/>
<path d="M13.5215 22.6885H36.4916L29.9323 16.396V20.8259H13.5215V22.6885Z" fill="#EB5757"/>
<path d="M13.5063 23.2018C14.2715 23.2018 15.0316 23.2018 15.7968 23.2018C17.6292 23.2018 19.4616 23.2018 21.2939 23.2018C23.5089 23.2018 25.7239 23.2018 27.9388 23.2018C29.8467 23.2018 31.7546 23.2018 33.6625 23.2018C34.5888 23.2018 35.5301 23.2421 36.4564 23.2018C36.4715 23.2018 36.4816 23.2018 36.4967 23.2018C36.9245 23.2018 37.1712 22.6481 36.8541 22.341C36.1141 21.6312 35.3741 20.9264 34.6391 20.2167C33.4611 19.084 32.2782 17.9564 31.1002 16.8237C30.8284 16.562 30.5565 16.3002 30.2797 16.0384C29.9675 15.7414 29.4188 15.9528 29.4188 16.3958C29.4188 17.6946 29.4188 18.9934 29.4188 20.2922C29.4188 20.4784 29.4188 20.6647 29.4188 20.8509C29.585 20.6848 29.7561 20.5137 29.9222 20.3475C28.0697 20.3475 26.2122 20.3475 24.3597 20.3475C21.4148 20.3475 18.4749 20.3475 15.53 20.3475C14.8554 20.3475 14.1809 20.3475 13.5063 20.3475C13.2345 20.3475 13.0029 20.5791 13.0029 20.8509C13.0029 21.4651 13.0029 22.0843 13.0029 22.6984C13.0029 23.3478 14.0097 23.3478 14.0097 22.6984C14.0097 22.0843 14.0097 21.4651 14.0097 20.8509C13.8436 21.0171 13.6725 21.1882 13.5063 21.3543C15.3588 21.3543 17.2164 21.3543 19.0689 21.3543C22.0138 21.3543 24.9537 21.3543 27.8986 21.3543C28.5731 21.3543 29.2477 21.3543 29.9222 21.3543C30.1941 21.3543 30.4256 21.1228 30.4256 20.8509C30.4256 19.5522 30.4256 18.2534 30.4256 16.9546C30.4256 16.7683 30.4256 16.5821 30.4256 16.3958C30.1387 16.5166 29.8518 16.6324 29.5648 16.7532C30.3048 17.463 31.0448 18.1678 31.7798 18.8776C32.9577 20.0103 34.1407 21.1379 35.3187 22.2705C35.5905 22.5323 35.8624 22.7941 36.1392 23.0558C36.2601 22.7689 36.3758 22.482 36.4967 22.195C35.7315 22.195 34.9713 22.195 34.2062 22.195C32.3738 22.195 30.5414 22.195 28.709 22.195C26.4941 22.195 24.2791 22.195 22.0641 22.195C20.1563 22.195 18.2484 22.195 16.3405 22.195C15.4092 22.195 14.4729 22.1598 13.5466 22.195C13.5315 22.195 13.5214 22.195 13.5063 22.195C12.8569 22.195 12.8569 23.2018 13.5063 23.2018Z" fill="#EB5757"/>
</svg>
