<svg width="50" height="50" viewBox="0 0 50 50" fill="none" xmlns="http://www.w3.org/2000/svg">
<circle cx="25" cy="25" r="25" fill="white"/>
<path d="M24.773 22.9893C27.2553 22.9893 29.2676 20.977 29.2676 18.4946C29.2676 16.0123 27.2553 14 24.773 14C22.2906 14 20.2783 16.0123 20.2783 18.4946C20.2783 20.977 22.2906 22.9893 24.773 22.9893Z" fill="#8B2341"/>
<path d="M34.8659 22.871C36.7168 22.871 38.2172 21.3706 38.2172 19.5197C38.2172 17.6689 36.7168 16.1685 34.8659 16.1685C33.0151 16.1685 31.5146 17.6689 31.5146 19.5197C31.5146 21.3706 33.0151 22.871 34.8659 22.871Z" fill="#8B2341"/>
<path d="M41.5286 30.7957C40.8584 26.577 38.6505 24.0537 34.8655 24.0537C33.4067 24.0537 32.2239 24.4086 31.2383 25.1182C31.3566 25.2365 31.4748 25.3548 31.6325 25.4731C33.249 27.1684 34.353 29.6129 34.8655 32.7276C34.8655 32.8459 34.905 32.9641 34.905 33.043C38.5716 33.0824 41.8046 32.4516 41.5286 30.7957Z" fill="#8B2341"/>
<path d="M14.6794 22.871C16.5302 22.871 18.0307 21.3706 18.0307 19.5197C18.0307 17.6689 16.5302 16.1685 14.6794 16.1685C12.8285 16.1685 11.3281 17.6689 11.3281 19.5197C11.3281 21.3706 12.8285 22.871 14.6794 22.871Z" fill="#8B2341"/>
<path d="M17.9518 25.4731C18.0701 25.3548 18.1884 25.2365 18.3066 25.1182C17.321 24.4086 16.0988 24.0537 14.6794 24.0537C10.9339 24.0537 8.72597 26.5376 8.01629 30.7957C7.7403 32.4516 11.0127 33.0824 14.6794 33.0824C14.6794 32.9641 14.6794 32.8459 14.7188 32.767C15.1919 29.6523 16.2959 27.2078 17.9518 25.4731Z" fill="#8B2341"/>
<path d="M24.7726 35.9997C19.8442 35.9997 15.5073 35.1324 15.8622 32.9639C16.8084 27.2864 19.7654 23.9746 24.7726 23.9746C29.7798 23.9746 32.7368 27.3259 33.683 32.9639C34.0378 35.1324 29.7009 35.9997 24.7726 35.9997Z" fill="#8B2341"/>
</svg>
