<svg width="50" height="55" viewBox="0 0 50 55" fill="none" xmlns="http://www.w3.org/2000/svg">
<circle cx="25" cy="30" r="25" fill="white"/>
<path d="M35.7143 40.3028C35.6629 40.2856 35.6029 40.2856 35.5514 40.2856H14.4486C14.3971 40.2856 14.3371 40.2856 14.2857 40.3028C13.5657 40.3799 13 40.9885 13 41.7342V41.9999H37V41.7342C37 40.9885 36.4343 40.3799 35.7143 40.3028Z" fill="#D85152"/>
<path d="M13 18V19.7143H14.2857H35.7143H37V18H13Z" fill="#D85152"/>
<path d="M35.2863 39.857V20.1427H34.8577H26.8863C26.8348 20.117 26.7748 20.1084 26.7148 20.1084C26.6548 20.1084 26.5948 20.117 26.5434 20.1427H15.1434H14.7148V39.857H15.1434H34.8577H35.2863ZM33.9748 25.9541C33.9748 25.9798 33.9663 25.997 33.9663 26.0141C33.9491 26.0827 33.9234 26.1513 33.8977 26.2113C33.872 26.2798 33.8377 26.3484 33.7948 26.4084C33.7863 26.417 33.7863 26.4341 33.7777 26.4427C33.7434 26.4941 33.7006 26.537 33.6663 26.5798C33.6148 26.6313 33.572 26.6827 33.512 26.7084C33.4691 26.7427 33.4348 26.777 33.3834 26.8027C33.3406 26.837 33.2977 26.8627 33.2548 26.8798C33.2206 26.897 33.1777 26.9141 33.1434 26.9227C33.0834 26.9484 33.0234 26.9655 32.9634 26.9741C32.8863 26.9913 32.8006 26.9998 32.7148 26.9998V34.7141V34.7947L33.1434 34.8084C33.6234 34.9884 33.9577 35.4598 33.9577 35.9998C33.9577 36.677 33.4263 37.2427 32.7406 37.2855H17.2863C16.5748 37.2427 16.0434 36.677 16.0434 35.9998C16.0434 35.4598 16.3777 34.9884 16.8577 34.8084L17.2863 34.7947V34.7141V26.9998C17.2006 26.9998 17.1148 26.9913 17.0377 26.9741C16.9777 26.9655 16.9177 26.9484 16.8577 26.9227C16.8234 26.9141 16.7806 26.897 16.7463 26.8798C16.7034 26.8627 16.6606 26.837 16.6177 26.8027C16.5663 26.777 16.532 26.7427 16.4891 26.7084C16.4291 26.6827 16.3863 26.6313 16.3434 26.5798C16.3006 26.537 16.2577 26.4941 16.232 26.4427C16.2148 26.4341 16.2148 26.417 16.2063 26.4084C16.1634 26.3484 16.1291 26.2798 16.1034 26.2113C16.0777 26.1513 16.052 26.0827 16.0348 26.0141C16.0348 25.997 16.0263 25.9798 16.0263 25.9541C16.0091 25.877 16.0006 25.7998 16.0006 25.7141L16.0348 25.5513L16.2834 24.9341V24.9255L17.7148 21.3427L17.852 20.9998H18.572H19.4291H20.2863H21.1434H22.0006H22.8577H23.7148H24.572H25.4291H26.2863H27.1434H28.0006H28.8577H29.7148H30.572H31.4291H32.1491L32.2863 21.3513L33.6663 24.8655L34.0006 25.7141C34.0006 25.7998 33.992 25.877 33.9748 25.9541Z" fill="#D85152"/>
<path d="M17.5087 26.5371C17.5773 26.52 17.6459 26.4857 17.7144 26.4514V25.7143V23.6743V23.6571V23.3914V22.5L17.4487 23.1771L17.1059 24.0429L16.6773 25.1057C16.6773 25.1143 16.6687 25.1229 16.6687 25.1229C16.523 25.2771 16.4287 25.4829 16.4287 25.7143C16.4287 25.9371 16.5144 26.1429 16.6516 26.2971C16.7116 26.3571 16.7801 26.4086 16.8573 26.4514C16.9859 26.5286 17.1316 26.5714 17.2859 26.5714C17.363 26.5714 17.4401 26.5629 17.5087 26.5371Z" fill="#D85152"/>
<path d="M18.9999 26.5716C19.077 26.5716 19.1541 26.563 19.2227 26.5373C19.2999 26.5201 19.3684 26.4944 19.4284 26.4516V25.7144V21.8573V21.4287H18.5713V21.8573V25.7144V26.4516C18.6313 26.4944 18.6999 26.5201 18.777 26.5373C18.8456 26.563 18.9227 26.5716 18.9999 26.5716Z" fill="#D85152"/>
<path d="M20.7147 26.5716C20.7918 26.5716 20.869 26.563 20.9376 26.5373C21.0147 26.5201 21.0833 26.4944 21.1433 26.4516V25.7144V21.8573V21.4287H20.2861V21.8573V25.7144V26.4516C20.3461 26.4944 20.4147 26.5201 20.4918 26.5373C20.5604 26.563 20.6376 26.5716 20.7147 26.5716Z" fill="#D85152"/>
<path d="M22.4286 26.5716C22.5057 26.5716 22.5829 26.563 22.6514 26.5373C22.7286 26.5201 22.7971 26.4944 22.8571 26.4516V25.7144V21.8573V21.4287H22V21.8573V25.7144V26.4516C22.06 26.4944 22.1286 26.5201 22.2057 26.5373C22.2743 26.563 22.3514 26.5716 22.4286 26.5716Z" fill="#D85152"/>
<path d="M24.1424 26.5716C24.2196 26.5716 24.2967 26.563 24.3653 26.5373C24.4424 26.5201 24.511 26.4944 24.571 26.4516V25.7144V21.8573V21.4287H23.7139V21.8573V25.7144V26.4516C23.7739 26.4944 23.8424 26.5201 23.9196 26.5373C23.9882 26.563 24.0653 26.5716 24.1424 26.5716Z" fill="#D85152"/>
<path d="M25.8573 26.5716C25.9344 26.5716 26.0116 26.563 26.0801 26.5373C26.1573 26.5201 26.2259 26.4944 26.2859 26.4516V25.7144V21.8573V21.4287H25.4287V21.8573V25.7144V26.4516C25.4887 26.4944 25.5573 26.5201 25.6344 26.5373C25.703 26.563 25.7801 26.5716 25.8573 26.5716Z" fill="#D85152"/>
<path d="M27.5711 26.5716C27.6483 26.5716 27.7254 26.563 27.794 26.5373C27.8626 26.5201 27.9312 26.4859 27.9997 26.4516V25.7144V21.8573V21.4287H27.1426V21.8573V25.7144V26.4516C27.2111 26.4859 27.2797 26.5201 27.3483 26.5373C27.4169 26.563 27.494 26.5716 27.5711 26.5716Z" fill="#D85152"/>
<path d="M29.286 26.5716C29.3631 26.5716 29.4403 26.563 29.5089 26.5373C29.5774 26.5201 29.646 26.4859 29.7146 26.4516V25.7144V21.8573V21.4287H28.8574V21.8573V25.7144V26.4516C28.926 26.4859 28.9946 26.5201 29.0631 26.5373C29.1317 26.563 29.2089 26.5716 29.286 26.5716Z" fill="#D85152"/>
<path d="M30.9999 26.5716C31.077 26.5716 31.1541 26.563 31.2227 26.5373C31.2913 26.5201 31.3599 26.4859 31.4284 26.4516V25.7144V21.8573V21.4287H30.5713V21.8573V25.7144V26.4516C30.6399 26.4859 30.7084 26.5201 30.777 26.5373C30.8456 26.563 30.9227 26.5716 30.9999 26.5716Z" fill="#D85152"/>
<path d="M33.3233 25.1057L32.9033 24.0514V24.0429L32.2861 22.5V23.3914V23.6571V23.6914V25.7143V26.4514C32.3547 26.4857 32.4233 26.52 32.4918 26.5371C32.5604 26.5629 32.6376 26.5714 32.7147 26.5714C32.869 26.5714 33.0147 26.5286 33.1433 26.4514C33.2204 26.4086 33.289 26.3571 33.349 26.2971C33.4861 26.1429 33.5718 25.9371 33.5718 25.7143C33.5718 25.4829 33.4776 25.2771 33.3318 25.1229C33.3318 25.1229 33.3233 25.1143 33.3233 25.1057Z" fill="#D85152"/>
<path d="M32.7145 35.1431H28.0003H22.0003H17.286V35.1516C17.2174 35.1516 17.1574 35.1602 17.0974 35.1859C17.0631 35.1859 17.0374 35.2031 17.0117 35.2116C16.9688 35.2288 16.926 35.2459 16.8917 35.2716C16.8745 35.2716 16.866 35.2802 16.8574 35.2888C16.8488 35.2974 16.8403 35.3059 16.8317 35.3059C16.7803 35.3402 16.7374 35.3831 16.7031 35.4259C16.6431 35.4859 16.5917 35.5545 16.566 35.6231C16.5403 35.6659 16.5231 35.7002 16.5145 35.7431C16.4888 35.8202 16.4717 35.9145 16.4717 36.0002C16.4717 36.4545 16.8317 36.8316 17.286 36.8574H32.7145C33.1688 36.8316 33.5288 36.4545 33.5288 36.0002C33.5288 35.9145 33.5117 35.8202 33.486 35.7431C33.4774 35.7002 33.4603 35.6659 33.4345 35.6231C33.4088 35.5545 33.3574 35.4859 33.2974 35.4259C33.2631 35.3831 33.2203 35.3402 33.1688 35.3059C33.1603 35.3059 33.1517 35.2974 33.1431 35.2888C33.1088 35.2631 33.0745 35.2459 33.0317 35.2288C32.9888 35.2031 32.9374 35.1859 32.8774 35.1774C32.826 35.1602 32.7745 35.1516 32.7145 35.1516V35.1431Z" fill="#D85152"/>
<path d="M22.4287 34.7145H22.8573H27.143H27.5716V34.2859C27.5716 33.5745 27.2801 32.9316 26.8173 32.4688C26.5773 32.2288 26.2859 32.0316 25.9687 31.9116C25.6773 32.0573 25.3516 32.1431 25.0001 32.1431C24.6487 32.1431 24.323 32.0573 24.0316 31.9116C23.0887 32.2802 22.4287 33.2059 22.4287 34.2859V34.7145Z" fill="#D85152"/>
<path d="M24.0661 31.4399C24.3404 31.6114 24.6576 31.7142 25.0004 31.7142C25.3433 31.7142 25.6604 31.6114 25.9347 31.4399C26.4061 31.1314 26.7147 30.5999 26.7147 29.9999C26.7147 29.0571 25.9433 28.2856 25.0004 28.2856C24.0576 28.2856 23.2861 29.0571 23.2861 29.9999C23.2861 30.5999 23.5947 31.1314 24.0661 31.4399Z" fill="#D85152"/>
</svg>
