<svg xmlns="http://www.w3.org/2000/svg" xmlns:xlink="http://www.w3.org/1999/xlink" viewBox="0 0 67.87 68.11"><defs><style>.cls-1{fill:url(#linear-gradient);}</style><linearGradient id="linear-gradient" x1="12.15" y1="18.35" x2="60.59" y2="66.79" gradientUnits="userSpaceOnUse"><stop offset="0.17" stop-color="#58595b"/><stop offset="0.6"/></linearGradient></defs><title>H1</title><g id="Layer_2" data-name="Layer 2"><g id="Layer_1-2" data-name="Layer 1"><path class="cls-1" d="M67.22,29.84,53.4,17V7.29a2.44,2.44,0,0,0-4.87,0v5.3L35.59.65a2.43,2.43,0,0,0-3.31,0L.66,29.84A2.43,2.43,0,0,0,4,33.39l3.22-3V65.68a2.43,2.43,0,0,0,2.43,2.43h14.6V48.65a2.43,2.43,0,0,1,2.43-2.44H41.23a2.44,2.44,0,0,1,2.44,2.44V68.11H58.26a2.43,2.43,0,0,0,2.44-2.43V30.43l3.21,3a2.43,2.43,0,0,0,3.31-3.55Zm-18.69-.66H19.34a2.43,2.43,0,0,1,0-4.86H48.53a2.43,2.43,0,0,1,0,4.86ZM29.07,51.08H38.8v17H29.07Z"/></g></g></svg>