<svg xmlns="http://www.w3.org/2000/svg" xmlns:xlink="http://www.w3.org/1999/xlink" viewBox="0 0 75.42 71.9"><defs><style>.cls-1{fill:url(#linear-gradient);}</style><linearGradient id="linear-gradient" x1="2.63" y1="17.66" x2="61.73" y2="76.77" gradientUnits="userSpaceOnUse"><stop offset="0.17" stop-color="#0d7494"/><stop offset="0.27" stop-color="#0c6584"/><stop offset="0.47" stop-color="#083d5c"/><stop offset="0.5" stop-color="#083756"/></linearGradient></defs><title>Saless</title><g id="Layer_2" data-name="Layer 2"><g id="Layer_1-2" data-name="Layer 1"><path class="cls-1" d="M24.31,0A9.71,9.71,0,0,0,14.6,9.71v3.84H34V9.71A9.71,9.71,0,0,0,24.31,0ZM8.23,15.85a2.13,2.13,0,0,0-2.11,1.8L0,61.57a5.44,5.44,0,0,0,5.42,5.35h21.1L31.6,30.46v0a3.89,3.89,0,0,1,3.86-3.3h8.36L42.5,17.65a2.13,2.13,0,0,0-2.11-1.8H36.32v6a1.15,1.15,0,0,1-2.3,0V18.06l-2.76,2.49,0,6.05a1.14,1.14,0,0,1-.33.82L22.1,36.27a2.82,2.82,0,0,1-4,0l-4.72-4.72a2.81,2.81,0,0,1,0-4l8.86-8.86a1.15,1.15,0,0,1,.82-.34l7,0h.09L33,15.85H14.6v6a1.15,1.15,0,1,1-2.3,0v-6Zm15.31,4.82L15,29.19a.53.53,0,0,0,0,.74l4.72,4.72a.52.52,0,0,0,.73,0L29,26.13l0-5.43Zm1.92.72a2.83,2.83,0,1,1-2,.82A2.8,2.8,0,0,1,25.46,21.39Zm0,2.29a.56.56,0,0,0-.37.16.53.53,0,0,0,0,.73.52.52,0,0,0,.73-.73A.54.54,0,0,0,25.46,23.68Zm10,5.76a1.6,1.6,0,0,0-1.58,1.35L28.75,67.61a4.36,4.36,0,0,0,4.36,4.29H64.8a4.37,4.37,0,0,0,4.35-4.05A2.81,2.81,0,0,1,67.74,67l-8.16-9.45a1.12,1.12,0,0,1-.27-.84L59.83,50,57,46.55a10.25,10.25,0,0,1-18.27-6.41V34.87a1.15,1.15,0,0,1,2.3,0v5.27a8,8,0,1,0,15.92,0V34.87a1.15,1.15,0,0,1,2.3,0v5.27a10.2,10.2,0,0,1-1,4.35l3.47,4.18,4.85.33L64,30.79a1.59,1.59,0,0,0-1.58-1.35ZM62.06,51l-.42,5.39,7.84,9.08a.51.51,0,0,0,.72.06l5-4.35a.54.54,0,0,0,.18-.35.53.53,0,0,0-.13-.38l-7.84-9.08Zm3.28.92h.15a2.81,2.81,0,0,1-.2,5.62h-.21a2.81,2.81,0,0,1,.26-5.62Zm0,2.3a.47.47,0,0,0-.37.13.51.51,0,1,0,.72,0A.5.5,0,0,0,65.32,54.22Z"/></g></g></svg>