<svg width="14" height="15" viewBox="0 0 14 15" fill="none" xmlns="http://www.w3.org/2000/svg">
<path d="M13.2846 3.2615C13.2845 3.42924 13.2229 3.59114 13.1115 3.71649C13 3.84184 12.8464 3.92193 12.6798 3.94155L12.5997 3.94635H12.021L11.178 12.5206C11.1321 12.9859 10.9148 13.4174 10.5683 13.7313C10.2219 14.0453 9.77105 14.2191 9.30354 14.219H4.25348C3.78596 14.2191 3.33515 14.0453 2.9887 13.7313C2.64226 13.4174 2.42495 12.9859 2.37905 12.5206L1.536 3.94635H0.957308C0.775675 3.94635 0.601482 3.87419 0.473048 3.74576C0.344614 3.61732 0.272461 3.44313 0.272461 3.2615C0.272461 3.07987 0.344614 2.90567 0.473048 2.77724C0.601482 2.6488 0.775675 2.57665 0.957308 2.57665H4.38154C4.38154 2.26188 4.44354 1.95019 4.564 1.65937C4.68446 1.36856 4.86102 1.10432 5.0836 0.881742C5.30618 0.659163 5.57041 0.482604 5.86123 0.362146C6.15204 0.241687 6.46373 0.179688 6.77851 0.179688C7.09328 0.179688 7.40497 0.241687 7.69578 0.362146C7.9866 0.482604 8.25084 0.659163 8.47342 0.881742C8.69599 1.10432 8.87255 1.36856 8.99301 1.65937C9.11347 1.95019 9.17547 2.26188 9.17547 2.57665H12.5997C12.7813 2.57665 12.9555 2.6488 13.084 2.77724C13.2124 2.90567 13.2846 3.07987 13.2846 3.2615ZM8.31941 5.48725C8.19529 5.48726 8.07537 5.53221 7.98183 5.61379C7.88829 5.69537 7.82745 5.80806 7.81057 5.93103L7.80578 6.00089V10.7948L7.81057 10.8647C7.82749 10.9876 7.88834 11.1003 7.98188 11.1818C8.07541 11.2634 8.19531 11.3083 8.31941 11.3083C8.44351 11.3083 8.56341 11.2634 8.65695 11.1818C8.75049 11.1003 8.81134 10.9876 8.82825 10.8647L8.83305 10.7948V6.00089L8.82825 5.93103C8.81137 5.80806 8.75054 5.69537 8.65699 5.61379C8.56345 5.53221 8.44353 5.48726 8.31941 5.48725ZM5.2376 5.48725C5.11348 5.48726 4.99356 5.53221 4.90002 5.61379C4.80648 5.69537 4.74564 5.80806 4.72876 5.93103L4.72397 6.00089V10.7948L4.72876 10.8647C4.74567 10.9876 4.80653 11.1003 4.90006 11.1818C4.9936 11.2634 5.1135 11.3083 5.2376 11.3083C5.3617 11.3083 5.4816 11.2634 5.57514 11.1818C5.66867 11.1003 5.72953 10.9876 5.74644 10.8647L5.75124 10.7948V6.00089L5.74644 5.93103C5.72956 5.80806 5.66872 5.69537 5.57518 5.61379C5.48164 5.53221 5.36172 5.48726 5.2376 5.48725ZM6.77851 1.54938C6.50606 1.54938 6.24477 1.65761 6.05212 1.85026C5.85947 2.04291 5.75124 2.3042 5.75124 2.57665H7.80578C7.80578 2.3042 7.69755 2.04291 7.5049 1.85026C7.31224 1.65761 7.05095 1.54938 6.77851 1.54938Z" fill="#FF4D4F"/>
</svg>
