<svg width="20" height="19" viewBox="0 0 20 19" fill="none" xmlns="http://www.w3.org/2000/svg">
<g clip-path="url(#clip0)">
<path d="M17.2818 9.21482H12.2771C11.8221 9.21482 11.3856 9.0354 11.0638 8.71602C10.742 8.39665 10.5612 7.96349 10.5612 7.51184V2.54481C10.5612 2.50717 10.5462 2.47108 10.5194 2.44446C10.4925 2.41785 10.4562 2.4029 10.4182 2.4029H8.51467C8.44791 2.28019 8.37014 2.1637 8.28231 2.05485C7.87014 1.54715 7.25778 1.26758 6.55748 1.26758C5.21049 1.26758 4.26961 2.3181 4.26961 3.82205V8.93099C4.26961 9.81795 4.99672 10.3501 5.69953 10.3501C5.88788 10.3522 6.07474 10.3169 6.24916 10.2463C6.42357 10.1757 6.58202 10.0712 6.71522 9.93903C6.84841 9.80684 6.95366 9.64958 7.02479 9.47648C7.09592 9.30338 7.1315 9.11792 7.12944 8.93099V3.53822C7.12944 3.38766 7.06918 3.24328 6.96192 3.13682C6.85465 3.03036 6.70917 2.97056 6.55748 2.97056C6.40578 2.97056 6.2603 3.03036 6.15303 3.13682C6.04577 3.24328 5.98551 3.38766 5.98551 3.53822V8.93099C5.98675 8.96859 5.98021 9.00605 5.96627 9.04105C5.95234 9.07604 5.93132 9.10782 5.90451 9.13443C5.87771 9.16104 5.84568 9.1819 5.81042 9.19572C5.77516 9.20955 5.73742 9.21605 5.69953 9.21482C5.61981 9.21482 5.41354 9.16373 5.41354 8.93099V3.82205C5.41354 3.13589 5.71418 2.4029 6.55748 2.4029C7.61883 2.4029 7.70141 3.47258 7.70141 3.80005V8.72273C7.70141 9.34183 7.50587 9.90168 7.15053 10.3001C6.78984 10.7049 6.28829 10.9178 5.69953 10.9178C5.11076 10.9178 4.60922 10.7049 4.24852 10.3001C3.89318 9.90168 3.69764 9.34183 3.69764 8.72273V5.80886C3.69764 5.6583 3.63738 5.51392 3.53012 5.40746C3.42285 5.301 3.27737 5.2412 3.12568 5.2412C2.97398 5.2412 2.8285 5.301 2.72124 5.40746C2.61397 5.51392 2.55371 5.6583 2.55371 5.80886V8.72273C2.55371 10.5502 3.74018 11.9027 5.41354 12.0411V16.0267C5.41354 16.6289 5.65458 17.2065 6.08364 17.6323C6.5127 18.0581 7.09463 18.2974 7.70141 18.2974H15.137C15.7438 18.2974 16.3257 18.0581 16.7547 17.6323C17.1838 17.2065 17.4248 16.6289 17.4248 16.0267V9.35673C17.4248 9.31909 17.4098 9.283 17.383 9.25638C17.3561 9.22977 17.3198 9.21482 17.2818 9.21482Z" fill="#7B7B7B" fill-opacity="0.7"/>
<path d="M12.277 8.0778H16.9175C16.9316 8.07774 16.9453 8.07355 16.957 8.06575C16.9687 8.05794 16.9779 8.04688 16.9832 8.03395C16.9886 8.02103 16.99 8.0068 16.9873 7.99308C16.9846 7.97935 16.9778 7.96674 16.9679 7.95682L11.827 2.85462C11.817 2.84476 11.8043 2.83805 11.7904 2.83533C11.7766 2.83262 11.7623 2.83402 11.7493 2.83937C11.7362 2.84472 11.7251 2.85376 11.7172 2.86538C11.7094 2.87699 11.7051 2.89065 11.7051 2.90464V7.51014C11.7051 7.66069 11.7653 7.80508 11.8726 7.91153C11.9799 8.01799 12.1253 8.0778 12.277 8.0778Z" fill="#7B7B7B" fill-opacity="0.7"/>
</g>
<defs>
<clipPath id="clip0">
<rect width="18.3029" height="18.2053" fill="white" transform="translate(0.839844 0.792969)"/>
</clipPath>
</defs>
</svg>
