<svg width="32" height="35" viewBox="0 0 32 35" fill="none" xmlns="http://www.w3.org/2000/svg">
<path d="M23.1475 6.3521L22.926 9.96986L28.2788 10.2283V1.36844C28.2788 0.925448 27.9466 0.556289 27.5036 0.519373L19.3821 0.0025491C18.9391 -0.0343669 18.533 0.334793 18.4961 0.777784L18.3115 3.39882L20.6003 3.50957C22.077 3.5834 23.2213 4.87546 23.1475 6.3521Z" fill="#52B141"/>
<path d="M21.079 9.85964L21.2636 6.24187C21.3005 5.76197 20.9313 5.39281 20.4883 5.35589L18.1995 5.24514L13.0313 4.94981C12.5883 4.9129 12.1822 5.28206 12.1453 5.72505L11.9238 9.37973L17.9042 9.67506L21.079 9.85964Z" fill="#52B141"/>
<path d="M31.6001 12.5923C31.4155 12.3339 31.1202 12.1863 30.8248 12.1863L8.15843 11.0419L7.53086 6.90727C7.45702 6.39045 6.97712 5.98438 6.46029 5.98438H1.07056C0.479908 5.98438 0 6.46428 0 7.05494C0 7.64559 0.479908 8.1255 1.07056 8.1255H5.46356L8.34301 27.1003C8.49067 27.9863 8.89675 28.7246 9.45049 29.3153C8.82292 29.9059 8.45376 30.755 8.45376 31.6779C8.45376 33.5237 9.96731 35.0003 11.7762 35.0003C13.5851 35.0003 15.0986 33.4868 15.0986 31.6779C15.0986 31.2718 15.0248 30.8657 14.8771 30.4966H22.6664C22.5187 30.8657 22.4449 31.2718 22.4449 31.6779C22.4449 33.5237 23.9585 35.0003 25.7673 35.0003C27.6131 35.0003 29.0898 33.4868 29.0898 31.6779C29.0898 29.8321 27.5762 28.3554 25.7673 28.3554H12.3299C11.407 28.3554 10.6318 27.691 10.4841 26.7681L10.2257 25.0699H24.18C27.3916 25.0699 30.1603 22.7811 30.7141 19.5694L31.7846 13.4414C31.8585 13.183 31.7846 12.8507 31.6001 12.5923ZM11.8131 32.8592C11.1486 32.8592 10.6318 32.3424 10.6318 31.6779C10.6318 31.0134 11.1486 30.4966 11.8131 30.4966C12.4776 30.4966 12.9944 31.0134 12.9944 31.6779C12.9944 32.3424 12.4407 32.8592 11.8131 32.8592ZM27.0225 31.7148C27.0225 32.3793 26.5057 32.8961 25.8412 32.8961C25.1767 32.8961 24.6599 32.3793 24.6599 31.7148C24.6599 31.0503 25.1767 30.5335 25.8412 30.5335C26.4687 30.5335 27.0225 31.0503 27.0225 31.7148Z" fill="#52B141"/>
</svg>
