<svg width="37" height="35" viewBox="0 0 37 35" fill="none" xmlns="http://www.w3.org/2000/svg">
<path d="M11.8338 0C10.5802 0 9.37794 0.497991 8.49151 1.38442C7.60508 2.27085 7.10709 3.4731 7.10709 4.7267V6.59597H16.5508V4.7267C16.5508 3.47479 16.0541 2.27401 15.1698 1.38786C14.2855 0.501707 13.0857 0.00257861 11.8338 0V0ZM4.00626 7.71558C3.75863 7.71491 3.51894 7.8029 3.33055 7.96361C3.14216 8.12432 3.0175 8.34715 2.97914 8.59179L0 29.9715C0.0114627 30.6645 0.294181 31.3254 0.787465 31.8123C1.28075 32.2992 1.94527 32.5733 2.63839 32.5758H12.9096L15.3825 14.8275C15.4513 14.3791 15.6788 13.9702 16.0237 13.6754C16.3685 13.3806 16.8078 13.2194 17.2615 13.2211H21.331L20.6885 8.59179C20.6501 8.34715 20.5254 8.12432 20.337 7.96361C20.1487 7.8029 19.909 7.71491 19.6613 7.71558H17.6801V10.6363C17.6801 10.7848 17.6211 10.9272 17.5161 11.0321C17.4112 11.1371 17.2688 11.1961 17.1203 11.1961C16.9718 11.1961 16.8294 11.1371 16.7245 11.0321C16.6195 10.9272 16.5605 10.7848 16.5605 10.6363V8.79138L15.217 10.0035V12.9485C15.2181 13.0224 15.2045 13.0958 15.1769 13.1643C15.1493 13.2329 15.1083 13.2952 15.0563 13.3477L10.758 17.6558C10.6304 17.7841 10.4787 17.886 10.3116 17.9555C10.1446 18.025 9.96539 18.0607 9.78442 18.0607C9.60346 18.0607 9.42428 18.025 9.2572 17.9555C9.09012 17.886 8.93843 17.7841 8.81085 17.6558L6.51321 15.3581C6.38428 15.2309 6.28191 15.0793 6.21204 14.9122C6.14217 14.745 6.10619 14.5657 6.10619 14.3846C6.10619 14.2034 6.14217 14.0241 6.21204 13.8569C6.28191 13.6898 6.38428 13.5382 6.51321 13.411L10.8261 9.09805C10.8784 9.04539 10.9406 9.00364 11.0091 8.97523C11.0776 8.94682 11.1511 8.93231 11.2253 8.93255H14.6328H14.6766L16.064 7.71558H7.10709V10.6363C7.10709 10.7848 7.04811 10.9272 6.94313 11.0321C6.83815 11.1371 6.69576 11.1961 6.54729 11.1961C6.39882 11.1961 6.25643 11.1371 6.15145 11.0321C6.04646 10.9272 5.98748 10.7848 5.98748 10.6363V7.71558H4.00626ZM11.459 10.0619L7.30181 14.2093C7.25483 14.2575 7.22853 14.3221 7.22853 14.3894C7.22853 14.4567 7.25483 14.5214 7.30181 14.5695L9.59944 16.8672C9.6468 16.9139 9.71063 16.94 9.77712 16.94C9.84361 16.94 9.90744 16.9139 9.9548 16.8672L14.1168 12.7197V10.0765L11.459 10.0619ZM12.3936 10.4124C12.7124 10.4133 13.0211 10.5247 13.2669 10.7277C13.5128 10.9307 13.6806 11.2126 13.7418 11.5255C13.803 11.8384 13.7538 12.1628 13.6025 12.4435C13.4513 12.7242 13.2074 12.9437 12.9124 13.0646C12.6174 13.1856 12.2896 13.2004 11.9849 13.1067C11.6801 13.013 11.4174 12.8165 11.2413 12.5507C11.0652 12.2849 10.9868 11.9663 11.0194 11.6491C11.052 11.332 11.1936 11.036 11.42 10.8115C11.5478 10.6838 11.6996 10.5828 11.8667 10.5142C12.0339 10.4457 12.213 10.4111 12.3936 10.4124ZM12.3936 11.5271C12.326 11.5298 12.2618 11.5576 12.2135 11.605C12.168 11.653 12.1426 11.7166 12.1426 11.7827C12.1426 11.8488 12.168 11.9124 12.2135 11.9604C12.2622 11.9985 12.3231 12.0175 12.3849 12.0137C12.4466 12.01 12.5048 11.9838 12.5485 11.94C12.5922 11.8963 12.6185 11.8381 12.6222 11.7764C12.6259 11.7147 12.607 11.6537 12.5688 11.605C12.5223 11.5579 12.4597 11.5301 12.3936 11.5271ZM17.2615 14.331C17.076 14.3311 16.8967 14.3973 16.7557 14.5177C16.6147 14.6382 16.5213 14.805 16.4924 14.9882L13.9951 32.9117C14.0041 33.4687 14.2316 33.9998 14.6287 34.3905C15.0257 34.7811 15.5605 35.0001 16.1175 35H31.5438C32.0803 34.999 32.5967 34.7953 32.9893 34.4297C33.382 34.0641 33.6221 33.5636 33.6613 33.0285C33.3964 32.9622 33.1573 32.8181 32.975 32.6147L29.0028 28.0146C28.9543 27.9589 28.9177 27.8939 28.8951 27.8236C28.8725 27.7534 28.8644 27.6792 28.8714 27.6057L29.1245 24.3394L27.7469 22.6599C27.1017 23.4706 26.2201 24.0604 25.2245 24.3473C24.2289 24.6342 23.1686 24.604 22.191 24.261C21.2133 23.918 20.3666 23.2791 19.7685 22.4331C19.1704 21.587 18.8505 20.5758 18.8533 19.5396V16.9743C18.8533 16.8258 18.9122 16.6834 19.0172 16.5784C19.1222 16.4734 19.2646 16.4145 19.4131 16.4145C19.5615 16.4145 19.7039 16.4734 19.8089 16.5784C19.9139 16.6834 19.9729 16.8258 19.9729 16.9743V19.5396C19.9185 20.0811 19.9783 20.628 20.1483 21.145C20.3182 21.662 20.5947 22.1376 20.9598 22.5411C21.3249 22.9447 21.7705 23.2673 22.2679 23.488C22.7653 23.7088 23.3035 23.8229 23.8477 23.8229C24.3919 23.8229 24.9301 23.7088 25.4275 23.488C25.9249 23.2673 26.3705 22.9447 26.7356 22.5411C27.1007 22.1376 27.3772 21.662 27.5472 21.145C27.7171 20.628 27.7769 20.0811 27.7225 19.5396V16.9743C27.7225 16.8258 27.7815 16.6834 27.8865 16.5784C27.9915 16.4734 28.1339 16.4145 28.2823 16.4145C28.4308 16.4145 28.5732 16.4734 28.6782 16.5784C28.7832 16.6834 28.8421 16.8258 28.8421 16.9743V19.5396C28.8382 20.2728 28.672 20.9959 28.3554 21.6572L30.0445 23.6919L32.4054 23.8526L31.1544 14.9882C31.1264 14.8046 31.0332 14.6372 30.892 14.5166C30.7508 14.3959 30.571 14.3301 30.3853 14.331H17.2615ZM30.21 24.8261L30.0056 27.4499L33.822 31.87C33.843 31.8949 33.8688 31.9155 33.8979 31.9305C33.9269 31.9455 33.9586 31.9546 33.9912 31.9573C34.0237 31.96 34.0565 31.9563 34.0876 31.9463C34.1187 31.9363 34.1476 31.9203 34.1725 31.8992L36.6064 29.7816C36.656 29.7379 36.6873 29.6771 36.694 29.6113C36.698 29.5437 36.6753 29.4773 36.6307 29.4263L32.8143 25.0063L30.21 24.8261ZM31.8067 25.274H31.8797C32.2425 25.2869 32.5853 25.4434 32.8327 25.7091C33.0801 25.9747 33.2118 26.3278 33.1989 26.6905C33.186 27.0533 33.0295 27.3961 32.7638 27.6435C32.4982 27.8909 32.1451 28.0226 31.7823 28.0097H31.6801C31.3173 27.993 30.9761 27.8327 30.7314 27.5643C30.4868 27.296 30.3587 26.9414 30.3755 26.5786C30.3923 26.2158 30.5525 25.8745 30.8209 25.6299C31.0893 25.3852 31.4439 25.2572 31.8067 25.274ZM31.8067 26.3936C31.7739 26.3906 31.7408 26.3946 31.7097 26.4056C31.6786 26.4165 31.6503 26.434 31.6266 26.4569C31.5918 26.4916 31.568 26.5358 31.5584 26.584C31.5487 26.6322 31.5536 26.6821 31.5724 26.7275C31.5911 26.773 31.6229 26.8118 31.6638 26.8391C31.7046 26.8664 31.7527 26.881 31.8018 26.881C31.8509 26.881 31.899 26.8664 31.9398 26.8391C31.9807 26.8118 32.0125 26.773 32.0313 26.7275C32.05 26.6821 32.0549 26.6322 32.0452 26.584C32.0356 26.5358 32.0119 26.4916 31.9771 26.4569C31.9528 26.4347 31.9244 26.4177 31.8935 26.4068C31.8625 26.396 31.8297 26.3915 31.7969 26.3936H31.8067Z" fill="#FA8C16"/>
</svg>
