<svg width="44" height="44" viewBox="0 0 44 44" fill="none" xmlns="http://www.w3.org/2000/svg">
<path d="M22 0.125C9.91992 0.125 0.125 9.91992 0.125 22C0.125 34.0801 9.91992 43.875 22 43.875C34.0801 43.875 43.875 34.0801 43.875 22C43.875 9.91992 34.0801 0.125 22 0.125ZM30.0762 30.3105L26.8535 30.2959L22 24.5098L17.1514 30.291L13.9238 30.3057C13.709 30.3057 13.5332 30.1348 13.5332 29.915C13.5332 29.8223 13.5674 29.7344 13.626 29.6611L19.9785 22.0928L13.626 14.5293C13.567 14.4577 13.5342 14.3681 13.5332 14.2754C13.5332 14.0605 13.709 13.8848 13.9238 13.8848L17.1514 13.8994L22 19.6855L26.8486 13.9043L30.0713 13.8896C30.2861 13.8896 30.4619 14.0605 30.4619 14.2803C30.4619 14.373 30.4277 14.4609 30.3691 14.5342L24.0264 22.0977L30.374 29.666C30.4326 29.7393 30.4668 29.8271 30.4668 29.9199C30.4668 30.1348 30.291 30.3105 30.0762 30.3105Z" fill="#005981"/>
</svg>
