<svg width="126" height="220" viewBox="0 0 126 220" fill="none" xmlns="http://www.w3.org/2000/svg">
<g opacity="0.1">
<path d="M63.5461 254.176C55.2013 254.176 46.9381 252.532 39.2285 249.338C31.5188 246.145 24.5136 241.464 18.6129 235.564C12.7122 229.663 8.0315 222.658 4.83806 214.948C1.64462 207.238 0.000975302 198.975 0.000976563 190.63L63.5461 190.63V254.176Z" fill="#FFB600"/>
<path d="M127.09 63.5454C118.745 63.5454 110.482 65.1891 102.772 68.3825C95.0627 71.5759 88.0576 76.2566 82.1569 82.1574C76.2562 88.0581 71.5754 95.0632 68.382 102.773C65.1886 110.483 63.5449 118.746 63.5449 127.091L127.09 127.091V63.5454Z" fill="#005981"/>
<path d="M127.09 127.092C127.09 135.436 125.447 143.7 122.253 151.409C119.06 159.119 114.379 166.124 108.478 172.025C102.578 177.925 95.5725 182.606 87.8628 185.8C80.1532 188.993 71.89 190.637 63.5452 190.637L63.5452 127.092L127.09 127.092Z" fill="#FFB600"/>
<path d="M-2.77765e-06 190.636C-2.51239e-06 182.292 1.64364 174.028 4.83709 166.319C8.03053 158.609 12.7112 151.604 18.6119 145.703C24.5127 139.803 31.5178 135.122 39.2275 131.928C46.9371 128.735 55.2003 127.091 63.5452 127.091L63.5452 190.636L-2.77765e-06 190.636Z" fill="#FE5E33"/>
<path d="M127.09 189.368C118.745 189.368 110.482 191.011 102.772 194.205C95.0623 197.398 88.0571 202.079 82.1564 207.98C76.2557 213.88 71.575 220.886 68.3815 228.595C65.1881 236.305 63.5444 244.568 63.5444 252.913L127.09 252.913V189.368Z" fill="#005981"/>
</g>
</svg>
