<svg width="214" height="303" viewBox="0 0 214 303" fill="none" xmlns="http://www.w3.org/2000/svg">
<g opacity="0.1">
<path d="M-41.4553 113.636C-33.1104 113.636 -24.8473 111.992 -17.1376 108.799C-9.42798 105.605 -2.42281 100.925 3.4779 95.0238C9.37861 89.1231 14.0593 82.1179 17.2528 74.4083C20.4462 66.6986 22.0898 58.4354 22.0898 50.0906L-41.4553 50.0906V113.636Z" fill="#005981"/>
<path d="M-41.4556 50.0891C-41.4556 41.7442 -39.8119 33.4811 -36.6185 25.7714C-33.425 18.0618 -28.7443 11.0566 -22.8436 5.15589C-16.9429 -0.744826 -9.93774 -5.42553 -2.22808 -8.61897C5.48158 -11.8124 13.7447 -13.4561 22.0896 -13.4561L22.0896 50.0891L-41.4556 50.0891Z" fill="#FFB600"/>
<path d="M85.6348 -13.4529C85.6348 -5.10801 83.9911 3.15516 80.7977 10.8648C77.6042 18.5745 72.9235 25.5796 67.0228 31.4803C61.1221 37.3811 54.1169 42.0618 46.4073 45.2552C38.6976 48.4486 30.4345 50.0923 22.0896 50.0923L22.0896 -13.4529L85.6348 -13.4529Z" fill="#FE5E33"/>
<path d="M150.448 177.176C158.793 177.176 167.056 175.532 174.766 172.339C182.475 169.145 189.481 164.465 195.381 158.564C201.282 152.663 205.963 145.658 209.156 137.948C212.35 130.239 213.993 121.975 213.993 113.631L150.448 113.631V177.176Z" fill="#FFB600"/>
<path d="M86.9041 -13.4546C95.2489 -13.4546 103.512 -11.8109 111.222 -8.6175C118.931 -5.42406 125.937 -0.743356 131.837 5.15736C137.738 11.0581 142.419 18.0632 145.612 25.7729C148.806 33.4826 150.449 41.7457 150.449 50.0906L86.9041 50.0906V-13.4546Z" fill="#005981"/>
<path d="M86.9038 50.092C86.9038 58.4369 88.5475 66.7001 91.7409 74.4097C94.9343 82.1194 99.615 89.1246 105.516 95.0253C111.416 100.926 118.422 105.607 126.131 108.8C133.841 111.994 142.104 113.637 150.449 113.637L150.449 50.0921L86.9038 50.092Z" fill="#FFB600"/>
<path d="M213.994 113.636C213.994 105.292 212.35 97.0284 209.157 89.3188C205.964 81.6091 201.283 74.604 195.382 68.7033C189.481 62.8025 182.476 58.1218 174.767 54.9284C167.057 51.735 158.794 50.0913 150.449 50.0913L150.449 113.636L213.994 113.636Z" fill="#FE5E33"/>
<path d="M23.3591 240.729C15.0143 240.729 6.75109 239.086 -0.958557 235.892C-8.66821 232.699 -15.6734 228.018 -21.5741 222.118C-27.4748 216.217 -32.1555 209.212 -35.349 201.502C-38.5424 193.792 -40.186 185.529 -40.186 177.184L23.3591 177.184V240.729Z" fill="#005981"/>
<path d="M86.904 50.0947C78.5592 50.0947 70.296 51.7384 62.5864 54.9318C54.8767 58.1253 47.8715 62.806 41.9708 68.7067C36.0701 74.6074 31.3894 81.6126 28.196 89.3222C25.0025 97.0319 23.3589 105.295 23.3589 113.64L86.904 113.64V50.0947Z" fill="#005981"/>
<path d="M86.9058 113.638C86.9058 121.983 85.2621 130.246 82.0687 137.956C78.8752 145.666 74.1945 152.671 68.2938 158.572C62.3931 164.472 55.3879 169.153 47.6783 172.347C39.9686 175.54 31.7055 177.184 23.3606 177.184L23.3606 113.638L86.9058 113.638Z" fill="#FFB600"/>
<path d="M-40.186 177.183C-40.186 168.838 -38.5424 160.575 -35.3489 152.865C-32.1555 145.156 -27.4748 138.15 -21.5741 132.25C-15.6734 126.349 -8.66821 121.668 -0.95855 118.475C6.75111 115.281 15.0143 113.638 23.3591 113.638L23.3591 177.183L-40.186 177.183Z" fill="#FE5E33"/>
<path d="M86.9045 112.368C95.2494 112.368 103.513 114.011 111.222 117.205C118.932 120.398 125.937 125.079 131.838 130.98C137.738 136.88 142.419 143.886 145.613 151.595C148.806 159.305 150.45 167.568 150.45 175.913L86.9045 175.913V112.368Z" fill="#005981"/>
<path d="M23.3584 239.455C23.3584 231.11 25.002 222.847 28.1955 215.137C31.3889 207.427 36.0696 200.422 41.9703 194.522C47.8711 188.621 54.8762 183.94 62.5859 180.747C70.2955 177.553 78.5587 175.91 86.9036 175.91L86.9036 239.455L23.3584 239.455Z" fill="#FFB600"/>
<path d="M150.45 175.91C150.45 184.255 148.806 192.518 145.613 200.228C142.419 207.938 137.738 214.943 131.838 220.844C125.937 226.744 118.932 231.425 111.222 234.618C103.513 237.812 95.2494 239.456 86.9045 239.456L86.9046 175.91L150.45 175.91Z" fill="#FE5E33"/>
</g>
</svg>
