<svg width="27" height="22" viewBox="0 0 27 22" fill="none" xmlns="http://www.w3.org/2000/svg">
<path d="M25.4701 3.01713H1.35022L4.27836 0.17369C4.39336 0.0618785 4.54757 -0.000466136 4.70797 2.62438e-06H22.1142C22.2746 -0.000466136 22.4288 0.0618785 22.5438 0.17369L25.4701 3.01713ZM26.8203 5.47208V21.3863C26.8203 21.549 26.7556 21.7051 26.6405 21.8202C26.5254 21.9353 26.3693 22 26.2065 22H0.613737C0.450963 22 0.294857 21.9353 0.179759 21.8202C0.0646615 21.7051 0 21.549 0 21.3863V5.47085C0 5.30808 0.0646615 5.15197 0.179759 5.03687C0.294857 4.92177 0.450963 4.85711 0.613737 4.85711H26.2065C26.3693 4.85711 26.5254 4.92177 26.6405 5.03687C26.7556 5.15197 26.8203 5.30808 26.8203 5.47085V5.47208ZM19.8912 14.2902C19.8906 13.1754 19.4474 12.1065 18.6591 11.3182C17.8708 10.5299 16.8019 10.0868 15.6871 10.0861H10.0714L11.0841 9.07348C11.2574 8.90094 11.3551 8.6666 11.3557 8.42202C11.3563 8.17744 11.2597 7.94265 11.0872 7.76929C10.9146 7.59594 10.6803 7.49823 10.4357 7.49765C10.1911 7.49708 9.95631 7.59368 9.78296 7.76622L7.19913 10.3562C7.1125 10.4421 7.04368 10.5443 6.9966 10.6569C6.9966 10.6631 6.9966 10.6631 6.99046 10.6692C6.9507 10.7773 6.92994 10.8915 6.92909 11.0068C6.92993 11.12 6.9507 11.2322 6.99046 11.3382C6.99278 11.3406 6.99453 11.3435 6.99559 11.3467C6.99665 11.3499 6.997 11.3533 6.9966 11.3566C7.04519 11.4683 7.11383 11.5703 7.19913 11.6573L9.78296 14.2411C9.86818 14.3269 9.96955 14.3949 10.0812 14.4413C10.1929 14.4876 10.3126 14.5114 10.4335 14.5112C10.6155 14.511 10.7933 14.4569 10.9446 14.3558C11.0958 14.2546 11.2137 14.1109 11.2833 13.9428C11.3529 13.7747 11.3711 13.5897 11.3357 13.4112C11.3002 13.2327 11.2127 13.0688 11.0841 12.94L10.0714 11.9274H15.6871C16.3138 11.9274 16.9148 12.1763 17.3579 12.6194C17.801 13.0626 18.05 13.6636 18.05 14.2902C18.05 14.9169 17.801 15.5179 17.3579 15.9611C16.9148 16.4042 16.3138 16.6531 15.6871 16.6531H7.84969C7.60553 16.6531 7.37137 16.7501 7.19872 16.9228C7.02608 17.0954 6.92909 17.3296 6.92909 17.5737C6.92909 17.8179 7.02608 18.0521 7.19872 18.2247C7.37137 18.3973 7.60553 18.4943 7.84969 18.4943H15.6871C16.8019 18.4937 17.8708 18.0505 18.6591 17.2623C19.4474 16.474 19.8906 15.405 19.8912 14.2902Z" fill="#FF9D00"/>
</svg>
