<svg width="26" height="24" viewBox="0 0 26 24" fill="none" xmlns="http://www.w3.org/2000/svg">
<path fill-rule="evenodd" clip-rule="evenodd" d="M17.8207 6.60143L0.419338 4.21768L0.197208 4.18725C0.121534 4.1827 0.0509907 4.13715 0.0180867 4.0631C0.00627989 4.03652 0.000435849 4.0088 0 3.98145V13.6791C0 13.7949 0.0938799 13.8888 0.209669 13.8888H5.6934C5.74707 13.8888 5.80071 13.8683 5.84164 13.8273L9.73838 9.93063L11.9015 13.7716C11.9357 13.841 12.0071 13.8888 12.0897 13.8888H16.377C16.4225 13.8888 16.4683 13.8741 16.5068 13.8438L16.5066 13.8436L18.1513 12.5478C18.1171 12.5719 18.0754 12.5862 18.0304 12.5862C17.9146 12.5862 17.8207 12.4923 17.8207 12.3765V12.2751V6.60145L17.8207 6.60143Z" fill="#F72F09"/>
<path fill-rule="evenodd" clip-rule="evenodd" d="M21.8179 11.8565L18.2397 14.7651V23.8689L25.1583 19.6793V2.34668L18.2397 6.53621V11.9448L21.5693 9.32162L21.5692 9.32141C21.6601 9.24975 21.792 9.26538 21.8636 9.35633C21.8939 9.39482 21.9086 9.44062 21.9086 9.48609V11.6839C21.9086 11.7555 21.8727 11.8187 21.8179 11.8565L21.8179 11.8565Z" fill="#F72F09"/>
<path fill-rule="evenodd" clip-rule="evenodd" d="M0.965637 3.87036L17.9863 6.20196L24.7576 2.1016L9.67391 0L0.965637 3.87036Z" fill="#F72F09"/>
<path fill-rule="evenodd" clip-rule="evenodd" d="M6.49944 16.0869H0.419495V21.6167L17.8208 24.0004V15.1062L16.6857 16.0289C16.648 16.0648 16.5971 16.0869 16.541 16.0869H12.6204L11.4704 16.7345L11.4607 16.7403C11.3598 16.7971 11.232 16.7614 11.1752 16.6605L11.1752 16.66L9.28017 13.2949L6.66068 16.0112C6.62221 16.0574 6.56426 16.0869 6.49947 16.0869L6.49944 16.0869Z" fill="#F72F09"/>
</svg>
