<svg width="157" height="158" viewBox="0 0 157 158" fill="none" xmlns="http://www.w3.org/2000/svg">
<path d="M111.952 114.567L132.205 25.9535L126.255 24.7625L106.238 113.725C108.211 113.779 110.122 114.069 111.952 114.567Z" fill="url(#paint0_linear)"/>
<path d="M10.8278 0L0 10.8278H10.8278V0Z" fill="url(#paint1_linear)"/>
<path d="M48.7249 0H16.2416V16.2416H0V64.9666H48.7249V0ZM37.8972 59.5527H5.41388V24.3625H18.9486V29.7764H10.8278V54.1388H32.4833V43.3111H37.8972V59.5527ZM21.6555 47.1387L14.3278 39.811L18.1555 35.9834L21.6555 39.4834L38.6903 22.4487L42.5179 26.2763L21.6555 47.1387Z" fill="url(#paint2_linear)"/>
<path d="M14.9935 113.594L13.6211 119.084C13.5643 119.32 13.5345 119.566 13.5345 119.804C13.5345 121.231 14.5523 122.457 15.9572 122.717L81.4453 134.844C81.9569 130.986 83.3509 127.408 85.4515 124.338L19.016 111.05C17.2403 110.69 15.4348 111.838 14.9935 113.594Z" fill="url(#paint3_linear)"/>
<path d="M22.1802 106.166L89.647 119.66C92.722 116.996 96.4548 115.074 100.58 114.213L111.735 64.6339L93.6586 61.0174L88.5372 78.9398L56.141 72.4622L61.2624 54.5398L54.1379 53.1133V70.3833H29.9571L22.1802 106.166Z" fill="url(#paint4_linear)"/>
<path d="M74.7972 57.2415L66.5898 55.5984L62.9625 68.3021L71.1672 69.9425L74.7972 57.2415Z" fill="url(#paint5_linear)"/>
<path d="M153.674 16.1716L129.285 11.2937L127.441 19.4795L151.452 24.2816C151.714 24.3357 151.988 24.3601 152.261 24.3601H152.865C155.144 24.3601 156.998 22.5031 156.998 20.2266C157.001 18.2614 155.602 16.5587 153.674 16.1716Z" fill="url(#paint6_linear)"/>
<path d="M117.043 116.576C119.306 117.789 121.344 119.356 123.112 121.194L127.381 102.41L120.592 101.054L117.043 116.576Z" fill="url(#paint7_linear)"/>
<path d="M105.569 146.17C110.054 146.17 113.69 142.535 113.69 138.05C113.69 133.565 110.054 129.929 105.569 129.929C101.084 129.929 97.4486 133.565 97.4486 138.05C97.4486 142.535 101.084 146.17 105.569 146.17Z" fill="url(#paint8_linear)"/>
<path d="M127.48 70.9183L134.234 72.2691L135.197 68.0219L130.344 58.3906L127.48 70.9183Z" fill="url(#paint9_linear)"/>
<path d="M105.569 119.105C95.1231 119.105 86.6206 127.608 86.6206 138.054C86.6206 148.5 95.1231 157.003 105.569 157.003C116.015 157.003 124.518 148.5 124.518 138.054C124.518 127.608 116.015 119.105 105.569 119.105ZM105.569 151.589C98.1062 151.589 92.0345 145.517 92.0345 138.054C92.0345 130.591 98.1062 124.519 105.569 124.519C113.032 124.519 119.104 130.591 119.104 138.054C119.104 145.517 113.032 151.589 105.569 151.589Z" fill="url(#paint10_linear)"/>
<path d="M121.8 95.7704L128.581 97.1266L133.031 77.55L126.272 76.1992L121.8 95.7704Z" fill="url(#paint11_linear)"/>
<path d="M88.3308 59.9485L80.1234 58.3054L76.4961 71.0091L84.7035 72.6495L88.3308 59.9485Z" fill="url(#paint12_linear)"/>
<defs>
<linearGradient id="paint0_linear" x1="119.221" y1="24.7625" x2="119.221" y2="114.567" gradientUnits="userSpaceOnUse">
<stop stop-color="#0979A2"/>
<stop offset="1" stop-color="#0CA2D9"/>
</linearGradient>
<linearGradient id="paint1_linear" x1="5.41388" y1="0" x2="5.41388" y2="10.8278" gradientUnits="userSpaceOnUse">
<stop stop-color="#0979A2"/>
<stop offset="1" stop-color="#0CA2D9"/>
</linearGradient>
<linearGradient id="paint2_linear" x1="24.3625" y1="0" x2="24.3625" y2="64.9666" gradientUnits="userSpaceOnUse">
<stop stop-color="#0979A2"/>
<stop offset="1" stop-color="#0CA2D9"/>
</linearGradient>
<linearGradient id="paint3_linear" x1="49.493" y1="110.984" x2="49.493" y2="134.844" gradientUnits="userSpaceOnUse">
<stop stop-color="#0979A2"/>
<stop offset="1" stop-color="#0CA2D9"/>
</linearGradient>
<linearGradient id="paint4_linear" x1="66.9577" y1="53.1133" x2="66.9577" y2="119.66" gradientUnits="userSpaceOnUse">
<stop stop-color="#0979A2"/>
<stop offset="1" stop-color="#0CA2D9"/>
</linearGradient>
<linearGradient id="paint5_linear" x1="68.8799" y1="55.5984" x2="68.8799" y2="69.9425" gradientUnits="userSpaceOnUse">
<stop stop-color="#0979A2"/>
<stop offset="1" stop-color="#0CA2D9"/>
</linearGradient>
<linearGradient id="paint6_linear" x1="142.22" y1="11.2937" x2="142.22" y2="24.3601" gradientUnits="userSpaceOnUse">
<stop stop-color="#0979A2"/>
<stop offset="1" stop-color="#0CA2D9"/>
</linearGradient>
<linearGradient id="paint7_linear" x1="122.212" y1="101.054" x2="122.212" y2="121.194" gradientUnits="userSpaceOnUse">
<stop stop-color="#0979A2"/>
<stop offset="1" stop-color="#0CA2D9"/>
</linearGradient>
<linearGradient id="paint8_linear" x1="105.569" y1="129.929" x2="105.569" y2="146.17" gradientUnits="userSpaceOnUse">
<stop stop-color="#0979A2"/>
<stop offset="1" stop-color="#0CA2D9"/>
</linearGradient>
<linearGradient id="paint9_linear" x1="131.339" y1="58.3906" x2="131.339" y2="72.2691" gradientUnits="userSpaceOnUse">
<stop stop-color="#0979A2"/>
<stop offset="1" stop-color="#0CA2D9"/>
</linearGradient>
<linearGradient id="paint10_linear" x1="105.569" y1="119.105" x2="105.569" y2="157.003" gradientUnits="userSpaceOnUse">
<stop stop-color="#0979A2"/>
<stop offset="1" stop-color="#0CA2D9"/>
</linearGradient>
<linearGradient id="paint11_linear" x1="127.415" y1="76.1992" x2="127.415" y2="97.1266" gradientUnits="userSpaceOnUse">
<stop stop-color="#0979A2"/>
<stop offset="1" stop-color="#0CA2D9"/>
</linearGradient>
<linearGradient id="paint12_linear" x1="82.4135" y1="58.3054" x2="82.4135" y2="72.6495" gradientUnits="userSpaceOnUse">
<stop stop-color="#0979A2"/>
<stop offset="1" stop-color="#0CA2D9"/>
</linearGradient>
</defs>
</svg>
