<svg width="51" height="24" viewBox="0 0 51 24" fill="none" xmlns="http://www.w3.org/2000/svg">
<path d="M35.71 11.71L38.3 14.3C38.69 14.69 39.32 14.69 39.71 14.3L42.3 11.71C42.93 11.08 42.48 10 41.59 10H36.41C35.52 10 35.08 11.08 35.71 11.71Z" fill="#4F4F4F"/>
<path d="M18.448 0H2.95268C1.33754 0 0 1.3123 0 2.95268V21.0473C0 22.6625 1.3123 24 2.95268 24H18.4732C20.0883 24 21.4259 22.6877 21.4259 21.0473V2.95268C21.4006 1.3123 20.0883 0 18.448 0ZM9.46372 16.3028L6.38486 19.8864C6.2082 20.0883 5.88013 20.0883 5.67823 19.8864L3.83596 17.6151C3.68454 17.4385 3.70978 17.1861 3.8612 17.0095L4.29022 16.5804C4.46688 16.4038 4.74448 16.4038 4.92114 16.5804L6.00631 17.6656L8.37855 15.2934C8.55521 15.1167 8.83281 15.1167 9.00946 15.2934L9.41325 15.6972C9.61514 15.8486 9.61514 16.1262 9.46372 16.3028ZM9.46372 10.7003L6.38486 14.2839C6.2082 14.4858 5.88013 14.4858 5.67823 14.2839L3.83596 12.0126C3.68454 11.836 3.70978 11.5836 3.8612 11.4069L4.29022 10.9779C4.46688 10.8013 4.74448 10.8013 4.92114 10.9779L6.00631 12.0631L8.37855 9.69085C8.55521 9.5142 8.83281 9.5142 9.00946 9.69085L9.41325 10.0946C9.61514 10.2461 9.61514 10.5237 9.46372 10.7003ZM9.46372 5.09779L6.38486 8.68139C6.2082 8.88328 5.88013 8.88328 5.67823 8.68139L3.83596 6.41009C3.68454 6.23344 3.70978 5.98107 3.8612 5.80442L4.29022 5.37539C4.46688 5.19874 4.74448 5.19874 4.92114 5.37539L6.00631 6.46057L8.37855 4.08833C8.55521 3.91167 8.83281 3.91167 9.00946 4.08833L9.41325 4.49211C9.61514 4.64353 9.61514 4.92114 9.46372 5.09779ZM17.6404 18.5237C17.6404 18.6751 17.5142 18.8013 17.3628 18.8013H10.9274C10.776 18.8013 10.6498 18.6751 10.6498 18.5237V17.4132C10.6498 17.2618 10.776 17.1356 10.9274 17.1356H17.388C17.5394 17.1356 17.6656 17.2618 17.6656 17.4132V18.5237H17.6404ZM17.6404 12.9211C17.6404 13.0726 17.5142 13.1987 17.3628 13.1987H10.9274C10.776 13.1987 10.6498 13.0726 10.6498 12.9211V11.8107C10.6498 11.6593 10.776 11.5331 10.9274 11.5331H17.388C17.5394 11.5331 17.6656 11.6593 17.6656 11.8107V12.9211H17.6404ZM17.6404 7.31861C17.6404 7.47003 17.5142 7.59621 17.3628 7.59621H10.9274C10.776 7.59621 10.6498 7.47003 10.6498 7.31861V6.2082C10.6498 6.05678 10.776 5.9306 10.9274 5.9306H17.388C17.5394 5.9306 17.6656 6.05678 17.6656 6.2082V7.31861H17.6404Z" fill="#ED5481"/>
</svg>
