<svg width="22" height="20" viewBox="0 0 22 20" fill="none" xmlns="http://www.w3.org/2000/svg">
<path d="M21.6693 4.63385C21.5427 4.45665 21.3402 4.35539 21.1377 4.35539L5.59453 3.57064L5.16418 0.735404C5.11355 0.381 4.78446 0.102539 4.43006 0.102539H0.734124C0.32909 0.102539 0 0.431629 0 0.836663C0 1.2417 0.32909 1.57079 0.734124 1.57079H3.74656L5.7211 14.5825C5.82236 15.19 6.10082 15.6963 6.48054 16.1014C6.05019 16.5064 5.79705 17.0886 5.79705 17.7215C5.79705 18.9872 6.83494 19.9998 8.07536 19.9998C9.31578 19.9998 10.3537 18.9619 10.3537 17.7215C10.3537 17.443 10.303 17.1646 10.2018 16.9114H15.5432C15.4419 17.1646 15.3913 17.443 15.3913 17.7215C15.3913 18.9872 16.4292 19.9998 17.6696 19.9998C18.9353 19.9998 19.9479 18.9619 19.9479 17.7215C19.9479 16.4558 18.91 15.4432 17.6696 15.4432H8.45508C7.82221 15.4432 7.29061 14.9875 7.18935 14.3547L7.01215 13.1902H16.5811C18.7834 13.1902 20.682 11.6207 21.0618 9.41832L21.7959 5.21609C21.8465 5.03889 21.7959 4.81106 21.6693 4.63385ZM8.10067 18.5316C7.64501 18.5316 7.29061 18.1772 7.29061 17.7215C7.29061 17.2658 7.64501 16.9114 8.10067 16.9114C8.55634 16.9114 8.91074 17.2658 8.91074 17.7215C8.91074 18.1772 8.53102 18.5316 8.10067 18.5316ZM18.5303 17.7468C18.5303 18.2025 18.1759 18.5569 17.7202 18.5569C17.2646 18.5569 16.9102 18.2025 16.9102 17.7468C16.9102 17.2912 17.2646 16.9368 17.7202 16.9368C18.1506 16.9368 18.5303 17.2912 18.5303 17.7468Z" fill="#52B141"/>
</svg>
