<svg width="30" height="24" viewBox="0 0 30 24" fill="none" xmlns="http://www.w3.org/2000/svg">
<path fill-rule="evenodd" clip-rule="evenodd" d="M16.9934 4.88986C16.9784 5.07964 16.9707 5.2715 16.9707 5.46514C16.9707 9.43661 20.1902 12.6561 24.1617 12.6561C24.499 12.6561 24.8309 12.6329 25.1559 12.5879L24.8417 14.2114C24.6983 14.9518 24.0908 15.5135 23.3414 15.5983L17.8697 16.2178L11.8649 16.9677C9.95591 17.1268 9.20445 17.5652 9.20445 18.1213C9.20445 18.4792 9.49235 18.6484 10.3513 18.7016C10.6247 18.7185 10.8777 18.718 11.3243 18.7058C11.6171 18.6979 11.6763 18.6965 11.7932 18.6965H23.5864C24.063 18.6965 24.4493 19.0829 24.4493 19.5595C24.4493 20.036 24.063 20.4224 23.5864 20.4224H11.7932C11.6992 20.4224 11.6434 20.4236 11.3713 20.431C10.8759 20.4445 10.5837 20.4451 10.2446 20.4241C8.59198 20.3217 7.47862 19.6674 7.47862 18.1213C7.47862 17.3071 7.81598 16.676 8.44948 16.2115C7.83316 15.732 7.36394 15.058 7.1426 14.2578L4.23323 3.73931H0.862917C0.386341 3.73931 0 3.35297 0 2.87639C0 2.39981 0.386341 2.01347 0.862917 2.01347H4.67098C5.18829 2.01347 5.642 2.35872 5.7799 2.85731L6.35333 4.93047C6.43607 4.9041 6.52422 4.88986 6.6157 4.88986H16.9934ZM24.1617 0C21.1434 0 18.6965 2.44683 18.6965 5.46514C18.6965 8.48346 21.1434 10.9303 24.1617 10.9303C27.18 10.9303 29.6268 8.48346 29.6268 5.46514C29.6268 2.44683 27.18 0 24.1617 0ZM21.6078 5.14265L23.4996 7.03447L26.6402 2.92753C26.9297 2.54896 27.4713 2.47675 27.8499 2.76625C28.2285 3.05574 28.3007 3.59732 28.0112 3.97589L23.6732 9.64868L20.3875 6.363C20.0505 6.02601 20.0505 5.47964 20.3875 5.14265C20.7245 4.80566 21.2708 4.80566 21.6078 5.14265ZM12.047 20.71C12.893 20.71 13.645 21.462 13.645 22.308C13.645 23.248 12.893 24 12.047 24C11.107 24 10.355 23.248 10.355 22.308C10.355 21.462 11.107 20.71 12.047 20.71ZM20.8698 20.71C21.8098 20.71 22.5618 21.462 22.5618 22.308C22.5618 23.248 21.8098 24 20.8698 24C20.0238 24 19.2718 23.248 19.2718 22.308C19.2718 21.462 20.0238 20.71 20.8698 20.71Z" fill="#32405D"/>
</svg>
