<svg width="26" height="24" viewBox="0 0 26 24" fill="none" xmlns="http://www.w3.org/2000/svg">
<path d="M8.1146 0C7.25499 0 6.43059 0.341479 5.82275 0.949316C5.21491 1.55715 4.87344 2.38156 4.87344 3.24117V4.52295H11.3491V3.24117C11.3491 2.38271 11.0085 1.55932 10.4021 0.951673C9.79575 0.344028 8.97306 0.00176819 8.1146 0V0ZM2.74715 5.29068C2.57735 5.29023 2.41299 5.35056 2.2838 5.46076C2.15462 5.57096 2.06914 5.72376 2.04284 5.89152L0 20.5519C0.00786013 21.0271 0.201724 21.4803 0.539976 21.8142C0.878227 22.1481 1.3339 22.336 1.80918 22.3377H8.8523L10.548 10.1675C10.5952 9.85994 10.7512 9.5796 10.9877 9.37743C11.2241 9.17527 11.5253 9.06472 11.8364 9.06592H14.627L14.1864 5.89152C14.1601 5.72376 14.0746 5.57096 13.9454 5.46076C13.8162 5.35056 13.6519 5.29023 13.4821 5.29068H12.1235V7.29346C12.1235 7.39527 12.0831 7.49291 12.0111 7.5649C11.9391 7.63689 11.8414 7.67733 11.7396 7.67733C11.6378 7.67733 11.5402 7.63689 11.4682 7.5649C11.3962 7.49291 11.3558 7.39527 11.3558 7.29346V6.02837L10.4345 6.85953V8.879C10.4353 8.92966 10.4259 8.97996 10.407 9.02697C10.3881 9.07397 10.36 9.11672 10.3243 9.15271L7.37691 12.1068C7.28943 12.1948 7.18541 12.2647 7.07084 12.3123C6.95627 12.36 6.83341 12.3845 6.70932 12.3845C6.58523 12.3845 6.46237 12.36 6.3478 12.3123C6.23322 12.2647 6.12921 12.1948 6.04173 12.1068L4.4662 10.5313C4.37779 10.444 4.3076 10.3401 4.25968 10.2255C4.21177 10.1109 4.1871 9.98791 4.1871 9.8637C4.1871 9.73948 4.21177 9.61651 4.25968 9.50191C4.3076 9.3873 4.37779 9.28336 4.4662 9.19611L7.42364 6.23866C7.45947 6.20256 7.50212 6.17393 7.54911 6.15444C7.5961 6.13496 7.64649 6.12501 7.69736 6.12517H10.0339H10.064L11.0153 5.29068H4.87344V7.29346C4.87344 7.39527 4.83299 7.49291 4.761 7.5649C4.68901 7.63689 4.59138 7.67733 4.48957 7.67733C4.38776 7.67733 4.29012 7.63689 4.21813 7.5649C4.14615 7.49291 4.1057 7.39527 4.1057 7.29346V5.29068H2.74715ZM7.85758 6.89958L5.00695 9.74353C4.97474 9.77657 4.95671 9.82089 4.95671 9.86704C4.95671 9.91318 4.97474 9.9575 5.00695 9.99054L6.58248 11.5661C6.61495 11.5981 6.65872 11.616 6.70431 11.616C6.74991 11.616 6.79367 11.5981 6.82615 11.5661L9.68011 8.72211V6.9096L7.85758 6.89958ZM8.49847 7.13992C8.71709 7.14052 8.92873 7.21693 9.09731 7.35612C9.26589 7.49531 9.38097 7.68866 9.42294 7.90321C9.46491 8.11776 9.43116 8.34023 9.32745 8.53268C9.22375 8.72514 9.0565 8.87566 8.85422 8.95859C8.65194 9.04153 8.42717 9.05173 8.21821 8.98747C8.00924 8.92322 7.82904 8.78847 7.70832 8.60621C7.58759 8.42395 7.53382 8.20546 7.55617 7.98799C7.57852 7.77051 7.67561 7.56753 7.83088 7.41363C7.91846 7.32604 8.02259 7.25674 8.1372 7.20975C8.2518 7.16277 8.37461 7.13903 8.49847 7.13992ZM8.49847 7.90431C8.4521 7.90617 8.40808 7.9252 8.37497 7.95772C8.34374 7.9906 8.32633 8.03421 8.32633 8.07955C8.32633 8.1249 8.34374 8.16851 8.37497 8.20139C8.40835 8.22753 8.45015 8.24054 8.49248 8.23798C8.5348 8.23541 8.57472 8.21744 8.6047 8.18746C8.63469 8.15747 8.65266 8.11755 8.65522 8.07523C8.65779 8.0329 8.64478 7.99111 8.61864 7.95772C8.58674 7.92542 8.54382 7.90635 8.49847 7.90431ZM11.8364 9.82698C11.7093 9.82701 11.5863 9.87241 11.4896 9.95501C11.3929 10.0376 11.3289 10.152 11.309 10.2776L9.59666 22.568C9.6028 22.9499 9.75883 23.3141 10.0311 23.582C10.3034 23.8499 10.67 24 11.052 24H21.63C21.9979 23.9993 22.352 23.8596 22.6213 23.6089C22.8905 23.3582 23.0551 23.015 23.0821 22.6481C22.9004 22.6027 22.7364 22.5038 22.6114 22.3644L19.8876 19.21C19.8544 19.1718 19.8293 19.1273 19.8138 19.0791C19.7983 19.0309 19.7928 18.98 19.7975 18.9296L19.9711 16.6898L19.0264 15.5382C18.584 16.0942 17.9795 16.4985 17.2968 16.6953C16.6141 16.892 15.8871 16.8713 15.2167 16.6361C14.5462 16.4009 13.9657 15.9628 13.5556 15.3827C13.1454 14.8025 12.9261 14.1091 12.928 13.3986V11.6395C12.928 11.5377 12.9684 11.4401 13.0404 11.3681C13.1124 11.2961 13.21 11.2556 13.3118 11.2556C13.4136 11.2556 13.5113 11.2961 13.5833 11.3681C13.6552 11.4401 13.6957 11.5377 13.6957 11.6395V13.3986C13.6584 13.7699 13.6994 14.1449 13.8159 14.4994C13.9325 14.8539 14.1221 15.18 14.3724 15.4568C14.6228 15.7335 14.9283 15.9547 15.2694 16.1061C15.6105 16.2575 15.9795 16.3357 16.3527 16.3357C16.7259 16.3357 17.0949 16.2575 17.436 16.1061C17.7771 15.9547 18.0827 15.7335 18.333 15.4568C18.5834 15.18 18.7729 14.8539 18.8895 14.4994C19.006 14.1449 19.047 13.7699 19.0097 13.3986V11.6395C19.0097 11.5377 19.0502 11.4401 19.1222 11.3681C19.1942 11.2961 19.2918 11.2556 19.3936 11.2556C19.4954 11.2556 19.5931 11.2961 19.665 11.3681C19.737 11.4401 19.7775 11.5377 19.7775 11.6395V13.3986C19.7748 13.9013 19.6608 14.3972 19.4437 14.8506L20.6019 16.2459L22.2209 16.356L21.363 10.2776C21.3438 10.1517 21.2799 10.0369 21.1831 9.95421C21.0863 9.87148 20.963 9.82632 20.8356 9.82698H11.8364ZM20.7154 17.0236L20.5752 18.8228L23.1922 21.8537C23.2067 21.8708 23.2243 21.8849 23.2442 21.8952C23.2642 21.9055 23.2859 21.9117 23.3082 21.9136C23.3306 21.9155 23.353 21.9129 23.3744 21.906C23.3957 21.8992 23.4155 21.8882 23.4325 21.8737L25.1015 20.4217C25.1355 20.3917 25.157 20.35 25.1616 20.3049C25.1644 20.2585 25.1488 20.213 25.1182 20.178L22.5013 17.1471L20.7154 17.0236ZM21.8103 17.3307H21.8604C22.1091 17.3396 22.3442 17.4469 22.5138 17.6291C22.6835 17.8112 22.7738 18.0533 22.765 18.3021C22.7561 18.5508 22.6488 18.7859 22.4666 18.9556C22.2845 19.1252 22.0424 19.2155 21.7936 19.2067H21.7235C21.4747 19.1952 21.2407 19.0853 21.073 18.9013C20.9052 18.7172 20.8174 18.4741 20.8289 18.2253C20.8404 17.9765 20.9503 17.7425 21.1343 17.5748C21.3184 17.407 21.5615 17.3192 21.8103 17.3307ZM21.8103 18.0985C21.7878 18.0964 21.7651 18.0992 21.7438 18.1067C21.7225 18.1142 21.703 18.1262 21.6868 18.1419C21.6629 18.1656 21.6467 18.196 21.64 18.229C21.6334 18.2621 21.6368 18.2963 21.6496 18.3275C21.6625 18.3586 21.6843 18.3852 21.7123 18.404C21.7403 18.4227 21.7733 18.4327 21.807 18.4327C21.8407 18.4327 21.8736 18.4227 21.9016 18.404C21.9296 18.3852 21.9514 18.3586 21.9643 18.3275C21.9772 18.2963 21.9805 18.2621 21.9739 18.229C21.9673 18.196 21.951 18.1656 21.9271 18.1419C21.9105 18.1267 21.891 18.115 21.8698 18.1076C21.8486 18.1001 21.8261 18.097 21.8036 18.0985H21.8103Z" fill="#0CA2D9"/>
</svg>
