<?xml version="1.0" standalone="no"?>
<!DOCTYPE svg PUBLIC "-//W3C//DTD SVG 20010904//EN"
 "http://www.w3.org/TR/2001/REC-SVG-20010904/DTD/svg10.dtd">
<svg version="1.0" xmlns="http://www.w3.org/2000/svg"
 width="144.000000pt" height="144.000000pt" viewBox="0 0 144.000000 144.000000"
 preserveAspectRatio="xMidYMid meet">
<metadata>
Created by potrace 1.11, written by Peter Selinger 2001-2013
</metadata>
<g transform="translate(0.000000,144.000000) scale(0.100000,-0.100000)"
fill="#000000" stroke="none">
<path d="M99 1337 c66 -97 156 -309 175 -413 3 -16 8 -40 11 -54 3 -14 7 -50
10 -80 3 -30 8 -68 11 -85 7 -36 50 -95 68 -95 16 0 30 -28 27 -49 -2 -8 -17
-37 -35 -65 -18 -28 -36 -57 -40 -64 -13 -22 12 -12 51 20 149 125 225 177
318 222 50 24 113 49 140 56 80 21 131 49 177 96 31 32 84 65 195 120 84 42
153 78 153 79 0 5 -58 -4 -141 -22 -87 -19 -123 -20 -225 -8 -80 10 -124 -5
-177 -61 -23 -24 -46 -44 -50 -44 -5 0 -30 47 -57 104 -51 110 -80 141 -142
152 -35 7 -88 34 -88 45 0 10 -95 69 -154 97 -45 21 -240 92 -252 92 -3 0 8
-19 25 -43z"/>
<path d="M802 690 c-111 -39 -192 -85 -309 -177 -54 -42 -100 -79 -103 -82 -3
-4 -30 -26 -60 -51 -30 -25 -61 -52 -68 -60 -22 -26 -122 -198 -122 -209 0
-16 78 -51 116 -51 50 0 132 28 137 48 3 9 4 49 2 87 -1 39 3 78 9 88 6 9 45
31 86 48 206 85 298 154 357 266 27 50 51 123 41 123 -2 0 -40 -14 -86 -30z"/>
</g>
</svg>
