<svg xmlns="http://www.w3.org/2000/svg" viewBox="0 0 74.74 68.56"><defs><style>.cls-1{fill:#fff;}</style></defs><title>Banking W</title><g id="Layer_2" data-name="Layer 2"><g id="Layer_1-2" data-name="Layer 1"><path class="cls-1" d="M2.41,23.77v1.57a.56.56,0,0,0,.58.58H71a.57.57,0,0,0,.58-.58V23.85a.6.6,0,0,0-.25-.5L37.33.12a.53.53,0,0,0-.67,0l-34,23.06A.79.79,0,0,0,2.41,23.77Z"/><path class="cls-1" d="M4.15,56.37V59.1a1,1,0,0,0,1,1H69.6a1,1,0,0,0,1-1V56.37a1,1,0,0,0-1-1H5.14A1.06,1.06,0,0,0,4.15,56.37Z"/><path class="cls-1" d="M60.14,36A1.14,1.14,0,0,0,61.3,34.8V33.39h6.55a.56.56,0,0,0,.58-.58V29.32a.56.56,0,0,0-.58-.58H5.64a.57.57,0,0,0-.58.58v3.49a.57.57,0,0,0,.58.58H11.2V34.8A1.14,1.14,0,0,0,12.36,36H13V48.82h-.66A1.13,1.13,0,0,0,11.2,50V52.3a1.14,1.14,0,0,0,1.16,1.16h7.71a1.14,1.14,0,0,0,1.17-1.16V50a1.13,1.13,0,0,0-1.17-1.16h-.66V36h.66a1.14,1.14,0,0,0,1.17-1.16V33.39H32.1V34.8A1.14,1.14,0,0,0,33.26,36H34V48.82h-.66A1.13,1.13,0,0,0,32.18,50V52.3a1.14,1.14,0,0,0,1.17,1.16h7.71a1.14,1.14,0,0,0,1.16-1.16V50a1.13,1.13,0,0,0-1.16-1.16H40.4V36h.66a1.14,1.14,0,0,0,1.16-1.16V33.39h9V34.8A1.14,1.14,0,0,0,52.34,36h.75V48.82h-.67A1.13,1.13,0,0,0,51.26,50V52.3a1.14,1.14,0,0,0,1.16,1.16h7.72A1.14,1.14,0,0,0,61.3,52.3V50a1.13,1.13,0,0,0-1.16-1.16h-.66V36Z"/><path class="cls-1" d="M73.41,62H1.24A1.2,1.2,0,0,0,0,63.17v4.14a1.28,1.28,0,0,0,1.24,1.25H73.49a1.28,1.28,0,0,0,1.25-1.25V63.17A1.33,1.33,0,0,0,73.41,62Z"/></g></g></svg>