<svg width="8" height="13" viewBox="0 0 8 13" fill="none" xmlns="http://www.w3.org/2000/svg">
<path d="M8 11.2029C7.99995 11.4111 7.93808 11.6151 7.82152 11.7912C7.70496 11.9674 7.53848 12.1085 7.34132 12.1983C7.14416 12.2881 6.92436 12.3229 6.70732 12.2987C6.49028 12.2744 6.28487 12.1922 6.11481 12.0614L0.645692 7.85267C0.444073 7.69751 0.28144 7.50133 0.169714 7.2785C0.0579877 7.05567 0 6.81184 0 6.56489C0 6.31793 0.0579877 6.0741 0.169714 5.85127C0.28144 5.62844 0.444073 5.43226 0.645692 5.2771L6.11481 1.06726C6.28487 0.936481 6.49028 0.854231 6.70732 0.830007C6.92436 0.805783 7.14416 0.840576 7.34132 0.930365C7.53848 1.02015 7.70496 1.16127 7.82152 1.33742C7.93808 1.51356 7.99995 1.71754 8 1.92578L8 11.2029Z" fill="#6E6D7A"/>
</svg>
