<svg xmlns="http://www.w3.org/2000/svg" viewBox="0 0 67.9 67.9"><defs><style>.cls-1{fill:#fff;}</style></defs><title>Donation white</title><g id="Layer_2" data-name="Layer 2"><g id="Layer_1-2" data-name="Layer 1"><path class="cls-1" d="M64.5,17H55a9.44,9.44,0,0,0,2.71-6.79A10,10,0,0,0,47.53,0C44.13,0,38,3.06,34,7.13,29.88,3.06,23.76,0,20.37,0A10,10,0,0,0,10.18,10.18,9.45,9.45,0,0,0,12.9,17H3.39A3.21,3.21,0,0,0,0,20.37v9.51a.73.73,0,0,0,.68.67H29.2a1.44,1.44,0,0,0,1.35-1.35V18.33A1.46,1.46,0,0,1,31.91,17H36a1.45,1.45,0,0,1,1.35,1.36V29.2a1.45,1.45,0,0,0,1.36,1.35H67.22a.73.73,0,0,0,.68-.67V20.37A3.21,3.21,0,0,0,64.5,17ZM20.37,13.58a3.21,3.21,0,0,1-3.4-3.4,3.21,3.21,0,0,1,3.4-3.39c2,0,8.15,4.07,9.84,6.11C29.2,13.24,20.37,13.58,20.37,13.58Zm27.16,0s-8.83-.34-9.85-.68c2-2.38,7.81-6.11,9.85-6.11a3.2,3.2,0,0,1,3.39,3.39A3.2,3.2,0,0,1,47.53,13.58Z"/><path class="cls-1" d="M29.2,37.34H4.07a.73.73,0,0,0-.68.68V64.5a3.21,3.21,0,0,0,3.4,3.4H29.2a1.45,1.45,0,0,0,1.35-1.36V38.7A1.45,1.45,0,0,0,29.2,37.34Z"/><path class="cls-1" d="M63.82,37.34H38.7a1.46,1.46,0,0,0-1.36,1.36V66.54A1.46,1.46,0,0,0,38.7,67.9H61.11a3.2,3.2,0,0,0,3.39-3.4V38A.73.73,0,0,0,63.82,37.34Z"/></g></g></svg>