<svg width="8" height="13" viewBox="0 0 8 13" fill="none" xmlns="http://www.w3.org/2000/svg">
<path d="M0 11.8423C4.66147e-05 12.0608 0.0619233 12.2748 0.17848 12.4597C0.295037 12.6445 0.461516 12.7926 0.658679 12.8868C0.855842 12.981 1.07564 13.0176 1.29268 12.9921C1.50972 12.9667 1.71513 12.8804 1.88519 12.7432L7.35431 8.32665C7.55593 8.16384 7.71856 7.95797 7.83029 7.72414C7.94201 7.49031 8 7.23445 8 6.9753C8 6.71615 7.94201 6.46028 7.83029 6.22645C7.71856 5.99262 7.55593 5.78675 7.35431 5.62394L1.88519 1.20626C1.71513 1.06903 1.50972 0.982714 1.29268 0.957294C1.07564 0.931875 0.855842 0.968385 0.658679 1.06261C0.461516 1.15683 0.295037 1.30492 0.17848 1.48975C0.0619233 1.67459 4.66147e-05 1.88864 0 2.10716L0 11.8423Z" fill="#F89B1C"/>
</svg>
