<svg xmlns="http://www.w3.org/2000/svg" xmlns:xlink="http://www.w3.org/1999/xlink" viewBox="0 0 70.99 66.28"><defs><style>.cls-1{fill:url(#linear-gradient);}.cls-2{fill:url(#linear-gradient-2);}</style><linearGradient id="linear-gradient" x1="6.78" y1="11.36" x2="62.55" y2="67.14" gradientUnits="userSpaceOnUse"><stop offset="0.17" stop-color="#0d7494"/><stop offset="0.27" stop-color="#0c6584"/><stop offset="0.47" stop-color="#083d5c"/><stop offset="0.5" stop-color="#083756"/></linearGradient><linearGradient id="linear-gradient-2" x1="49.65" y1="29.76" x2="66.07" y2="46.17" xlink:href="#linear-gradient"/></defs><title>Expenses</title><g id="Layer_2" data-name="Layer 2"><g id="Layer_1-2" data-name="Layer 1"><path class="cls-1" d="M46.71,44.9h0a2,2,0,0,1-1.39-.59l-4.93-4.92a2,2,0,0,1,0-2.85l4.93-4.92A2,2,0,0,1,46.71,31H69.33V22.3a10.11,10.11,0,0,0-10-10.08L43,1.31A7.84,7.84,0,0,0,32.12,3.47L30.91,5.3,25.12,3.23A8.68,8.68,0,0,0,14.05,8.45L12.7,12.22H10.08A10.11,10.11,0,0,0,0,22.3V56.2A10.11,10.11,0,0,0,10.08,66.28H59.25A10.1,10.1,0,0,0,69.33,56.2V44.9H46.71ZM35.85,6.51a3.92,3.92,0,0,1,5.41-1.08l10.18,6.79H50.18L35.55,7ZM17.79,12.22l.57-1.58A4.89,4.89,0,0,1,24.6,7.69l12.61,4.53Z"/><path class="cls-2" d="M67.63,32.71H47.32a1.49,1.49,0,0,0-1.06.44L42.39,37a1.19,1.19,0,0,0-.07,1.83l3.94,3.93a1.54,1.54,0,0,0,1.06.45H67.63A3.38,3.38,0,0,0,71,39.86V36.07A3.37,3.37,0,0,0,67.63,32.71ZM50.27,41.29a3.08,3.08,0,1,1,3.08-3.08A3.08,3.08,0,0,1,50.27,41.29Z"/></g></g></svg>