<svg xmlns="http://www.w3.org/2000/svg" viewBox="0 0 52.87 70"><defs><style>.cls-1{fill:#fff;}</style></defs><title>Financing white</title><g id="Layer_2" data-name="Layer 2"><g id="Layer_1-2" data-name="Layer 1"><circle class="cls-1" cx="21.25" cy="41.25" r="1.25"/><path class="cls-1" d="M26.25,31.25a15,15,0,1,0,15,15A15,15,0,0,0,26.25,31.25Zm-5,6.25a3.75,3.75,0,1,1-3.75,3.75A3.75,3.75,0,0,1,21.25,37.5ZM19.63,54.63l-1.76-1.77,15-15,1.76,1.76ZM31.25,55A3.75,3.75,0,1,1,35,51.25,3.75,3.75,0,0,1,31.25,55Z"/><circle class="cls-1" cx="31.25" cy="51.25" r="1.25"/><path class="cls-1" d="M32.51,0a3.2,3.2,0,0,0-2.35,1,5.77,5.77,0,0,1-7.81,0,3.3,3.3,0,0,0-4.68,0V1a6.71,6.71,0,0,1-2,1.22l5.15,10.3h11L36.87,2.2a6.61,6.61,0,0,1-2-1.22A3.24,3.24,0,0,0,32.51,0Z"/><path class="cls-1" d="M52.5,43.75A23.78,23.78,0,0,0,28.75,20h-5A23.77,23.77,0,0,0,0,43.75v22.5A3.75,3.75,0,0,0,3.75,70h45a3.75,3.75,0,0,0,3.75-3.75Zm-26.25,20a17.5,17.5,0,1,1,17.5-17.5A17.5,17.5,0,0,1,26.25,63.75Z"/><path class="cls-1" d="M33.75,16.25A1.25,1.25,0,0,0,32.5,15H20a1.25,1.25,0,0,0,0,2.5H32.5A1.25,1.25,0,0,0,33.75,16.25Z"/><path class="cls-1" d="M52.87,16.87A5.15,5.15,0,0,1,49,16a2.88,2.88,0,0,0-4,.53c0,.07-.1.14-.14.21a5.21,5.21,0,0,1-3.4,2.14,5,5,0,0,1-3.93-.84A3.86,3.86,0,0,0,36,17.47a3.6,3.6,0,0,0,.21-1.22,3.91,3.91,0,0,0-.49-1.86,5.53,5.53,0,0,1,2.28-.3,2.87,2.87,0,0,0,3.21-2.49,1.94,1.94,0,0,0,0-.24,5.31,5.31,0,0,1,1.88-3.55A5.21,5.21,0,0,1,47,6.59a3,3,0,0,0,2.22-.65L50.8,7.85A5.14,5.14,0,0,1,47,9.09a2.84,2.84,0,0,0-3.21,2.41c0,.1,0,.2,0,.3a5.31,5.31,0,0,1-1.88,3.55,4.78,4.78,0,0,1-2,1.06,2.37,2.37,0,0,0,1.09,0,2.87,2.87,0,0,0,1.92-1.29,5.31,5.31,0,0,1,7.33-1.3,2.87,2.87,0,0,0,2.25.55Z"/></g></g></svg>