<svg xmlns="http://www.w3.org/2000/svg" xmlns:xlink="http://www.w3.org/1999/xlink" viewBox="0 0 49.88 52.98"><defs><style>.cls-1{fill:url(#linear-gradient);}</style><linearGradient id="linear-gradient" x1="0.03" y1="2.59" x2="39.8" y2="42.36" gradientUnits="userSpaceOnUse"><stop offset="0.17" stop-color="#0d7494"/><stop offset="0.27" stop-color="#0c6584"/><stop offset="0.47" stop-color="#083d5c"/><stop offset="0.5" stop-color="#083756"/></linearGradient></defs><title>Logout  active</title><g id="Layer_2" data-name="Layer 2"><g id="Layer_1-2" data-name="Layer 1"><path class="cls-1" d="M49.77,22.89a1.63,1.63,0,0,1-.33.49l-4.38,4.39a1.5,1.5,0,0,1-2.13-2.12h0l1.83-1.83H29.38a1.5,1.5,0,0,1,0-3H44.76L42.93,19a1.5,1.5,0,0,1,2.13-2.12l4.38,4.39a1.63,1.63,0,0,1,.33.49v0a1.38,1.38,0,0,1,0,1.09ZM38.65,29.82a1.5,1.5,0,0,0-1.5,1.5v8.82a1.5,1.5,0,0,1-1.5,1.5H24.9V13.43a4.5,4.5,0,0,0-2.63-4.09L8.39,3H35.65a1.5,1.5,0,0,1,1.5,1.5v8.82a1.5,1.5,0,0,0,3,0V4.5A4.51,4.51,0,0,0,35.65,0H4.5A4.46,4.46,0,0,0,0,4.25c0,.12,0,.21,0,.25V40.14a2.26,2.26,0,0,0,0,.26,4.78,4.78,0,0,0,.06.53c0,.11,0,.22.07.33h0A6.46,6.46,0,0,0,3.8,45.84l14.73,6.73A4.5,4.5,0,0,0,20.4,53a4.46,4.46,0,0,0,2.43-.72,4.51,4.51,0,0,0,2.07-3.79V44.64H35.65a4.5,4.5,0,0,0,4.5-4.5V31.32a1.5,1.5,0,0,0-1.5-1.5Z"/></g></g></svg>