<svg width="31" height="20" viewBox="0 0 31 20" fill="none" xmlns="http://www.w3.org/2000/svg">
<path d="M25.3372 15.9706H10.327H7.2663C7.34872 15.8239 7.412 15.6657 7.45575 15.4992C7.45581 15.499 7.45587 15.4988 7.45594 15.4985C7.47672 15.4194 7.49297 15.3387 7.50406 15.2562C7.50497 15.2496 7.5063 15.2431 7.50709 15.2363C7.51721 15.1548 7.52406 15.0721 7.52406 14.9878C7.52406 14.9858 7.52375 14.9838 7.52375 14.9817C7.52375 14.9801 7.52406 14.9785 7.52406 14.9769V6.04684H21.8022V5.01581H7.52412V4.0215C7.52412 2.90513 6.61569 1.99683 5.49932 1.99683H3.80525C1.7087 1.99683 0.00281526 3.70259 0.00281526 5.79927V16.4648C-0.00191203 16.562 -3.32419e-05 16.6512 0.00366374 16.7375C0.00366374 16.7433 0.00281526 16.7489 0.00281526 16.7545C0.00281526 16.7609 0.00378496 16.7672 0.00378496 16.7736C0.00396678 16.7771 0.00360314 16.7812 0.00378496 16.7846H0.00433042C0.0208153 18.5602 1.4687 19.9999 3.24798 19.9999H10.8426V18.2067H9.81152V18.9689H3.24798C2.02713 18.9689 1.03385 17.9755 1.03385 16.7545C1.03385 15.568 1.78476 14.5563 2.83519 14.1618C2.8601 14.1533 2.88658 14.1458 2.91216 14.1378V14.2315V17.0016H3.42768H5.51041H10.327H26.3682V9.18249H25.3372V15.9706ZM3.37562 12.9781L3.35113 12.9799C3.33137 12.9829 3.31356 12.9875 3.29398 12.9907C3.16446 13.0081 3.03719 13.0322 2.9121 13.0625C2.81216 13.0867 2.71319 13.1132 2.61646 13.1452C1.93634 13.3546 1.42021 13.6886 1.03379 14.0801V5.79927C1.03379 4.27108 2.27701 3.02786 3.80519 3.02786H5.49926C6.04726 3.02786 6.49302 3.47362 6.49302 4.0215V5.01581V6.04684V13.2148C6.19908 13.0483 5.86041 12.9521 5.49926 12.9521H3.94319H3.80525C3.65986 12.9521 3.51683 12.9621 3.37562 12.9781Z" fill="#0486B5"/>
<path d="M13.9171 7.93579H10.3271V8.96689H13.9171V7.93579Z" fill="#0486B5"/>
<path d="M18.948 13.3475H10.3271V14.3786H18.948V13.3475Z" fill="#0486B5"/>
<path d="M21.576 13.3475H20.0195V14.3786H21.576V13.3475Z" fill="#0486B5"/>
<path d="M19.5133 11.238C19.4725 11.4859 19.5594 11.7343 19.7459 11.9027C19.8831 12.0263 20.0576 12.0922 20.2371 12.0922C20.3017 12.0922 20.367 12.0836 20.4313 12.0661L22.0742 11.6179L30.6385 2.05401L29.8797 1.37467L30.4947 0.68776L29.7265 0L29.1116 0.686851L28.3526 0.00733349L19.7904 9.56943L19.5133 11.238ZM28.4332 1.46328L29.1826 2.13431L28.6456 2.73395L27.8789 2.08237L28.4332 1.46328ZM20.7586 10.0342L27.1909 2.85074L27.9577 3.50232L21.5094 10.7034L20.6066 10.9496L20.7586 10.0342Z" fill="#0486B5"/>
</svg>
