<svg xmlns="http://www.w3.org/2000/svg" xmlns:xlink="http://www.w3.org/1999/xlink" viewBox="0 0 65.95 65.95"><defs><style>.cls-1{fill:url(#linear-gradient);}.cls-2{fill:url(#linear-gradient-2);}</style><linearGradient id="linear-gradient" x1="22.12" y1="4.6" x2="43.83" y2="26.32" gradientUnits="userSpaceOnUse"><stop offset="0.17" stop-color="#0d7494"/><stop offset="0.27" stop-color="#0c6584"/><stop offset="0.47" stop-color="#083d5c"/><stop offset="0.5" stop-color="#083756"/></linearGradient><linearGradient id="linear-gradient-2" x1="16.06" y1="27.71" x2="59.56" y2="71.21" xlink:href="#linear-gradient"/></defs><title>Report  Active </title><g id="Layer_2" data-name="Layer 2"><g id="Layer_1-2" data-name="Layer 1"><path class="cls-1" d="M9.79,30.91a5.73,5.73,0,0,0,4-1.63l5.72,2.86a5.69,5.69,0,0,0-.07.71,5.8,5.8,0,1,0,11-2.49l7.76-7.76a5.63,5.63,0,0,0,2.48.59,5.72,5.72,0,0,0,5.51-7.52L53,10.62A5.79,5.79,0,1,0,50.36,5.8a5.68,5.68,0,0,0,.29,1.71l-6.74,5.06a5.71,5.71,0,0,0-3.21-1,5.8,5.8,0,0,0-5.79,5.8,5.72,5.72,0,0,0,.58,2.48l-7.76,7.76a5.76,5.76,0,0,0-2.48-.58,5.82,5.82,0,0,0-4,1.63l-5.71-2.86c0-.23.07-.46.07-.7a5.8,5.8,0,1,0-5.8,5.79Z"/><path class="cls-2" d="M64,62.09H62V21.25A1.94,1.94,0,0,0,60,19.32H52.3a1.94,1.94,0,0,0-1.94,1.93V62.09H46.5V32.85a1.93,1.93,0,0,0-1.93-1.94H36.84a1.93,1.93,0,0,0-1.93,1.94V62.09H31V48.3a1.93,1.93,0,0,0-1.93-1.93H21.38a1.93,1.93,0,0,0-1.93,1.93V62.09H15.59V40.58a1.94,1.94,0,0,0-1.94-1.94H5.93A1.94,1.94,0,0,0,4,40.58V62.09H1.93a1.93,1.93,0,1,0,0,3.86H64a1.93,1.93,0,0,0,0-3.86Z"/></g></g></svg>