<svg xmlns="http://www.w3.org/2000/svg" xmlns:xlink="http://www.w3.org/1999/xlink" viewBox="0 0 61.95 61.95"><defs><style>.cls-1{fill:url(#linear-gradient);}.cls-2{fill:url(#linear-gradient-2);}</style><linearGradient id="linear-gradient" x1="9.07" y1="9.07" x2="52.88" y2="52.88" gradientUnits="userSpaceOnUse"><stop offset="0.17" stop-color="#0d7494"/><stop offset="0.27" stop-color="#0c6584"/><stop offset="0.47" stop-color="#083d5c"/><stop offset="0.5" stop-color="#083756"/></linearGradient><linearGradient id="linear-gradient-2" x1="20.73" y1="21.77" x2="41.22" y2="42.27" xlink:href="#linear-gradient"/></defs><title>Settings Active </title><g id="Layer_2" data-name="Layer 2"><g id="Layer_1-2" data-name="Layer 1"><path class="cls-1" d="M56.8,24.83a26.52,26.52,0,0,0-3.22-7.78L56,12.2,49.75,5.94,44.9,8.37a26.25,26.25,0,0,0-7.78-3.22L35.4,0H26.55L24.83,5.15a26.25,26.25,0,0,0-7.78,3.22L12.2,5.94,5.94,12.2l2.43,4.85a26.25,26.25,0,0,0-3.22,7.78L0,26.55V35.4l5.15,1.72A26.25,26.25,0,0,0,8.37,44.9L5.94,49.75,12.2,56l4.85-2.43a26.52,26.52,0,0,0,7.78,3.22L26.55,62H35.4l1.72-5.15a26.52,26.52,0,0,0,7.78-3.22L49.75,56,56,49.75,53.58,44.9a26.52,26.52,0,0,0,3.22-7.78L62,35.4V26.55ZM31,50.89A19.92,19.92,0,1,1,50.89,31,19.92,19.92,0,0,1,31,50.89Z"/><path class="cls-2" d="M42,28.53a8.28,8.28,0,0,0-.89-3.75l-2.93-5.85a2.21,2.21,0,0,0-2-1.23H35.4v8.85a2.21,2.21,0,0,1-2.21,2.21H28.76a2.21,2.21,0,0,1-2.21-2.21V17.7h-.84a2.21,2.21,0,0,0-2,1.23L20.8,24.78a8.39,8.39,0,0,0,5.75,11.94V48.09a17,17,0,0,0,8.85,0V36.72A8.38,8.38,0,0,0,42,28.53Z"/></g></g></svg>